G04 MADE WITH FRITZING*
G04 WWW.FRITZING.ORG*
G04 DOUBLE SIDED*
G04 HOLES PLATED*
G04 CONTOUR ON CENTER OF CONTOUR VECTOR*
%ASAXBY*%
%FSLAX23Y23*%
%MOIN*%
%OFA0B0*%
%SFA1.0B1.0*%
%ADD10C,0.010000*%
%ADD11R,0.001000X0.001000*%
%LNSILK1*%
G90*
G70*
G54D10*
X914Y375D02*
X1318Y375D01*
D02*
X482Y337D02*
X79Y337D01*
D02*
X78Y371D02*
X482Y371D01*
D02*
X1313Y333D02*
X910Y333D01*
D02*
X534Y412D02*
X834Y412D01*
D02*
X834Y412D02*
X834Y512D01*
D02*
X534Y512D02*
X534Y412D01*
D02*
X899Y335D02*
X495Y335D01*
G54D11*
X0Y707D02*
X1327Y707D01*
X0Y706D02*
X1327Y706D01*
X0Y705D02*
X1327Y705D01*
X0Y704D02*
X1327Y704D01*
X0Y703D02*
X1327Y703D01*
X0Y702D02*
X1327Y702D01*
X0Y701D02*
X1327Y701D01*
X0Y700D02*
X1327Y700D01*
X0Y699D02*
X7Y699D01*
X73Y699D02*
X82Y699D01*
X476Y699D02*
X485Y699D01*
X909Y699D02*
X918Y699D01*
X1312Y699D02*
X1327Y699D01*
X0Y698D02*
X7Y698D01*
X73Y698D02*
X82Y698D01*
X476Y698D02*
X485Y698D01*
X909Y698D02*
X918Y698D01*
X1312Y698D02*
X1327Y698D01*
X0Y697D02*
X7Y697D01*
X73Y697D02*
X82Y697D01*
X476Y697D02*
X485Y697D01*
X909Y697D02*
X918Y697D01*
X1312Y697D02*
X1327Y697D01*
X0Y696D02*
X7Y696D01*
X73Y696D02*
X82Y696D01*
X476Y696D02*
X485Y696D01*
X909Y696D02*
X918Y696D01*
X1312Y696D02*
X1327Y696D01*
X0Y695D02*
X7Y695D01*
X73Y695D02*
X82Y695D01*
X476Y695D02*
X485Y695D01*
X909Y695D02*
X918Y695D01*
X1312Y695D02*
X1327Y695D01*
X0Y694D02*
X7Y694D01*
X73Y694D02*
X82Y694D01*
X476Y694D02*
X485Y694D01*
X909Y694D02*
X918Y694D01*
X1312Y694D02*
X1327Y694D01*
X0Y693D02*
X7Y693D01*
X73Y693D02*
X82Y693D01*
X476Y693D02*
X485Y693D01*
X909Y693D02*
X918Y693D01*
X1312Y693D02*
X1327Y693D01*
X0Y692D02*
X7Y692D01*
X73Y692D02*
X82Y692D01*
X476Y692D02*
X482Y692D01*
X909Y692D02*
X918Y692D01*
X1312Y692D02*
X1327Y692D01*
X0Y691D02*
X7Y691D01*
X73Y691D02*
X80Y691D01*
X476Y691D02*
X479Y691D01*
X909Y691D02*
X918Y691D01*
X1312Y691D02*
X1327Y691D01*
X0Y690D02*
X7Y690D01*
X73Y690D02*
X77Y690D01*
X476Y690D02*
X477Y690D01*
X910Y690D02*
X918Y690D01*
X1312Y690D02*
X1327Y690D01*
X0Y689D02*
X7Y689D01*
X73Y689D02*
X75Y689D01*
X912Y689D02*
X918Y689D01*
X1312Y689D02*
X1327Y689D01*
X0Y688D02*
X7Y688D01*
X73Y688D02*
X73Y688D01*
X914Y688D02*
X918Y688D01*
X1312Y688D02*
X1327Y688D01*
X0Y687D02*
X7Y687D01*
X915Y687D02*
X918Y687D01*
X1312Y687D02*
X1327Y687D01*
X0Y686D02*
X7Y686D01*
X917Y686D02*
X918Y686D01*
X1312Y686D02*
X1327Y686D01*
X0Y685D02*
X7Y685D01*
X918Y685D02*
X918Y685D01*
X1312Y685D02*
X1327Y685D01*
X0Y684D02*
X7Y684D01*
X1312Y684D02*
X1327Y684D01*
X0Y683D02*
X7Y683D01*
X1312Y683D02*
X1327Y683D01*
X0Y682D02*
X7Y682D01*
X1312Y682D02*
X1327Y682D01*
X0Y681D02*
X7Y681D01*
X1312Y681D02*
X1327Y681D01*
X0Y680D02*
X7Y680D01*
X1312Y680D02*
X1327Y680D01*
X0Y679D02*
X7Y679D01*
X1312Y679D02*
X1327Y679D01*
X0Y678D02*
X7Y678D01*
X1312Y678D02*
X1327Y678D01*
X0Y677D02*
X7Y677D01*
X1312Y677D02*
X1327Y677D01*
X0Y676D02*
X7Y676D01*
X1312Y676D02*
X1327Y676D01*
X0Y675D02*
X7Y675D01*
X1312Y675D02*
X1327Y675D01*
X0Y674D02*
X7Y674D01*
X1312Y674D02*
X1327Y674D01*
X0Y673D02*
X7Y673D01*
X1312Y673D02*
X1327Y673D01*
X0Y672D02*
X7Y672D01*
X1312Y672D02*
X1327Y672D01*
X0Y671D02*
X7Y671D01*
X1312Y671D02*
X1327Y671D01*
X0Y670D02*
X7Y670D01*
X1312Y670D02*
X1327Y670D01*
X0Y669D02*
X7Y669D01*
X1312Y669D02*
X1327Y669D01*
X0Y668D02*
X7Y668D01*
X1312Y668D02*
X1327Y668D01*
X0Y667D02*
X7Y667D01*
X1312Y667D02*
X1327Y667D01*
X0Y666D02*
X7Y666D01*
X1312Y666D02*
X1327Y666D01*
X0Y665D02*
X7Y665D01*
X1312Y665D02*
X1327Y665D01*
X0Y664D02*
X7Y664D01*
X1312Y664D02*
X1327Y664D01*
X0Y663D02*
X7Y663D01*
X1312Y663D02*
X1327Y663D01*
X0Y662D02*
X7Y662D01*
X1312Y662D02*
X1327Y662D01*
X0Y661D02*
X7Y661D01*
X1312Y661D02*
X1327Y661D01*
X0Y660D02*
X7Y660D01*
X1312Y660D02*
X1327Y660D01*
X0Y659D02*
X7Y659D01*
X1312Y659D02*
X1327Y659D01*
X0Y658D02*
X7Y658D01*
X1312Y658D02*
X1327Y658D01*
X0Y657D02*
X7Y657D01*
X1312Y657D02*
X1327Y657D01*
X0Y656D02*
X7Y656D01*
X1312Y656D02*
X1327Y656D01*
X0Y655D02*
X7Y655D01*
X1312Y655D02*
X1327Y655D01*
X0Y654D02*
X7Y654D01*
X1312Y654D02*
X1327Y654D01*
X0Y653D02*
X7Y653D01*
X1312Y653D02*
X1327Y653D01*
X0Y652D02*
X7Y652D01*
X1312Y652D02*
X1327Y652D01*
X0Y651D02*
X7Y651D01*
X1312Y651D02*
X1327Y651D01*
X0Y650D02*
X7Y650D01*
X1312Y650D02*
X1327Y650D01*
X0Y649D02*
X7Y649D01*
X1312Y649D02*
X1327Y649D01*
X0Y648D02*
X7Y648D01*
X1312Y648D02*
X1327Y648D01*
X0Y647D02*
X7Y647D01*
X1312Y647D02*
X1327Y647D01*
X0Y646D02*
X7Y646D01*
X1312Y646D02*
X1327Y646D01*
X0Y645D02*
X7Y645D01*
X1312Y645D02*
X1327Y645D01*
X0Y644D02*
X7Y644D01*
X1312Y644D02*
X1327Y644D01*
X0Y643D02*
X7Y643D01*
X1312Y643D02*
X1327Y643D01*
X0Y642D02*
X7Y642D01*
X1312Y642D02*
X1327Y642D01*
X0Y641D02*
X7Y641D01*
X1312Y641D02*
X1327Y641D01*
X0Y640D02*
X7Y640D01*
X1312Y640D02*
X1327Y640D01*
X0Y639D02*
X7Y639D01*
X1312Y639D02*
X1327Y639D01*
X0Y638D02*
X7Y638D01*
X1312Y638D02*
X1327Y638D01*
X0Y637D02*
X7Y637D01*
X1312Y637D02*
X1327Y637D01*
X0Y636D02*
X7Y636D01*
X1312Y636D02*
X1327Y636D01*
X0Y635D02*
X7Y635D01*
X1312Y635D02*
X1327Y635D01*
X0Y634D02*
X7Y634D01*
X1312Y634D02*
X1327Y634D01*
X0Y633D02*
X7Y633D01*
X1312Y633D02*
X1327Y633D01*
X0Y632D02*
X7Y632D01*
X1312Y632D02*
X1327Y632D01*
X0Y631D02*
X7Y631D01*
X1312Y631D02*
X1327Y631D01*
X0Y630D02*
X7Y630D01*
X1312Y630D02*
X1327Y630D01*
X0Y629D02*
X7Y629D01*
X1312Y629D02*
X1327Y629D01*
X0Y628D02*
X7Y628D01*
X1312Y628D02*
X1327Y628D01*
X0Y627D02*
X7Y627D01*
X1312Y627D02*
X1327Y627D01*
X0Y626D02*
X7Y626D01*
X1312Y626D02*
X1327Y626D01*
X0Y625D02*
X7Y625D01*
X1312Y625D02*
X1327Y625D01*
X0Y624D02*
X7Y624D01*
X1312Y624D02*
X1327Y624D01*
X0Y623D02*
X7Y623D01*
X1312Y623D02*
X1327Y623D01*
X0Y622D02*
X7Y622D01*
X918Y622D02*
X918Y622D01*
X1312Y622D02*
X1327Y622D01*
X0Y621D02*
X7Y621D01*
X917Y621D02*
X918Y621D01*
X1312Y621D02*
X1327Y621D01*
X0Y620D02*
X7Y620D01*
X915Y620D02*
X918Y620D01*
X1312Y620D02*
X1327Y620D01*
X0Y619D02*
X7Y619D01*
X73Y619D02*
X73Y619D01*
X913Y619D02*
X918Y619D01*
X1312Y619D02*
X1327Y619D01*
X0Y618D02*
X7Y618D01*
X73Y618D02*
X75Y618D01*
X911Y618D02*
X918Y618D01*
X1312Y618D02*
X1327Y618D01*
X0Y617D02*
X7Y617D01*
X73Y617D02*
X78Y617D01*
X476Y617D02*
X478Y617D01*
X909Y617D02*
X918Y617D01*
X1312Y617D02*
X1327Y617D01*
X0Y616D02*
X7Y616D01*
X73Y616D02*
X80Y616D01*
X476Y616D02*
X480Y616D01*
X909Y616D02*
X918Y616D01*
X1312Y616D02*
X1327Y616D01*
X0Y615D02*
X7Y615D01*
X73Y615D02*
X82Y615D01*
X476Y615D02*
X483Y615D01*
X909Y615D02*
X918Y615D01*
X1312Y615D02*
X1327Y615D01*
X0Y614D02*
X7Y614D01*
X73Y614D02*
X82Y614D01*
X476Y614D02*
X485Y614D01*
X909Y614D02*
X918Y614D01*
X1312Y614D02*
X1327Y614D01*
X0Y613D02*
X7Y613D01*
X73Y613D02*
X82Y613D01*
X476Y613D02*
X485Y613D01*
X909Y613D02*
X918Y613D01*
X1312Y613D02*
X1327Y613D01*
X0Y612D02*
X7Y612D01*
X73Y612D02*
X82Y612D01*
X476Y612D02*
X485Y612D01*
X909Y612D02*
X918Y612D01*
X1312Y612D02*
X1327Y612D01*
X0Y611D02*
X7Y611D01*
X73Y611D02*
X82Y611D01*
X476Y611D02*
X485Y611D01*
X909Y611D02*
X918Y611D01*
X1312Y611D02*
X1327Y611D01*
X0Y610D02*
X7Y610D01*
X73Y610D02*
X82Y610D01*
X476Y610D02*
X485Y610D01*
X909Y610D02*
X918Y610D01*
X1312Y610D02*
X1327Y610D01*
X0Y609D02*
X7Y609D01*
X73Y609D02*
X82Y609D01*
X476Y609D02*
X485Y609D01*
X909Y609D02*
X918Y609D01*
X1312Y609D02*
X1327Y609D01*
X0Y608D02*
X7Y608D01*
X73Y608D02*
X82Y608D01*
X476Y608D02*
X485Y608D01*
X909Y608D02*
X918Y608D01*
X1312Y608D02*
X1327Y608D01*
X0Y607D02*
X7Y607D01*
X73Y607D02*
X82Y607D01*
X476Y607D02*
X485Y607D01*
X909Y607D02*
X918Y607D01*
X1312Y607D02*
X1327Y607D01*
X0Y606D02*
X7Y606D01*
X73Y606D02*
X82Y606D01*
X476Y606D02*
X485Y606D01*
X909Y606D02*
X918Y606D01*
X1312Y606D02*
X1327Y606D01*
X0Y605D02*
X7Y605D01*
X73Y605D02*
X82Y605D01*
X476Y605D02*
X485Y605D01*
X909Y605D02*
X918Y605D01*
X1312Y605D02*
X1327Y605D01*
X0Y604D02*
X7Y604D01*
X73Y604D02*
X82Y604D01*
X476Y604D02*
X485Y604D01*
X909Y604D02*
X918Y604D01*
X1312Y604D02*
X1327Y604D01*
X0Y603D02*
X7Y603D01*
X73Y603D02*
X82Y603D01*
X476Y603D02*
X485Y603D01*
X909Y603D02*
X918Y603D01*
X1312Y603D02*
X1327Y603D01*
X0Y602D02*
X7Y602D01*
X73Y602D02*
X82Y602D01*
X476Y602D02*
X485Y602D01*
X909Y602D02*
X918Y602D01*
X1312Y602D02*
X1327Y602D01*
X0Y601D02*
X7Y601D01*
X73Y601D02*
X82Y601D01*
X476Y601D02*
X485Y601D01*
X909Y601D02*
X918Y601D01*
X1312Y601D02*
X1327Y601D01*
X0Y600D02*
X7Y600D01*
X73Y600D02*
X82Y600D01*
X476Y600D02*
X485Y600D01*
X909Y600D02*
X918Y600D01*
X1312Y600D02*
X1327Y600D01*
X0Y599D02*
X7Y599D01*
X73Y599D02*
X82Y599D01*
X476Y599D02*
X485Y599D01*
X909Y599D02*
X918Y599D01*
X1312Y599D02*
X1327Y599D01*
X0Y598D02*
X7Y598D01*
X73Y598D02*
X82Y598D01*
X476Y598D02*
X485Y598D01*
X909Y598D02*
X918Y598D01*
X1312Y598D02*
X1327Y598D01*
X0Y597D02*
X7Y597D01*
X73Y597D02*
X82Y597D01*
X476Y597D02*
X485Y597D01*
X909Y597D02*
X918Y597D01*
X1312Y597D02*
X1327Y597D01*
X0Y596D02*
X7Y596D01*
X73Y596D02*
X82Y596D01*
X476Y596D02*
X485Y596D01*
X909Y596D02*
X918Y596D01*
X1312Y596D02*
X1327Y596D01*
X0Y595D02*
X7Y595D01*
X73Y595D02*
X82Y595D01*
X476Y595D02*
X485Y595D01*
X909Y595D02*
X918Y595D01*
X1312Y595D02*
X1327Y595D01*
X0Y594D02*
X7Y594D01*
X73Y594D02*
X82Y594D01*
X476Y594D02*
X485Y594D01*
X909Y594D02*
X918Y594D01*
X1312Y594D02*
X1327Y594D01*
X0Y593D02*
X7Y593D01*
X73Y593D02*
X82Y593D01*
X476Y593D02*
X485Y593D01*
X909Y593D02*
X918Y593D01*
X1312Y593D02*
X1327Y593D01*
X0Y592D02*
X7Y592D01*
X73Y592D02*
X82Y592D01*
X476Y592D02*
X482Y592D01*
X909Y592D02*
X918Y592D01*
X1312Y592D02*
X1327Y592D01*
X0Y591D02*
X7Y591D01*
X73Y591D02*
X82Y591D01*
X476Y591D02*
X479Y591D01*
X909Y591D02*
X918Y591D01*
X1312Y591D02*
X1327Y591D01*
X0Y590D02*
X7Y590D01*
X73Y590D02*
X82Y590D01*
X476Y590D02*
X477Y590D01*
X909Y590D02*
X918Y590D01*
X1312Y590D02*
X1327Y590D01*
X0Y589D02*
X7Y589D01*
X73Y589D02*
X82Y589D01*
X909Y589D02*
X918Y589D01*
X1312Y589D02*
X1327Y589D01*
X0Y588D02*
X7Y588D01*
X73Y588D02*
X82Y588D01*
X909Y588D02*
X918Y588D01*
X1312Y588D02*
X1327Y588D01*
X0Y587D02*
X7Y587D01*
X73Y587D02*
X82Y587D01*
X909Y587D02*
X918Y587D01*
X1312Y587D02*
X1327Y587D01*
X0Y586D02*
X7Y586D01*
X73Y586D02*
X82Y586D01*
X909Y586D02*
X918Y586D01*
X1312Y586D02*
X1327Y586D01*
X0Y585D02*
X7Y585D01*
X73Y585D02*
X82Y585D01*
X909Y585D02*
X918Y585D01*
X1312Y585D02*
X1327Y585D01*
X0Y584D02*
X7Y584D01*
X73Y584D02*
X82Y584D01*
X660Y584D02*
X684Y584D01*
X706Y584D02*
X738Y584D01*
X756Y584D02*
X783Y584D01*
X807Y584D02*
X811Y584D01*
X835Y584D02*
X838Y584D01*
X870Y584D02*
X876Y584D01*
X909Y584D02*
X918Y584D01*
X1312Y584D02*
X1327Y584D01*
X0Y583D02*
X7Y583D01*
X73Y583D02*
X82Y583D01*
X658Y583D02*
X685Y583D01*
X706Y583D02*
X739Y583D01*
X756Y583D02*
X785Y583D01*
X806Y583D02*
X812Y583D01*
X834Y583D02*
X839Y583D01*
X868Y583D02*
X878Y583D01*
X909Y583D02*
X918Y583D01*
X1312Y583D02*
X1327Y583D01*
X0Y582D02*
X7Y582D01*
X73Y582D02*
X82Y582D01*
X657Y582D02*
X686Y582D01*
X706Y582D02*
X739Y582D01*
X756Y582D02*
X786Y582D01*
X806Y582D02*
X812Y582D01*
X834Y582D02*
X840Y582D01*
X867Y582D02*
X879Y582D01*
X909Y582D02*
X918Y582D01*
X1312Y582D02*
X1327Y582D01*
X0Y581D02*
X7Y581D01*
X73Y581D02*
X82Y581D01*
X657Y581D02*
X687Y581D01*
X706Y581D02*
X739Y581D01*
X756Y581D02*
X787Y581D01*
X806Y581D02*
X812Y581D01*
X834Y581D02*
X840Y581D01*
X866Y581D02*
X880Y581D01*
X909Y581D02*
X918Y581D01*
X1312Y581D02*
X1327Y581D01*
X0Y580D02*
X7Y580D01*
X73Y580D02*
X82Y580D01*
X656Y580D02*
X688Y580D01*
X706Y580D02*
X739Y580D01*
X756Y580D02*
X788Y580D01*
X806Y580D02*
X812Y580D01*
X834Y580D02*
X840Y580D01*
X865Y580D02*
X881Y580D01*
X909Y580D02*
X918Y580D01*
X1312Y580D02*
X1327Y580D01*
X0Y579D02*
X7Y579D01*
X73Y579D02*
X82Y579D01*
X656Y579D02*
X688Y579D01*
X706Y579D02*
X738Y579D01*
X756Y579D02*
X788Y579D01*
X806Y579D02*
X812Y579D01*
X834Y579D02*
X840Y579D01*
X865Y579D02*
X881Y579D01*
X909Y579D02*
X918Y579D01*
X1312Y579D02*
X1327Y579D01*
X0Y578D02*
X7Y578D01*
X73Y578D02*
X82Y578D01*
X656Y578D02*
X689Y578D01*
X706Y578D02*
X736Y578D01*
X756Y578D02*
X789Y578D01*
X806Y578D02*
X812Y578D01*
X834Y578D02*
X840Y578D01*
X864Y578D02*
X882Y578D01*
X909Y578D02*
X918Y578D01*
X1312Y578D02*
X1327Y578D01*
X0Y577D02*
X7Y577D01*
X73Y577D02*
X82Y577D01*
X656Y577D02*
X662Y577D01*
X682Y577D02*
X689Y577D01*
X706Y577D02*
X712Y577D01*
X756Y577D02*
X762Y577D01*
X782Y577D02*
X789Y577D01*
X806Y577D02*
X812Y577D01*
X834Y577D02*
X840Y577D01*
X864Y577D02*
X871Y577D01*
X875Y577D02*
X882Y577D01*
X909Y577D02*
X918Y577D01*
X1312Y577D02*
X1327Y577D01*
X0Y576D02*
X7Y576D01*
X73Y576D02*
X82Y576D01*
X656Y576D02*
X662Y576D01*
X683Y576D02*
X689Y576D01*
X706Y576D02*
X712Y576D01*
X756Y576D02*
X762Y576D01*
X783Y576D02*
X789Y576D01*
X806Y576D02*
X812Y576D01*
X834Y576D02*
X840Y576D01*
X863Y576D02*
X870Y576D01*
X876Y576D02*
X883Y576D01*
X909Y576D02*
X918Y576D01*
X1312Y576D02*
X1327Y576D01*
X0Y575D02*
X7Y575D01*
X73Y575D02*
X82Y575D01*
X656Y575D02*
X663Y575D01*
X683Y575D02*
X689Y575D01*
X706Y575D02*
X712Y575D01*
X756Y575D02*
X762Y575D01*
X783Y575D02*
X789Y575D01*
X806Y575D02*
X812Y575D01*
X834Y575D02*
X840Y575D01*
X863Y575D02*
X870Y575D01*
X876Y575D02*
X883Y575D01*
X909Y575D02*
X918Y575D01*
X1312Y575D02*
X1327Y575D01*
X0Y574D02*
X7Y574D01*
X73Y574D02*
X82Y574D01*
X656Y574D02*
X664Y574D01*
X683Y574D02*
X689Y574D01*
X706Y574D02*
X712Y574D01*
X756Y574D02*
X762Y574D01*
X783Y574D02*
X789Y574D01*
X806Y574D02*
X812Y574D01*
X834Y574D02*
X840Y574D01*
X862Y574D02*
X869Y574D01*
X877Y574D02*
X884Y574D01*
X909Y574D02*
X918Y574D01*
X1312Y574D02*
X1327Y574D01*
X0Y573D02*
X7Y573D01*
X73Y573D02*
X82Y573D01*
X657Y573D02*
X664Y573D01*
X684Y573D02*
X688Y573D01*
X706Y573D02*
X712Y573D01*
X756Y573D02*
X762Y573D01*
X783Y573D02*
X789Y573D01*
X806Y573D02*
X812Y573D01*
X834Y573D02*
X840Y573D01*
X862Y573D02*
X869Y573D01*
X877Y573D02*
X884Y573D01*
X909Y573D02*
X918Y573D01*
X1312Y573D02*
X1327Y573D01*
X0Y572D02*
X7Y572D01*
X73Y572D02*
X82Y572D01*
X657Y572D02*
X665Y572D01*
X706Y572D02*
X712Y572D01*
X756Y572D02*
X762Y572D01*
X783Y572D02*
X789Y572D01*
X806Y572D02*
X812Y572D01*
X834Y572D02*
X840Y572D01*
X861Y572D02*
X868Y572D01*
X878Y572D02*
X885Y572D01*
X909Y572D02*
X918Y572D01*
X1312Y572D02*
X1327Y572D01*
X0Y571D02*
X7Y571D01*
X73Y571D02*
X82Y571D01*
X658Y571D02*
X666Y571D01*
X706Y571D02*
X712Y571D01*
X756Y571D02*
X762Y571D01*
X783Y571D02*
X789Y571D01*
X806Y571D02*
X812Y571D01*
X834Y571D02*
X840Y571D01*
X861Y571D02*
X868Y571D01*
X878Y571D02*
X885Y571D01*
X909Y571D02*
X918Y571D01*
X1312Y571D02*
X1327Y571D01*
X0Y570D02*
X7Y570D01*
X73Y570D02*
X82Y570D01*
X659Y570D02*
X667Y570D01*
X706Y570D02*
X712Y570D01*
X756Y570D02*
X762Y570D01*
X783Y570D02*
X789Y570D01*
X806Y570D02*
X812Y570D01*
X833Y570D02*
X840Y570D01*
X860Y570D02*
X867Y570D01*
X879Y570D02*
X886Y570D01*
X909Y570D02*
X918Y570D01*
X1312Y570D02*
X1327Y570D01*
X0Y569D02*
X7Y569D01*
X73Y569D02*
X82Y569D01*
X660Y569D02*
X667Y569D01*
X706Y569D02*
X712Y569D01*
X756Y569D02*
X762Y569D01*
X783Y569D02*
X789Y569D01*
X806Y569D02*
X813Y569D01*
X833Y569D02*
X840Y569D01*
X860Y569D02*
X867Y569D01*
X879Y569D02*
X886Y569D01*
X909Y569D02*
X918Y569D01*
X1312Y569D02*
X1327Y569D01*
X0Y568D02*
X7Y568D01*
X73Y568D02*
X82Y568D01*
X660Y568D02*
X668Y568D01*
X706Y568D02*
X712Y568D01*
X756Y568D02*
X762Y568D01*
X782Y568D02*
X789Y568D01*
X806Y568D02*
X813Y568D01*
X833Y568D02*
X839Y568D01*
X859Y568D02*
X866Y568D01*
X880Y568D02*
X887Y568D01*
X909Y568D02*
X918Y568D01*
X1312Y568D02*
X1327Y568D01*
X0Y567D02*
X7Y567D01*
X73Y567D02*
X82Y567D01*
X661Y567D02*
X669Y567D01*
X706Y567D02*
X712Y567D01*
X756Y567D02*
X789Y567D01*
X807Y567D02*
X813Y567D01*
X832Y567D02*
X839Y567D01*
X859Y567D02*
X866Y567D01*
X880Y567D02*
X887Y567D01*
X909Y567D02*
X918Y567D01*
X1312Y567D02*
X1327Y567D01*
X0Y566D02*
X7Y566D01*
X73Y566D02*
X82Y566D01*
X662Y566D02*
X670Y566D01*
X706Y566D02*
X712Y566D01*
X756Y566D02*
X788Y566D01*
X807Y566D02*
X814Y566D01*
X832Y566D02*
X838Y566D01*
X858Y566D02*
X865Y566D01*
X881Y566D02*
X888Y566D01*
X909Y566D02*
X918Y566D01*
X1312Y566D02*
X1327Y566D01*
X0Y565D02*
X7Y565D01*
X73Y565D02*
X82Y565D01*
X663Y565D02*
X671Y565D01*
X706Y565D02*
X712Y565D01*
X756Y565D02*
X788Y565D01*
X808Y565D02*
X814Y565D01*
X832Y565D02*
X838Y565D01*
X858Y565D02*
X865Y565D01*
X881Y565D02*
X888Y565D01*
X909Y565D02*
X918Y565D01*
X1312Y565D02*
X1327Y565D01*
X0Y564D02*
X7Y564D01*
X73Y564D02*
X82Y564D01*
X663Y564D02*
X671Y564D01*
X706Y564D02*
X712Y564D01*
X756Y564D02*
X787Y564D01*
X808Y564D02*
X815Y564D01*
X831Y564D02*
X838Y564D01*
X858Y564D02*
X864Y564D01*
X882Y564D02*
X888Y564D01*
X909Y564D02*
X918Y564D01*
X1312Y564D02*
X1327Y564D01*
X0Y563D02*
X7Y563D01*
X73Y563D02*
X82Y563D01*
X664Y563D02*
X672Y563D01*
X706Y563D02*
X712Y563D01*
X756Y563D02*
X786Y563D01*
X808Y563D02*
X815Y563D01*
X831Y563D02*
X837Y563D01*
X857Y563D02*
X864Y563D01*
X882Y563D02*
X889Y563D01*
X909Y563D02*
X918Y563D01*
X1312Y563D02*
X1327Y563D01*
X0Y562D02*
X7Y562D01*
X73Y562D02*
X82Y562D01*
X665Y562D02*
X673Y562D01*
X706Y562D02*
X712Y562D01*
X756Y562D02*
X785Y562D01*
X809Y562D02*
X815Y562D01*
X830Y562D02*
X837Y562D01*
X857Y562D02*
X863Y562D01*
X883Y562D02*
X889Y562D01*
X909Y562D02*
X918Y562D01*
X1312Y562D02*
X1327Y562D01*
X0Y561D02*
X7Y561D01*
X73Y561D02*
X82Y561D01*
X666Y561D02*
X674Y561D01*
X706Y561D02*
X723Y561D01*
X756Y561D02*
X783Y561D01*
X809Y561D02*
X816Y561D01*
X830Y561D02*
X837Y561D01*
X857Y561D02*
X863Y561D01*
X883Y561D02*
X889Y561D01*
X909Y561D02*
X918Y561D01*
X1312Y561D02*
X1327Y561D01*
X0Y560D02*
X7Y560D01*
X73Y560D02*
X82Y560D01*
X667Y560D02*
X675Y560D01*
X706Y560D02*
X725Y560D01*
X756Y560D02*
X762Y560D01*
X768Y560D02*
X775Y560D01*
X810Y560D02*
X816Y560D01*
X830Y560D02*
X836Y560D01*
X856Y560D02*
X863Y560D01*
X883Y560D02*
X890Y560D01*
X909Y560D02*
X918Y560D01*
X1312Y560D02*
X1327Y560D01*
X0Y559D02*
X7Y559D01*
X73Y559D02*
X82Y559D01*
X667Y559D02*
X675Y559D01*
X706Y559D02*
X725Y559D01*
X756Y559D02*
X762Y559D01*
X768Y559D02*
X776Y559D01*
X810Y559D02*
X816Y559D01*
X829Y559D02*
X836Y559D01*
X856Y559D02*
X862Y559D01*
X884Y559D02*
X890Y559D01*
X909Y559D02*
X918Y559D01*
X1312Y559D02*
X1327Y559D01*
X0Y558D02*
X7Y558D01*
X73Y558D02*
X82Y558D01*
X668Y558D02*
X676Y558D01*
X706Y558D02*
X725Y558D01*
X756Y558D02*
X762Y558D01*
X769Y558D02*
X776Y558D01*
X810Y558D02*
X817Y558D01*
X829Y558D02*
X835Y558D01*
X856Y558D02*
X862Y558D01*
X884Y558D02*
X890Y558D01*
X909Y558D02*
X918Y558D01*
X1312Y558D02*
X1327Y558D01*
X0Y557D02*
X7Y557D01*
X73Y557D02*
X82Y557D01*
X669Y557D02*
X677Y557D01*
X706Y557D02*
X725Y557D01*
X756Y557D02*
X762Y557D01*
X770Y557D02*
X777Y557D01*
X811Y557D02*
X817Y557D01*
X828Y557D02*
X835Y557D01*
X856Y557D02*
X862Y557D01*
X884Y557D02*
X890Y557D01*
X909Y557D02*
X918Y557D01*
X1312Y557D02*
X1327Y557D01*
X0Y556D02*
X7Y556D01*
X73Y556D02*
X82Y556D01*
X670Y556D02*
X678Y556D01*
X706Y556D02*
X725Y556D01*
X756Y556D02*
X762Y556D01*
X770Y556D02*
X777Y556D01*
X811Y556D02*
X818Y556D01*
X828Y556D02*
X835Y556D01*
X856Y556D02*
X862Y556D01*
X884Y556D02*
X890Y556D01*
X909Y556D02*
X918Y556D01*
X1312Y556D02*
X1327Y556D01*
X0Y555D02*
X7Y555D01*
X73Y555D02*
X82Y555D01*
X670Y555D02*
X678Y555D01*
X706Y555D02*
X724Y555D01*
X756Y555D02*
X762Y555D01*
X771Y555D02*
X778Y555D01*
X811Y555D02*
X818Y555D01*
X828Y555D02*
X834Y555D01*
X856Y555D02*
X863Y555D01*
X883Y555D02*
X890Y555D01*
X909Y555D02*
X918Y555D01*
X1312Y555D02*
X1327Y555D01*
X0Y554D02*
X7Y554D01*
X73Y554D02*
X82Y554D01*
X671Y554D02*
X679Y554D01*
X706Y554D02*
X712Y554D01*
X756Y554D02*
X762Y554D01*
X771Y554D02*
X778Y554D01*
X812Y554D02*
X818Y554D01*
X827Y554D02*
X834Y554D01*
X857Y554D02*
X863Y554D01*
X883Y554D02*
X889Y554D01*
X909Y554D02*
X918Y554D01*
X1312Y554D02*
X1327Y554D01*
X0Y553D02*
X7Y553D01*
X73Y553D02*
X82Y553D01*
X672Y553D02*
X680Y553D01*
X706Y553D02*
X712Y553D01*
X756Y553D02*
X762Y553D01*
X772Y553D02*
X779Y553D01*
X812Y553D02*
X819Y553D01*
X827Y553D02*
X833Y553D01*
X857Y553D02*
X864Y553D01*
X882Y553D02*
X889Y553D01*
X909Y553D02*
X918Y553D01*
X1312Y553D02*
X1327Y553D01*
X0Y552D02*
X7Y552D01*
X73Y552D02*
X82Y552D01*
X673Y552D02*
X681Y552D01*
X706Y552D02*
X712Y552D01*
X756Y552D02*
X762Y552D01*
X772Y552D02*
X780Y552D01*
X813Y552D02*
X819Y552D01*
X826Y552D02*
X833Y552D01*
X857Y552D02*
X864Y552D01*
X882Y552D02*
X889Y552D01*
X909Y552D02*
X918Y552D01*
X1312Y552D02*
X1327Y552D01*
X0Y551D02*
X7Y551D01*
X73Y551D02*
X82Y551D01*
X673Y551D02*
X682Y551D01*
X706Y551D02*
X712Y551D01*
X756Y551D02*
X762Y551D01*
X773Y551D02*
X780Y551D01*
X813Y551D02*
X820Y551D01*
X826Y551D02*
X833Y551D01*
X858Y551D02*
X865Y551D01*
X881Y551D02*
X888Y551D01*
X909Y551D02*
X918Y551D01*
X1312Y551D02*
X1327Y551D01*
X0Y550D02*
X7Y550D01*
X73Y550D02*
X82Y550D01*
X674Y550D02*
X682Y550D01*
X706Y550D02*
X712Y550D01*
X756Y550D02*
X762Y550D01*
X774Y550D02*
X781Y550D01*
X813Y550D02*
X820Y550D01*
X826Y550D02*
X832Y550D01*
X858Y550D02*
X865Y550D01*
X881Y550D02*
X888Y550D01*
X909Y550D02*
X918Y550D01*
X1312Y550D02*
X1327Y550D01*
X0Y549D02*
X7Y549D01*
X73Y549D02*
X82Y549D01*
X675Y549D02*
X683Y549D01*
X706Y549D02*
X712Y549D01*
X756Y549D02*
X762Y549D01*
X774Y549D02*
X781Y549D01*
X814Y549D02*
X820Y549D01*
X825Y549D02*
X832Y549D01*
X859Y549D02*
X866Y549D01*
X880Y549D02*
X887Y549D01*
X909Y549D02*
X918Y549D01*
X1312Y549D02*
X1327Y549D01*
X0Y548D02*
X7Y548D01*
X73Y548D02*
X82Y548D01*
X676Y548D02*
X684Y548D01*
X706Y548D02*
X712Y548D01*
X756Y548D02*
X762Y548D01*
X775Y548D02*
X782Y548D01*
X814Y548D02*
X821Y548D01*
X825Y548D02*
X831Y548D01*
X859Y548D02*
X866Y548D01*
X880Y548D02*
X887Y548D01*
X909Y548D02*
X918Y548D01*
X1312Y548D02*
X1327Y548D01*
X0Y547D02*
X7Y547D01*
X73Y547D02*
X82Y547D01*
X677Y547D02*
X685Y547D01*
X706Y547D02*
X712Y547D01*
X756Y547D02*
X762Y547D01*
X775Y547D02*
X783Y547D01*
X815Y547D02*
X821Y547D01*
X824Y547D02*
X831Y547D01*
X860Y547D02*
X867Y547D01*
X879Y547D02*
X886Y547D01*
X909Y547D02*
X918Y547D01*
X1312Y547D02*
X1327Y547D01*
X0Y546D02*
X7Y546D01*
X73Y546D02*
X82Y546D01*
X677Y546D02*
X685Y546D01*
X706Y546D02*
X712Y546D01*
X756Y546D02*
X762Y546D01*
X776Y546D02*
X783Y546D01*
X815Y546D02*
X822Y546D01*
X824Y546D02*
X831Y546D01*
X860Y546D02*
X867Y546D01*
X879Y546D02*
X886Y546D01*
X909Y546D02*
X918Y546D01*
X1312Y546D02*
X1327Y546D01*
X0Y545D02*
X7Y545D01*
X73Y545D02*
X82Y545D01*
X678Y545D02*
X686Y545D01*
X706Y545D02*
X712Y545D01*
X756Y545D02*
X762Y545D01*
X777Y545D02*
X784Y545D01*
X815Y545D02*
X822Y545D01*
X824Y545D02*
X830Y545D01*
X861Y545D02*
X868Y545D01*
X878Y545D02*
X885Y545D01*
X909Y545D02*
X918Y545D01*
X1312Y545D02*
X1327Y545D01*
X0Y544D02*
X7Y544D01*
X73Y544D02*
X82Y544D01*
X679Y544D02*
X687Y544D01*
X706Y544D02*
X712Y544D01*
X756Y544D02*
X762Y544D01*
X777Y544D02*
X784Y544D01*
X816Y544D02*
X830Y544D01*
X861Y544D02*
X868Y544D01*
X878Y544D02*
X885Y544D01*
X909Y544D02*
X918Y544D01*
X1312Y544D02*
X1327Y544D01*
X0Y543D02*
X7Y543D01*
X73Y543D02*
X82Y543D01*
X657Y543D02*
X660Y543D01*
X680Y543D02*
X688Y543D01*
X706Y543D02*
X712Y543D01*
X756Y543D02*
X762Y543D01*
X778Y543D02*
X785Y543D01*
X816Y543D02*
X830Y543D01*
X862Y543D02*
X869Y543D01*
X877Y543D02*
X884Y543D01*
X909Y543D02*
X918Y543D01*
X1312Y543D02*
X1327Y543D01*
X0Y542D02*
X7Y542D01*
X73Y542D02*
X82Y542D01*
X656Y542D02*
X661Y542D01*
X680Y542D02*
X688Y542D01*
X706Y542D02*
X712Y542D01*
X756Y542D02*
X762Y542D01*
X778Y542D02*
X785Y542D01*
X817Y542D02*
X829Y542D01*
X862Y542D02*
X869Y542D01*
X877Y542D02*
X884Y542D01*
X909Y542D02*
X918Y542D01*
X1312Y542D02*
X1327Y542D01*
X0Y541D02*
X7Y541D01*
X73Y541D02*
X82Y541D01*
X656Y541D02*
X661Y541D01*
X681Y541D02*
X689Y541D01*
X706Y541D02*
X712Y541D01*
X756Y541D02*
X762Y541D01*
X779Y541D02*
X786Y541D01*
X817Y541D02*
X829Y541D01*
X863Y541D02*
X870Y541D01*
X876Y541D02*
X883Y541D01*
X909Y541D02*
X918Y541D01*
X1312Y541D02*
X1327Y541D01*
X0Y540D02*
X7Y540D01*
X73Y540D02*
X82Y540D01*
X656Y540D02*
X662Y540D01*
X682Y540D02*
X689Y540D01*
X706Y540D02*
X712Y540D01*
X756Y540D02*
X762Y540D01*
X779Y540D02*
X787Y540D01*
X817Y540D02*
X828Y540D01*
X863Y540D02*
X870Y540D01*
X876Y540D02*
X883Y540D01*
X909Y540D02*
X918Y540D01*
X1312Y540D02*
X1327Y540D01*
X0Y539D02*
X7Y539D01*
X73Y539D02*
X82Y539D01*
X656Y539D02*
X662Y539D01*
X683Y539D02*
X689Y539D01*
X706Y539D02*
X712Y539D01*
X756Y539D02*
X762Y539D01*
X780Y539D02*
X787Y539D01*
X818Y539D02*
X828Y539D01*
X864Y539D02*
X871Y539D01*
X875Y539D02*
X882Y539D01*
X909Y539D02*
X918Y539D01*
X1312Y539D02*
X1327Y539D01*
X0Y538D02*
X7Y538D01*
X73Y538D02*
X82Y538D01*
X656Y538D02*
X663Y538D01*
X683Y538D02*
X689Y538D01*
X706Y538D02*
X712Y538D01*
X756Y538D02*
X762Y538D01*
X781Y538D02*
X788Y538D01*
X818Y538D02*
X828Y538D01*
X864Y538D02*
X872Y538D01*
X874Y538D02*
X882Y538D01*
X909Y538D02*
X918Y538D01*
X1312Y538D02*
X1327Y538D01*
X0Y537D02*
X7Y537D01*
X73Y537D02*
X82Y537D01*
X656Y537D02*
X689Y537D01*
X706Y537D02*
X738Y537D01*
X756Y537D02*
X762Y537D01*
X781Y537D02*
X788Y537D01*
X818Y537D02*
X827Y537D01*
X865Y537D02*
X881Y537D01*
X909Y537D02*
X918Y537D01*
X1312Y537D02*
X1327Y537D01*
X0Y536D02*
X7Y536D01*
X73Y536D02*
X82Y536D01*
X656Y536D02*
X688Y536D01*
X706Y536D02*
X739Y536D01*
X756Y536D02*
X762Y536D01*
X782Y536D02*
X789Y536D01*
X819Y536D02*
X827Y536D01*
X865Y536D02*
X881Y536D01*
X909Y536D02*
X918Y536D01*
X1312Y536D02*
X1327Y536D01*
X0Y535D02*
X7Y535D01*
X73Y535D02*
X82Y535D01*
X657Y535D02*
X688Y535D01*
X706Y535D02*
X739Y535D01*
X756Y535D02*
X762Y535D01*
X782Y535D02*
X789Y535D01*
X819Y535D02*
X826Y535D01*
X866Y535D02*
X880Y535D01*
X909Y535D02*
X918Y535D01*
X1312Y535D02*
X1327Y535D01*
X0Y534D02*
X7Y534D01*
X73Y534D02*
X82Y534D01*
X658Y534D02*
X687Y534D01*
X706Y534D02*
X739Y534D01*
X756Y534D02*
X762Y534D01*
X783Y534D02*
X789Y534D01*
X820Y534D02*
X826Y534D01*
X867Y534D02*
X879Y534D01*
X909Y534D02*
X918Y534D01*
X1312Y534D02*
X1327Y534D01*
X0Y533D02*
X7Y533D01*
X73Y533D02*
X82Y533D01*
X659Y533D02*
X687Y533D01*
X706Y533D02*
X739Y533D01*
X756Y533D02*
X762Y533D01*
X784Y533D02*
X789Y533D01*
X820Y533D02*
X826Y533D01*
X868Y533D02*
X878Y533D01*
X909Y533D02*
X918Y533D01*
X1312Y533D02*
X1327Y533D01*
X0Y532D02*
X7Y532D01*
X73Y532D02*
X82Y532D01*
X660Y532D02*
X685Y532D01*
X706Y532D02*
X738Y532D01*
X757Y532D02*
X761Y532D01*
X784Y532D02*
X788Y532D01*
X821Y532D02*
X825Y532D01*
X869Y532D02*
X877Y532D01*
X909Y532D02*
X918Y532D01*
X1312Y532D02*
X1327Y532D01*
X0Y531D02*
X7Y531D01*
X73Y531D02*
X82Y531D01*
X663Y531D02*
X683Y531D01*
X706Y531D02*
X737Y531D01*
X758Y531D02*
X759Y531D01*
X786Y531D02*
X787Y531D01*
X822Y531D02*
X824Y531D01*
X872Y531D02*
X874Y531D01*
X909Y531D02*
X918Y531D01*
X1312Y531D02*
X1327Y531D01*
X0Y530D02*
X7Y530D01*
X73Y530D02*
X82Y530D01*
X909Y530D02*
X918Y530D01*
X1312Y530D02*
X1327Y530D01*
X0Y529D02*
X7Y529D01*
X73Y529D02*
X82Y529D01*
X909Y529D02*
X918Y529D01*
X1312Y529D02*
X1327Y529D01*
X0Y528D02*
X7Y528D01*
X73Y528D02*
X82Y528D01*
X909Y528D02*
X918Y528D01*
X1312Y528D02*
X1327Y528D01*
X0Y527D02*
X7Y527D01*
X73Y527D02*
X82Y527D01*
X909Y527D02*
X918Y527D01*
X1312Y527D02*
X1327Y527D01*
X0Y526D02*
X7Y526D01*
X73Y526D02*
X82Y526D01*
X909Y526D02*
X918Y526D01*
X1312Y526D02*
X1327Y526D01*
X0Y525D02*
X7Y525D01*
X73Y525D02*
X82Y525D01*
X909Y525D02*
X918Y525D01*
X1312Y525D02*
X1327Y525D01*
X0Y524D02*
X7Y524D01*
X73Y524D02*
X82Y524D01*
X909Y524D02*
X918Y524D01*
X1312Y524D02*
X1327Y524D01*
X0Y523D02*
X7Y523D01*
X73Y523D02*
X82Y523D01*
X909Y523D02*
X918Y523D01*
X1312Y523D02*
X1327Y523D01*
X0Y522D02*
X7Y522D01*
X73Y522D02*
X82Y522D01*
X909Y522D02*
X918Y522D01*
X1312Y522D02*
X1327Y522D01*
X0Y521D02*
X7Y521D01*
X73Y521D02*
X82Y521D01*
X909Y521D02*
X918Y521D01*
X1312Y521D02*
X1327Y521D01*
X0Y520D02*
X7Y520D01*
X73Y520D02*
X82Y520D01*
X909Y520D02*
X918Y520D01*
X1312Y520D02*
X1327Y520D01*
X0Y519D02*
X7Y519D01*
X73Y519D02*
X82Y519D01*
X909Y519D02*
X918Y519D01*
X1312Y519D02*
X1327Y519D01*
X0Y518D02*
X7Y518D01*
X73Y518D02*
X82Y518D01*
X476Y518D02*
X476Y518D01*
X909Y518D02*
X918Y518D01*
X1312Y518D02*
X1327Y518D01*
X0Y517D02*
X7Y517D01*
X73Y517D02*
X82Y517D01*
X476Y517D02*
X478Y517D01*
X534Y517D02*
X578Y517D01*
X609Y517D02*
X833Y517D01*
X909Y517D02*
X918Y517D01*
X1312Y517D02*
X1327Y517D01*
X0Y516D02*
X7Y516D01*
X73Y516D02*
X82Y516D01*
X476Y516D02*
X480Y516D01*
X534Y516D02*
X580Y516D01*
X606Y516D02*
X833Y516D01*
X909Y516D02*
X918Y516D01*
X1312Y516D02*
X1327Y516D01*
X0Y515D02*
X7Y515D01*
X73Y515D02*
X82Y515D01*
X476Y515D02*
X484Y515D01*
X534Y515D02*
X584Y515D01*
X603Y515D02*
X833Y515D01*
X909Y515D02*
X918Y515D01*
X1312Y515D02*
X1327Y515D01*
X0Y514D02*
X7Y514D01*
X73Y514D02*
X82Y514D01*
X476Y514D02*
X485Y514D01*
X534Y514D02*
X589Y514D01*
X598Y514D02*
X833Y514D01*
X909Y514D02*
X918Y514D01*
X1312Y514D02*
X1327Y514D01*
X0Y513D02*
X7Y513D01*
X73Y513D02*
X82Y513D01*
X476Y513D02*
X485Y513D01*
X534Y513D02*
X833Y513D01*
X909Y513D02*
X918Y513D01*
X1312Y513D02*
X1327Y513D01*
X0Y512D02*
X7Y512D01*
X73Y512D02*
X82Y512D01*
X476Y512D02*
X485Y512D01*
X534Y512D02*
X833Y512D01*
X909Y512D02*
X918Y512D01*
X1312Y512D02*
X1327Y512D01*
X0Y511D02*
X7Y511D01*
X16Y511D02*
X38Y511D01*
X61Y511D02*
X64Y511D01*
X73Y511D02*
X82Y511D01*
X476Y511D02*
X485Y511D01*
X534Y511D02*
X833Y511D01*
X909Y511D02*
X918Y511D01*
X1312Y511D02*
X1327Y511D01*
X0Y510D02*
X7Y510D01*
X15Y510D02*
X39Y510D01*
X60Y510D02*
X65Y510D01*
X73Y510D02*
X82Y510D01*
X476Y510D02*
X485Y510D01*
X534Y510D02*
X833Y510D01*
X909Y510D02*
X918Y510D01*
X1312Y510D02*
X1327Y510D01*
X0Y509D02*
X7Y509D01*
X14Y509D02*
X40Y509D01*
X60Y509D02*
X65Y509D01*
X73Y509D02*
X82Y509D01*
X476Y509D02*
X485Y509D01*
X534Y509D02*
X833Y509D01*
X909Y509D02*
X918Y509D01*
X1312Y509D02*
X1327Y509D01*
X0Y508D02*
X7Y508D01*
X13Y508D02*
X41Y508D01*
X60Y508D02*
X66Y508D01*
X73Y508D02*
X82Y508D01*
X476Y508D02*
X485Y508D01*
X535Y508D02*
X833Y508D01*
X909Y508D02*
X918Y508D01*
X1312Y508D02*
X1327Y508D01*
X0Y507D02*
X7Y507D01*
X13Y507D02*
X42Y507D01*
X60Y507D02*
X66Y507D01*
X73Y507D02*
X82Y507D01*
X476Y507D02*
X485Y507D01*
X909Y507D02*
X918Y507D01*
X1312Y507D02*
X1327Y507D01*
X0Y506D02*
X7Y506D01*
X13Y506D02*
X42Y506D01*
X60Y506D02*
X66Y506D01*
X73Y506D02*
X82Y506D01*
X476Y506D02*
X485Y506D01*
X909Y506D02*
X918Y506D01*
X1312Y506D02*
X1327Y506D01*
X0Y505D02*
X7Y505D01*
X12Y505D02*
X42Y505D01*
X60Y505D02*
X66Y505D01*
X73Y505D02*
X82Y505D01*
X476Y505D02*
X485Y505D01*
X909Y505D02*
X918Y505D01*
X1312Y505D02*
X1327Y505D01*
X0Y504D02*
X7Y504D01*
X12Y504D02*
X18Y504D01*
X36Y504D02*
X42Y504D01*
X60Y504D02*
X66Y504D01*
X73Y504D02*
X82Y504D01*
X476Y504D02*
X485Y504D01*
X909Y504D02*
X918Y504D01*
X1312Y504D02*
X1327Y504D01*
X0Y503D02*
X7Y503D01*
X12Y503D02*
X18Y503D01*
X36Y503D02*
X42Y503D01*
X60Y503D02*
X66Y503D01*
X73Y503D02*
X82Y503D01*
X476Y503D02*
X485Y503D01*
X909Y503D02*
X918Y503D01*
X1312Y503D02*
X1327Y503D01*
X0Y502D02*
X7Y502D01*
X12Y502D02*
X18Y502D01*
X36Y502D02*
X42Y502D01*
X60Y502D02*
X66Y502D01*
X73Y502D02*
X82Y502D01*
X476Y502D02*
X485Y502D01*
X909Y502D02*
X918Y502D01*
X1312Y502D02*
X1327Y502D01*
X0Y501D02*
X7Y501D01*
X12Y501D02*
X18Y501D01*
X36Y501D02*
X42Y501D01*
X60Y501D02*
X66Y501D01*
X73Y501D02*
X82Y501D01*
X476Y501D02*
X485Y501D01*
X909Y501D02*
X918Y501D01*
X1312Y501D02*
X1327Y501D01*
X0Y500D02*
X7Y500D01*
X12Y500D02*
X18Y500D01*
X36Y500D02*
X42Y500D01*
X60Y500D02*
X66Y500D01*
X73Y500D02*
X82Y500D01*
X476Y500D02*
X485Y500D01*
X909Y500D02*
X918Y500D01*
X1312Y500D02*
X1327Y500D01*
X0Y499D02*
X7Y499D01*
X12Y499D02*
X18Y499D01*
X36Y499D02*
X42Y499D01*
X60Y499D02*
X66Y499D01*
X73Y499D02*
X82Y499D01*
X476Y499D02*
X485Y499D01*
X909Y499D02*
X918Y499D01*
X1013Y499D02*
X1021Y499D01*
X1038Y499D02*
X1046Y499D01*
X1078Y499D02*
X1081Y499D01*
X1113Y499D02*
X1147Y499D01*
X1178Y499D02*
X1182Y499D01*
X1214Y499D02*
X1239Y499D01*
X1312Y499D02*
X1327Y499D01*
X0Y498D02*
X7Y498D01*
X12Y498D02*
X18Y498D01*
X36Y498D02*
X42Y498D01*
X60Y498D02*
X66Y498D01*
X73Y498D02*
X82Y498D01*
X476Y498D02*
X485Y498D01*
X909Y498D02*
X918Y498D01*
X1013Y498D02*
X1021Y498D01*
X1037Y498D02*
X1046Y498D01*
X1075Y498D02*
X1084Y498D01*
X1113Y498D02*
X1147Y498D01*
X1176Y498D02*
X1184Y498D01*
X1213Y498D02*
X1242Y498D01*
X1312Y498D02*
X1327Y498D01*
X0Y497D02*
X7Y497D01*
X12Y497D02*
X18Y497D01*
X36Y497D02*
X42Y497D01*
X60Y497D02*
X66Y497D01*
X73Y497D02*
X82Y497D01*
X476Y497D02*
X485Y497D01*
X909Y497D02*
X918Y497D01*
X1013Y497D02*
X1022Y497D01*
X1037Y497D02*
X1046Y497D01*
X1074Y497D02*
X1085Y497D01*
X1113Y497D02*
X1147Y497D01*
X1175Y497D02*
X1185Y497D01*
X1213Y497D02*
X1243Y497D01*
X1312Y497D02*
X1327Y497D01*
X0Y496D02*
X7Y496D01*
X12Y496D02*
X18Y496D01*
X36Y496D02*
X42Y496D01*
X60Y496D02*
X66Y496D01*
X73Y496D02*
X82Y496D01*
X476Y496D02*
X485Y496D01*
X909Y496D02*
X918Y496D01*
X1013Y496D02*
X1023Y496D01*
X1036Y496D02*
X1046Y496D01*
X1073Y496D02*
X1086Y496D01*
X1113Y496D02*
X1147Y496D01*
X1174Y496D02*
X1186Y496D01*
X1213Y496D02*
X1244Y496D01*
X1312Y496D02*
X1327Y496D01*
X0Y495D02*
X7Y495D01*
X12Y495D02*
X18Y495D01*
X36Y495D02*
X42Y495D01*
X60Y495D02*
X66Y495D01*
X73Y495D02*
X82Y495D01*
X476Y495D02*
X485Y495D01*
X909Y495D02*
X918Y495D01*
X1013Y495D02*
X1023Y495D01*
X1035Y495D02*
X1046Y495D01*
X1072Y495D02*
X1087Y495D01*
X1113Y495D02*
X1147Y495D01*
X1173Y495D02*
X1187Y495D01*
X1213Y495D02*
X1245Y495D01*
X1312Y495D02*
X1327Y495D01*
X0Y494D02*
X7Y494D01*
X12Y494D02*
X18Y494D01*
X36Y494D02*
X42Y494D01*
X60Y494D02*
X66Y494D01*
X73Y494D02*
X82Y494D01*
X476Y494D02*
X485Y494D01*
X909Y494D02*
X918Y494D01*
X1013Y494D02*
X1024Y494D01*
X1035Y494D02*
X1046Y494D01*
X1072Y494D02*
X1087Y494D01*
X1113Y494D02*
X1147Y494D01*
X1172Y494D02*
X1188Y494D01*
X1213Y494D02*
X1246Y494D01*
X1312Y494D02*
X1327Y494D01*
X0Y493D02*
X7Y493D01*
X12Y493D02*
X18Y493D01*
X36Y493D02*
X42Y493D01*
X60Y493D02*
X66Y493D01*
X73Y493D02*
X82Y493D01*
X476Y493D02*
X485Y493D01*
X909Y493D02*
X918Y493D01*
X1013Y493D02*
X1025Y493D01*
X1034Y493D02*
X1046Y493D01*
X1071Y493D02*
X1088Y493D01*
X1113Y493D02*
X1147Y493D01*
X1172Y493D02*
X1188Y493D01*
X1213Y493D02*
X1246Y493D01*
X1312Y493D02*
X1327Y493D01*
X0Y492D02*
X7Y492D01*
X12Y492D02*
X18Y492D01*
X36Y492D02*
X42Y492D01*
X60Y492D02*
X66Y492D01*
X73Y492D02*
X82Y492D01*
X124Y492D02*
X132Y492D01*
X150Y492D02*
X157Y492D01*
X191Y492D02*
X205Y492D01*
X225Y492D02*
X249Y492D01*
X343Y492D02*
X356Y492D01*
X375Y492D02*
X383Y492D01*
X405Y492D02*
X406Y492D01*
X428Y492D02*
X443Y492D01*
X476Y492D02*
X485Y492D01*
X909Y492D02*
X918Y492D01*
X1013Y492D02*
X1026Y492D01*
X1033Y492D02*
X1046Y492D01*
X1071Y492D02*
X1078Y492D01*
X1081Y492D02*
X1088Y492D01*
X1113Y492D02*
X1119Y492D01*
X1127Y492D02*
X1133Y492D01*
X1141Y492D02*
X1147Y492D01*
X1171Y492D02*
X1179Y492D01*
X1181Y492D02*
X1189Y492D01*
X1213Y492D02*
X1220Y492D01*
X1239Y492D02*
X1246Y492D01*
X1312Y492D02*
X1327Y492D01*
X0Y491D02*
X7Y491D01*
X12Y491D02*
X18Y491D01*
X36Y491D02*
X42Y491D01*
X60Y491D02*
X66Y491D01*
X73Y491D02*
X82Y491D01*
X124Y491D02*
X133Y491D01*
X149Y491D02*
X158Y491D01*
X188Y491D02*
X207Y491D01*
X224Y491D02*
X252Y491D01*
X340Y491D02*
X357Y491D01*
X375Y491D02*
X384Y491D01*
X403Y491D02*
X408Y491D01*
X426Y491D02*
X445Y491D01*
X476Y491D02*
X485Y491D01*
X909Y491D02*
X918Y491D01*
X1013Y491D02*
X1026Y491D01*
X1033Y491D02*
X1046Y491D01*
X1070Y491D02*
X1077Y491D01*
X1082Y491D02*
X1089Y491D01*
X1113Y491D02*
X1119Y491D01*
X1127Y491D02*
X1133Y491D01*
X1141Y491D02*
X1147Y491D01*
X1171Y491D02*
X1178Y491D01*
X1182Y491D02*
X1189Y491D01*
X1213Y491D02*
X1219Y491D01*
X1240Y491D02*
X1247Y491D01*
X1312Y491D02*
X1327Y491D01*
X0Y490D02*
X7Y490D01*
X12Y490D02*
X18Y490D01*
X36Y490D02*
X42Y490D01*
X60Y490D02*
X66Y490D01*
X73Y490D02*
X82Y490D01*
X124Y490D02*
X133Y490D01*
X148Y490D02*
X158Y490D01*
X186Y490D02*
X207Y490D01*
X224Y490D02*
X254Y490D01*
X339Y490D02*
X358Y490D01*
X375Y490D02*
X384Y490D01*
X403Y490D02*
X408Y490D01*
X425Y490D02*
X447Y490D01*
X476Y490D02*
X485Y490D01*
X909Y490D02*
X918Y490D01*
X1013Y490D02*
X1027Y490D01*
X1032Y490D02*
X1046Y490D01*
X1070Y490D02*
X1077Y490D01*
X1082Y490D02*
X1089Y490D01*
X1113Y490D02*
X1119Y490D01*
X1127Y490D02*
X1133Y490D01*
X1141Y490D02*
X1147Y490D01*
X1170Y490D02*
X1177Y490D01*
X1183Y490D02*
X1190Y490D01*
X1213Y490D02*
X1219Y490D01*
X1241Y490D02*
X1247Y490D01*
X1312Y490D02*
X1327Y490D01*
X0Y489D02*
X7Y489D01*
X12Y489D02*
X18Y489D01*
X36Y489D02*
X42Y489D01*
X60Y489D02*
X66Y489D01*
X73Y489D02*
X82Y489D01*
X124Y489D02*
X134Y489D01*
X148Y489D02*
X158Y489D01*
X185Y489D02*
X208Y489D01*
X224Y489D02*
X255Y489D01*
X338Y489D02*
X358Y489D01*
X375Y489D02*
X385Y489D01*
X403Y489D02*
X409Y489D01*
X425Y489D02*
X448Y489D01*
X476Y489D02*
X485Y489D01*
X909Y489D02*
X918Y489D01*
X1013Y489D02*
X1028Y489D01*
X1031Y489D02*
X1046Y489D01*
X1069Y489D02*
X1076Y489D01*
X1083Y489D02*
X1090Y489D01*
X1113Y489D02*
X1119Y489D01*
X1127Y489D02*
X1133Y489D01*
X1141Y489D02*
X1146Y489D01*
X1170Y489D02*
X1177Y489D01*
X1183Y489D02*
X1190Y489D01*
X1213Y489D02*
X1219Y489D01*
X1241Y489D02*
X1247Y489D01*
X1312Y489D02*
X1327Y489D01*
X0Y488D02*
X7Y488D01*
X12Y488D02*
X18Y488D01*
X36Y488D02*
X42Y488D01*
X60Y488D02*
X66Y488D01*
X73Y488D02*
X82Y488D01*
X124Y488D02*
X135Y488D01*
X147Y488D02*
X158Y488D01*
X184Y488D02*
X208Y488D01*
X224Y488D02*
X256Y488D01*
X337Y488D02*
X358Y488D01*
X375Y488D02*
X385Y488D01*
X403Y488D02*
X409Y488D01*
X425Y488D02*
X449Y488D01*
X476Y488D02*
X485Y488D01*
X909Y488D02*
X918Y488D01*
X1013Y488D02*
X1019Y488D01*
X1021Y488D02*
X1028Y488D01*
X1031Y488D02*
X1038Y488D01*
X1040Y488D02*
X1046Y488D01*
X1069Y488D02*
X1076Y488D01*
X1084Y488D02*
X1090Y488D01*
X1114Y488D02*
X1118Y488D01*
X1127Y488D02*
X1133Y488D01*
X1141Y488D02*
X1146Y488D01*
X1169Y488D02*
X1176Y488D01*
X1184Y488D02*
X1191Y488D01*
X1213Y488D02*
X1219Y488D01*
X1241Y488D02*
X1247Y488D01*
X1312Y488D02*
X1327Y488D01*
X0Y487D02*
X7Y487D01*
X12Y487D02*
X18Y487D01*
X36Y487D02*
X42Y487D01*
X60Y487D02*
X66Y487D01*
X73Y487D02*
X82Y487D01*
X124Y487D02*
X135Y487D01*
X146Y487D02*
X158Y487D01*
X183Y487D02*
X207Y487D01*
X224Y487D02*
X256Y487D01*
X336Y487D02*
X358Y487D01*
X375Y487D02*
X386Y487D01*
X403Y487D02*
X409Y487D01*
X426Y487D02*
X450Y487D01*
X476Y487D02*
X485Y487D01*
X909Y487D02*
X918Y487D01*
X1013Y487D02*
X1019Y487D01*
X1021Y487D02*
X1037Y487D01*
X1040Y487D02*
X1046Y487D01*
X1068Y487D02*
X1075Y487D01*
X1084Y487D02*
X1091Y487D01*
X1115Y487D02*
X1117Y487D01*
X1127Y487D02*
X1133Y487D01*
X1142Y487D02*
X1145Y487D01*
X1169Y487D02*
X1176Y487D01*
X1184Y487D02*
X1191Y487D01*
X1213Y487D02*
X1219Y487D01*
X1241Y487D02*
X1247Y487D01*
X1312Y487D02*
X1327Y487D01*
X0Y486D02*
X7Y486D01*
X12Y486D02*
X18Y486D01*
X36Y486D02*
X42Y486D01*
X60Y486D02*
X66Y486D01*
X73Y486D02*
X82Y486D01*
X124Y486D02*
X136Y486D01*
X145Y486D02*
X158Y486D01*
X183Y486D02*
X206Y486D01*
X224Y486D02*
X257Y486D01*
X335Y486D02*
X357Y486D01*
X375Y486D02*
X386Y486D01*
X403Y486D02*
X409Y486D01*
X427Y486D02*
X450Y486D01*
X476Y486D02*
X485Y486D01*
X909Y486D02*
X918Y486D01*
X1013Y486D02*
X1019Y486D01*
X1022Y486D02*
X1037Y486D01*
X1040Y486D02*
X1046Y486D01*
X1068Y486D02*
X1075Y486D01*
X1085Y486D02*
X1091Y486D01*
X1127Y486D02*
X1133Y486D01*
X1168Y486D02*
X1175Y486D01*
X1185Y486D02*
X1192Y486D01*
X1213Y486D02*
X1219Y486D01*
X1241Y486D02*
X1247Y486D01*
X1312Y486D02*
X1327Y486D01*
X0Y485D02*
X7Y485D01*
X12Y485D02*
X18Y485D01*
X36Y485D02*
X42Y485D01*
X60Y485D02*
X66Y485D01*
X73Y485D02*
X82Y485D01*
X124Y485D02*
X137Y485D01*
X145Y485D02*
X158Y485D01*
X182Y485D02*
X190Y485D01*
X224Y485D02*
X231Y485D01*
X249Y485D02*
X257Y485D01*
X335Y485D02*
X344Y485D01*
X375Y485D02*
X386Y485D01*
X403Y485D02*
X409Y485D01*
X432Y485D02*
X438Y485D01*
X443Y485D02*
X451Y485D01*
X476Y485D02*
X485Y485D01*
X909Y485D02*
X918Y485D01*
X1013Y485D02*
X1019Y485D01*
X1023Y485D02*
X1036Y485D01*
X1040Y485D02*
X1046Y485D01*
X1067Y485D02*
X1074Y485D01*
X1085Y485D02*
X1092Y485D01*
X1127Y485D02*
X1133Y485D01*
X1168Y485D02*
X1175Y485D01*
X1185Y485D02*
X1192Y485D01*
X1213Y485D02*
X1219Y485D01*
X1241Y485D02*
X1247Y485D01*
X1312Y485D02*
X1327Y485D01*
X0Y484D02*
X7Y484D01*
X12Y484D02*
X18Y484D01*
X36Y484D02*
X66Y484D01*
X73Y484D02*
X82Y484D01*
X124Y484D02*
X138Y484D01*
X144Y484D02*
X158Y484D01*
X182Y484D02*
X189Y484D01*
X224Y484D02*
X230Y484D01*
X251Y484D02*
X258Y484D01*
X334Y484D02*
X342Y484D01*
X375Y484D02*
X387Y484D01*
X403Y484D02*
X409Y484D01*
X432Y484D02*
X438Y484D01*
X444Y484D02*
X451Y484D01*
X476Y484D02*
X485Y484D01*
X909Y484D02*
X918Y484D01*
X1013Y484D02*
X1019Y484D01*
X1024Y484D02*
X1035Y484D01*
X1040Y484D02*
X1046Y484D01*
X1067Y484D02*
X1074Y484D01*
X1086Y484D02*
X1092Y484D01*
X1127Y484D02*
X1133Y484D01*
X1167Y484D02*
X1174Y484D01*
X1186Y484D02*
X1193Y484D01*
X1213Y484D02*
X1219Y484D01*
X1241Y484D02*
X1247Y484D01*
X1312Y484D02*
X1327Y484D01*
X0Y483D02*
X7Y483D01*
X12Y483D02*
X18Y483D01*
X36Y483D02*
X66Y483D01*
X73Y483D02*
X82Y483D01*
X124Y483D02*
X138Y483D01*
X143Y483D02*
X158Y483D01*
X181Y483D02*
X188Y483D01*
X224Y483D02*
X230Y483D01*
X252Y483D02*
X258Y483D01*
X333Y483D02*
X341Y483D01*
X375Y483D02*
X387Y483D01*
X403Y483D02*
X409Y483D01*
X432Y483D02*
X438Y483D01*
X445Y483D02*
X452Y483D01*
X476Y483D02*
X485Y483D01*
X909Y483D02*
X918Y483D01*
X1013Y483D02*
X1019Y483D01*
X1024Y483D02*
X1035Y483D01*
X1040Y483D02*
X1046Y483D01*
X1066Y483D02*
X1073Y483D01*
X1086Y483D02*
X1093Y483D01*
X1127Y483D02*
X1133Y483D01*
X1167Y483D02*
X1174Y483D01*
X1186Y483D02*
X1193Y483D01*
X1213Y483D02*
X1219Y483D01*
X1240Y483D02*
X1247Y483D01*
X1312Y483D02*
X1327Y483D01*
X0Y482D02*
X7Y482D01*
X12Y482D02*
X18Y482D01*
X36Y482D02*
X66Y482D01*
X73Y482D02*
X82Y482D01*
X124Y482D02*
X139Y482D01*
X143Y482D02*
X158Y482D01*
X181Y482D02*
X188Y482D01*
X224Y482D02*
X230Y482D01*
X252Y482D02*
X258Y482D01*
X332Y482D02*
X340Y482D01*
X375Y482D02*
X388Y482D01*
X403Y482D02*
X409Y482D01*
X432Y482D02*
X438Y482D01*
X445Y482D02*
X452Y482D01*
X476Y482D02*
X485Y482D01*
X909Y482D02*
X918Y482D01*
X1013Y482D02*
X1019Y482D01*
X1025Y482D02*
X1034Y482D01*
X1040Y482D02*
X1046Y482D01*
X1066Y482D02*
X1073Y482D01*
X1087Y482D02*
X1093Y482D01*
X1127Y482D02*
X1133Y482D01*
X1166Y482D02*
X1173Y482D01*
X1187Y482D02*
X1194Y482D01*
X1213Y482D02*
X1220Y482D01*
X1239Y482D02*
X1246Y482D01*
X1312Y482D02*
X1327Y482D01*
X0Y481D02*
X7Y481D01*
X12Y481D02*
X18Y481D01*
X37Y481D02*
X66Y481D01*
X73Y481D02*
X82Y481D01*
X124Y481D02*
X130Y481D01*
X132Y481D02*
X140Y481D01*
X142Y481D02*
X149Y481D01*
X152Y481D02*
X158Y481D01*
X180Y481D02*
X187Y481D01*
X224Y481D02*
X230Y481D01*
X252Y481D02*
X258Y481D01*
X332Y481D02*
X340Y481D01*
X375Y481D02*
X388Y481D01*
X403Y481D02*
X409Y481D01*
X432Y481D02*
X438Y481D01*
X446Y481D02*
X453Y481D01*
X476Y481D02*
X485Y481D01*
X909Y481D02*
X918Y481D01*
X1013Y481D02*
X1019Y481D01*
X1026Y481D02*
X1033Y481D01*
X1040Y481D02*
X1046Y481D01*
X1065Y481D02*
X1072Y481D01*
X1087Y481D02*
X1094Y481D01*
X1127Y481D02*
X1133Y481D01*
X1166Y481D02*
X1173Y481D01*
X1187Y481D02*
X1194Y481D01*
X1213Y481D02*
X1246Y481D01*
X1312Y481D02*
X1327Y481D01*
X0Y480D02*
X7Y480D01*
X13Y480D02*
X18Y480D01*
X37Y480D02*
X66Y480D01*
X73Y480D02*
X82Y480D01*
X124Y480D02*
X130Y480D01*
X133Y480D02*
X149Y480D01*
X152Y480D02*
X158Y480D01*
X180Y480D02*
X187Y480D01*
X224Y480D02*
X230Y480D01*
X252Y480D02*
X258Y480D01*
X331Y480D02*
X339Y480D01*
X375Y480D02*
X389Y480D01*
X403Y480D02*
X409Y480D01*
X432Y480D02*
X438Y480D01*
X446Y480D02*
X453Y480D01*
X476Y480D02*
X485Y480D01*
X909Y480D02*
X918Y480D01*
X1013Y480D02*
X1019Y480D01*
X1026Y480D02*
X1033Y480D01*
X1040Y480D02*
X1046Y480D01*
X1065Y480D02*
X1072Y480D01*
X1088Y480D02*
X1094Y480D01*
X1127Y480D02*
X1133Y480D01*
X1165Y480D02*
X1172Y480D01*
X1188Y480D02*
X1195Y480D01*
X1213Y480D02*
X1246Y480D01*
X1312Y480D02*
X1327Y480D01*
X0Y479D02*
X7Y479D01*
X13Y479D02*
X18Y479D01*
X38Y479D02*
X66Y479D01*
X73Y479D02*
X82Y479D01*
X124Y479D02*
X130Y479D01*
X133Y479D02*
X148Y479D01*
X152Y479D02*
X158Y479D01*
X179Y479D02*
X186Y479D01*
X224Y479D02*
X230Y479D01*
X252Y479D02*
X258Y479D01*
X330Y479D02*
X338Y479D01*
X375Y479D02*
X389Y479D01*
X403Y479D02*
X409Y479D01*
X432Y479D02*
X438Y479D01*
X447Y479D02*
X454Y479D01*
X476Y479D02*
X485Y479D01*
X909Y479D02*
X918Y479D01*
X1013Y479D02*
X1019Y479D01*
X1026Y479D02*
X1032Y479D01*
X1040Y479D02*
X1046Y479D01*
X1064Y479D02*
X1071Y479D01*
X1088Y479D02*
X1095Y479D01*
X1127Y479D02*
X1133Y479D01*
X1165Y479D02*
X1172Y479D01*
X1188Y479D02*
X1195Y479D01*
X1213Y479D02*
X1245Y479D01*
X1312Y479D02*
X1327Y479D01*
X0Y478D02*
X7Y478D01*
X14Y478D02*
X17Y478D01*
X40Y478D02*
X66Y478D01*
X73Y478D02*
X82Y478D01*
X124Y478D02*
X130Y478D01*
X134Y478D02*
X147Y478D01*
X152Y478D02*
X158Y478D01*
X179Y478D02*
X186Y478D01*
X224Y478D02*
X230Y478D01*
X252Y478D02*
X258Y478D01*
X329Y478D02*
X337Y478D01*
X375Y478D02*
X381Y478D01*
X383Y478D02*
X389Y478D01*
X403Y478D02*
X409Y478D01*
X432Y478D02*
X438Y478D01*
X447Y478D02*
X454Y478D01*
X476Y478D02*
X485Y478D01*
X909Y478D02*
X918Y478D01*
X1013Y478D02*
X1019Y478D01*
X1026Y478D02*
X1032Y478D01*
X1040Y478D02*
X1046Y478D01*
X1064Y478D02*
X1071Y478D01*
X1089Y478D02*
X1095Y478D01*
X1127Y478D02*
X1133Y478D01*
X1164Y478D02*
X1171Y478D01*
X1189Y478D02*
X1196Y478D01*
X1213Y478D02*
X1244Y478D01*
X1312Y478D02*
X1327Y478D01*
X0Y477D02*
X7Y477D01*
X73Y477D02*
X82Y477D01*
X124Y477D02*
X130Y477D01*
X135Y477D02*
X147Y477D01*
X152Y477D02*
X158Y477D01*
X178Y477D02*
X185Y477D01*
X224Y477D02*
X230Y477D01*
X252Y477D02*
X258Y477D01*
X329Y477D02*
X336Y477D01*
X375Y477D02*
X381Y477D01*
X383Y477D02*
X390Y477D01*
X403Y477D02*
X409Y477D01*
X432Y477D02*
X438Y477D01*
X448Y477D02*
X455Y477D01*
X476Y477D02*
X485Y477D01*
X909Y477D02*
X918Y477D01*
X1013Y477D02*
X1019Y477D01*
X1027Y477D02*
X1032Y477D01*
X1040Y477D02*
X1046Y477D01*
X1064Y477D02*
X1070Y477D01*
X1089Y477D02*
X1096Y477D01*
X1127Y477D02*
X1133Y477D01*
X1164Y477D02*
X1171Y477D01*
X1189Y477D02*
X1196Y477D01*
X1213Y477D02*
X1243Y477D01*
X1312Y477D02*
X1327Y477D01*
X0Y476D02*
X7Y476D01*
X73Y476D02*
X82Y476D01*
X124Y476D02*
X130Y476D01*
X136Y476D02*
X146Y476D01*
X152Y476D02*
X158Y476D01*
X178Y476D02*
X185Y476D01*
X224Y476D02*
X230Y476D01*
X251Y476D02*
X258Y476D01*
X328Y476D02*
X336Y476D01*
X375Y476D02*
X381Y476D01*
X384Y476D02*
X390Y476D01*
X403Y476D02*
X409Y476D01*
X432Y476D02*
X438Y476D01*
X448Y476D02*
X455Y476D01*
X476Y476D02*
X485Y476D01*
X909Y476D02*
X918Y476D01*
X1013Y476D02*
X1019Y476D01*
X1027Y476D02*
X1032Y476D01*
X1040Y476D02*
X1046Y476D01*
X1063Y476D02*
X1070Y476D01*
X1090Y476D02*
X1096Y476D01*
X1127Y476D02*
X1133Y476D01*
X1164Y476D02*
X1170Y476D01*
X1190Y476D02*
X1196Y476D01*
X1213Y476D02*
X1241Y476D01*
X1312Y476D02*
X1327Y476D01*
X0Y475D02*
X7Y475D01*
X73Y475D02*
X82Y475D01*
X124Y475D02*
X130Y475D01*
X136Y475D02*
X145Y475D01*
X152Y475D02*
X158Y475D01*
X177Y475D02*
X184Y475D01*
X224Y475D02*
X230Y475D01*
X250Y475D02*
X257Y475D01*
X327Y475D02*
X335Y475D01*
X375Y475D02*
X381Y475D01*
X384Y475D02*
X391Y475D01*
X403Y475D02*
X409Y475D01*
X432Y475D02*
X438Y475D01*
X449Y475D02*
X456Y475D01*
X476Y475D02*
X485Y475D01*
X909Y475D02*
X918Y475D01*
X1013Y475D02*
X1019Y475D01*
X1029Y475D02*
X1030Y475D01*
X1040Y475D02*
X1046Y475D01*
X1063Y475D02*
X1069Y475D01*
X1090Y475D02*
X1096Y475D01*
X1127Y475D02*
X1133Y475D01*
X1163Y475D02*
X1170Y475D01*
X1190Y475D02*
X1197Y475D01*
X1213Y475D02*
X1239Y475D01*
X1312Y475D02*
X1327Y475D01*
X0Y474D02*
X7Y474D01*
X73Y474D02*
X82Y474D01*
X124Y474D02*
X130Y474D01*
X137Y474D02*
X145Y474D01*
X152Y474D02*
X158Y474D01*
X177Y474D02*
X184Y474D01*
X224Y474D02*
X257Y474D01*
X326Y474D02*
X334Y474D01*
X375Y474D02*
X381Y474D01*
X385Y474D02*
X391Y474D01*
X403Y474D02*
X409Y474D01*
X432Y474D02*
X438Y474D01*
X449Y474D02*
X456Y474D01*
X476Y474D02*
X485Y474D01*
X909Y474D02*
X918Y474D01*
X1013Y474D02*
X1019Y474D01*
X1040Y474D02*
X1046Y474D01*
X1063Y474D02*
X1069Y474D01*
X1090Y474D02*
X1096Y474D01*
X1127Y474D02*
X1133Y474D01*
X1163Y474D02*
X1169Y474D01*
X1191Y474D02*
X1197Y474D01*
X1213Y474D02*
X1219Y474D01*
X1226Y474D02*
X1233Y474D01*
X1312Y474D02*
X1327Y474D01*
X0Y473D02*
X7Y473D01*
X73Y473D02*
X82Y473D01*
X124Y473D02*
X130Y473D01*
X138Y473D02*
X144Y473D01*
X152Y473D02*
X158Y473D01*
X176Y473D02*
X183Y473D01*
X224Y473D02*
X257Y473D01*
X326Y473D02*
X333Y473D01*
X375Y473D02*
X381Y473D01*
X385Y473D02*
X392Y473D01*
X403Y473D02*
X409Y473D01*
X432Y473D02*
X438Y473D01*
X450Y473D02*
X457Y473D01*
X476Y473D02*
X485Y473D01*
X909Y473D02*
X918Y473D01*
X1013Y473D02*
X1019Y473D01*
X1040Y473D02*
X1046Y473D01*
X1063Y473D02*
X1069Y473D01*
X1090Y473D02*
X1096Y473D01*
X1127Y473D02*
X1133Y473D01*
X1163Y473D02*
X1169Y473D01*
X1191Y473D02*
X1197Y473D01*
X1213Y473D02*
X1219Y473D01*
X1226Y473D02*
X1233Y473D01*
X1312Y473D02*
X1327Y473D01*
X0Y472D02*
X7Y472D01*
X73Y472D02*
X82Y472D01*
X124Y472D02*
X130Y472D01*
X138Y472D02*
X144Y472D01*
X152Y472D02*
X158Y472D01*
X176Y472D02*
X183Y472D01*
X224Y472D02*
X256Y472D01*
X326Y472D02*
X332Y472D01*
X375Y472D02*
X381Y472D01*
X385Y472D02*
X392Y472D01*
X403Y472D02*
X409Y472D01*
X432Y472D02*
X438Y472D01*
X450Y472D02*
X457Y472D01*
X476Y472D02*
X485Y472D01*
X909Y472D02*
X918Y472D01*
X1013Y472D02*
X1019Y472D01*
X1040Y472D02*
X1046Y472D01*
X1063Y472D02*
X1069Y472D01*
X1090Y472D02*
X1096Y472D01*
X1127Y472D02*
X1133Y472D01*
X1163Y472D02*
X1169Y472D01*
X1191Y472D02*
X1197Y472D01*
X1213Y472D02*
X1219Y472D01*
X1227Y472D02*
X1234Y472D01*
X1312Y472D02*
X1327Y472D01*
X0Y471D02*
X7Y471D01*
X73Y471D02*
X82Y471D01*
X124Y471D02*
X130Y471D01*
X138Y471D02*
X144Y471D01*
X152Y471D02*
X158Y471D01*
X175Y471D02*
X182Y471D01*
X224Y471D02*
X255Y471D01*
X325Y471D02*
X332Y471D01*
X375Y471D02*
X381Y471D01*
X386Y471D02*
X393Y471D01*
X403Y471D02*
X409Y471D01*
X432Y471D02*
X438Y471D01*
X451Y471D02*
X457Y471D01*
X476Y471D02*
X485Y471D01*
X909Y471D02*
X918Y471D01*
X1013Y471D02*
X1019Y471D01*
X1040Y471D02*
X1046Y471D01*
X1063Y471D02*
X1069Y471D01*
X1090Y471D02*
X1096Y471D01*
X1127Y471D02*
X1133Y471D01*
X1163Y471D02*
X1169Y471D01*
X1191Y471D02*
X1197Y471D01*
X1213Y471D02*
X1219Y471D01*
X1227Y471D02*
X1235Y471D01*
X1312Y471D02*
X1327Y471D01*
X0Y470D02*
X7Y470D01*
X73Y470D02*
X82Y470D01*
X124Y470D02*
X130Y470D01*
X138Y470D02*
X144Y470D01*
X152Y470D02*
X158Y470D01*
X175Y470D02*
X182Y470D01*
X224Y470D02*
X254Y470D01*
X325Y470D02*
X331Y470D01*
X375Y470D02*
X381Y470D01*
X386Y470D02*
X393Y470D01*
X403Y470D02*
X409Y470D01*
X432Y470D02*
X438Y470D01*
X451Y470D02*
X458Y470D01*
X476Y470D02*
X485Y470D01*
X909Y470D02*
X918Y470D01*
X1013Y470D02*
X1019Y470D01*
X1040Y470D02*
X1046Y470D01*
X1063Y470D02*
X1069Y470D01*
X1090Y470D02*
X1096Y470D01*
X1127Y470D02*
X1133Y470D01*
X1163Y470D02*
X1170Y470D01*
X1190Y470D02*
X1197Y470D01*
X1213Y470D02*
X1219Y470D01*
X1228Y470D02*
X1235Y470D01*
X1312Y470D02*
X1327Y470D01*
X0Y469D02*
X7Y469D01*
X73Y469D02*
X82Y469D01*
X124Y469D02*
X130Y469D01*
X138Y469D02*
X143Y469D01*
X152Y469D02*
X158Y469D01*
X175Y469D02*
X181Y469D01*
X224Y469D02*
X253Y469D01*
X325Y469D02*
X331Y469D01*
X375Y469D02*
X381Y469D01*
X387Y469D02*
X393Y469D01*
X403Y469D02*
X409Y469D01*
X432Y469D02*
X438Y469D01*
X452Y469D02*
X458Y469D01*
X476Y469D02*
X485Y469D01*
X909Y469D02*
X918Y469D01*
X1013Y469D02*
X1019Y469D01*
X1040Y469D02*
X1046Y469D01*
X1063Y469D02*
X1070Y469D01*
X1090Y469D02*
X1096Y469D01*
X1127Y469D02*
X1133Y469D01*
X1164Y469D02*
X1170Y469D01*
X1190Y469D02*
X1196Y469D01*
X1213Y469D02*
X1219Y469D01*
X1229Y469D02*
X1236Y469D01*
X1312Y469D02*
X1327Y469D01*
X0Y468D02*
X7Y468D01*
X73Y468D02*
X82Y468D01*
X124Y468D02*
X130Y468D01*
X140Y468D02*
X142Y468D01*
X152Y468D02*
X158Y468D01*
X175Y468D02*
X181Y468D01*
X224Y468D02*
X250Y468D01*
X325Y468D02*
X331Y468D01*
X375Y468D02*
X381Y468D01*
X387Y468D02*
X394Y468D01*
X403Y468D02*
X409Y468D01*
X432Y468D02*
X438Y468D01*
X452Y468D02*
X458Y468D01*
X476Y468D02*
X485Y468D01*
X909Y468D02*
X918Y468D01*
X1013Y468D02*
X1019Y468D01*
X1040Y468D02*
X1046Y468D01*
X1063Y468D02*
X1070Y468D01*
X1089Y468D02*
X1096Y468D01*
X1127Y468D02*
X1133Y468D01*
X1164Y468D02*
X1170Y468D01*
X1190Y468D02*
X1196Y468D01*
X1213Y468D02*
X1219Y468D01*
X1229Y468D02*
X1236Y468D01*
X1312Y468D02*
X1327Y468D01*
X0Y467D02*
X7Y467D01*
X73Y467D02*
X82Y467D01*
X124Y467D02*
X130Y467D01*
X152Y467D02*
X158Y467D01*
X174Y467D02*
X180Y467D01*
X224Y467D02*
X230Y467D01*
X237Y467D02*
X244Y467D01*
X325Y467D02*
X331Y467D01*
X375Y467D02*
X381Y467D01*
X388Y467D02*
X394Y467D01*
X403Y467D02*
X409Y467D01*
X432Y467D02*
X438Y467D01*
X453Y467D02*
X459Y467D01*
X476Y467D02*
X485Y467D01*
X909Y467D02*
X918Y467D01*
X1013Y467D02*
X1019Y467D01*
X1040Y467D02*
X1046Y467D01*
X1064Y467D02*
X1070Y467D01*
X1089Y467D02*
X1095Y467D01*
X1127Y467D02*
X1133Y467D01*
X1164Y467D02*
X1171Y467D01*
X1189Y467D02*
X1196Y467D01*
X1213Y467D02*
X1219Y467D01*
X1230Y467D02*
X1237Y467D01*
X1312Y467D02*
X1327Y467D01*
X0Y466D02*
X7Y466D01*
X73Y466D02*
X82Y466D01*
X124Y466D02*
X130Y466D01*
X152Y466D02*
X158Y466D01*
X174Y466D02*
X180Y466D01*
X224Y466D02*
X230Y466D01*
X237Y466D02*
X244Y466D01*
X325Y466D02*
X331Y466D01*
X375Y466D02*
X381Y466D01*
X388Y466D02*
X395Y466D01*
X403Y466D02*
X409Y466D01*
X432Y466D02*
X438Y466D01*
X453Y466D02*
X459Y466D01*
X476Y466D02*
X485Y466D01*
X909Y466D02*
X918Y466D01*
X1013Y466D02*
X1019Y466D01*
X1040Y466D02*
X1046Y466D01*
X1064Y466D02*
X1071Y466D01*
X1088Y466D02*
X1095Y466D01*
X1127Y466D02*
X1133Y466D01*
X1165Y466D02*
X1171Y466D01*
X1189Y466D02*
X1195Y466D01*
X1213Y466D02*
X1219Y466D01*
X1230Y466D02*
X1237Y466D01*
X1312Y466D02*
X1327Y466D01*
X0Y465D02*
X7Y465D01*
X73Y465D02*
X82Y465D01*
X124Y465D02*
X130Y465D01*
X152Y465D02*
X158Y465D01*
X174Y465D02*
X180Y465D01*
X224Y465D02*
X230Y465D01*
X238Y465D02*
X245Y465D01*
X325Y465D02*
X331Y465D01*
X375Y465D02*
X381Y465D01*
X388Y465D02*
X395Y465D01*
X403Y465D02*
X409Y465D01*
X432Y465D02*
X438Y465D01*
X453Y465D02*
X459Y465D01*
X476Y465D02*
X485Y465D01*
X909Y465D02*
X918Y465D01*
X1013Y465D02*
X1019Y465D01*
X1040Y465D02*
X1046Y465D01*
X1065Y465D02*
X1071Y465D01*
X1088Y465D02*
X1095Y465D01*
X1127Y465D02*
X1133Y465D01*
X1165Y465D02*
X1172Y465D01*
X1188Y465D02*
X1195Y465D01*
X1213Y465D02*
X1219Y465D01*
X1231Y465D02*
X1238Y465D01*
X1312Y465D02*
X1327Y465D01*
X0Y464D02*
X7Y464D01*
X73Y464D02*
X82Y464D01*
X124Y464D02*
X130Y464D01*
X152Y464D02*
X158Y464D01*
X174Y464D02*
X180Y464D01*
X224Y464D02*
X230Y464D01*
X238Y464D02*
X245Y464D01*
X325Y464D02*
X331Y464D01*
X375Y464D02*
X381Y464D01*
X389Y464D02*
X396Y464D01*
X403Y464D02*
X409Y464D01*
X432Y464D02*
X438Y464D01*
X453Y464D02*
X459Y464D01*
X476Y464D02*
X485Y464D01*
X909Y464D02*
X918Y464D01*
X1013Y464D02*
X1019Y464D01*
X1040Y464D02*
X1046Y464D01*
X1065Y464D02*
X1072Y464D01*
X1087Y464D02*
X1094Y464D01*
X1127Y464D02*
X1133Y464D01*
X1165Y464D02*
X1172Y464D01*
X1188Y464D02*
X1195Y464D01*
X1213Y464D02*
X1219Y464D01*
X1231Y464D02*
X1239Y464D01*
X1312Y464D02*
X1327Y464D01*
X0Y463D02*
X7Y463D01*
X73Y463D02*
X82Y463D01*
X124Y463D02*
X130Y463D01*
X152Y463D02*
X158Y463D01*
X174Y463D02*
X181Y463D01*
X224Y463D02*
X230Y463D01*
X239Y463D02*
X246Y463D01*
X325Y463D02*
X331Y463D01*
X375Y463D02*
X381Y463D01*
X389Y463D02*
X396Y463D01*
X403Y463D02*
X409Y463D01*
X432Y463D02*
X438Y463D01*
X452Y463D02*
X459Y463D01*
X476Y463D02*
X485Y463D01*
X909Y463D02*
X918Y463D01*
X1013Y463D02*
X1019Y463D01*
X1040Y463D02*
X1046Y463D01*
X1066Y463D02*
X1072Y463D01*
X1087Y463D02*
X1094Y463D01*
X1127Y463D02*
X1133Y463D01*
X1166Y463D02*
X1173Y463D01*
X1187Y463D02*
X1194Y463D01*
X1213Y463D02*
X1219Y463D01*
X1232Y463D02*
X1239Y463D01*
X1312Y463D02*
X1327Y463D01*
X0Y462D02*
X7Y462D01*
X73Y462D02*
X82Y462D01*
X124Y462D02*
X130Y462D01*
X152Y462D02*
X158Y462D01*
X175Y462D02*
X181Y462D01*
X224Y462D02*
X230Y462D01*
X239Y462D02*
X247Y462D01*
X325Y462D02*
X331Y462D01*
X343Y462D02*
X358Y462D01*
X375Y462D02*
X381Y462D01*
X390Y462D02*
X396Y462D01*
X403Y462D02*
X409Y462D01*
X432Y462D02*
X438Y462D01*
X452Y462D02*
X458Y462D01*
X476Y462D02*
X485Y462D01*
X909Y462D02*
X918Y462D01*
X1013Y462D02*
X1019Y462D01*
X1040Y462D02*
X1046Y462D01*
X1066Y462D02*
X1073Y462D01*
X1086Y462D02*
X1093Y462D01*
X1127Y462D02*
X1133Y462D01*
X1166Y462D02*
X1173Y462D01*
X1187Y462D02*
X1194Y462D01*
X1213Y462D02*
X1219Y462D01*
X1233Y462D02*
X1240Y462D01*
X1312Y462D02*
X1327Y462D01*
X0Y461D02*
X7Y461D01*
X73Y461D02*
X82Y461D01*
X124Y461D02*
X130Y461D01*
X152Y461D02*
X158Y461D01*
X175Y461D02*
X181Y461D01*
X224Y461D02*
X230Y461D01*
X240Y461D02*
X247Y461D01*
X325Y461D02*
X331Y461D01*
X343Y461D02*
X358Y461D01*
X375Y461D02*
X381Y461D01*
X390Y461D02*
X397Y461D01*
X403Y461D02*
X409Y461D01*
X432Y461D02*
X438Y461D01*
X452Y461D02*
X458Y461D01*
X476Y461D02*
X485Y461D01*
X909Y461D02*
X918Y461D01*
X1013Y461D02*
X1019Y461D01*
X1040Y461D02*
X1046Y461D01*
X1067Y461D02*
X1073Y461D01*
X1086Y461D02*
X1093Y461D01*
X1127Y461D02*
X1133Y461D01*
X1167Y461D02*
X1174Y461D01*
X1186Y461D02*
X1193Y461D01*
X1213Y461D02*
X1219Y461D01*
X1233Y461D02*
X1240Y461D01*
X1312Y461D02*
X1327Y461D01*
X0Y460D02*
X7Y460D01*
X73Y460D02*
X82Y460D01*
X124Y460D02*
X130Y460D01*
X152Y460D02*
X158Y460D01*
X175Y460D02*
X182Y460D01*
X224Y460D02*
X230Y460D01*
X241Y460D02*
X248Y460D01*
X325Y460D02*
X331Y460D01*
X342Y460D02*
X358Y460D01*
X375Y460D02*
X381Y460D01*
X391Y460D02*
X397Y460D01*
X403Y460D02*
X409Y460D01*
X432Y460D02*
X438Y460D01*
X451Y460D02*
X458Y460D01*
X476Y460D02*
X485Y460D01*
X909Y460D02*
X918Y460D01*
X1013Y460D02*
X1019Y460D01*
X1040Y460D02*
X1046Y460D01*
X1067Y460D02*
X1074Y460D01*
X1085Y460D02*
X1092Y460D01*
X1127Y460D02*
X1133Y460D01*
X1167Y460D02*
X1174Y460D01*
X1186Y460D02*
X1193Y460D01*
X1213Y460D02*
X1219Y460D01*
X1234Y460D02*
X1241Y460D01*
X1312Y460D02*
X1327Y460D01*
X0Y459D02*
X7Y459D01*
X73Y459D02*
X82Y459D01*
X124Y459D02*
X130Y459D01*
X152Y459D02*
X158Y459D01*
X176Y459D02*
X182Y459D01*
X224Y459D02*
X230Y459D01*
X241Y459D02*
X248Y459D01*
X325Y459D02*
X331Y459D01*
X342Y459D02*
X358Y459D01*
X375Y459D02*
X381Y459D01*
X391Y459D02*
X398Y459D01*
X403Y459D02*
X409Y459D01*
X432Y459D02*
X438Y459D01*
X451Y459D02*
X457Y459D01*
X476Y459D02*
X485Y459D01*
X909Y459D02*
X918Y459D01*
X1013Y459D02*
X1019Y459D01*
X1040Y459D02*
X1046Y459D01*
X1068Y459D02*
X1074Y459D01*
X1085Y459D02*
X1092Y459D01*
X1127Y459D02*
X1133Y459D01*
X1168Y459D02*
X1175Y459D01*
X1185Y459D02*
X1192Y459D01*
X1213Y459D02*
X1219Y459D01*
X1234Y459D02*
X1242Y459D01*
X1312Y459D02*
X1327Y459D01*
X0Y458D02*
X7Y458D01*
X73Y458D02*
X82Y458D01*
X124Y458D02*
X130Y458D01*
X152Y458D02*
X158Y458D01*
X176Y458D02*
X183Y458D01*
X224Y458D02*
X230Y458D01*
X242Y458D02*
X249Y458D01*
X325Y458D02*
X331Y458D01*
X342Y458D02*
X358Y458D01*
X375Y458D02*
X381Y458D01*
X392Y458D02*
X398Y458D01*
X403Y458D02*
X409Y458D01*
X432Y458D02*
X438Y458D01*
X450Y458D02*
X457Y458D01*
X476Y458D02*
X485Y458D01*
X909Y458D02*
X918Y458D01*
X1013Y458D02*
X1019Y458D01*
X1040Y458D02*
X1046Y458D01*
X1068Y458D02*
X1075Y458D01*
X1084Y458D02*
X1091Y458D01*
X1127Y458D02*
X1133Y458D01*
X1168Y458D02*
X1175Y458D01*
X1185Y458D02*
X1192Y458D01*
X1213Y458D02*
X1219Y458D01*
X1235Y458D02*
X1242Y458D01*
X1312Y458D02*
X1327Y458D01*
X0Y457D02*
X7Y457D01*
X61Y457D02*
X64Y457D01*
X73Y457D02*
X82Y457D01*
X124Y457D02*
X130Y457D01*
X152Y457D02*
X158Y457D01*
X176Y457D02*
X183Y457D01*
X224Y457D02*
X230Y457D01*
X242Y457D02*
X250Y457D01*
X325Y457D02*
X331Y457D01*
X343Y457D02*
X358Y457D01*
X375Y457D02*
X381Y457D01*
X392Y457D02*
X399Y457D01*
X403Y457D02*
X409Y457D01*
X432Y457D02*
X438Y457D01*
X450Y457D02*
X457Y457D01*
X476Y457D02*
X485Y457D01*
X909Y457D02*
X918Y457D01*
X1013Y457D02*
X1019Y457D01*
X1040Y457D02*
X1046Y457D01*
X1069Y457D02*
X1075Y457D01*
X1084Y457D02*
X1091Y457D01*
X1127Y457D02*
X1133Y457D01*
X1169Y457D02*
X1176Y457D01*
X1184Y457D02*
X1191Y457D01*
X1213Y457D02*
X1219Y457D01*
X1236Y457D02*
X1243Y457D01*
X1312Y457D02*
X1327Y457D01*
X0Y456D02*
X7Y456D01*
X60Y456D02*
X65Y456D01*
X73Y456D02*
X82Y456D01*
X124Y456D02*
X130Y456D01*
X152Y456D02*
X158Y456D01*
X177Y456D02*
X184Y456D01*
X224Y456D02*
X230Y456D01*
X243Y456D02*
X250Y456D01*
X325Y456D02*
X331Y456D01*
X344Y456D02*
X358Y456D01*
X375Y456D02*
X381Y456D01*
X392Y456D02*
X399Y456D01*
X403Y456D02*
X409Y456D01*
X432Y456D02*
X438Y456D01*
X449Y456D02*
X456Y456D01*
X476Y456D02*
X485Y456D01*
X909Y456D02*
X918Y456D01*
X1013Y456D02*
X1019Y456D01*
X1040Y456D02*
X1046Y456D01*
X1069Y456D02*
X1076Y456D01*
X1083Y456D02*
X1090Y456D01*
X1127Y456D02*
X1133Y456D01*
X1169Y456D02*
X1176Y456D01*
X1184Y456D02*
X1191Y456D01*
X1213Y456D02*
X1219Y456D01*
X1236Y456D02*
X1243Y456D01*
X1312Y456D02*
X1327Y456D01*
X0Y455D02*
X7Y455D01*
X60Y455D02*
X65Y455D01*
X73Y455D02*
X82Y455D01*
X124Y455D02*
X130Y455D01*
X152Y455D02*
X158Y455D01*
X177Y455D02*
X184Y455D01*
X224Y455D02*
X230Y455D01*
X244Y455D02*
X251Y455D01*
X325Y455D02*
X331Y455D01*
X352Y455D02*
X358Y455D01*
X375Y455D02*
X381Y455D01*
X393Y455D02*
X400Y455D01*
X403Y455D02*
X409Y455D01*
X432Y455D02*
X438Y455D01*
X449Y455D02*
X456Y455D01*
X476Y455D02*
X485Y455D01*
X909Y455D02*
X918Y455D01*
X1013Y455D02*
X1019Y455D01*
X1040Y455D02*
X1046Y455D01*
X1070Y455D02*
X1076Y455D01*
X1083Y455D02*
X1090Y455D01*
X1127Y455D02*
X1133Y455D01*
X1170Y455D02*
X1177Y455D01*
X1183Y455D02*
X1190Y455D01*
X1213Y455D02*
X1219Y455D01*
X1237Y455D02*
X1244Y455D01*
X1312Y455D02*
X1327Y455D01*
X0Y454D02*
X7Y454D01*
X60Y454D02*
X66Y454D01*
X73Y454D02*
X82Y454D01*
X124Y454D02*
X130Y454D01*
X152Y454D02*
X158Y454D01*
X178Y454D02*
X185Y454D01*
X224Y454D02*
X230Y454D01*
X244Y454D02*
X251Y454D01*
X325Y454D02*
X331Y454D01*
X352Y454D02*
X358Y454D01*
X375Y454D02*
X381Y454D01*
X393Y454D02*
X400Y454D01*
X403Y454D02*
X409Y454D01*
X432Y454D02*
X438Y454D01*
X448Y454D02*
X455Y454D01*
X476Y454D02*
X485Y454D01*
X909Y454D02*
X918Y454D01*
X1013Y454D02*
X1019Y454D01*
X1040Y454D02*
X1046Y454D01*
X1070Y454D02*
X1077Y454D01*
X1082Y454D02*
X1089Y454D01*
X1127Y454D02*
X1133Y454D01*
X1170Y454D02*
X1177Y454D01*
X1183Y454D02*
X1190Y454D01*
X1213Y454D02*
X1219Y454D01*
X1237Y454D02*
X1244Y454D01*
X1312Y454D02*
X1327Y454D01*
X0Y453D02*
X7Y453D01*
X60Y453D02*
X66Y453D01*
X73Y453D02*
X82Y453D01*
X124Y453D02*
X130Y453D01*
X152Y453D02*
X158Y453D01*
X178Y453D02*
X185Y453D01*
X224Y453D02*
X230Y453D01*
X245Y453D02*
X252Y453D01*
X325Y453D02*
X331Y453D01*
X352Y453D02*
X358Y453D01*
X375Y453D02*
X381Y453D01*
X394Y453D02*
X400Y453D01*
X403Y453D02*
X409Y453D01*
X432Y453D02*
X438Y453D01*
X448Y453D02*
X455Y453D01*
X476Y453D02*
X485Y453D01*
X909Y453D02*
X918Y453D01*
X1013Y453D02*
X1019Y453D01*
X1040Y453D02*
X1046Y453D01*
X1071Y453D02*
X1078Y453D01*
X1082Y453D02*
X1089Y453D01*
X1127Y453D02*
X1133Y453D01*
X1171Y453D02*
X1178Y453D01*
X1182Y453D02*
X1189Y453D01*
X1213Y453D02*
X1219Y453D01*
X1238Y453D02*
X1245Y453D01*
X1312Y453D02*
X1327Y453D01*
X0Y452D02*
X7Y452D01*
X60Y452D02*
X66Y452D01*
X73Y452D02*
X82Y452D01*
X124Y452D02*
X130Y452D01*
X152Y452D02*
X158Y452D01*
X179Y452D02*
X186Y452D01*
X224Y452D02*
X230Y452D01*
X245Y452D02*
X252Y452D01*
X325Y452D02*
X331Y452D01*
X352Y452D02*
X358Y452D01*
X375Y452D02*
X381Y452D01*
X394Y452D02*
X401Y452D01*
X403Y452D02*
X409Y452D01*
X432Y452D02*
X438Y452D01*
X447Y452D02*
X454Y452D01*
X476Y452D02*
X485Y452D01*
X909Y452D02*
X918Y452D01*
X1013Y452D02*
X1019Y452D01*
X1040Y452D02*
X1046Y452D01*
X1071Y452D02*
X1088Y452D01*
X1127Y452D02*
X1133Y452D01*
X1171Y452D02*
X1189Y452D01*
X1213Y452D02*
X1219Y452D01*
X1238Y452D02*
X1246Y452D01*
X1312Y452D02*
X1327Y452D01*
X0Y451D02*
X7Y451D01*
X60Y451D02*
X66Y451D01*
X73Y451D02*
X82Y451D01*
X124Y451D02*
X130Y451D01*
X152Y451D02*
X158Y451D01*
X179Y451D02*
X186Y451D01*
X224Y451D02*
X230Y451D01*
X246Y451D02*
X253Y451D01*
X325Y451D02*
X331Y451D01*
X352Y451D02*
X358Y451D01*
X375Y451D02*
X381Y451D01*
X395Y451D02*
X409Y451D01*
X432Y451D02*
X438Y451D01*
X447Y451D02*
X454Y451D01*
X476Y451D02*
X485Y451D01*
X909Y451D02*
X918Y451D01*
X1013Y451D02*
X1019Y451D01*
X1040Y451D02*
X1046Y451D01*
X1072Y451D02*
X1088Y451D01*
X1127Y451D02*
X1133Y451D01*
X1172Y451D02*
X1188Y451D01*
X1213Y451D02*
X1219Y451D01*
X1239Y451D02*
X1246Y451D01*
X1312Y451D02*
X1327Y451D01*
X0Y450D02*
X7Y450D01*
X60Y450D02*
X66Y450D01*
X73Y450D02*
X82Y450D01*
X124Y450D02*
X130Y450D01*
X152Y450D02*
X158Y450D01*
X180Y450D02*
X187Y450D01*
X224Y450D02*
X230Y450D01*
X246Y450D02*
X254Y450D01*
X325Y450D02*
X331Y450D01*
X352Y450D02*
X358Y450D01*
X375Y450D02*
X381Y450D01*
X395Y450D02*
X409Y450D01*
X432Y450D02*
X438Y450D01*
X446Y450D02*
X453Y450D01*
X476Y450D02*
X485Y450D01*
X909Y450D02*
X918Y450D01*
X1013Y450D02*
X1019Y450D01*
X1040Y450D02*
X1046Y450D01*
X1072Y450D02*
X1087Y450D01*
X1127Y450D02*
X1133Y450D01*
X1172Y450D02*
X1187Y450D01*
X1213Y450D02*
X1219Y450D01*
X1240Y450D02*
X1247Y450D01*
X1312Y450D02*
X1327Y450D01*
X0Y449D02*
X7Y449D01*
X60Y449D02*
X66Y449D01*
X73Y449D02*
X82Y449D01*
X124Y449D02*
X130Y449D01*
X152Y449D02*
X158Y449D01*
X180Y449D02*
X187Y449D01*
X224Y449D02*
X230Y449D01*
X247Y449D02*
X254Y449D01*
X325Y449D02*
X331Y449D01*
X352Y449D02*
X358Y449D01*
X375Y449D02*
X381Y449D01*
X395Y449D02*
X409Y449D01*
X432Y449D02*
X438Y449D01*
X446Y449D02*
X453Y449D01*
X476Y449D02*
X485Y449D01*
X535Y449D02*
X536Y449D01*
X909Y449D02*
X918Y449D01*
X1013Y449D02*
X1019Y449D01*
X1040Y449D02*
X1046Y449D01*
X1073Y449D02*
X1086Y449D01*
X1127Y449D02*
X1133Y449D01*
X1173Y449D02*
X1187Y449D01*
X1213Y449D02*
X1219Y449D01*
X1240Y449D02*
X1247Y449D01*
X1312Y449D02*
X1327Y449D01*
X0Y448D02*
X7Y448D01*
X59Y448D02*
X66Y448D01*
X73Y448D02*
X82Y448D01*
X124Y448D02*
X130Y448D01*
X152Y448D02*
X158Y448D01*
X181Y448D02*
X188Y448D01*
X224Y448D02*
X230Y448D01*
X248Y448D02*
X255Y448D01*
X325Y448D02*
X331Y448D01*
X352Y448D02*
X358Y448D01*
X375Y448D02*
X381Y448D01*
X396Y448D02*
X409Y448D01*
X432Y448D02*
X438Y448D01*
X445Y448D02*
X452Y448D01*
X476Y448D02*
X485Y448D01*
X534Y448D02*
X537Y448D01*
X909Y448D02*
X918Y448D01*
X1013Y448D02*
X1019Y448D01*
X1040Y448D02*
X1046Y448D01*
X1074Y448D02*
X1086Y448D01*
X1127Y448D02*
X1133Y448D01*
X1174Y448D02*
X1186Y448D01*
X1214Y448D02*
X1219Y448D01*
X1241Y448D02*
X1247Y448D01*
X1312Y448D02*
X1327Y448D01*
X0Y447D02*
X7Y447D01*
X14Y447D02*
X66Y447D01*
X73Y447D02*
X82Y447D01*
X124Y447D02*
X130Y447D01*
X152Y447D02*
X158Y447D01*
X181Y447D02*
X188Y447D01*
X224Y447D02*
X230Y447D01*
X248Y447D02*
X255Y447D01*
X325Y447D02*
X331Y447D01*
X352Y447D02*
X358Y447D01*
X375Y447D02*
X381Y447D01*
X396Y447D02*
X409Y447D01*
X432Y447D02*
X438Y447D01*
X445Y447D02*
X452Y447D01*
X476Y447D02*
X485Y447D01*
X533Y447D02*
X538Y447D01*
X909Y447D02*
X918Y447D01*
X1013Y447D02*
X1018Y447D01*
X1041Y447D02*
X1046Y447D01*
X1075Y447D02*
X1084Y447D01*
X1127Y447D02*
X1132Y447D01*
X1175Y447D02*
X1185Y447D01*
X1214Y447D02*
X1219Y447D01*
X1241Y447D02*
X1246Y447D01*
X1312Y447D02*
X1327Y447D01*
X0Y446D02*
X7Y446D01*
X13Y446D02*
X66Y446D01*
X73Y446D02*
X82Y446D01*
X124Y446D02*
X130Y446D01*
X152Y446D02*
X158Y446D01*
X182Y446D02*
X189Y446D01*
X224Y446D02*
X230Y446D01*
X249Y446D02*
X256Y446D01*
X325Y446D02*
X332Y446D01*
X351Y446D02*
X358Y446D01*
X375Y446D02*
X381Y446D01*
X397Y446D02*
X409Y446D01*
X432Y446D02*
X438Y446D01*
X444Y446D02*
X451Y446D01*
X476Y446D02*
X485Y446D01*
X533Y446D02*
X539Y446D01*
X909Y446D02*
X918Y446D01*
X1014Y446D02*
X1017Y446D01*
X1042Y446D02*
X1045Y446D01*
X1077Y446D02*
X1083Y446D01*
X1128Y446D02*
X1131Y446D01*
X1177Y446D02*
X1183Y446D01*
X1215Y446D02*
X1218Y446D01*
X1242Y446D02*
X1246Y446D01*
X1312Y446D02*
X1327Y446D01*
X0Y445D02*
X7Y445D01*
X13Y445D02*
X66Y445D01*
X73Y445D02*
X82Y445D01*
X124Y445D02*
X130Y445D01*
X152Y445D02*
X158Y445D01*
X182Y445D02*
X205Y445D01*
X224Y445D02*
X230Y445D01*
X249Y445D02*
X257Y445D01*
X325Y445D02*
X358Y445D01*
X375Y445D02*
X381Y445D01*
X397Y445D02*
X409Y445D01*
X428Y445D02*
X451Y445D01*
X476Y445D02*
X485Y445D01*
X534Y445D02*
X539Y445D01*
X909Y445D02*
X918Y445D01*
X1312Y445D02*
X1327Y445D01*
X0Y444D02*
X7Y444D01*
X12Y444D02*
X66Y444D01*
X73Y444D02*
X82Y444D01*
X124Y444D02*
X130Y444D01*
X152Y444D02*
X158Y444D01*
X183Y444D02*
X207Y444D01*
X224Y444D02*
X230Y444D01*
X250Y444D02*
X257Y444D01*
X326Y444D02*
X357Y444D01*
X375Y444D02*
X381Y444D01*
X398Y444D02*
X409Y444D01*
X426Y444D02*
X450Y444D01*
X476Y444D02*
X485Y444D01*
X535Y444D02*
X539Y444D01*
X909Y444D02*
X918Y444D01*
X1312Y444D02*
X1327Y444D01*
X0Y443D02*
X7Y443D01*
X12Y443D02*
X66Y443D01*
X73Y443D02*
X82Y443D01*
X124Y443D02*
X130Y443D01*
X152Y443D02*
X158Y443D01*
X184Y443D02*
X207Y443D01*
X224Y443D02*
X230Y443D01*
X251Y443D02*
X258Y443D01*
X326Y443D02*
X357Y443D01*
X375Y443D02*
X381Y443D01*
X398Y443D02*
X409Y443D01*
X426Y443D02*
X449Y443D01*
X476Y443D02*
X485Y443D01*
X536Y443D02*
X539Y443D01*
X909Y443D02*
X918Y443D01*
X1312Y443D02*
X1327Y443D01*
X0Y442D02*
X7Y442D01*
X12Y442D02*
X66Y442D01*
X73Y442D02*
X82Y442D01*
X124Y442D02*
X130Y442D01*
X152Y442D02*
X158Y442D01*
X184Y442D02*
X208Y442D01*
X224Y442D02*
X230Y442D01*
X251Y442D02*
X258Y442D01*
X327Y442D02*
X356Y442D01*
X375Y442D02*
X381Y442D01*
X399Y442D02*
X409Y442D01*
X425Y442D02*
X449Y442D01*
X476Y442D02*
X485Y442D01*
X537Y442D02*
X539Y442D01*
X909Y442D02*
X918Y442D01*
X1312Y442D02*
X1327Y442D01*
X0Y441D02*
X7Y441D01*
X12Y441D02*
X66Y441D01*
X73Y441D02*
X82Y441D01*
X124Y441D02*
X130Y441D01*
X152Y441D02*
X157Y441D01*
X185Y441D02*
X208Y441D01*
X225Y441D02*
X230Y441D01*
X252Y441D02*
X258Y441D01*
X328Y441D02*
X355Y441D01*
X375Y441D02*
X381Y441D01*
X399Y441D02*
X409Y441D01*
X425Y441D02*
X448Y441D01*
X476Y441D02*
X485Y441D01*
X538Y441D02*
X539Y441D01*
X909Y441D02*
X918Y441D01*
X1312Y441D02*
X1327Y441D01*
X0Y440D02*
X7Y440D01*
X12Y440D02*
X18Y440D01*
X60Y440D02*
X66Y440D01*
X73Y440D02*
X82Y440D01*
X124Y440D02*
X130Y440D01*
X152Y440D02*
X157Y440D01*
X186Y440D02*
X207Y440D01*
X225Y440D02*
X230Y440D01*
X252Y440D02*
X258Y440D01*
X329Y440D02*
X354Y440D01*
X375Y440D02*
X381Y440D01*
X399Y440D02*
X409Y440D01*
X426Y440D02*
X447Y440D01*
X476Y440D02*
X485Y440D01*
X539Y440D02*
X539Y440D01*
X909Y440D02*
X918Y440D01*
X1312Y440D02*
X1327Y440D01*
X0Y439D02*
X7Y439D01*
X12Y439D02*
X18Y439D01*
X60Y439D02*
X66Y439D01*
X73Y439D02*
X82Y439D01*
X125Y439D02*
X129Y439D01*
X153Y439D02*
X156Y439D01*
X188Y439D02*
X207Y439D01*
X226Y439D02*
X229Y439D01*
X253Y439D02*
X257Y439D01*
X331Y439D02*
X352Y439D01*
X376Y439D02*
X380Y439D01*
X400Y439D02*
X409Y439D01*
X426Y439D02*
X445Y439D01*
X476Y439D02*
X485Y439D01*
X909Y439D02*
X918Y439D01*
X1312Y439D02*
X1327Y439D01*
X0Y438D02*
X7Y438D01*
X12Y438D02*
X18Y438D01*
X60Y438D02*
X66Y438D01*
X73Y438D02*
X82Y438D01*
X476Y438D02*
X485Y438D01*
X909Y438D02*
X918Y438D01*
X1312Y438D02*
X1327Y438D01*
X0Y437D02*
X7Y437D01*
X12Y437D02*
X18Y437D01*
X60Y437D02*
X66Y437D01*
X73Y437D02*
X82Y437D01*
X476Y437D02*
X485Y437D01*
X909Y437D02*
X918Y437D01*
X1312Y437D02*
X1327Y437D01*
X0Y436D02*
X7Y436D01*
X12Y436D02*
X18Y436D01*
X60Y436D02*
X66Y436D01*
X73Y436D02*
X82Y436D01*
X476Y436D02*
X485Y436D01*
X909Y436D02*
X918Y436D01*
X1312Y436D02*
X1327Y436D01*
X0Y435D02*
X7Y435D01*
X12Y435D02*
X18Y435D01*
X60Y435D02*
X66Y435D01*
X73Y435D02*
X82Y435D01*
X476Y435D02*
X485Y435D01*
X909Y435D02*
X918Y435D01*
X1312Y435D02*
X1327Y435D01*
X0Y434D02*
X7Y434D01*
X12Y434D02*
X18Y434D01*
X60Y434D02*
X66Y434D01*
X73Y434D02*
X82Y434D01*
X476Y434D02*
X485Y434D01*
X909Y434D02*
X918Y434D01*
X1312Y434D02*
X1327Y434D01*
X0Y433D02*
X7Y433D01*
X13Y433D02*
X18Y433D01*
X60Y433D02*
X65Y433D01*
X73Y433D02*
X82Y433D01*
X476Y433D02*
X485Y433D01*
X909Y433D02*
X918Y433D01*
X1312Y433D02*
X1327Y433D01*
X0Y432D02*
X7Y432D01*
X13Y432D02*
X18Y432D01*
X60Y432D02*
X65Y432D01*
X73Y432D02*
X82Y432D01*
X476Y432D02*
X485Y432D01*
X909Y432D02*
X918Y432D01*
X1312Y432D02*
X1327Y432D01*
X0Y431D02*
X7Y431D01*
X14Y431D02*
X17Y431D01*
X61Y431D02*
X64Y431D01*
X73Y431D02*
X82Y431D01*
X476Y431D02*
X485Y431D01*
X909Y431D02*
X918Y431D01*
X1312Y431D02*
X1327Y431D01*
X0Y430D02*
X7Y430D01*
X73Y430D02*
X82Y430D01*
X476Y430D02*
X485Y430D01*
X909Y430D02*
X918Y430D01*
X1312Y430D02*
X1327Y430D01*
X0Y429D02*
X7Y429D01*
X73Y429D02*
X82Y429D01*
X476Y429D02*
X485Y429D01*
X909Y429D02*
X918Y429D01*
X1312Y429D02*
X1327Y429D01*
X0Y428D02*
X7Y428D01*
X73Y428D02*
X82Y428D01*
X476Y428D02*
X485Y428D01*
X909Y428D02*
X918Y428D01*
X1312Y428D02*
X1327Y428D01*
X0Y427D02*
X7Y427D01*
X73Y427D02*
X82Y427D01*
X476Y427D02*
X485Y427D01*
X909Y427D02*
X918Y427D01*
X1312Y427D02*
X1327Y427D01*
X0Y426D02*
X7Y426D01*
X73Y426D02*
X82Y426D01*
X476Y426D02*
X485Y426D01*
X909Y426D02*
X918Y426D01*
X1312Y426D02*
X1327Y426D01*
X0Y425D02*
X7Y425D01*
X73Y425D02*
X82Y425D01*
X476Y425D02*
X485Y425D01*
X909Y425D02*
X918Y425D01*
X1312Y425D02*
X1327Y425D01*
X0Y424D02*
X7Y424D01*
X73Y424D02*
X82Y424D01*
X476Y424D02*
X485Y424D01*
X909Y424D02*
X918Y424D01*
X1312Y424D02*
X1327Y424D01*
X0Y423D02*
X7Y423D01*
X73Y423D02*
X82Y423D01*
X476Y423D02*
X485Y423D01*
X909Y423D02*
X918Y423D01*
X1312Y423D02*
X1327Y423D01*
X0Y422D02*
X7Y422D01*
X73Y422D02*
X82Y422D01*
X476Y422D02*
X485Y422D01*
X909Y422D02*
X918Y422D01*
X1312Y422D02*
X1327Y422D01*
X0Y421D02*
X7Y421D01*
X73Y421D02*
X82Y421D01*
X476Y421D02*
X485Y421D01*
X909Y421D02*
X918Y421D01*
X1312Y421D02*
X1327Y421D01*
X0Y420D02*
X7Y420D01*
X73Y420D02*
X82Y420D01*
X476Y420D02*
X485Y420D01*
X909Y420D02*
X918Y420D01*
X1312Y420D02*
X1327Y420D01*
X0Y419D02*
X7Y419D01*
X73Y419D02*
X82Y419D01*
X476Y419D02*
X485Y419D01*
X909Y419D02*
X918Y419D01*
X1312Y419D02*
X1327Y419D01*
X0Y418D02*
X7Y418D01*
X73Y418D02*
X82Y418D01*
X476Y418D02*
X485Y418D01*
X561Y418D02*
X567Y418D01*
X909Y418D02*
X918Y418D01*
X1312Y418D02*
X1327Y418D01*
X0Y417D02*
X7Y417D01*
X73Y417D02*
X82Y417D01*
X476Y417D02*
X485Y417D01*
X562Y417D02*
X568Y417D01*
X909Y417D02*
X918Y417D01*
X1312Y417D02*
X1327Y417D01*
X0Y416D02*
X7Y416D01*
X73Y416D02*
X82Y416D01*
X476Y416D02*
X485Y416D01*
X563Y416D02*
X569Y416D01*
X909Y416D02*
X918Y416D01*
X1312Y416D02*
X1327Y416D01*
X0Y415D02*
X7Y415D01*
X73Y415D02*
X82Y415D01*
X476Y415D02*
X485Y415D01*
X564Y415D02*
X570Y415D01*
X909Y415D02*
X918Y415D01*
X1312Y415D02*
X1327Y415D01*
X0Y414D02*
X7Y414D01*
X73Y414D02*
X82Y414D01*
X476Y414D02*
X485Y414D01*
X565Y414D02*
X569Y414D01*
X909Y414D02*
X918Y414D01*
X1312Y414D02*
X1327Y414D01*
X0Y413D02*
X7Y413D01*
X73Y413D02*
X82Y413D01*
X476Y413D02*
X485Y413D01*
X566Y413D02*
X568Y413D01*
X909Y413D02*
X918Y413D01*
X1312Y413D02*
X1327Y413D01*
X0Y412D02*
X7Y412D01*
X73Y412D02*
X82Y412D01*
X476Y412D02*
X485Y412D01*
X567Y412D02*
X567Y412D01*
X909Y412D02*
X918Y412D01*
X1312Y412D02*
X1327Y412D01*
X0Y411D02*
X7Y411D01*
X52Y411D02*
X64Y411D01*
X73Y411D02*
X82Y411D01*
X476Y411D02*
X485Y411D01*
X909Y411D02*
X918Y411D01*
X1312Y411D02*
X1327Y411D01*
X0Y410D02*
X7Y410D01*
X34Y410D02*
X65Y410D01*
X73Y410D02*
X82Y410D01*
X476Y410D02*
X485Y410D01*
X909Y410D02*
X918Y410D01*
X1312Y410D02*
X1327Y410D01*
X0Y409D02*
X7Y409D01*
X32Y409D02*
X65Y409D01*
X73Y409D02*
X82Y409D01*
X476Y409D02*
X485Y409D01*
X909Y409D02*
X918Y409D01*
X1312Y409D02*
X1327Y409D01*
X0Y408D02*
X7Y408D01*
X31Y408D02*
X66Y408D01*
X73Y408D02*
X82Y408D01*
X476Y408D02*
X485Y408D01*
X909Y408D02*
X918Y408D01*
X1312Y408D02*
X1327Y408D01*
X0Y407D02*
X7Y407D01*
X30Y407D02*
X65Y407D01*
X73Y407D02*
X82Y407D01*
X476Y407D02*
X485Y407D01*
X909Y407D02*
X918Y407D01*
X1312Y407D02*
X1327Y407D01*
X0Y406D02*
X7Y406D01*
X29Y406D02*
X65Y406D01*
X73Y406D02*
X82Y406D01*
X476Y406D02*
X485Y406D01*
X909Y406D02*
X918Y406D01*
X1312Y406D02*
X1327Y406D01*
X0Y405D02*
X7Y405D01*
X28Y405D02*
X64Y405D01*
X73Y405D02*
X82Y405D01*
X476Y405D02*
X485Y405D01*
X909Y405D02*
X918Y405D01*
X1312Y405D02*
X1327Y405D01*
X0Y404D02*
X7Y404D01*
X28Y404D02*
X62Y404D01*
X73Y404D02*
X82Y404D01*
X476Y404D02*
X485Y404D01*
X909Y404D02*
X918Y404D01*
X1312Y404D02*
X1327Y404D01*
X0Y403D02*
X7Y403D01*
X28Y403D02*
X35Y403D01*
X42Y403D02*
X49Y403D01*
X56Y403D02*
X63Y403D01*
X73Y403D02*
X82Y403D01*
X476Y403D02*
X485Y403D01*
X909Y403D02*
X918Y403D01*
X1312Y403D02*
X1327Y403D01*
X0Y402D02*
X7Y402D01*
X27Y402D02*
X34Y402D01*
X42Y402D02*
X48Y402D01*
X56Y402D02*
X63Y402D01*
X73Y402D02*
X82Y402D01*
X476Y402D02*
X485Y402D01*
X909Y402D02*
X918Y402D01*
X1312Y402D02*
X1327Y402D01*
X0Y401D02*
X7Y401D01*
X27Y401D02*
X33Y401D01*
X42Y401D02*
X48Y401D01*
X57Y401D02*
X64Y401D01*
X73Y401D02*
X82Y401D01*
X476Y401D02*
X485Y401D01*
X909Y401D02*
X918Y401D01*
X1312Y401D02*
X1327Y401D01*
X0Y400D02*
X7Y400D01*
X27Y400D02*
X33Y400D01*
X42Y400D02*
X48Y400D01*
X57Y400D02*
X65Y400D01*
X73Y400D02*
X82Y400D01*
X476Y400D02*
X485Y400D01*
X909Y400D02*
X918Y400D01*
X1312Y400D02*
X1327Y400D01*
X0Y399D02*
X7Y399D01*
X27Y399D02*
X33Y399D01*
X42Y399D02*
X48Y399D01*
X58Y399D02*
X65Y399D01*
X73Y399D02*
X82Y399D01*
X476Y399D02*
X485Y399D01*
X909Y399D02*
X918Y399D01*
X1312Y399D02*
X1327Y399D01*
X0Y398D02*
X7Y398D01*
X27Y398D02*
X33Y398D01*
X42Y398D02*
X48Y398D01*
X59Y398D02*
X66Y398D01*
X73Y398D02*
X82Y398D01*
X476Y398D02*
X485Y398D01*
X909Y398D02*
X918Y398D01*
X1312Y398D02*
X1327Y398D01*
X0Y397D02*
X7Y397D01*
X27Y397D02*
X33Y397D01*
X42Y397D02*
X48Y397D01*
X59Y397D02*
X66Y397D01*
X73Y397D02*
X82Y397D01*
X476Y397D02*
X485Y397D01*
X909Y397D02*
X918Y397D01*
X1312Y397D02*
X1327Y397D01*
X0Y396D02*
X7Y396D01*
X27Y396D02*
X33Y396D01*
X42Y396D02*
X48Y396D01*
X60Y396D02*
X66Y396D01*
X73Y396D02*
X82Y396D01*
X476Y396D02*
X485Y396D01*
X909Y396D02*
X918Y396D01*
X1312Y396D02*
X1327Y396D01*
X0Y395D02*
X7Y395D01*
X27Y395D02*
X33Y395D01*
X42Y395D02*
X48Y395D01*
X60Y395D02*
X66Y395D01*
X73Y395D02*
X82Y395D01*
X476Y395D02*
X485Y395D01*
X909Y395D02*
X918Y395D01*
X1312Y395D02*
X1327Y395D01*
X0Y394D02*
X7Y394D01*
X27Y394D02*
X33Y394D01*
X42Y394D02*
X48Y394D01*
X60Y394D02*
X66Y394D01*
X73Y394D02*
X82Y394D01*
X476Y394D02*
X485Y394D01*
X909Y394D02*
X918Y394D01*
X1312Y394D02*
X1327Y394D01*
X0Y393D02*
X7Y393D01*
X27Y393D02*
X33Y393D01*
X42Y393D02*
X48Y393D01*
X60Y393D02*
X66Y393D01*
X73Y393D02*
X82Y393D01*
X476Y393D02*
X485Y393D01*
X909Y393D02*
X918Y393D01*
X1312Y393D02*
X1327Y393D01*
X0Y392D02*
X7Y392D01*
X27Y392D02*
X33Y392D01*
X42Y392D02*
X48Y392D01*
X60Y392D02*
X66Y392D01*
X73Y392D02*
X82Y392D01*
X476Y392D02*
X485Y392D01*
X909Y392D02*
X918Y392D01*
X1312Y392D02*
X1327Y392D01*
X0Y391D02*
X7Y391D01*
X27Y391D02*
X33Y391D01*
X42Y391D02*
X48Y391D01*
X60Y391D02*
X66Y391D01*
X73Y391D02*
X82Y391D01*
X476Y391D02*
X485Y391D01*
X909Y391D02*
X918Y391D01*
X1312Y391D02*
X1327Y391D01*
X0Y390D02*
X7Y390D01*
X27Y390D02*
X33Y390D01*
X42Y390D02*
X48Y390D01*
X60Y390D02*
X66Y390D01*
X73Y390D02*
X82Y390D01*
X476Y390D02*
X485Y390D01*
X909Y390D02*
X918Y390D01*
X1312Y390D02*
X1327Y390D01*
X0Y389D02*
X7Y389D01*
X27Y389D02*
X33Y389D01*
X42Y389D02*
X48Y389D01*
X60Y389D02*
X66Y389D01*
X73Y389D02*
X82Y389D01*
X476Y389D02*
X485Y389D01*
X909Y389D02*
X918Y389D01*
X1312Y389D02*
X1327Y389D01*
X0Y388D02*
X7Y388D01*
X27Y388D02*
X33Y388D01*
X42Y388D02*
X48Y388D01*
X60Y388D02*
X66Y388D01*
X73Y388D02*
X82Y388D01*
X476Y388D02*
X485Y388D01*
X909Y388D02*
X918Y388D01*
X1312Y388D02*
X1327Y388D01*
X0Y387D02*
X7Y387D01*
X27Y387D02*
X33Y387D01*
X42Y387D02*
X48Y387D01*
X59Y387D02*
X66Y387D01*
X73Y387D02*
X82Y387D01*
X476Y387D02*
X485Y387D01*
X909Y387D02*
X918Y387D01*
X1312Y387D02*
X1327Y387D01*
X0Y386D02*
X7Y386D01*
X27Y386D02*
X33Y386D01*
X42Y386D02*
X48Y386D01*
X59Y386D02*
X65Y386D01*
X73Y386D02*
X82Y386D01*
X476Y386D02*
X485Y386D01*
X909Y386D02*
X918Y386D01*
X1312Y386D02*
X1327Y386D01*
X0Y385D02*
X7Y385D01*
X28Y385D02*
X32Y385D01*
X42Y385D02*
X49Y385D01*
X59Y385D02*
X65Y385D01*
X73Y385D02*
X82Y385D01*
X476Y385D02*
X485Y385D01*
X909Y385D02*
X918Y385D01*
X1312Y385D02*
X1327Y385D01*
X0Y384D02*
X7Y384D01*
X29Y384D02*
X31Y384D01*
X42Y384D02*
X50Y384D01*
X57Y384D02*
X65Y384D01*
X73Y384D02*
X82Y384D01*
X476Y384D02*
X485Y384D01*
X909Y384D02*
X918Y384D01*
X1312Y384D02*
X1327Y384D01*
X0Y383D02*
X7Y383D01*
X43Y383D02*
X65Y383D01*
X73Y383D02*
X82Y383D01*
X476Y383D02*
X485Y383D01*
X909Y383D02*
X918Y383D01*
X1312Y383D02*
X1327Y383D01*
X0Y382D02*
X7Y382D01*
X43Y382D02*
X64Y382D01*
X73Y382D02*
X82Y382D01*
X476Y382D02*
X485Y382D01*
X909Y382D02*
X918Y382D01*
X1312Y382D02*
X1327Y382D01*
X0Y381D02*
X7Y381D01*
X44Y381D02*
X63Y381D01*
X73Y381D02*
X82Y381D01*
X476Y381D02*
X485Y381D01*
X909Y381D02*
X918Y381D01*
X1312Y381D02*
X1327Y381D01*
X0Y380D02*
X7Y380D01*
X45Y380D02*
X63Y380D01*
X73Y380D02*
X82Y380D01*
X476Y380D02*
X485Y380D01*
X909Y380D02*
X918Y380D01*
X1312Y380D02*
X1327Y380D01*
X0Y379D02*
X7Y379D01*
X46Y379D02*
X61Y379D01*
X73Y379D02*
X82Y379D01*
X476Y379D02*
X485Y379D01*
X909Y379D02*
X918Y379D01*
X1312Y379D02*
X1327Y379D01*
X0Y378D02*
X7Y378D01*
X48Y378D02*
X60Y378D01*
X73Y378D02*
X82Y378D01*
X476Y378D02*
X485Y378D01*
X909Y378D02*
X918Y378D01*
X1312Y378D02*
X1327Y378D01*
X0Y377D02*
X7Y377D01*
X50Y377D02*
X57Y377D01*
X73Y377D02*
X82Y377D01*
X476Y377D02*
X485Y377D01*
X909Y377D02*
X918Y377D01*
X1312Y377D02*
X1327Y377D01*
X0Y376D02*
X7Y376D01*
X73Y376D02*
X82Y376D01*
X476Y376D02*
X485Y376D01*
X1320Y376D02*
X1327Y376D01*
X0Y375D02*
X7Y375D01*
X73Y375D02*
X82Y375D01*
X476Y375D02*
X485Y375D01*
X1320Y375D02*
X1327Y375D01*
X0Y374D02*
X7Y374D01*
X73Y374D02*
X82Y374D01*
X476Y374D02*
X485Y374D01*
X1320Y374D02*
X1327Y374D01*
X0Y373D02*
X7Y373D01*
X73Y373D02*
X82Y373D01*
X476Y373D02*
X485Y373D01*
X1320Y373D02*
X1327Y373D01*
X0Y372D02*
X7Y372D01*
X73Y372D02*
X82Y372D01*
X477Y372D02*
X485Y372D01*
X1320Y372D02*
X1327Y372D01*
X0Y371D02*
X7Y371D01*
X1320Y371D02*
X1327Y371D01*
X0Y370D02*
X7Y370D01*
X1320Y370D02*
X1327Y370D01*
X0Y369D02*
X7Y369D01*
X1320Y369D02*
X1327Y369D01*
X0Y368D02*
X7Y368D01*
X1320Y368D02*
X1327Y368D01*
X0Y367D02*
X7Y367D01*
X1320Y367D02*
X1327Y367D01*
X0Y366D02*
X7Y366D01*
X1320Y366D02*
X1327Y366D01*
X0Y365D02*
X7Y365D01*
X1320Y365D02*
X1327Y365D01*
X0Y364D02*
X7Y364D01*
X1320Y364D02*
X1327Y364D01*
X0Y363D02*
X7Y363D01*
X1320Y363D02*
X1327Y363D01*
X0Y362D02*
X7Y362D01*
X1320Y362D02*
X1327Y362D01*
X0Y361D02*
X7Y361D01*
X30Y361D02*
X36Y361D01*
X1320Y361D02*
X1327Y361D01*
X0Y360D02*
X7Y360D01*
X28Y360D02*
X39Y360D01*
X1320Y360D02*
X1327Y360D01*
X0Y359D02*
X7Y359D01*
X27Y359D02*
X41Y359D01*
X1320Y359D02*
X1327Y359D01*
X0Y358D02*
X7Y358D01*
X27Y358D02*
X44Y358D01*
X1320Y358D02*
X1327Y358D01*
X0Y357D02*
X7Y357D01*
X27Y357D02*
X46Y357D01*
X1320Y357D02*
X1327Y357D01*
X0Y356D02*
X7Y356D01*
X28Y356D02*
X48Y356D01*
X1320Y356D02*
X1327Y356D01*
X0Y355D02*
X7Y355D01*
X29Y355D02*
X50Y355D01*
X1320Y355D02*
X1327Y355D01*
X0Y354D02*
X7Y354D01*
X36Y354D02*
X53Y354D01*
X1320Y354D02*
X1327Y354D01*
X0Y353D02*
X7Y353D01*
X39Y353D02*
X55Y353D01*
X1320Y353D02*
X1327Y353D01*
X0Y352D02*
X7Y352D01*
X41Y352D02*
X57Y352D01*
X1320Y352D02*
X1327Y352D01*
X0Y351D02*
X7Y351D01*
X43Y351D02*
X60Y351D01*
X1320Y351D02*
X1327Y351D01*
X0Y350D02*
X7Y350D01*
X45Y350D02*
X62Y350D01*
X1320Y350D02*
X1327Y350D01*
X0Y349D02*
X7Y349D01*
X48Y349D02*
X64Y349D01*
X1320Y349D02*
X1327Y349D01*
X0Y348D02*
X7Y348D01*
X50Y348D02*
X65Y348D01*
X1320Y348D02*
X1327Y348D01*
X0Y347D02*
X7Y347D01*
X52Y347D02*
X65Y347D01*
X1320Y347D02*
X1327Y347D01*
X0Y346D02*
X7Y346D01*
X54Y346D02*
X66Y346D01*
X1320Y346D02*
X1327Y346D01*
X0Y345D02*
X7Y345D01*
X57Y345D02*
X66Y345D01*
X1320Y345D02*
X1327Y345D01*
X0Y344D02*
X7Y344D01*
X59Y344D02*
X66Y344D01*
X1320Y344D02*
X1327Y344D01*
X0Y343D02*
X7Y343D01*
X57Y343D02*
X66Y343D01*
X1320Y343D02*
X1327Y343D01*
X0Y342D02*
X7Y342D01*
X55Y342D02*
X66Y342D01*
X1320Y342D02*
X1327Y342D01*
X0Y341D02*
X7Y341D01*
X53Y341D02*
X65Y341D01*
X1320Y341D02*
X1327Y341D01*
X0Y340D02*
X7Y340D01*
X50Y340D02*
X65Y340D01*
X1320Y340D02*
X1327Y340D01*
X0Y339D02*
X7Y339D01*
X48Y339D02*
X64Y339D01*
X1320Y339D02*
X1327Y339D01*
X0Y338D02*
X7Y338D01*
X46Y338D02*
X62Y338D01*
X74Y338D02*
X82Y338D01*
X477Y338D02*
X486Y338D01*
X1320Y338D02*
X1327Y338D01*
X0Y337D02*
X7Y337D01*
X43Y337D02*
X60Y337D01*
X74Y337D02*
X83Y337D01*
X477Y337D02*
X486Y337D01*
X1320Y337D02*
X1327Y337D01*
X0Y336D02*
X7Y336D01*
X41Y336D02*
X58Y336D01*
X74Y336D02*
X83Y336D01*
X477Y336D02*
X486Y336D01*
X490Y336D02*
X499Y336D01*
X894Y336D02*
X903Y336D01*
X1320Y336D02*
X1327Y336D01*
X0Y335D02*
X7Y335D01*
X39Y335D02*
X55Y335D01*
X74Y335D02*
X83Y335D01*
X477Y335D02*
X486Y335D01*
X490Y335D02*
X499Y335D01*
X894Y335D02*
X903Y335D01*
X1320Y335D02*
X1327Y335D01*
X0Y334D02*
X7Y334D01*
X37Y334D02*
X53Y334D01*
X74Y334D02*
X83Y334D01*
X477Y334D02*
X486Y334D01*
X490Y334D02*
X499Y334D01*
X894Y334D02*
X903Y334D01*
X1320Y334D02*
X1327Y334D01*
X0Y333D02*
X7Y333D01*
X29Y333D02*
X51Y333D01*
X74Y333D02*
X83Y333D01*
X477Y333D02*
X486Y333D01*
X490Y333D02*
X499Y333D01*
X894Y333D02*
X913Y333D01*
X1308Y333D02*
X1317Y333D01*
X1320Y333D02*
X1327Y333D01*
X0Y332D02*
X7Y332D01*
X28Y332D02*
X49Y332D01*
X74Y332D02*
X83Y332D01*
X477Y332D02*
X486Y332D01*
X490Y332D02*
X499Y332D01*
X894Y332D02*
X913Y332D01*
X1308Y332D02*
X1317Y332D01*
X1320Y332D02*
X1327Y332D01*
X0Y331D02*
X7Y331D01*
X27Y331D02*
X46Y331D01*
X74Y331D02*
X83Y331D01*
X477Y331D02*
X486Y331D01*
X490Y331D02*
X499Y331D01*
X894Y331D02*
X913Y331D01*
X1308Y331D02*
X1317Y331D01*
X1320Y331D02*
X1327Y331D01*
X0Y330D02*
X7Y330D01*
X27Y330D02*
X44Y330D01*
X74Y330D02*
X83Y330D01*
X477Y330D02*
X486Y330D01*
X490Y330D02*
X499Y330D01*
X894Y330D02*
X913Y330D01*
X1308Y330D02*
X1317Y330D01*
X1320Y330D02*
X1327Y330D01*
X0Y329D02*
X7Y329D01*
X27Y329D02*
X42Y329D01*
X74Y329D02*
X83Y329D01*
X477Y329D02*
X486Y329D01*
X490Y329D02*
X499Y329D01*
X894Y329D02*
X913Y329D01*
X1308Y329D02*
X1317Y329D01*
X1320Y329D02*
X1327Y329D01*
X0Y328D02*
X7Y328D01*
X28Y328D02*
X39Y328D01*
X74Y328D02*
X83Y328D01*
X477Y328D02*
X486Y328D01*
X490Y328D02*
X499Y328D01*
X894Y328D02*
X913Y328D01*
X1308Y328D02*
X1317Y328D01*
X1320Y328D02*
X1327Y328D01*
X0Y327D02*
X7Y327D01*
X29Y327D02*
X37Y327D01*
X74Y327D02*
X83Y327D01*
X477Y327D02*
X486Y327D01*
X490Y327D02*
X499Y327D01*
X894Y327D02*
X913Y327D01*
X1308Y327D02*
X1317Y327D01*
X1320Y327D02*
X1327Y327D01*
X0Y326D02*
X7Y326D01*
X74Y326D02*
X83Y326D01*
X477Y326D02*
X486Y326D01*
X490Y326D02*
X499Y326D01*
X894Y326D02*
X913Y326D01*
X1308Y326D02*
X1317Y326D01*
X1320Y326D02*
X1327Y326D01*
X0Y325D02*
X7Y325D01*
X74Y325D02*
X83Y325D01*
X477Y325D02*
X486Y325D01*
X490Y325D02*
X499Y325D01*
X894Y325D02*
X913Y325D01*
X1308Y325D02*
X1317Y325D01*
X1320Y325D02*
X1327Y325D01*
X0Y324D02*
X7Y324D01*
X74Y324D02*
X83Y324D01*
X477Y324D02*
X486Y324D01*
X490Y324D02*
X499Y324D01*
X894Y324D02*
X913Y324D01*
X1308Y324D02*
X1317Y324D01*
X1320Y324D02*
X1327Y324D01*
X0Y323D02*
X7Y323D01*
X74Y323D02*
X83Y323D01*
X477Y323D02*
X486Y323D01*
X490Y323D02*
X499Y323D01*
X894Y323D02*
X913Y323D01*
X1308Y323D02*
X1317Y323D01*
X1320Y323D02*
X1327Y323D01*
X0Y322D02*
X7Y322D01*
X74Y322D02*
X83Y322D01*
X477Y322D02*
X486Y322D01*
X490Y322D02*
X499Y322D01*
X894Y322D02*
X913Y322D01*
X1308Y322D02*
X1317Y322D01*
X1320Y322D02*
X1327Y322D01*
X0Y321D02*
X7Y321D01*
X74Y321D02*
X83Y321D01*
X477Y321D02*
X486Y321D01*
X490Y321D02*
X499Y321D01*
X894Y321D02*
X913Y321D01*
X1308Y321D02*
X1317Y321D01*
X1320Y321D02*
X1327Y321D01*
X0Y320D02*
X7Y320D01*
X74Y320D02*
X83Y320D01*
X477Y320D02*
X486Y320D01*
X490Y320D02*
X499Y320D01*
X894Y320D02*
X913Y320D01*
X1308Y320D02*
X1317Y320D01*
X1320Y320D02*
X1327Y320D01*
X0Y319D02*
X7Y319D01*
X74Y319D02*
X83Y319D01*
X477Y319D02*
X486Y319D01*
X490Y319D02*
X499Y319D01*
X894Y319D02*
X913Y319D01*
X1308Y319D02*
X1317Y319D01*
X1320Y319D02*
X1327Y319D01*
X0Y318D02*
X7Y318D01*
X74Y318D02*
X83Y318D01*
X477Y318D02*
X486Y318D01*
X490Y318D02*
X499Y318D01*
X894Y318D02*
X913Y318D01*
X1308Y318D02*
X1317Y318D01*
X1320Y318D02*
X1327Y318D01*
X0Y317D02*
X7Y317D01*
X74Y317D02*
X83Y317D01*
X477Y317D02*
X486Y317D01*
X490Y317D02*
X499Y317D01*
X894Y317D02*
X913Y317D01*
X1308Y317D02*
X1317Y317D01*
X1320Y317D02*
X1327Y317D01*
X0Y316D02*
X7Y316D01*
X74Y316D02*
X83Y316D01*
X477Y316D02*
X486Y316D01*
X490Y316D02*
X499Y316D01*
X894Y316D02*
X913Y316D01*
X1308Y316D02*
X1317Y316D01*
X1320Y316D02*
X1327Y316D01*
X0Y315D02*
X7Y315D01*
X74Y315D02*
X83Y315D01*
X477Y315D02*
X486Y315D01*
X490Y315D02*
X499Y315D01*
X894Y315D02*
X913Y315D01*
X1308Y315D02*
X1317Y315D01*
X1320Y315D02*
X1327Y315D01*
X0Y314D02*
X7Y314D01*
X74Y314D02*
X83Y314D01*
X477Y314D02*
X486Y314D01*
X490Y314D02*
X499Y314D01*
X894Y314D02*
X913Y314D01*
X1308Y314D02*
X1317Y314D01*
X1320Y314D02*
X1327Y314D01*
X0Y313D02*
X7Y313D01*
X74Y313D02*
X83Y313D01*
X477Y313D02*
X486Y313D01*
X490Y313D02*
X499Y313D01*
X894Y313D02*
X913Y313D01*
X1308Y313D02*
X1317Y313D01*
X1320Y313D02*
X1327Y313D01*
X0Y312D02*
X7Y312D01*
X74Y312D02*
X83Y312D01*
X477Y312D02*
X486Y312D01*
X490Y312D02*
X499Y312D01*
X894Y312D02*
X913Y312D01*
X1308Y312D02*
X1317Y312D01*
X1320Y312D02*
X1327Y312D01*
X0Y311D02*
X7Y311D01*
X57Y311D02*
X57Y311D01*
X74Y311D02*
X83Y311D01*
X477Y311D02*
X486Y311D01*
X490Y311D02*
X499Y311D01*
X894Y311D02*
X913Y311D01*
X1308Y311D02*
X1317Y311D01*
X1320Y311D02*
X1327Y311D01*
X0Y310D02*
X7Y310D01*
X55Y310D02*
X60Y310D01*
X74Y310D02*
X83Y310D01*
X477Y310D02*
X486Y310D01*
X490Y310D02*
X499Y310D01*
X894Y310D02*
X913Y310D01*
X1308Y310D02*
X1317Y310D01*
X1320Y310D02*
X1327Y310D01*
X0Y309D02*
X7Y309D01*
X54Y309D02*
X61Y309D01*
X74Y309D02*
X83Y309D01*
X477Y309D02*
X486Y309D01*
X490Y309D02*
X499Y309D01*
X894Y309D02*
X913Y309D01*
X1308Y309D02*
X1317Y309D01*
X1320Y309D02*
X1327Y309D01*
X0Y308D02*
X7Y308D01*
X54Y308D02*
X62Y308D01*
X74Y308D02*
X83Y308D01*
X477Y308D02*
X486Y308D01*
X490Y308D02*
X499Y308D01*
X894Y308D02*
X913Y308D01*
X1308Y308D02*
X1317Y308D01*
X1320Y308D02*
X1327Y308D01*
X0Y307D02*
X7Y307D01*
X29Y307D02*
X31Y307D01*
X54Y307D02*
X63Y307D01*
X74Y307D02*
X83Y307D01*
X477Y307D02*
X486Y307D01*
X490Y307D02*
X499Y307D01*
X894Y307D02*
X913Y307D01*
X1308Y307D02*
X1317Y307D01*
X1320Y307D02*
X1327Y307D01*
X0Y306D02*
X7Y306D01*
X28Y306D02*
X32Y306D01*
X54Y306D02*
X64Y306D01*
X74Y306D02*
X83Y306D01*
X477Y306D02*
X486Y306D01*
X490Y306D02*
X499Y306D01*
X894Y306D02*
X913Y306D01*
X1308Y306D02*
X1317Y306D01*
X1320Y306D02*
X1327Y306D01*
X0Y305D02*
X7Y305D01*
X27Y305D02*
X33Y305D01*
X55Y305D02*
X65Y305D01*
X74Y305D02*
X83Y305D01*
X477Y305D02*
X486Y305D01*
X490Y305D02*
X499Y305D01*
X894Y305D02*
X913Y305D01*
X1308Y305D02*
X1317Y305D01*
X1320Y305D02*
X1327Y305D01*
X0Y304D02*
X7Y304D01*
X27Y304D02*
X33Y304D01*
X57Y304D02*
X65Y304D01*
X74Y304D02*
X83Y304D01*
X477Y304D02*
X486Y304D01*
X490Y304D02*
X499Y304D01*
X894Y304D02*
X913Y304D01*
X1308Y304D02*
X1317Y304D01*
X1320Y304D02*
X1327Y304D01*
X0Y303D02*
X7Y303D01*
X27Y303D02*
X33Y303D01*
X58Y303D02*
X65Y303D01*
X74Y303D02*
X83Y303D01*
X477Y303D02*
X486Y303D01*
X490Y303D02*
X499Y303D01*
X894Y303D02*
X913Y303D01*
X1308Y303D02*
X1317Y303D01*
X1320Y303D02*
X1327Y303D01*
X0Y302D02*
X7Y302D01*
X27Y302D02*
X33Y302D01*
X59Y302D02*
X65Y302D01*
X74Y302D02*
X83Y302D01*
X477Y302D02*
X486Y302D01*
X490Y302D02*
X499Y302D01*
X894Y302D02*
X913Y302D01*
X1308Y302D02*
X1317Y302D01*
X1320Y302D02*
X1327Y302D01*
X0Y301D02*
X7Y301D01*
X27Y301D02*
X33Y301D01*
X59Y301D02*
X66Y301D01*
X74Y301D02*
X83Y301D01*
X477Y301D02*
X486Y301D01*
X490Y301D02*
X499Y301D01*
X894Y301D02*
X913Y301D01*
X1308Y301D02*
X1317Y301D01*
X1320Y301D02*
X1327Y301D01*
X0Y300D02*
X7Y300D01*
X27Y300D02*
X33Y300D01*
X60Y300D02*
X66Y300D01*
X74Y300D02*
X83Y300D01*
X477Y300D02*
X486Y300D01*
X490Y300D02*
X499Y300D01*
X894Y300D02*
X913Y300D01*
X1308Y300D02*
X1317Y300D01*
X1320Y300D02*
X1327Y300D01*
X0Y299D02*
X7Y299D01*
X27Y299D02*
X33Y299D01*
X60Y299D02*
X66Y299D01*
X74Y299D02*
X83Y299D01*
X477Y299D02*
X486Y299D01*
X490Y299D02*
X499Y299D01*
X894Y299D02*
X913Y299D01*
X1308Y299D02*
X1317Y299D01*
X1320Y299D02*
X1327Y299D01*
X0Y298D02*
X7Y298D01*
X27Y298D02*
X33Y298D01*
X60Y298D02*
X66Y298D01*
X74Y298D02*
X83Y298D01*
X477Y298D02*
X486Y298D01*
X490Y298D02*
X499Y298D01*
X894Y298D02*
X913Y298D01*
X1308Y298D02*
X1317Y298D01*
X1320Y298D02*
X1327Y298D01*
X0Y297D02*
X7Y297D01*
X27Y297D02*
X33Y297D01*
X60Y297D02*
X66Y297D01*
X74Y297D02*
X83Y297D01*
X477Y297D02*
X486Y297D01*
X490Y297D02*
X499Y297D01*
X894Y297D02*
X913Y297D01*
X1308Y297D02*
X1317Y297D01*
X1320Y297D02*
X1327Y297D01*
X0Y296D02*
X7Y296D01*
X27Y296D02*
X33Y296D01*
X60Y296D02*
X66Y296D01*
X74Y296D02*
X83Y296D01*
X477Y296D02*
X486Y296D01*
X490Y296D02*
X499Y296D01*
X894Y296D02*
X913Y296D01*
X1308Y296D02*
X1317Y296D01*
X1320Y296D02*
X1327Y296D01*
X0Y295D02*
X7Y295D01*
X27Y295D02*
X33Y295D01*
X60Y295D02*
X66Y295D01*
X74Y295D02*
X83Y295D01*
X477Y295D02*
X486Y295D01*
X490Y295D02*
X499Y295D01*
X894Y295D02*
X913Y295D01*
X1308Y295D02*
X1317Y295D01*
X1320Y295D02*
X1327Y295D01*
X0Y294D02*
X7Y294D01*
X27Y294D02*
X33Y294D01*
X60Y294D02*
X66Y294D01*
X74Y294D02*
X83Y294D01*
X477Y294D02*
X486Y294D01*
X490Y294D02*
X499Y294D01*
X894Y294D02*
X913Y294D01*
X1308Y294D02*
X1317Y294D01*
X1320Y294D02*
X1327Y294D01*
X0Y293D02*
X7Y293D01*
X27Y293D02*
X33Y293D01*
X59Y293D02*
X65Y293D01*
X74Y293D02*
X83Y293D01*
X477Y293D02*
X486Y293D01*
X490Y293D02*
X499Y293D01*
X894Y293D02*
X913Y293D01*
X1308Y293D02*
X1317Y293D01*
X1320Y293D02*
X1327Y293D01*
X0Y292D02*
X7Y292D01*
X27Y292D02*
X33Y292D01*
X59Y292D02*
X65Y292D01*
X74Y292D02*
X83Y292D01*
X477Y292D02*
X486Y292D01*
X490Y292D02*
X499Y292D01*
X894Y292D02*
X913Y292D01*
X1308Y292D02*
X1317Y292D01*
X1320Y292D02*
X1327Y292D01*
X0Y291D02*
X7Y291D01*
X27Y291D02*
X33Y291D01*
X58Y291D02*
X65Y291D01*
X74Y291D02*
X83Y291D01*
X477Y291D02*
X486Y291D01*
X490Y291D02*
X499Y291D01*
X894Y291D02*
X913Y291D01*
X1308Y291D02*
X1317Y291D01*
X1320Y291D02*
X1327Y291D01*
X0Y290D02*
X7Y290D01*
X17Y290D02*
X65Y290D01*
X74Y290D02*
X83Y290D01*
X477Y290D02*
X486Y290D01*
X490Y290D02*
X499Y290D01*
X894Y290D02*
X913Y290D01*
X1308Y290D02*
X1317Y290D01*
X1320Y290D02*
X1327Y290D01*
X0Y289D02*
X7Y289D01*
X16Y289D02*
X64Y289D01*
X74Y289D02*
X83Y289D01*
X477Y289D02*
X486Y289D01*
X490Y289D02*
X499Y289D01*
X894Y289D02*
X913Y289D01*
X1308Y289D02*
X1317Y289D01*
X1320Y289D02*
X1327Y289D01*
X0Y288D02*
X7Y288D01*
X16Y288D02*
X64Y288D01*
X74Y288D02*
X83Y288D01*
X477Y288D02*
X486Y288D01*
X490Y288D02*
X499Y288D01*
X894Y288D02*
X913Y288D01*
X1308Y288D02*
X1317Y288D01*
X1320Y288D02*
X1327Y288D01*
X0Y287D02*
X7Y287D01*
X15Y287D02*
X63Y287D01*
X74Y287D02*
X83Y287D01*
X477Y287D02*
X486Y287D01*
X490Y287D02*
X499Y287D01*
X894Y287D02*
X913Y287D01*
X1308Y287D02*
X1317Y287D01*
X1320Y287D02*
X1327Y287D01*
X0Y286D02*
X7Y286D01*
X15Y286D02*
X62Y286D01*
X74Y286D02*
X83Y286D01*
X477Y286D02*
X486Y286D01*
X490Y286D02*
X499Y286D01*
X894Y286D02*
X913Y286D01*
X1308Y286D02*
X1317Y286D01*
X1320Y286D02*
X1327Y286D01*
X0Y285D02*
X7Y285D01*
X16Y285D02*
X61Y285D01*
X74Y285D02*
X83Y285D01*
X477Y285D02*
X486Y285D01*
X490Y285D02*
X499Y285D01*
X894Y285D02*
X913Y285D01*
X1308Y285D02*
X1317Y285D01*
X1320Y285D02*
X1327Y285D01*
X0Y284D02*
X7Y284D01*
X17Y284D02*
X59Y284D01*
X74Y284D02*
X83Y284D01*
X477Y284D02*
X486Y284D01*
X490Y284D02*
X499Y284D01*
X894Y284D02*
X913Y284D01*
X1308Y284D02*
X1317Y284D01*
X1320Y284D02*
X1327Y284D01*
X0Y283D02*
X7Y283D01*
X27Y283D02*
X33Y283D01*
X74Y283D02*
X83Y283D01*
X477Y283D02*
X486Y283D01*
X490Y283D02*
X499Y283D01*
X894Y283D02*
X913Y283D01*
X1308Y283D02*
X1317Y283D01*
X1320Y283D02*
X1327Y283D01*
X0Y282D02*
X7Y282D01*
X27Y282D02*
X33Y282D01*
X74Y282D02*
X83Y282D01*
X477Y282D02*
X486Y282D01*
X490Y282D02*
X499Y282D01*
X894Y282D02*
X913Y282D01*
X1308Y282D02*
X1317Y282D01*
X1320Y282D02*
X1327Y282D01*
X0Y281D02*
X7Y281D01*
X27Y281D02*
X33Y281D01*
X74Y281D02*
X83Y281D01*
X477Y281D02*
X486Y281D01*
X490Y281D02*
X499Y281D01*
X894Y281D02*
X913Y281D01*
X1308Y281D02*
X1317Y281D01*
X1320Y281D02*
X1327Y281D01*
X0Y280D02*
X7Y280D01*
X27Y280D02*
X33Y280D01*
X74Y280D02*
X83Y280D01*
X477Y280D02*
X486Y280D01*
X490Y280D02*
X499Y280D01*
X894Y280D02*
X913Y280D01*
X1308Y280D02*
X1317Y280D01*
X1320Y280D02*
X1327Y280D01*
X0Y279D02*
X7Y279D01*
X27Y279D02*
X33Y279D01*
X74Y279D02*
X83Y279D01*
X477Y279D02*
X486Y279D01*
X490Y279D02*
X499Y279D01*
X894Y279D02*
X913Y279D01*
X1308Y279D02*
X1317Y279D01*
X1320Y279D02*
X1327Y279D01*
X0Y278D02*
X7Y278D01*
X28Y278D02*
X33Y278D01*
X74Y278D02*
X83Y278D01*
X477Y278D02*
X486Y278D01*
X490Y278D02*
X499Y278D01*
X894Y278D02*
X913Y278D01*
X1308Y278D02*
X1317Y278D01*
X1320Y278D02*
X1327Y278D01*
X0Y277D02*
X7Y277D01*
X29Y277D02*
X31Y277D01*
X74Y277D02*
X83Y277D01*
X477Y277D02*
X486Y277D01*
X490Y277D02*
X499Y277D01*
X894Y277D02*
X913Y277D01*
X1308Y277D02*
X1317Y277D01*
X1320Y277D02*
X1327Y277D01*
X0Y276D02*
X7Y276D01*
X74Y276D02*
X83Y276D01*
X477Y276D02*
X486Y276D01*
X490Y276D02*
X499Y276D01*
X894Y276D02*
X913Y276D01*
X1308Y276D02*
X1317Y276D01*
X1320Y276D02*
X1327Y276D01*
X0Y275D02*
X7Y275D01*
X74Y275D02*
X83Y275D01*
X477Y275D02*
X486Y275D01*
X490Y275D02*
X499Y275D01*
X894Y275D02*
X913Y275D01*
X1308Y275D02*
X1317Y275D01*
X1320Y275D02*
X1327Y275D01*
X0Y274D02*
X7Y274D01*
X74Y274D02*
X83Y274D01*
X477Y274D02*
X486Y274D01*
X490Y274D02*
X499Y274D01*
X894Y274D02*
X913Y274D01*
X1308Y274D02*
X1317Y274D01*
X1320Y274D02*
X1327Y274D01*
X0Y273D02*
X7Y273D01*
X74Y273D02*
X83Y273D01*
X477Y273D02*
X486Y273D01*
X490Y273D02*
X499Y273D01*
X894Y273D02*
X913Y273D01*
X1308Y273D02*
X1317Y273D01*
X1320Y273D02*
X1327Y273D01*
X0Y272D02*
X7Y272D01*
X74Y272D02*
X83Y272D01*
X477Y272D02*
X486Y272D01*
X490Y272D02*
X499Y272D01*
X894Y272D02*
X913Y272D01*
X1308Y272D02*
X1317Y272D01*
X1320Y272D02*
X1327Y272D01*
X0Y271D02*
X7Y271D01*
X74Y271D02*
X83Y271D01*
X477Y271D02*
X486Y271D01*
X490Y271D02*
X499Y271D01*
X894Y271D02*
X913Y271D01*
X1308Y271D02*
X1317Y271D01*
X1320Y271D02*
X1327Y271D01*
X0Y270D02*
X7Y270D01*
X74Y270D02*
X83Y270D01*
X477Y270D02*
X486Y270D01*
X490Y270D02*
X499Y270D01*
X894Y270D02*
X913Y270D01*
X1308Y270D02*
X1317Y270D01*
X1320Y270D02*
X1327Y270D01*
X0Y269D02*
X7Y269D01*
X74Y269D02*
X83Y269D01*
X477Y269D02*
X486Y269D01*
X490Y269D02*
X499Y269D01*
X894Y269D02*
X913Y269D01*
X1308Y269D02*
X1317Y269D01*
X1320Y269D02*
X1327Y269D01*
X0Y268D02*
X7Y268D01*
X74Y268D02*
X83Y268D01*
X477Y268D02*
X486Y268D01*
X490Y268D02*
X499Y268D01*
X894Y268D02*
X913Y268D01*
X1308Y268D02*
X1317Y268D01*
X1320Y268D02*
X1327Y268D01*
X0Y267D02*
X7Y267D01*
X74Y267D02*
X83Y267D01*
X477Y267D02*
X486Y267D01*
X490Y267D02*
X499Y267D01*
X894Y267D02*
X913Y267D01*
X1308Y267D02*
X1317Y267D01*
X1320Y267D02*
X1327Y267D01*
X0Y266D02*
X7Y266D01*
X74Y266D02*
X83Y266D01*
X477Y266D02*
X486Y266D01*
X490Y266D02*
X499Y266D01*
X894Y266D02*
X913Y266D01*
X1308Y266D02*
X1317Y266D01*
X1320Y266D02*
X1327Y266D01*
X0Y265D02*
X7Y265D01*
X74Y265D02*
X83Y265D01*
X477Y265D02*
X486Y265D01*
X490Y265D02*
X499Y265D01*
X894Y265D02*
X913Y265D01*
X1308Y265D02*
X1317Y265D01*
X1320Y265D02*
X1327Y265D01*
X0Y264D02*
X7Y264D01*
X74Y264D02*
X83Y264D01*
X477Y264D02*
X486Y264D01*
X490Y264D02*
X499Y264D01*
X894Y264D02*
X913Y264D01*
X1308Y264D02*
X1317Y264D01*
X1320Y264D02*
X1327Y264D01*
X0Y263D02*
X7Y263D01*
X74Y263D02*
X83Y263D01*
X477Y263D02*
X486Y263D01*
X490Y263D02*
X499Y263D01*
X894Y263D02*
X913Y263D01*
X1308Y263D02*
X1317Y263D01*
X1320Y263D02*
X1327Y263D01*
X0Y262D02*
X7Y262D01*
X74Y262D02*
X83Y262D01*
X477Y262D02*
X486Y262D01*
X490Y262D02*
X499Y262D01*
X894Y262D02*
X913Y262D01*
X1308Y262D02*
X1317Y262D01*
X1320Y262D02*
X1327Y262D01*
X0Y261D02*
X7Y261D01*
X74Y261D02*
X83Y261D01*
X477Y261D02*
X486Y261D01*
X490Y261D02*
X499Y261D01*
X894Y261D02*
X913Y261D01*
X1308Y261D02*
X1317Y261D01*
X1320Y261D02*
X1327Y261D01*
X0Y260D02*
X7Y260D01*
X38Y260D02*
X64Y260D01*
X74Y260D02*
X83Y260D01*
X127Y260D02*
X160Y260D01*
X194Y260D02*
X209Y260D01*
X227Y260D02*
X254Y260D01*
X329Y260D02*
X347Y260D01*
X379Y260D02*
X382Y260D01*
X429Y260D02*
X433Y260D01*
X457Y260D02*
X460Y260D01*
X477Y260D02*
X486Y260D01*
X490Y260D02*
X499Y260D01*
X894Y260D02*
X913Y260D01*
X1308Y260D02*
X1317Y260D01*
X1320Y260D02*
X1327Y260D01*
X0Y259D02*
X7Y259D01*
X33Y259D02*
X65Y259D01*
X74Y259D02*
X83Y259D01*
X127Y259D02*
X160Y259D01*
X192Y259D02*
X210Y259D01*
X227Y259D02*
X256Y259D01*
X328Y259D02*
X349Y259D01*
X378Y259D02*
X383Y259D01*
X428Y259D02*
X433Y259D01*
X456Y259D02*
X461Y259D01*
X477Y259D02*
X486Y259D01*
X490Y259D02*
X499Y259D01*
X894Y259D02*
X913Y259D01*
X1308Y259D02*
X1317Y259D01*
X1320Y259D02*
X1327Y259D01*
X0Y258D02*
X7Y258D01*
X31Y258D02*
X65Y258D01*
X74Y258D02*
X83Y258D01*
X127Y258D02*
X160Y258D01*
X191Y258D02*
X210Y258D01*
X227Y258D02*
X257Y258D01*
X328Y258D02*
X350Y258D01*
X378Y258D02*
X384Y258D01*
X428Y258D02*
X434Y258D01*
X456Y258D02*
X461Y258D01*
X477Y258D02*
X486Y258D01*
X490Y258D02*
X499Y258D01*
X894Y258D02*
X913Y258D01*
X1308Y258D02*
X1317Y258D01*
X1320Y258D02*
X1327Y258D01*
X0Y257D02*
X7Y257D01*
X30Y257D02*
X65Y257D01*
X74Y257D02*
X83Y257D01*
X127Y257D02*
X160Y257D01*
X190Y257D02*
X210Y257D01*
X227Y257D02*
X258Y257D01*
X328Y257D02*
X351Y257D01*
X378Y257D02*
X384Y257D01*
X428Y257D02*
X434Y257D01*
X455Y257D02*
X462Y257D01*
X477Y257D02*
X486Y257D01*
X490Y257D02*
X499Y257D01*
X894Y257D02*
X913Y257D01*
X1308Y257D02*
X1317Y257D01*
X1320Y257D02*
X1327Y257D01*
X0Y256D02*
X7Y256D01*
X29Y256D02*
X65Y256D01*
X74Y256D02*
X83Y256D01*
X127Y256D02*
X160Y256D01*
X189Y256D02*
X210Y256D01*
X227Y256D02*
X259Y256D01*
X328Y256D02*
X352Y256D01*
X378Y256D02*
X384Y256D01*
X428Y256D02*
X434Y256D01*
X455Y256D02*
X462Y256D01*
X477Y256D02*
X486Y256D01*
X490Y256D02*
X499Y256D01*
X537Y256D02*
X559Y256D01*
X582Y256D02*
X608Y256D01*
X634Y256D02*
X651Y256D01*
X735Y256D02*
X751Y256D01*
X785Y256D02*
X815Y256D01*
X833Y256D02*
X859Y256D01*
X894Y256D02*
X913Y256D01*
X1308Y256D02*
X1317Y256D01*
X1320Y256D02*
X1327Y256D01*
X0Y255D02*
X7Y255D01*
X29Y255D02*
X65Y255D01*
X74Y255D02*
X83Y255D01*
X127Y255D02*
X160Y255D01*
X188Y255D02*
X210Y255D01*
X227Y255D02*
X260Y255D01*
X328Y255D02*
X352Y255D01*
X378Y255D02*
X384Y255D01*
X428Y255D02*
X434Y255D01*
X455Y255D02*
X462Y255D01*
X477Y255D02*
X486Y255D01*
X490Y255D02*
X499Y255D01*
X535Y255D02*
X561Y255D01*
X582Y255D02*
X611Y255D01*
X633Y255D02*
X653Y255D01*
X733Y255D02*
X753Y255D01*
X784Y255D02*
X816Y255D01*
X833Y255D02*
X862Y255D01*
X894Y255D02*
X913Y255D01*
X1308Y255D02*
X1317Y255D01*
X1320Y255D02*
X1327Y255D01*
X0Y254D02*
X7Y254D01*
X28Y254D02*
X63Y254D01*
X74Y254D02*
X83Y254D01*
X127Y254D02*
X160Y254D01*
X187Y254D02*
X208Y254D01*
X227Y254D02*
X260Y254D01*
X330Y254D02*
X353Y254D01*
X378Y254D02*
X384Y254D01*
X428Y254D02*
X434Y254D01*
X455Y254D02*
X462Y254D01*
X477Y254D02*
X486Y254D01*
X490Y254D02*
X499Y254D01*
X534Y254D02*
X563Y254D01*
X582Y254D02*
X612Y254D01*
X633Y254D02*
X654Y254D01*
X733Y254D02*
X755Y254D01*
X783Y254D02*
X816Y254D01*
X833Y254D02*
X863Y254D01*
X894Y254D02*
X913Y254D01*
X1308Y254D02*
X1317Y254D01*
X1320Y254D02*
X1327Y254D01*
X0Y253D02*
X7Y253D01*
X28Y253D02*
X37Y253D01*
X74Y253D02*
X83Y253D01*
X127Y253D02*
X133Y253D01*
X141Y253D02*
X147Y253D01*
X154Y253D02*
X160Y253D01*
X186Y253D02*
X195Y253D01*
X227Y253D02*
X233Y253D01*
X253Y253D02*
X260Y253D01*
X334Y253D02*
X340Y253D01*
X346Y253D02*
X353Y253D01*
X378Y253D02*
X384Y253D01*
X428Y253D02*
X434Y253D01*
X455Y253D02*
X462Y253D01*
X477Y253D02*
X486Y253D01*
X490Y253D02*
X499Y253D01*
X533Y253D02*
X563Y253D01*
X582Y253D02*
X613Y253D01*
X632Y253D02*
X656Y253D01*
X733Y253D02*
X756Y253D01*
X783Y253D02*
X817Y253D01*
X833Y253D02*
X864Y253D01*
X894Y253D02*
X913Y253D01*
X1006Y253D02*
X1032Y253D01*
X1051Y253D02*
X1054Y253D01*
X1078Y253D02*
X1082Y253D01*
X1101Y253D02*
X1119Y253D01*
X1164Y253D02*
X1182Y253D01*
X1308Y253D02*
X1317Y253D01*
X1320Y253D02*
X1327Y253D01*
X0Y252D02*
X7Y252D01*
X27Y252D02*
X34Y252D01*
X74Y252D02*
X83Y252D01*
X127Y252D02*
X133Y252D01*
X141Y252D02*
X147Y252D01*
X154Y252D02*
X160Y252D01*
X186Y252D02*
X194Y252D01*
X227Y252D02*
X233Y252D01*
X254Y252D02*
X261Y252D01*
X334Y252D02*
X340Y252D01*
X347Y252D02*
X354Y252D01*
X378Y252D02*
X384Y252D01*
X428Y252D02*
X434Y252D01*
X455Y252D02*
X462Y252D01*
X477Y252D02*
X486Y252D01*
X490Y252D02*
X499Y252D01*
X533Y252D02*
X564Y252D01*
X582Y252D02*
X614Y252D01*
X633Y252D02*
X656Y252D01*
X733Y252D02*
X757Y252D01*
X783Y252D02*
X816Y252D01*
X833Y252D02*
X865Y252D01*
X894Y252D02*
X913Y252D01*
X1006Y252D02*
X1032Y252D01*
X1050Y252D02*
X1055Y252D01*
X1078Y252D02*
X1083Y252D01*
X1100Y252D02*
X1121Y252D01*
X1162Y252D02*
X1183Y252D01*
X1308Y252D02*
X1317Y252D01*
X1320Y252D02*
X1327Y252D01*
X0Y251D02*
X7Y251D01*
X27Y251D02*
X34Y251D01*
X74Y251D02*
X83Y251D01*
X127Y251D02*
X133Y251D01*
X141Y251D02*
X147Y251D01*
X154Y251D02*
X160Y251D01*
X185Y251D02*
X193Y251D01*
X227Y251D02*
X233Y251D01*
X255Y251D02*
X261Y251D01*
X334Y251D02*
X340Y251D01*
X347Y251D02*
X354Y251D01*
X378Y251D02*
X384Y251D01*
X428Y251D02*
X435Y251D01*
X454Y251D02*
X462Y251D01*
X477Y251D02*
X486Y251D01*
X490Y251D02*
X499Y251D01*
X532Y251D02*
X565Y251D01*
X582Y251D02*
X615Y251D01*
X633Y251D02*
X657Y251D01*
X734Y251D02*
X757Y251D01*
X784Y251D02*
X816Y251D01*
X833Y251D02*
X865Y251D01*
X894Y251D02*
X913Y251D01*
X1006Y251D02*
X1033Y251D01*
X1050Y251D02*
X1055Y251D01*
X1077Y251D02*
X1083Y251D01*
X1100Y251D02*
X1122Y251D01*
X1161Y251D02*
X1183Y251D01*
X1308Y251D02*
X1317Y251D01*
X1320Y251D02*
X1327Y251D01*
X0Y250D02*
X7Y250D01*
X27Y250D02*
X33Y250D01*
X74Y250D02*
X83Y250D01*
X127Y250D02*
X132Y250D01*
X141Y250D02*
X147Y250D01*
X155Y250D02*
X160Y250D01*
X184Y250D02*
X192Y250D01*
X227Y250D02*
X233Y250D01*
X255Y250D02*
X261Y250D01*
X334Y250D02*
X340Y250D01*
X348Y250D02*
X355Y250D01*
X378Y250D02*
X384Y250D01*
X428Y250D02*
X436Y250D01*
X453Y250D02*
X461Y250D01*
X477Y250D02*
X486Y250D01*
X490Y250D02*
X499Y250D01*
X532Y250D02*
X565Y250D01*
X582Y250D02*
X615Y250D01*
X634Y250D02*
X658Y250D01*
X735Y250D02*
X758Y250D01*
X785Y250D02*
X815Y250D01*
X833Y250D02*
X866Y250D01*
X894Y250D02*
X913Y250D01*
X1006Y250D02*
X1033Y250D01*
X1050Y250D02*
X1056Y250D01*
X1077Y250D02*
X1083Y250D01*
X1100Y250D02*
X1123Y250D01*
X1160Y250D02*
X1183Y250D01*
X1308Y250D02*
X1317Y250D01*
X1320Y250D02*
X1327Y250D01*
X0Y249D02*
X7Y249D01*
X27Y249D02*
X33Y249D01*
X74Y249D02*
X83Y249D01*
X128Y249D02*
X132Y249D01*
X141Y249D02*
X147Y249D01*
X155Y249D02*
X159Y249D01*
X183Y249D02*
X191Y249D01*
X227Y249D02*
X233Y249D01*
X255Y249D02*
X261Y249D01*
X334Y249D02*
X340Y249D01*
X348Y249D02*
X355Y249D01*
X378Y249D02*
X384Y249D01*
X429Y249D02*
X437Y249D01*
X453Y249D02*
X461Y249D01*
X477Y249D02*
X486Y249D01*
X490Y249D02*
X499Y249D01*
X532Y249D02*
X538Y249D01*
X559Y249D02*
X565Y249D01*
X582Y249D02*
X588Y249D01*
X608Y249D02*
X615Y249D01*
X639Y249D02*
X645Y249D01*
X651Y249D02*
X658Y249D01*
X740Y249D02*
X746Y249D01*
X751Y249D02*
X758Y249D01*
X797Y249D02*
X803Y249D01*
X833Y249D02*
X839Y249D01*
X859Y249D02*
X866Y249D01*
X894Y249D02*
X913Y249D01*
X1006Y249D02*
X1033Y249D01*
X1050Y249D02*
X1056Y249D01*
X1077Y249D02*
X1083Y249D01*
X1100Y249D02*
X1124Y249D01*
X1159Y249D02*
X1183Y249D01*
X1308Y249D02*
X1317Y249D01*
X1320Y249D02*
X1327Y249D01*
X0Y248D02*
X7Y248D01*
X27Y248D02*
X33Y248D01*
X74Y248D02*
X83Y248D01*
X130Y248D02*
X130Y248D01*
X141Y248D02*
X147Y248D01*
X157Y248D02*
X157Y248D01*
X183Y248D02*
X190Y248D01*
X227Y248D02*
X233Y248D01*
X255Y248D02*
X261Y248D01*
X334Y248D02*
X340Y248D01*
X349Y248D02*
X356Y248D01*
X378Y248D02*
X384Y248D01*
X430Y248D02*
X438Y248D01*
X452Y248D02*
X460Y248D01*
X477Y248D02*
X486Y248D01*
X490Y248D02*
X499Y248D01*
X532Y248D02*
X538Y248D01*
X559Y248D02*
X566Y248D01*
X582Y248D02*
X588Y248D01*
X609Y248D02*
X616Y248D01*
X639Y248D02*
X645Y248D01*
X652Y248D02*
X659Y248D01*
X740Y248D02*
X746Y248D01*
X752Y248D02*
X759Y248D01*
X797Y248D02*
X803Y248D01*
X833Y248D02*
X839Y248D01*
X860Y248D02*
X867Y248D01*
X894Y248D02*
X913Y248D01*
X1006Y248D02*
X1032Y248D01*
X1050Y248D02*
X1056Y248D01*
X1077Y248D02*
X1083Y248D01*
X1101Y248D02*
X1125Y248D01*
X1159Y248D02*
X1183Y248D01*
X1308Y248D02*
X1317Y248D01*
X1320Y248D02*
X1327Y248D01*
X0Y247D02*
X7Y247D01*
X27Y247D02*
X33Y247D01*
X74Y247D02*
X83Y247D01*
X141Y247D02*
X147Y247D01*
X182Y247D02*
X190Y247D01*
X227Y247D02*
X233Y247D01*
X255Y247D02*
X261Y247D01*
X334Y247D02*
X340Y247D01*
X349Y247D02*
X356Y247D01*
X378Y247D02*
X384Y247D01*
X430Y247D02*
X438Y247D01*
X451Y247D02*
X459Y247D01*
X477Y247D02*
X486Y247D01*
X490Y247D02*
X499Y247D01*
X532Y247D02*
X539Y247D01*
X560Y247D02*
X566Y247D01*
X582Y247D02*
X588Y247D01*
X610Y247D02*
X616Y247D01*
X639Y247D02*
X645Y247D01*
X652Y247D02*
X659Y247D01*
X740Y247D02*
X746Y247D01*
X753Y247D02*
X759Y247D01*
X797Y247D02*
X803Y247D01*
X833Y247D02*
X839Y247D01*
X861Y247D02*
X867Y247D01*
X894Y247D02*
X913Y247D01*
X1006Y247D02*
X1030Y247D01*
X1050Y247D02*
X1056Y247D01*
X1077Y247D02*
X1083Y247D01*
X1102Y247D02*
X1125Y247D01*
X1158Y247D02*
X1181Y247D01*
X1308Y247D02*
X1317Y247D01*
X1320Y247D02*
X1327Y247D01*
X0Y246D02*
X7Y246D01*
X27Y246D02*
X33Y246D01*
X74Y246D02*
X83Y246D01*
X141Y246D02*
X147Y246D01*
X181Y246D02*
X189Y246D01*
X227Y246D02*
X233Y246D01*
X255Y246D02*
X261Y246D01*
X334Y246D02*
X340Y246D01*
X350Y246D02*
X357Y246D01*
X378Y246D02*
X384Y246D01*
X431Y246D02*
X439Y246D01*
X450Y246D02*
X458Y246D01*
X477Y246D02*
X486Y246D01*
X490Y246D02*
X499Y246D01*
X533Y246D02*
X540Y246D01*
X560Y246D02*
X565Y246D01*
X582Y246D02*
X588Y246D01*
X610Y246D02*
X616Y246D01*
X639Y246D02*
X645Y246D01*
X653Y246D02*
X660Y246D01*
X740Y246D02*
X746Y246D01*
X753Y246D02*
X760Y246D01*
X797Y246D02*
X803Y246D01*
X833Y246D02*
X839Y246D01*
X861Y246D02*
X867Y246D01*
X894Y246D02*
X913Y246D01*
X1006Y246D02*
X1012Y246D01*
X1050Y246D02*
X1056Y246D01*
X1077Y246D02*
X1083Y246D01*
X1107Y246D02*
X1113Y246D01*
X1118Y246D02*
X1126Y246D01*
X1158Y246D02*
X1165Y246D01*
X1308Y246D02*
X1317Y246D01*
X1320Y246D02*
X1327Y246D01*
X0Y245D02*
X7Y245D01*
X27Y245D02*
X33Y245D01*
X74Y245D02*
X83Y245D01*
X141Y245D02*
X147Y245D01*
X180Y245D02*
X188Y245D01*
X227Y245D02*
X233Y245D01*
X254Y245D02*
X261Y245D01*
X334Y245D02*
X340Y245D01*
X350Y245D02*
X357Y245D01*
X378Y245D02*
X384Y245D01*
X432Y245D02*
X440Y245D01*
X450Y245D02*
X457Y245D01*
X477Y245D02*
X486Y245D01*
X490Y245D02*
X499Y245D01*
X533Y245D02*
X541Y245D01*
X560Y245D02*
X565Y245D01*
X582Y245D02*
X588Y245D01*
X610Y245D02*
X616Y245D01*
X639Y245D02*
X645Y245D01*
X653Y245D02*
X660Y245D01*
X740Y245D02*
X746Y245D01*
X754Y245D02*
X760Y245D01*
X797Y245D02*
X803Y245D01*
X833Y245D02*
X839Y245D01*
X861Y245D02*
X867Y245D01*
X894Y245D02*
X913Y245D01*
X1006Y245D02*
X1012Y245D01*
X1050Y245D02*
X1056Y245D01*
X1077Y245D02*
X1083Y245D01*
X1107Y245D02*
X1113Y245D01*
X1119Y245D02*
X1126Y245D01*
X1157Y245D02*
X1164Y245D01*
X1308Y245D02*
X1317Y245D01*
X1320Y245D02*
X1327Y245D01*
X0Y244D02*
X7Y244D01*
X27Y244D02*
X34Y244D01*
X74Y244D02*
X83Y244D01*
X141Y244D02*
X147Y244D01*
X180Y244D02*
X187Y244D01*
X227Y244D02*
X233Y244D01*
X253Y244D02*
X260Y244D01*
X334Y244D02*
X340Y244D01*
X351Y244D02*
X358Y244D01*
X378Y244D02*
X384Y244D01*
X433Y244D02*
X441Y244D01*
X449Y244D02*
X457Y244D01*
X477Y244D02*
X486Y244D01*
X490Y244D02*
X499Y244D01*
X534Y244D02*
X541Y244D01*
X562Y244D02*
X564Y244D01*
X582Y244D02*
X588Y244D01*
X610Y244D02*
X616Y244D01*
X639Y244D02*
X645Y244D01*
X654Y244D02*
X661Y244D01*
X740Y244D02*
X746Y244D01*
X754Y244D02*
X761Y244D01*
X797Y244D02*
X803Y244D01*
X833Y244D02*
X839Y244D01*
X861Y244D02*
X867Y244D01*
X894Y244D02*
X913Y244D01*
X1006Y244D02*
X1012Y244D01*
X1050Y244D02*
X1056Y244D01*
X1077Y244D02*
X1083Y244D01*
X1107Y244D02*
X1113Y244D01*
X1120Y244D02*
X1127Y244D01*
X1157Y244D02*
X1164Y244D01*
X1308Y244D02*
X1317Y244D01*
X1320Y244D02*
X1327Y244D01*
X0Y243D02*
X7Y243D01*
X27Y243D02*
X34Y243D01*
X74Y243D02*
X83Y243D01*
X141Y243D02*
X147Y243D01*
X179Y243D02*
X187Y243D01*
X227Y243D02*
X260Y243D01*
X334Y243D02*
X340Y243D01*
X351Y243D02*
X358Y243D01*
X378Y243D02*
X384Y243D01*
X434Y243D02*
X441Y243D01*
X448Y243D02*
X456Y243D01*
X477Y243D02*
X486Y243D01*
X490Y243D02*
X499Y243D01*
X534Y243D02*
X542Y243D01*
X582Y243D02*
X588Y243D01*
X610Y243D02*
X616Y243D01*
X639Y243D02*
X645Y243D01*
X654Y243D02*
X661Y243D01*
X740Y243D02*
X746Y243D01*
X755Y243D02*
X761Y243D01*
X797Y243D02*
X803Y243D01*
X833Y243D02*
X839Y243D01*
X861Y243D02*
X867Y243D01*
X894Y243D02*
X913Y243D01*
X1006Y243D02*
X1012Y243D01*
X1050Y243D02*
X1056Y243D01*
X1077Y243D02*
X1083Y243D01*
X1107Y243D02*
X1113Y243D01*
X1120Y243D02*
X1127Y243D01*
X1156Y243D02*
X1163Y243D01*
X1215Y243D02*
X1219Y243D01*
X1308Y243D02*
X1317Y243D01*
X1320Y243D02*
X1327Y243D01*
X0Y242D02*
X7Y242D01*
X28Y242D02*
X35Y242D01*
X74Y242D02*
X83Y242D01*
X141Y242D02*
X147Y242D01*
X178Y242D02*
X186Y242D01*
X227Y242D02*
X260Y242D01*
X334Y242D02*
X340Y242D01*
X352Y242D02*
X359Y242D01*
X378Y242D02*
X384Y242D01*
X434Y242D02*
X442Y242D01*
X447Y242D02*
X455Y242D01*
X477Y242D02*
X486Y242D01*
X490Y242D02*
X499Y242D01*
X535Y242D02*
X543Y242D01*
X582Y242D02*
X588Y242D01*
X610Y242D02*
X616Y242D01*
X639Y242D02*
X645Y242D01*
X655Y242D02*
X662Y242D01*
X740Y242D02*
X746Y242D01*
X755Y242D02*
X762Y242D01*
X797Y242D02*
X803Y242D01*
X833Y242D02*
X839Y242D01*
X861Y242D02*
X867Y242D01*
X894Y242D02*
X913Y242D01*
X1006Y242D02*
X1012Y242D01*
X1050Y242D02*
X1056Y242D01*
X1077Y242D02*
X1083Y242D01*
X1107Y242D02*
X1113Y242D01*
X1121Y242D02*
X1128Y242D01*
X1156Y242D02*
X1163Y242D01*
X1214Y242D02*
X1220Y242D01*
X1308Y242D02*
X1317Y242D01*
X1320Y242D02*
X1327Y242D01*
X0Y241D02*
X7Y241D01*
X28Y241D02*
X35Y241D01*
X74Y241D02*
X83Y241D01*
X141Y241D02*
X147Y241D01*
X178Y241D02*
X185Y241D01*
X227Y241D02*
X259Y241D01*
X334Y241D02*
X340Y241D01*
X352Y241D02*
X359Y241D01*
X378Y241D02*
X384Y241D01*
X435Y241D02*
X443Y241D01*
X446Y241D02*
X454Y241D01*
X477Y241D02*
X486Y241D01*
X490Y241D02*
X499Y241D01*
X536Y241D02*
X544Y241D01*
X582Y241D02*
X588Y241D01*
X610Y241D02*
X616Y241D01*
X639Y241D02*
X645Y241D01*
X655Y241D02*
X662Y241D01*
X740Y241D02*
X746Y241D01*
X756Y241D02*
X762Y241D01*
X797Y241D02*
X803Y241D01*
X833Y241D02*
X839Y241D01*
X860Y241D02*
X867Y241D01*
X894Y241D02*
X913Y241D01*
X1006Y241D02*
X1012Y241D01*
X1050Y241D02*
X1056Y241D01*
X1077Y241D02*
X1083Y241D01*
X1107Y241D02*
X1113Y241D01*
X1121Y241D02*
X1128Y241D01*
X1155Y241D02*
X1162Y241D01*
X1214Y241D02*
X1220Y241D01*
X1308Y241D02*
X1317Y241D01*
X1320Y241D02*
X1327Y241D01*
X0Y240D02*
X7Y240D01*
X29Y240D02*
X36Y240D01*
X74Y240D02*
X83Y240D01*
X141Y240D02*
X147Y240D01*
X178Y240D02*
X184Y240D01*
X227Y240D02*
X258Y240D01*
X334Y240D02*
X340Y240D01*
X353Y240D02*
X360Y240D01*
X378Y240D02*
X384Y240D01*
X436Y240D02*
X444Y240D01*
X446Y240D02*
X454Y240D01*
X477Y240D02*
X486Y240D01*
X490Y240D02*
X499Y240D01*
X537Y240D02*
X545Y240D01*
X582Y240D02*
X588Y240D01*
X610Y240D02*
X616Y240D01*
X639Y240D02*
X645Y240D01*
X656Y240D02*
X663Y240D01*
X740Y240D02*
X746Y240D01*
X756Y240D02*
X763Y240D01*
X797Y240D02*
X803Y240D01*
X833Y240D02*
X839Y240D01*
X860Y240D02*
X866Y240D01*
X894Y240D02*
X913Y240D01*
X1006Y240D02*
X1012Y240D01*
X1050Y240D02*
X1056Y240D01*
X1077Y240D02*
X1083Y240D01*
X1107Y240D02*
X1113Y240D01*
X1122Y240D02*
X1129Y240D01*
X1155Y240D02*
X1162Y240D01*
X1214Y240D02*
X1220Y240D01*
X1308Y240D02*
X1317Y240D01*
X1320Y240D02*
X1327Y240D01*
X0Y239D02*
X7Y239D01*
X29Y239D02*
X37Y239D01*
X74Y239D02*
X83Y239D01*
X141Y239D02*
X147Y239D01*
X177Y239D02*
X184Y239D01*
X227Y239D02*
X257Y239D01*
X334Y239D02*
X340Y239D01*
X354Y239D02*
X360Y239D01*
X378Y239D02*
X384Y239D01*
X437Y239D02*
X453Y239D01*
X477Y239D02*
X486Y239D01*
X490Y239D02*
X499Y239D01*
X537Y239D02*
X545Y239D01*
X582Y239D02*
X588Y239D01*
X610Y239D02*
X616Y239D01*
X639Y239D02*
X645Y239D01*
X656Y239D02*
X663Y239D01*
X740Y239D02*
X746Y239D01*
X757Y239D02*
X763Y239D01*
X797Y239D02*
X803Y239D01*
X833Y239D02*
X839Y239D01*
X858Y239D02*
X866Y239D01*
X894Y239D02*
X913Y239D01*
X1006Y239D02*
X1012Y239D01*
X1050Y239D02*
X1056Y239D01*
X1077Y239D02*
X1083Y239D01*
X1107Y239D02*
X1113Y239D01*
X1122Y239D02*
X1129Y239D01*
X1154Y239D02*
X1161Y239D01*
X1214Y239D02*
X1220Y239D01*
X1308Y239D02*
X1317Y239D01*
X1320Y239D02*
X1327Y239D01*
X0Y238D02*
X7Y238D01*
X30Y238D02*
X37Y238D01*
X74Y238D02*
X83Y238D01*
X141Y238D02*
X147Y238D01*
X177Y238D02*
X183Y238D01*
X227Y238D02*
X256Y238D01*
X334Y238D02*
X340Y238D01*
X354Y238D02*
X360Y238D01*
X378Y238D02*
X384Y238D01*
X437Y238D02*
X452Y238D01*
X477Y238D02*
X486Y238D01*
X490Y238D02*
X499Y238D01*
X538Y238D02*
X546Y238D01*
X582Y238D02*
X588Y238D01*
X610Y238D02*
X616Y238D01*
X639Y238D02*
X645Y238D01*
X657Y238D02*
X664Y238D01*
X740Y238D02*
X746Y238D01*
X757Y238D02*
X764Y238D01*
X797Y238D02*
X803Y238D01*
X833Y238D02*
X866Y238D01*
X894Y238D02*
X913Y238D01*
X1006Y238D02*
X1012Y238D01*
X1050Y238D02*
X1056Y238D01*
X1077Y238D02*
X1083Y238D01*
X1107Y238D02*
X1113Y238D01*
X1123Y238D02*
X1130Y238D01*
X1154Y238D02*
X1161Y238D01*
X1214Y238D02*
X1220Y238D01*
X1308Y238D02*
X1317Y238D01*
X1320Y238D02*
X1327Y238D01*
X0Y237D02*
X7Y237D01*
X31Y237D02*
X38Y237D01*
X74Y237D02*
X83Y237D01*
X141Y237D02*
X147Y237D01*
X177Y237D02*
X183Y237D01*
X227Y237D02*
X254Y237D01*
X334Y237D02*
X340Y237D01*
X354Y237D02*
X361Y237D01*
X378Y237D02*
X384Y237D01*
X438Y237D02*
X451Y237D01*
X477Y237D02*
X486Y237D01*
X490Y237D02*
X499Y237D01*
X539Y237D02*
X547Y237D01*
X582Y237D02*
X588Y237D01*
X610Y237D02*
X616Y237D01*
X639Y237D02*
X645Y237D01*
X657Y237D02*
X664Y237D01*
X740Y237D02*
X746Y237D01*
X758Y237D02*
X764Y237D01*
X797Y237D02*
X803Y237D01*
X833Y237D02*
X865Y237D01*
X894Y237D02*
X913Y237D01*
X1006Y237D02*
X1012Y237D01*
X1050Y237D02*
X1056Y237D01*
X1076Y237D02*
X1083Y237D01*
X1107Y237D02*
X1113Y237D01*
X1123Y237D02*
X1130Y237D01*
X1153Y237D02*
X1160Y237D01*
X1214Y237D02*
X1220Y237D01*
X1308Y237D02*
X1317Y237D01*
X1320Y237D02*
X1327Y237D01*
X0Y236D02*
X7Y236D01*
X31Y236D02*
X39Y236D01*
X74Y236D02*
X83Y236D01*
X141Y236D02*
X147Y236D01*
X177Y236D02*
X183Y236D01*
X227Y236D02*
X234Y236D01*
X239Y236D02*
X247Y236D01*
X334Y236D02*
X340Y236D01*
X355Y236D02*
X361Y236D01*
X378Y236D02*
X384Y236D01*
X439Y236D02*
X450Y236D01*
X477Y236D02*
X486Y236D01*
X490Y236D02*
X499Y236D01*
X540Y236D02*
X548Y236D01*
X582Y236D02*
X588Y236D01*
X610Y236D02*
X616Y236D01*
X639Y236D02*
X645Y236D01*
X658Y236D02*
X664Y236D01*
X740Y236D02*
X746Y236D01*
X758Y236D02*
X765Y236D01*
X797Y236D02*
X803Y236D01*
X833Y236D02*
X865Y236D01*
X894Y236D02*
X913Y236D01*
X1006Y236D02*
X1012Y236D01*
X1050Y236D02*
X1057Y236D01*
X1076Y236D02*
X1082Y236D01*
X1107Y236D02*
X1113Y236D01*
X1124Y236D02*
X1131Y236D01*
X1153Y236D02*
X1160Y236D01*
X1214Y236D02*
X1220Y236D01*
X1308Y236D02*
X1317Y236D01*
X1320Y236D02*
X1327Y236D01*
X0Y235D02*
X7Y235D01*
X32Y235D02*
X39Y235D01*
X74Y235D02*
X83Y235D01*
X141Y235D02*
X147Y235D01*
X177Y235D02*
X183Y235D01*
X227Y235D02*
X233Y235D01*
X240Y235D02*
X247Y235D01*
X334Y235D02*
X340Y235D01*
X355Y235D02*
X361Y235D01*
X378Y235D02*
X384Y235D01*
X440Y235D02*
X450Y235D01*
X477Y235D02*
X486Y235D01*
X490Y235D02*
X499Y235D01*
X540Y235D02*
X548Y235D01*
X582Y235D02*
X588Y235D01*
X610Y235D02*
X616Y235D01*
X639Y235D02*
X645Y235D01*
X658Y235D02*
X665Y235D01*
X740Y235D02*
X746Y235D01*
X759Y235D02*
X765Y235D01*
X797Y235D02*
X803Y235D01*
X833Y235D02*
X864Y235D01*
X894Y235D02*
X913Y235D01*
X1006Y235D02*
X1012Y235D01*
X1051Y235D02*
X1057Y235D01*
X1076Y235D02*
X1082Y235D01*
X1107Y235D02*
X1113Y235D01*
X1124Y235D02*
X1131Y235D01*
X1152Y235D02*
X1159Y235D01*
X1214Y235D02*
X1220Y235D01*
X1308Y235D02*
X1317Y235D01*
X1320Y235D02*
X1327Y235D01*
X0Y234D02*
X7Y234D01*
X33Y234D02*
X40Y234D01*
X74Y234D02*
X83Y234D01*
X141Y234D02*
X147Y234D01*
X177Y234D02*
X183Y234D01*
X227Y234D02*
X233Y234D01*
X240Y234D02*
X247Y234D01*
X334Y234D02*
X340Y234D01*
X355Y234D02*
X361Y234D01*
X378Y234D02*
X384Y234D01*
X441Y234D02*
X449Y234D01*
X477Y234D02*
X486Y234D01*
X490Y234D02*
X499Y234D01*
X541Y234D02*
X549Y234D01*
X582Y234D02*
X588Y234D01*
X610Y234D02*
X616Y234D01*
X639Y234D02*
X645Y234D01*
X659Y234D02*
X665Y234D01*
X740Y234D02*
X746Y234D01*
X759Y234D02*
X766Y234D01*
X797Y234D02*
X803Y234D01*
X833Y234D02*
X862Y234D01*
X894Y234D02*
X913Y234D01*
X1006Y234D02*
X1012Y234D01*
X1051Y234D02*
X1058Y234D01*
X1075Y234D02*
X1082Y234D01*
X1107Y234D02*
X1113Y234D01*
X1125Y234D02*
X1132Y234D01*
X1152Y234D02*
X1159Y234D01*
X1214Y234D02*
X1220Y234D01*
X1308Y234D02*
X1317Y234D01*
X1320Y234D02*
X1327Y234D01*
X0Y233D02*
X7Y233D01*
X29Y233D02*
X63Y233D01*
X74Y233D02*
X83Y233D01*
X141Y233D02*
X147Y233D01*
X177Y233D02*
X183Y233D01*
X227Y233D02*
X233Y233D01*
X241Y233D02*
X248Y233D01*
X334Y233D02*
X340Y233D01*
X355Y233D02*
X361Y233D01*
X378Y233D02*
X384Y233D01*
X441Y233D02*
X448Y233D01*
X477Y233D02*
X486Y233D01*
X490Y233D02*
X499Y233D01*
X542Y233D02*
X550Y233D01*
X582Y233D02*
X588Y233D01*
X610Y233D02*
X616Y233D01*
X639Y233D02*
X645Y233D01*
X659Y233D02*
X666Y233D01*
X740Y233D02*
X746Y233D01*
X760Y233D02*
X766Y233D01*
X797Y233D02*
X803Y233D01*
X833Y233D02*
X861Y233D01*
X894Y233D02*
X913Y233D01*
X1006Y233D02*
X1012Y233D01*
X1051Y233D02*
X1058Y233D01*
X1075Y233D02*
X1081Y233D01*
X1107Y233D02*
X1113Y233D01*
X1125Y233D02*
X1132Y233D01*
X1151Y233D02*
X1158Y233D01*
X1214Y233D02*
X1220Y233D01*
X1308Y233D02*
X1317Y233D01*
X1320Y233D02*
X1327Y233D01*
X0Y232D02*
X7Y232D01*
X28Y232D02*
X65Y232D01*
X74Y232D02*
X83Y232D01*
X141Y232D02*
X147Y232D01*
X177Y232D02*
X183Y232D01*
X227Y232D02*
X233Y232D01*
X241Y232D02*
X249Y232D01*
X334Y232D02*
X340Y232D01*
X355Y232D02*
X361Y232D01*
X378Y232D02*
X384Y232D01*
X442Y232D02*
X448Y232D01*
X477Y232D02*
X486Y232D01*
X490Y232D02*
X499Y232D01*
X543Y232D02*
X551Y232D01*
X582Y232D02*
X588Y232D01*
X609Y232D02*
X616Y232D01*
X639Y232D02*
X645Y232D01*
X660Y232D02*
X666Y232D01*
X740Y232D02*
X746Y232D01*
X760Y232D02*
X766Y232D01*
X797Y232D02*
X803Y232D01*
X833Y232D02*
X858Y232D01*
X894Y232D02*
X913Y232D01*
X1006Y232D02*
X1012Y232D01*
X1052Y232D02*
X1058Y232D01*
X1074Y232D02*
X1081Y232D01*
X1107Y232D02*
X1113Y232D01*
X1126Y232D02*
X1132Y232D01*
X1151Y232D02*
X1158Y232D01*
X1214Y232D02*
X1220Y232D01*
X1308Y232D02*
X1317Y232D01*
X1320Y232D02*
X1327Y232D01*
X0Y231D02*
X7Y231D01*
X27Y231D02*
X65Y231D01*
X74Y231D02*
X83Y231D01*
X141Y231D02*
X147Y231D01*
X177Y231D02*
X183Y231D01*
X196Y231D02*
X210Y231D01*
X227Y231D02*
X233Y231D01*
X242Y231D02*
X249Y231D01*
X334Y231D02*
X340Y231D01*
X355Y231D02*
X361Y231D01*
X378Y231D02*
X384Y231D01*
X442Y231D02*
X448Y231D01*
X477Y231D02*
X486Y231D01*
X490Y231D02*
X499Y231D01*
X544Y231D02*
X552Y231D01*
X582Y231D02*
X588Y231D01*
X609Y231D02*
X615Y231D01*
X639Y231D02*
X645Y231D01*
X660Y231D02*
X666Y231D01*
X740Y231D02*
X746Y231D01*
X760Y231D02*
X766Y231D01*
X797Y231D02*
X803Y231D01*
X833Y231D02*
X839Y231D01*
X845Y231D02*
X853Y231D01*
X894Y231D02*
X913Y231D01*
X1006Y231D02*
X1012Y231D01*
X1052Y231D02*
X1059Y231D01*
X1074Y231D02*
X1080Y231D01*
X1107Y231D02*
X1113Y231D01*
X1126Y231D02*
X1133Y231D01*
X1151Y231D02*
X1157Y231D01*
X1214Y231D02*
X1220Y231D01*
X1308Y231D02*
X1317Y231D01*
X1320Y231D02*
X1327Y231D01*
X0Y230D02*
X7Y230D01*
X27Y230D02*
X66Y230D01*
X74Y230D02*
X83Y230D01*
X141Y230D02*
X147Y230D01*
X177Y230D02*
X183Y230D01*
X195Y230D02*
X211Y230D01*
X227Y230D02*
X233Y230D01*
X243Y230D02*
X250Y230D01*
X334Y230D02*
X340Y230D01*
X354Y230D02*
X361Y230D01*
X378Y230D02*
X384Y230D01*
X442Y230D02*
X448Y230D01*
X477Y230D02*
X486Y230D01*
X490Y230D02*
X499Y230D01*
X544Y230D02*
X552Y230D01*
X582Y230D02*
X615Y230D01*
X639Y230D02*
X645Y230D01*
X660Y230D02*
X666Y230D01*
X740Y230D02*
X746Y230D01*
X760Y230D02*
X766Y230D01*
X797Y230D02*
X803Y230D01*
X833Y230D02*
X839Y230D01*
X846Y230D02*
X853Y230D01*
X894Y230D02*
X913Y230D01*
X951Y230D02*
X981Y230D01*
X1006Y230D02*
X1028Y230D01*
X1053Y230D02*
X1059Y230D01*
X1074Y230D02*
X1080Y230D01*
X1107Y230D02*
X1113Y230D01*
X1127Y230D02*
X1133Y230D01*
X1150Y230D02*
X1157Y230D01*
X1202Y230D02*
X1232Y230D01*
X1308Y230D02*
X1317Y230D01*
X1320Y230D02*
X1327Y230D01*
X0Y229D02*
X7Y229D01*
X27Y229D02*
X65Y229D01*
X74Y229D02*
X83Y229D01*
X141Y229D02*
X147Y229D01*
X177Y229D02*
X183Y229D01*
X194Y229D02*
X211Y229D01*
X227Y229D02*
X233Y229D01*
X243Y229D02*
X250Y229D01*
X334Y229D02*
X340Y229D01*
X354Y229D02*
X360Y229D01*
X378Y229D02*
X384Y229D01*
X442Y229D02*
X448Y229D01*
X477Y229D02*
X486Y229D01*
X490Y229D02*
X499Y229D01*
X545Y229D02*
X553Y229D01*
X582Y229D02*
X615Y229D01*
X639Y229D02*
X645Y229D01*
X660Y229D02*
X666Y229D01*
X740Y229D02*
X746Y229D01*
X760Y229D02*
X766Y229D01*
X797Y229D02*
X803Y229D01*
X833Y229D02*
X839Y229D01*
X847Y229D02*
X854Y229D01*
X894Y229D02*
X913Y229D01*
X950Y229D02*
X982Y229D01*
X1006Y229D02*
X1030Y229D01*
X1053Y229D02*
X1060Y229D01*
X1073Y229D02*
X1080Y229D01*
X1107Y229D02*
X1113Y229D01*
X1127Y229D02*
X1133Y229D01*
X1150Y229D02*
X1156Y229D01*
X1201Y229D02*
X1233Y229D01*
X1308Y229D02*
X1317Y229D01*
X1320Y229D02*
X1327Y229D01*
X0Y228D02*
X7Y228D01*
X28Y228D02*
X65Y228D01*
X74Y228D02*
X83Y228D01*
X141Y228D02*
X147Y228D01*
X177Y228D02*
X183Y228D01*
X194Y228D02*
X211Y228D01*
X227Y228D02*
X233Y228D01*
X244Y228D02*
X251Y228D01*
X334Y228D02*
X340Y228D01*
X353Y228D02*
X360Y228D01*
X378Y228D02*
X384Y228D01*
X442Y228D02*
X448Y228D01*
X477Y228D02*
X486Y228D01*
X490Y228D02*
X499Y228D01*
X546Y228D02*
X554Y228D01*
X582Y228D02*
X614Y228D01*
X639Y228D02*
X645Y228D01*
X660Y228D02*
X666Y228D01*
X740Y228D02*
X746Y228D01*
X760Y228D02*
X766Y228D01*
X797Y228D02*
X803Y228D01*
X833Y228D02*
X839Y228D01*
X847Y228D02*
X854Y228D01*
X894Y228D02*
X913Y228D01*
X949Y228D02*
X983Y228D01*
X1006Y228D02*
X1031Y228D01*
X1053Y228D02*
X1060Y228D01*
X1073Y228D02*
X1079Y228D01*
X1107Y228D02*
X1113Y228D01*
X1127Y228D02*
X1133Y228D01*
X1150Y228D02*
X1156Y228D01*
X1200Y228D02*
X1233Y228D01*
X1308Y228D02*
X1317Y228D01*
X1320Y228D02*
X1327Y228D01*
X0Y227D02*
X7Y227D01*
X29Y227D02*
X64Y227D01*
X74Y227D02*
X83Y227D01*
X141Y227D02*
X147Y227D01*
X177Y227D02*
X183Y227D01*
X194Y227D02*
X211Y227D01*
X227Y227D02*
X233Y227D01*
X244Y227D02*
X251Y227D01*
X334Y227D02*
X340Y227D01*
X353Y227D02*
X360Y227D01*
X378Y227D02*
X384Y227D01*
X442Y227D02*
X448Y227D01*
X477Y227D02*
X486Y227D01*
X490Y227D02*
X499Y227D01*
X547Y227D02*
X555Y227D01*
X582Y227D02*
X613Y227D01*
X639Y227D02*
X645Y227D01*
X660Y227D02*
X666Y227D01*
X740Y227D02*
X746Y227D01*
X760Y227D02*
X766Y227D01*
X797Y227D02*
X803Y227D01*
X833Y227D02*
X839Y227D01*
X848Y227D02*
X855Y227D01*
X894Y227D02*
X913Y227D01*
X949Y227D02*
X983Y227D01*
X1006Y227D02*
X1032Y227D01*
X1054Y227D02*
X1060Y227D01*
X1072Y227D02*
X1079Y227D01*
X1107Y227D02*
X1113Y227D01*
X1127Y227D02*
X1133Y227D01*
X1150Y227D02*
X1156Y227D01*
X1200Y227D02*
X1234Y227D01*
X1308Y227D02*
X1317Y227D01*
X1320Y227D02*
X1327Y227D01*
X0Y226D02*
X7Y226D01*
X74Y226D02*
X83Y226D01*
X141Y226D02*
X147Y226D01*
X177Y226D02*
X183Y226D01*
X195Y226D02*
X211Y226D01*
X227Y226D02*
X233Y226D01*
X245Y226D02*
X252Y226D01*
X334Y226D02*
X340Y226D01*
X352Y226D02*
X359Y226D01*
X378Y226D02*
X384Y226D01*
X442Y226D02*
X448Y226D01*
X477Y226D02*
X486Y226D01*
X490Y226D02*
X499Y226D01*
X547Y226D02*
X555Y226D01*
X582Y226D02*
X613Y226D01*
X639Y226D02*
X645Y226D01*
X659Y226D02*
X666Y226D01*
X740Y226D02*
X746Y226D01*
X760Y226D02*
X766Y226D01*
X797Y226D02*
X803Y226D01*
X833Y226D02*
X839Y226D01*
X848Y226D02*
X856Y226D01*
X894Y226D02*
X913Y226D01*
X949Y226D02*
X983Y226D01*
X1006Y226D02*
X1032Y226D01*
X1054Y226D02*
X1061Y226D01*
X1072Y226D02*
X1079Y226D01*
X1107Y226D02*
X1113Y226D01*
X1127Y226D02*
X1133Y226D01*
X1150Y226D02*
X1156Y226D01*
X1200Y226D02*
X1234Y226D01*
X1308Y226D02*
X1317Y226D01*
X1320Y226D02*
X1327Y226D01*
X0Y225D02*
X7Y225D01*
X74Y225D02*
X83Y225D01*
X141Y225D02*
X147Y225D01*
X177Y225D02*
X183Y225D01*
X196Y225D02*
X211Y225D01*
X227Y225D02*
X233Y225D01*
X245Y225D02*
X253Y225D01*
X334Y225D02*
X340Y225D01*
X352Y225D02*
X359Y225D01*
X378Y225D02*
X384Y225D01*
X442Y225D02*
X448Y225D01*
X477Y225D02*
X486Y225D01*
X490Y225D02*
X499Y225D01*
X548Y225D02*
X556Y225D01*
X582Y225D02*
X611Y225D01*
X639Y225D02*
X645Y225D01*
X659Y225D02*
X665Y225D01*
X740Y225D02*
X746Y225D01*
X759Y225D02*
X766Y225D01*
X797Y225D02*
X803Y225D01*
X833Y225D02*
X839Y225D01*
X849Y225D02*
X856Y225D01*
X894Y225D02*
X913Y225D01*
X949Y225D02*
X983Y225D01*
X1006Y225D02*
X1033Y225D01*
X1055Y225D02*
X1061Y225D01*
X1072Y225D02*
X1078Y225D01*
X1107Y225D02*
X1113Y225D01*
X1127Y225D02*
X1133Y225D01*
X1150Y225D02*
X1156Y225D01*
X1201Y225D02*
X1233Y225D01*
X1308Y225D02*
X1317Y225D01*
X1320Y225D02*
X1327Y225D01*
X0Y224D02*
X7Y224D01*
X74Y224D02*
X83Y224D01*
X141Y224D02*
X147Y224D01*
X177Y224D02*
X183Y224D01*
X204Y224D02*
X211Y224D01*
X227Y224D02*
X233Y224D01*
X246Y224D02*
X253Y224D01*
X334Y224D02*
X340Y224D01*
X351Y224D02*
X358Y224D01*
X378Y224D02*
X384Y224D01*
X442Y224D02*
X448Y224D01*
X477Y224D02*
X486Y224D01*
X490Y224D02*
X499Y224D01*
X549Y224D02*
X557Y224D01*
X582Y224D02*
X610Y224D01*
X639Y224D02*
X645Y224D01*
X658Y224D02*
X665Y224D01*
X740Y224D02*
X746Y224D01*
X759Y224D02*
X765Y224D01*
X797Y224D02*
X803Y224D01*
X833Y224D02*
X839Y224D01*
X850Y224D02*
X857Y224D01*
X894Y224D02*
X913Y224D01*
X949Y224D02*
X983Y224D01*
X1006Y224D02*
X1033Y224D01*
X1055Y224D02*
X1062Y224D01*
X1071Y224D02*
X1078Y224D01*
X1107Y224D02*
X1113Y224D01*
X1127Y224D02*
X1133Y224D01*
X1150Y224D02*
X1156Y224D01*
X1202Y224D02*
X1232Y224D01*
X1308Y224D02*
X1317Y224D01*
X1320Y224D02*
X1327Y224D01*
X0Y223D02*
X7Y223D01*
X74Y223D02*
X83Y223D01*
X141Y223D02*
X147Y223D01*
X177Y223D02*
X183Y223D01*
X205Y223D02*
X211Y223D01*
X227Y223D02*
X233Y223D01*
X247Y223D02*
X254Y223D01*
X334Y223D02*
X340Y223D01*
X351Y223D02*
X358Y223D01*
X378Y223D02*
X384Y223D01*
X442Y223D02*
X448Y223D01*
X477Y223D02*
X486Y223D01*
X490Y223D02*
X499Y223D01*
X550Y223D02*
X558Y223D01*
X582Y223D02*
X605Y223D01*
X639Y223D02*
X645Y223D01*
X658Y223D02*
X665Y223D01*
X740Y223D02*
X746Y223D01*
X758Y223D02*
X765Y223D01*
X797Y223D02*
X803Y223D01*
X833Y223D02*
X839Y223D01*
X850Y223D02*
X857Y223D01*
X894Y223D02*
X913Y223D01*
X949Y223D02*
X983Y223D01*
X1027Y223D02*
X1033Y223D01*
X1055Y223D02*
X1062Y223D01*
X1071Y223D02*
X1077Y223D01*
X1107Y223D02*
X1113Y223D01*
X1126Y223D02*
X1133Y223D01*
X1150Y223D02*
X1157Y223D01*
X1214Y223D02*
X1220Y223D01*
X1308Y223D02*
X1317Y223D01*
X1320Y223D02*
X1327Y223D01*
X0Y222D02*
X7Y222D01*
X74Y222D02*
X83Y222D01*
X141Y222D02*
X147Y222D01*
X177Y222D02*
X183Y222D01*
X205Y222D02*
X211Y222D01*
X227Y222D02*
X233Y222D01*
X247Y222D02*
X254Y222D01*
X334Y222D02*
X340Y222D01*
X350Y222D02*
X357Y222D01*
X378Y222D02*
X384Y222D01*
X442Y222D02*
X448Y222D01*
X477Y222D02*
X486Y222D01*
X490Y222D02*
X499Y222D01*
X551Y222D02*
X559Y222D01*
X582Y222D02*
X588Y222D01*
X639Y222D02*
X645Y222D01*
X657Y222D02*
X664Y222D01*
X740Y222D02*
X746Y222D01*
X758Y222D02*
X765Y222D01*
X797Y222D02*
X803Y222D01*
X833Y222D02*
X839Y222D01*
X851Y222D02*
X858Y222D01*
X894Y222D02*
X913Y222D01*
X950Y222D02*
X982Y222D01*
X1027Y222D02*
X1033Y222D01*
X1056Y222D02*
X1062Y222D01*
X1070Y222D02*
X1077Y222D01*
X1107Y222D02*
X1113Y222D01*
X1126Y222D02*
X1133Y222D01*
X1151Y222D02*
X1157Y222D01*
X1214Y222D02*
X1220Y222D01*
X1308Y222D02*
X1317Y222D01*
X1320Y222D02*
X1327Y222D01*
X0Y221D02*
X7Y221D01*
X74Y221D02*
X83Y221D01*
X141Y221D02*
X147Y221D01*
X177Y221D02*
X183Y221D01*
X205Y221D02*
X211Y221D01*
X227Y221D02*
X233Y221D01*
X248Y221D02*
X255Y221D01*
X334Y221D02*
X340Y221D01*
X350Y221D02*
X357Y221D01*
X378Y221D02*
X384Y221D01*
X442Y221D02*
X448Y221D01*
X477Y221D02*
X486Y221D01*
X490Y221D02*
X499Y221D01*
X551Y221D02*
X559Y221D01*
X582Y221D02*
X588Y221D01*
X639Y221D02*
X645Y221D01*
X657Y221D02*
X664Y221D01*
X740Y221D02*
X746Y221D01*
X757Y221D02*
X764Y221D01*
X797Y221D02*
X803Y221D01*
X833Y221D02*
X839Y221D01*
X851Y221D02*
X859Y221D01*
X894Y221D02*
X913Y221D01*
X951Y221D02*
X981Y221D01*
X1027Y221D02*
X1033Y221D01*
X1056Y221D02*
X1063Y221D01*
X1070Y221D02*
X1077Y221D01*
X1107Y221D02*
X1113Y221D01*
X1126Y221D02*
X1132Y221D01*
X1151Y221D02*
X1158Y221D01*
X1214Y221D02*
X1220Y221D01*
X1308Y221D02*
X1317Y221D01*
X1320Y221D02*
X1327Y221D01*
X0Y220D02*
X7Y220D01*
X74Y220D02*
X83Y220D01*
X141Y220D02*
X147Y220D01*
X177Y220D02*
X183Y220D01*
X205Y220D02*
X211Y220D01*
X227Y220D02*
X233Y220D01*
X248Y220D02*
X256Y220D01*
X334Y220D02*
X340Y220D01*
X349Y220D02*
X356Y220D01*
X378Y220D02*
X384Y220D01*
X442Y220D02*
X448Y220D01*
X477Y220D02*
X486Y220D01*
X490Y220D02*
X499Y220D01*
X552Y220D02*
X560Y220D01*
X582Y220D02*
X588Y220D01*
X639Y220D02*
X645Y220D01*
X656Y220D02*
X663Y220D01*
X740Y220D02*
X746Y220D01*
X757Y220D02*
X764Y220D01*
X797Y220D02*
X803Y220D01*
X833Y220D02*
X839Y220D01*
X852Y220D02*
X859Y220D01*
X894Y220D02*
X913Y220D01*
X1027Y220D02*
X1033Y220D01*
X1057Y220D02*
X1063Y220D01*
X1070Y220D02*
X1076Y220D01*
X1107Y220D02*
X1113Y220D01*
X1125Y220D02*
X1132Y220D01*
X1152Y220D02*
X1158Y220D01*
X1214Y220D02*
X1220Y220D01*
X1308Y220D02*
X1317Y220D01*
X1320Y220D02*
X1327Y220D01*
X0Y219D02*
X7Y219D01*
X74Y219D02*
X83Y219D01*
X141Y219D02*
X147Y219D01*
X177Y219D02*
X183Y219D01*
X205Y219D02*
X211Y219D01*
X227Y219D02*
X233Y219D01*
X249Y219D02*
X256Y219D01*
X334Y219D02*
X340Y219D01*
X349Y219D02*
X356Y219D01*
X378Y219D02*
X384Y219D01*
X442Y219D02*
X448Y219D01*
X477Y219D02*
X486Y219D01*
X490Y219D02*
X499Y219D01*
X553Y219D02*
X561Y219D01*
X582Y219D02*
X588Y219D01*
X639Y219D02*
X645Y219D01*
X656Y219D02*
X663Y219D01*
X740Y219D02*
X746Y219D01*
X756Y219D02*
X763Y219D01*
X797Y219D02*
X803Y219D01*
X833Y219D02*
X839Y219D01*
X852Y219D02*
X860Y219D01*
X894Y219D02*
X913Y219D01*
X1027Y219D02*
X1033Y219D01*
X1057Y219D02*
X1064Y219D01*
X1069Y219D02*
X1076Y219D01*
X1107Y219D02*
X1113Y219D01*
X1124Y219D02*
X1131Y219D01*
X1152Y219D02*
X1159Y219D01*
X1214Y219D02*
X1220Y219D01*
X1308Y219D02*
X1317Y219D01*
X1320Y219D02*
X1327Y219D01*
X0Y218D02*
X7Y218D01*
X74Y218D02*
X83Y218D01*
X141Y218D02*
X147Y218D01*
X177Y218D02*
X183Y218D01*
X205Y218D02*
X211Y218D01*
X227Y218D02*
X233Y218D01*
X250Y218D02*
X257Y218D01*
X334Y218D02*
X340Y218D01*
X348Y218D02*
X355Y218D01*
X378Y218D02*
X384Y218D01*
X442Y218D02*
X448Y218D01*
X477Y218D02*
X486Y218D01*
X490Y218D02*
X499Y218D01*
X554Y218D02*
X562Y218D01*
X582Y218D02*
X588Y218D01*
X639Y218D02*
X645Y218D01*
X655Y218D02*
X662Y218D01*
X740Y218D02*
X746Y218D01*
X756Y218D02*
X763Y218D01*
X797Y218D02*
X803Y218D01*
X833Y218D02*
X839Y218D01*
X853Y218D02*
X860Y218D01*
X894Y218D02*
X913Y218D01*
X1027Y218D02*
X1033Y218D01*
X1057Y218D02*
X1064Y218D01*
X1069Y218D02*
X1075Y218D01*
X1107Y218D02*
X1113Y218D01*
X1124Y218D02*
X1131Y218D01*
X1152Y218D02*
X1159Y218D01*
X1214Y218D02*
X1220Y218D01*
X1308Y218D02*
X1317Y218D01*
X1320Y218D02*
X1327Y218D01*
X0Y217D02*
X7Y217D01*
X74Y217D02*
X83Y217D01*
X141Y217D02*
X147Y217D01*
X177Y217D02*
X183Y217D01*
X204Y217D02*
X211Y217D01*
X227Y217D02*
X233Y217D01*
X250Y217D02*
X257Y217D01*
X334Y217D02*
X340Y217D01*
X348Y217D02*
X355Y217D01*
X378Y217D02*
X384Y217D01*
X442Y217D02*
X448Y217D01*
X477Y217D02*
X486Y217D01*
X490Y217D02*
X499Y217D01*
X554Y217D02*
X562Y217D01*
X582Y217D02*
X588Y217D01*
X639Y217D02*
X645Y217D01*
X655Y217D02*
X662Y217D01*
X740Y217D02*
X746Y217D01*
X755Y217D02*
X762Y217D01*
X797Y217D02*
X803Y217D01*
X833Y217D02*
X839Y217D01*
X854Y217D02*
X861Y217D01*
X894Y217D02*
X913Y217D01*
X1027Y217D02*
X1033Y217D01*
X1058Y217D02*
X1064Y217D01*
X1068Y217D02*
X1075Y217D01*
X1107Y217D02*
X1113Y217D01*
X1123Y217D02*
X1130Y217D01*
X1153Y217D02*
X1160Y217D01*
X1214Y217D02*
X1220Y217D01*
X1308Y217D02*
X1317Y217D01*
X1320Y217D02*
X1327Y217D01*
X0Y216D02*
X7Y216D01*
X74Y216D02*
X83Y216D01*
X141Y216D02*
X147Y216D01*
X177Y216D02*
X183Y216D01*
X204Y216D02*
X210Y216D01*
X227Y216D02*
X233Y216D01*
X251Y216D02*
X258Y216D01*
X334Y216D02*
X340Y216D01*
X347Y216D02*
X354Y216D01*
X378Y216D02*
X384Y216D01*
X442Y216D02*
X448Y216D01*
X477Y216D02*
X486Y216D01*
X490Y216D02*
X499Y216D01*
X555Y216D02*
X563Y216D01*
X582Y216D02*
X588Y216D01*
X639Y216D02*
X645Y216D01*
X654Y216D02*
X661Y216D01*
X740Y216D02*
X746Y216D01*
X755Y216D02*
X762Y216D01*
X797Y216D02*
X803Y216D01*
X833Y216D02*
X839Y216D01*
X854Y216D02*
X861Y216D01*
X894Y216D02*
X913Y216D01*
X1027Y216D02*
X1033Y216D01*
X1058Y216D02*
X1065Y216D01*
X1068Y216D02*
X1075Y216D01*
X1107Y216D02*
X1113Y216D01*
X1123Y216D02*
X1130Y216D01*
X1153Y216D02*
X1160Y216D01*
X1214Y216D02*
X1220Y216D01*
X1308Y216D02*
X1317Y216D01*
X1320Y216D02*
X1327Y216D01*
X0Y215D02*
X7Y215D01*
X74Y215D02*
X83Y215D01*
X141Y215D02*
X147Y215D01*
X177Y215D02*
X184Y215D01*
X204Y215D02*
X210Y215D01*
X227Y215D02*
X233Y215D01*
X251Y215D02*
X258Y215D01*
X334Y215D02*
X340Y215D01*
X347Y215D02*
X354Y215D01*
X378Y215D02*
X384Y215D01*
X442Y215D02*
X448Y215D01*
X477Y215D02*
X486Y215D01*
X490Y215D02*
X499Y215D01*
X534Y215D02*
X536Y215D01*
X556Y215D02*
X564Y215D01*
X582Y215D02*
X588Y215D01*
X639Y215D02*
X645Y215D01*
X654Y215D02*
X661Y215D01*
X740Y215D02*
X746Y215D01*
X754Y215D02*
X761Y215D01*
X797Y215D02*
X803Y215D01*
X833Y215D02*
X839Y215D01*
X855Y215D02*
X862Y215D01*
X894Y215D02*
X913Y215D01*
X1027Y215D02*
X1033Y215D01*
X1058Y215D02*
X1065Y215D01*
X1068Y215D02*
X1074Y215D01*
X1107Y215D02*
X1113Y215D01*
X1122Y215D02*
X1129Y215D01*
X1154Y215D02*
X1161Y215D01*
X1214Y215D02*
X1220Y215D01*
X1308Y215D02*
X1317Y215D01*
X1320Y215D02*
X1327Y215D01*
X0Y214D02*
X7Y214D01*
X74Y214D02*
X83Y214D01*
X141Y214D02*
X147Y214D01*
X177Y214D02*
X185Y214D01*
X202Y214D02*
X210Y214D01*
X227Y214D02*
X233Y214D01*
X252Y214D02*
X259Y214D01*
X334Y214D02*
X341Y214D01*
X345Y214D02*
X353Y214D01*
X378Y214D02*
X384Y214D01*
X442Y214D02*
X448Y214D01*
X477Y214D02*
X486Y214D01*
X490Y214D02*
X499Y214D01*
X533Y214D02*
X537Y214D01*
X557Y214D02*
X565Y214D01*
X582Y214D02*
X588Y214D01*
X639Y214D02*
X645Y214D01*
X653Y214D02*
X660Y214D01*
X740Y214D02*
X746Y214D01*
X754Y214D02*
X761Y214D01*
X797Y214D02*
X803Y214D01*
X833Y214D02*
X839Y214D01*
X855Y214D02*
X863Y214D01*
X894Y214D02*
X913Y214D01*
X1027Y214D02*
X1033Y214D01*
X1059Y214D02*
X1065Y214D01*
X1067Y214D02*
X1074Y214D01*
X1107Y214D02*
X1113Y214D01*
X1122Y214D02*
X1129Y214D01*
X1154Y214D02*
X1161Y214D01*
X1214Y214D02*
X1220Y214D01*
X1308Y214D02*
X1317Y214D01*
X1320Y214D02*
X1327Y214D01*
X0Y213D02*
X7Y213D01*
X74Y213D02*
X83Y213D01*
X141Y213D02*
X147Y213D01*
X178Y213D02*
X210Y213D01*
X227Y213D02*
X233Y213D01*
X252Y213D02*
X260Y213D01*
X329Y213D02*
X353Y213D01*
X378Y213D02*
X410Y213D01*
X442Y213D02*
X448Y213D01*
X477Y213D02*
X486Y213D01*
X490Y213D02*
X499Y213D01*
X532Y213D02*
X538Y213D01*
X558Y213D02*
X565Y213D01*
X582Y213D02*
X588Y213D01*
X639Y213D02*
X645Y213D01*
X653Y213D02*
X660Y213D01*
X740Y213D02*
X746Y213D01*
X753Y213D02*
X760Y213D01*
X797Y213D02*
X803Y213D01*
X833Y213D02*
X839Y213D01*
X856Y213D02*
X863Y213D01*
X894Y213D02*
X913Y213D01*
X1027Y213D02*
X1033Y213D01*
X1059Y213D02*
X1073Y213D01*
X1107Y213D02*
X1113Y213D01*
X1121Y213D02*
X1128Y213D01*
X1155Y213D02*
X1162Y213D01*
X1214Y213D02*
X1220Y213D01*
X1308Y213D02*
X1317Y213D01*
X1320Y213D02*
X1327Y213D01*
X0Y212D02*
X7Y212D01*
X74Y212D02*
X83Y212D01*
X141Y212D02*
X147Y212D01*
X178Y212D02*
X209Y212D01*
X227Y212D02*
X233Y212D01*
X253Y212D02*
X260Y212D01*
X328Y212D02*
X352Y212D01*
X378Y212D02*
X411Y212D01*
X442Y212D02*
X448Y212D01*
X477Y212D02*
X486Y212D01*
X490Y212D02*
X499Y212D01*
X532Y212D02*
X538Y212D01*
X558Y212D02*
X565Y212D01*
X582Y212D02*
X588Y212D01*
X639Y212D02*
X645Y212D01*
X652Y212D02*
X659Y212D01*
X740Y212D02*
X746Y212D01*
X753Y212D02*
X760Y212D01*
X797Y212D02*
X803Y212D01*
X833Y212D02*
X839Y212D01*
X857Y212D02*
X864Y212D01*
X894Y212D02*
X913Y212D01*
X1027Y212D02*
X1033Y212D01*
X1060Y212D02*
X1073Y212D01*
X1107Y212D02*
X1113Y212D01*
X1121Y212D02*
X1128Y212D01*
X1155Y212D02*
X1162Y212D01*
X1214Y212D02*
X1220Y212D01*
X1308Y212D02*
X1317Y212D01*
X1320Y212D02*
X1327Y212D01*
X0Y211D02*
X7Y211D01*
X74Y211D02*
X83Y211D01*
X141Y211D02*
X147Y211D01*
X179Y211D02*
X208Y211D01*
X227Y211D02*
X233Y211D01*
X254Y211D02*
X261Y211D01*
X328Y211D02*
X351Y211D01*
X378Y211D02*
X411Y211D01*
X442Y211D02*
X448Y211D01*
X477Y211D02*
X486Y211D01*
X490Y211D02*
X499Y211D01*
X532Y211D02*
X538Y211D01*
X559Y211D02*
X566Y211D01*
X582Y211D02*
X588Y211D01*
X639Y211D02*
X645Y211D01*
X652Y211D02*
X659Y211D01*
X740Y211D02*
X746Y211D01*
X752Y211D02*
X759Y211D01*
X797Y211D02*
X803Y211D01*
X833Y211D02*
X839Y211D01*
X857Y211D02*
X864Y211D01*
X894Y211D02*
X913Y211D01*
X1027Y211D02*
X1033Y211D01*
X1060Y211D02*
X1073Y211D01*
X1107Y211D02*
X1113Y211D01*
X1120Y211D02*
X1127Y211D01*
X1156Y211D02*
X1163Y211D01*
X1215Y211D02*
X1219Y211D01*
X1308Y211D02*
X1317Y211D01*
X1320Y211D02*
X1327Y211D01*
X0Y210D02*
X7Y210D01*
X74Y210D02*
X83Y210D01*
X141Y210D02*
X146Y210D01*
X180Y210D02*
X208Y210D01*
X227Y210D02*
X233Y210D01*
X254Y210D02*
X261Y210D01*
X328Y210D02*
X351Y210D01*
X378Y210D02*
X411Y210D01*
X442Y210D02*
X448Y210D01*
X477Y210D02*
X486Y210D01*
X490Y210D02*
X499Y210D01*
X532Y210D02*
X539Y210D01*
X559Y210D02*
X566Y210D01*
X582Y210D02*
X588Y210D01*
X639Y210D02*
X645Y210D01*
X651Y210D02*
X658Y210D01*
X740Y210D02*
X746Y210D01*
X751Y210D02*
X759Y210D01*
X797Y210D02*
X803Y210D01*
X833Y210D02*
X839Y210D01*
X858Y210D02*
X865Y210D01*
X894Y210D02*
X913Y210D01*
X1027Y210D02*
X1033Y210D01*
X1060Y210D02*
X1072Y210D01*
X1107Y210D02*
X1113Y210D01*
X1120Y210D02*
X1127Y210D01*
X1156Y210D02*
X1163Y210D01*
X1216Y210D02*
X1218Y210D01*
X1308Y210D02*
X1317Y210D01*
X1320Y210D02*
X1327Y210D01*
X0Y209D02*
X7Y209D01*
X74Y209D02*
X83Y209D01*
X141Y209D02*
X146Y209D01*
X181Y209D02*
X206Y209D01*
X227Y209D02*
X233Y209D01*
X255Y209D02*
X260Y209D01*
X328Y209D02*
X350Y209D01*
X378Y209D02*
X411Y209D01*
X442Y209D02*
X447Y209D01*
X477Y209D02*
X486Y209D01*
X490Y209D02*
X499Y209D01*
X532Y209D02*
X565Y209D01*
X582Y209D02*
X588Y209D01*
X634Y209D02*
X658Y209D01*
X735Y209D02*
X758Y209D01*
X785Y209D02*
X815Y209D01*
X833Y209D02*
X839Y209D01*
X858Y209D02*
X866Y209D01*
X894Y209D02*
X913Y209D01*
X1001Y209D02*
X1004Y209D01*
X1027Y209D02*
X1033Y209D01*
X1061Y209D02*
X1072Y209D01*
X1107Y209D02*
X1113Y209D01*
X1119Y209D02*
X1126Y209D01*
X1157Y209D02*
X1164Y209D01*
X1308Y209D02*
X1317Y209D01*
X1320Y209D02*
X1327Y209D01*
X0Y208D02*
X7Y208D01*
X74Y208D02*
X83Y208D01*
X141Y208D02*
X146Y208D01*
X182Y208D02*
X205Y208D01*
X228Y208D02*
X232Y208D01*
X256Y208D02*
X260Y208D01*
X328Y208D02*
X348Y208D01*
X378Y208D02*
X410Y208D01*
X443Y208D02*
X447Y208D01*
X477Y208D02*
X486Y208D01*
X490Y208D02*
X499Y208D01*
X533Y208D02*
X565Y208D01*
X582Y208D02*
X588Y208D01*
X633Y208D02*
X657Y208D01*
X734Y208D02*
X758Y208D01*
X784Y208D02*
X816Y208D01*
X833Y208D02*
X839Y208D01*
X859Y208D02*
X866Y208D01*
X894Y208D02*
X913Y208D01*
X1000Y208D02*
X1006Y208D01*
X1027Y208D02*
X1033Y208D01*
X1061Y208D02*
X1072Y208D01*
X1107Y208D02*
X1113Y208D01*
X1119Y208D02*
X1126Y208D01*
X1157Y208D02*
X1164Y208D01*
X1308Y208D02*
X1317Y208D01*
X1320Y208D02*
X1327Y208D01*
X0Y207D02*
X7Y207D01*
X62Y207D02*
X63Y207D01*
X74Y207D02*
X83Y207D01*
X143Y207D02*
X144Y207D01*
X185Y207D02*
X203Y207D01*
X229Y207D02*
X231Y207D01*
X257Y207D02*
X259Y207D01*
X330Y207D02*
X345Y207D01*
X378Y207D02*
X409Y207D01*
X444Y207D02*
X446Y207D01*
X477Y207D02*
X486Y207D01*
X490Y207D02*
X499Y207D01*
X533Y207D02*
X565Y207D01*
X582Y207D02*
X588Y207D01*
X633Y207D02*
X657Y207D01*
X733Y207D02*
X757Y207D01*
X783Y207D02*
X816Y207D01*
X833Y207D02*
X839Y207D01*
X860Y207D02*
X866Y207D01*
X894Y207D02*
X913Y207D01*
X1000Y207D02*
X1009Y207D01*
X1027Y207D02*
X1033Y207D01*
X1062Y207D02*
X1071Y207D01*
X1107Y207D02*
X1113Y207D01*
X1118Y207D02*
X1125Y207D01*
X1158Y207D02*
X1166Y207D01*
X1308Y207D02*
X1317Y207D01*
X1320Y207D02*
X1327Y207D01*
X0Y206D02*
X7Y206D01*
X60Y206D02*
X65Y206D01*
X74Y206D02*
X83Y206D01*
X477Y206D02*
X486Y206D01*
X490Y206D02*
X499Y206D01*
X534Y206D02*
X564Y206D01*
X582Y206D02*
X588Y206D01*
X632Y206D02*
X656Y206D01*
X733Y206D02*
X756Y206D01*
X783Y206D02*
X817Y206D01*
X833Y206D02*
X839Y206D01*
X860Y206D02*
X867Y206D01*
X894Y206D02*
X913Y206D01*
X999Y206D02*
X1033Y206D01*
X1062Y206D02*
X1071Y206D01*
X1101Y206D02*
X1125Y206D01*
X1158Y206D02*
X1182Y206D01*
X1308Y206D02*
X1317Y206D01*
X1320Y206D02*
X1327Y206D01*
X0Y205D02*
X7Y205D01*
X60Y205D02*
X65Y205D01*
X74Y205D02*
X83Y205D01*
X477Y205D02*
X486Y205D01*
X490Y205D02*
X499Y205D01*
X535Y205D02*
X563Y205D01*
X582Y205D02*
X588Y205D01*
X633Y205D02*
X655Y205D01*
X733Y205D02*
X755Y205D01*
X783Y205D02*
X816Y205D01*
X833Y205D02*
X839Y205D01*
X861Y205D02*
X867Y205D01*
X894Y205D02*
X913Y205D01*
X1000Y205D02*
X1033Y205D01*
X1062Y205D02*
X1070Y205D01*
X1100Y205D02*
X1124Y205D01*
X1159Y205D02*
X1183Y205D01*
X1308Y205D02*
X1317Y205D01*
X1320Y205D02*
X1327Y205D01*
X0Y204D02*
X7Y204D01*
X60Y204D02*
X66Y204D01*
X74Y204D02*
X83Y204D01*
X477Y204D02*
X486Y204D01*
X490Y204D02*
X499Y204D01*
X536Y204D02*
X562Y204D01*
X583Y204D02*
X588Y204D01*
X633Y204D02*
X653Y204D01*
X733Y204D02*
X754Y204D01*
X784Y204D02*
X816Y204D01*
X834Y204D02*
X839Y204D01*
X861Y204D02*
X866Y204D01*
X894Y204D02*
X913Y204D01*
X1000Y204D02*
X1032Y204D01*
X1063Y204D02*
X1070Y204D01*
X1100Y204D02*
X1124Y204D01*
X1160Y204D02*
X1183Y204D01*
X1308Y204D02*
X1317Y204D01*
X1320Y204D02*
X1327Y204D01*
X0Y203D02*
X7Y203D01*
X60Y203D02*
X66Y203D01*
X74Y203D02*
X83Y203D01*
X477Y203D02*
X486Y203D01*
X490Y203D02*
X499Y203D01*
X538Y203D02*
X561Y203D01*
X584Y203D02*
X587Y203D01*
X634Y203D02*
X651Y203D01*
X734Y203D02*
X752Y203D01*
X785Y203D02*
X815Y203D01*
X835Y203D02*
X838Y203D01*
X862Y203D02*
X865Y203D01*
X894Y203D02*
X913Y203D01*
X1001Y203D02*
X1032Y203D01*
X1063Y203D02*
X1070Y203D01*
X1100Y203D02*
X1123Y203D01*
X1161Y203D02*
X1184Y203D01*
X1308Y203D02*
X1317Y203D01*
X1320Y203D02*
X1327Y203D01*
X0Y202D02*
X7Y202D01*
X60Y202D02*
X66Y202D01*
X74Y202D02*
X83Y202D01*
X477Y202D02*
X486Y202D01*
X490Y202D02*
X499Y202D01*
X894Y202D02*
X913Y202D01*
X1003Y202D02*
X1031Y202D01*
X1064Y202D02*
X1069Y202D01*
X1100Y202D02*
X1122Y202D01*
X1162Y202D02*
X1183Y202D01*
X1308Y202D02*
X1317Y202D01*
X1320Y202D02*
X1327Y202D01*
X0Y201D02*
X7Y201D01*
X60Y201D02*
X66Y201D01*
X74Y201D02*
X83Y201D01*
X477Y201D02*
X486Y201D01*
X490Y201D02*
X499Y201D01*
X894Y201D02*
X913Y201D01*
X1006Y201D02*
X1030Y201D01*
X1064Y201D02*
X1069Y201D01*
X1101Y201D02*
X1120Y201D01*
X1163Y201D02*
X1183Y201D01*
X1308Y201D02*
X1317Y201D01*
X1320Y201D02*
X1327Y201D01*
X0Y200D02*
X7Y200D01*
X60Y200D02*
X66Y200D01*
X74Y200D02*
X83Y200D01*
X477Y200D02*
X486Y200D01*
X490Y200D02*
X499Y200D01*
X894Y200D02*
X913Y200D01*
X1009Y200D02*
X1028Y200D01*
X1065Y200D02*
X1067Y200D01*
X1102Y200D02*
X1117Y200D01*
X1166Y200D02*
X1181Y200D01*
X1308Y200D02*
X1317Y200D01*
X1320Y200D02*
X1327Y200D01*
X0Y199D02*
X7Y199D01*
X60Y199D02*
X66Y199D01*
X74Y199D02*
X83Y199D01*
X477Y199D02*
X486Y199D01*
X490Y199D02*
X499Y199D01*
X894Y199D02*
X913Y199D01*
X1308Y199D02*
X1317Y199D01*
X1320Y199D02*
X1327Y199D01*
X0Y198D02*
X7Y198D01*
X60Y198D02*
X66Y198D01*
X74Y198D02*
X83Y198D01*
X477Y198D02*
X486Y198D01*
X490Y198D02*
X499Y198D01*
X894Y198D02*
X913Y198D01*
X1308Y198D02*
X1317Y198D01*
X1320Y198D02*
X1327Y198D01*
X0Y197D02*
X7Y197D01*
X59Y197D02*
X66Y197D01*
X74Y197D02*
X83Y197D01*
X477Y197D02*
X486Y197D01*
X490Y197D02*
X499Y197D01*
X894Y197D02*
X913Y197D01*
X1308Y197D02*
X1317Y197D01*
X1320Y197D02*
X1327Y197D01*
X0Y196D02*
X7Y196D01*
X11Y196D02*
X17Y196D01*
X28Y196D02*
X66Y196D01*
X74Y196D02*
X83Y196D01*
X477Y196D02*
X486Y196D01*
X490Y196D02*
X499Y196D01*
X894Y196D02*
X913Y196D01*
X1308Y196D02*
X1317Y196D01*
X1320Y196D02*
X1327Y196D01*
X0Y195D02*
X7Y195D01*
X10Y195D02*
X18Y195D01*
X28Y195D02*
X66Y195D01*
X74Y195D02*
X83Y195D01*
X477Y195D02*
X486Y195D01*
X490Y195D02*
X499Y195D01*
X894Y195D02*
X913Y195D01*
X1308Y195D02*
X1317Y195D01*
X1320Y195D02*
X1327Y195D01*
X0Y194D02*
X7Y194D01*
X10Y194D02*
X18Y194D01*
X27Y194D02*
X66Y194D01*
X74Y194D02*
X83Y194D01*
X477Y194D02*
X486Y194D01*
X490Y194D02*
X499Y194D01*
X894Y194D02*
X913Y194D01*
X1308Y194D02*
X1317Y194D01*
X1320Y194D02*
X1327Y194D01*
X0Y193D02*
X7Y193D01*
X9Y193D02*
X18Y193D01*
X27Y193D02*
X66Y193D01*
X74Y193D02*
X83Y193D01*
X477Y193D02*
X486Y193D01*
X490Y193D02*
X499Y193D01*
X894Y193D02*
X913Y193D01*
X1308Y193D02*
X1317Y193D01*
X1320Y193D02*
X1327Y193D01*
X0Y192D02*
X7Y192D01*
X9Y192D02*
X18Y192D01*
X27Y192D02*
X66Y192D01*
X74Y192D02*
X83Y192D01*
X477Y192D02*
X486Y192D01*
X490Y192D02*
X499Y192D01*
X894Y192D02*
X913Y192D01*
X1308Y192D02*
X1317Y192D01*
X1320Y192D02*
X1327Y192D01*
X0Y191D02*
X7Y191D01*
X9Y191D02*
X18Y191D01*
X27Y191D02*
X66Y191D01*
X74Y191D02*
X83Y191D01*
X477Y191D02*
X486Y191D01*
X490Y191D02*
X499Y191D01*
X894Y191D02*
X913Y191D01*
X1308Y191D02*
X1317Y191D01*
X1320Y191D02*
X1327Y191D01*
X0Y190D02*
X7Y190D01*
X10Y190D02*
X18Y190D01*
X27Y190D02*
X66Y190D01*
X74Y190D02*
X83Y190D01*
X477Y190D02*
X486Y190D01*
X490Y190D02*
X499Y190D01*
X894Y190D02*
X913Y190D01*
X1308Y190D02*
X1317Y190D01*
X1320Y190D02*
X1327Y190D01*
X0Y189D02*
X7Y189D01*
X10Y189D02*
X18Y189D01*
X27Y189D02*
X33Y189D01*
X60Y189D02*
X66Y189D01*
X74Y189D02*
X83Y189D01*
X477Y189D02*
X486Y189D01*
X490Y189D02*
X499Y189D01*
X894Y189D02*
X913Y189D01*
X1308Y189D02*
X1317Y189D01*
X1320Y189D02*
X1327Y189D01*
X0Y188D02*
X7Y188D01*
X10Y188D02*
X18Y188D01*
X27Y188D02*
X33Y188D01*
X60Y188D02*
X66Y188D01*
X74Y188D02*
X83Y188D01*
X477Y188D02*
X486Y188D01*
X490Y188D02*
X499Y188D01*
X894Y188D02*
X913Y188D01*
X1308Y188D02*
X1317Y188D01*
X1320Y188D02*
X1327Y188D01*
X0Y187D02*
X7Y187D01*
X11Y187D02*
X17Y187D01*
X27Y187D02*
X33Y187D01*
X60Y187D02*
X66Y187D01*
X74Y187D02*
X83Y187D01*
X477Y187D02*
X486Y187D01*
X490Y187D02*
X499Y187D01*
X894Y187D02*
X913Y187D01*
X1308Y187D02*
X1317Y187D01*
X1320Y187D02*
X1327Y187D01*
X0Y186D02*
X7Y186D01*
X27Y186D02*
X33Y186D01*
X60Y186D02*
X66Y186D01*
X74Y186D02*
X83Y186D01*
X477Y186D02*
X486Y186D01*
X490Y186D02*
X499Y186D01*
X894Y186D02*
X913Y186D01*
X1308Y186D02*
X1317Y186D01*
X1320Y186D02*
X1327Y186D01*
X0Y185D02*
X7Y185D01*
X27Y185D02*
X33Y185D01*
X60Y185D02*
X66Y185D01*
X74Y185D02*
X83Y185D01*
X477Y185D02*
X486Y185D01*
X490Y185D02*
X499Y185D01*
X894Y185D02*
X913Y185D01*
X1308Y185D02*
X1317Y185D01*
X1320Y185D02*
X1327Y185D01*
X0Y184D02*
X7Y184D01*
X27Y184D02*
X33Y184D01*
X60Y184D02*
X66Y184D01*
X74Y184D02*
X83Y184D01*
X477Y184D02*
X486Y184D01*
X490Y184D02*
X499Y184D01*
X894Y184D02*
X913Y184D01*
X1308Y184D02*
X1317Y184D01*
X1320Y184D02*
X1327Y184D01*
X0Y183D02*
X7Y183D01*
X27Y183D02*
X33Y183D01*
X60Y183D02*
X66Y183D01*
X74Y183D02*
X83Y183D01*
X477Y183D02*
X486Y183D01*
X490Y183D02*
X499Y183D01*
X894Y183D02*
X913Y183D01*
X1308Y183D02*
X1317Y183D01*
X1320Y183D02*
X1327Y183D01*
X0Y182D02*
X7Y182D01*
X27Y182D02*
X33Y182D01*
X60Y182D02*
X65Y182D01*
X74Y182D02*
X83Y182D01*
X477Y182D02*
X486Y182D01*
X490Y182D02*
X499Y182D01*
X894Y182D02*
X913Y182D01*
X1308Y182D02*
X1317Y182D01*
X1320Y182D02*
X1327Y182D01*
X0Y181D02*
X7Y181D01*
X28Y181D02*
X32Y181D01*
X60Y181D02*
X65Y181D01*
X74Y181D02*
X83Y181D01*
X477Y181D02*
X486Y181D01*
X490Y181D02*
X499Y181D01*
X894Y181D02*
X913Y181D01*
X1308Y181D02*
X1317Y181D01*
X1320Y181D02*
X1327Y181D01*
X0Y180D02*
X7Y180D01*
X29Y180D02*
X31Y180D01*
X61Y180D02*
X64Y180D01*
X74Y180D02*
X83Y180D01*
X477Y180D02*
X486Y180D01*
X490Y180D02*
X499Y180D01*
X894Y180D02*
X913Y180D01*
X1308Y180D02*
X1317Y180D01*
X1320Y180D02*
X1327Y180D01*
X0Y179D02*
X7Y179D01*
X74Y179D02*
X83Y179D01*
X477Y179D02*
X486Y179D01*
X490Y179D02*
X499Y179D01*
X894Y179D02*
X913Y179D01*
X1308Y179D02*
X1317Y179D01*
X1320Y179D02*
X1327Y179D01*
X0Y178D02*
X7Y178D01*
X74Y178D02*
X83Y178D01*
X477Y178D02*
X486Y178D01*
X490Y178D02*
X499Y178D01*
X894Y178D02*
X913Y178D01*
X1308Y178D02*
X1317Y178D01*
X1320Y178D02*
X1327Y178D01*
X0Y177D02*
X7Y177D01*
X74Y177D02*
X83Y177D01*
X477Y177D02*
X486Y177D01*
X490Y177D02*
X499Y177D01*
X894Y177D02*
X913Y177D01*
X1308Y177D02*
X1317Y177D01*
X1320Y177D02*
X1327Y177D01*
X0Y176D02*
X7Y176D01*
X74Y176D02*
X83Y176D01*
X477Y176D02*
X486Y176D01*
X490Y176D02*
X499Y176D01*
X894Y176D02*
X913Y176D01*
X1308Y176D02*
X1317Y176D01*
X1320Y176D02*
X1327Y176D01*
X0Y175D02*
X7Y175D01*
X74Y175D02*
X83Y175D01*
X477Y175D02*
X486Y175D01*
X490Y175D02*
X499Y175D01*
X894Y175D02*
X913Y175D01*
X1308Y175D02*
X1317Y175D01*
X1320Y175D02*
X1327Y175D01*
X0Y174D02*
X7Y174D01*
X74Y174D02*
X83Y174D01*
X477Y174D02*
X486Y174D01*
X490Y174D02*
X499Y174D01*
X894Y174D02*
X913Y174D01*
X1308Y174D02*
X1317Y174D01*
X1320Y174D02*
X1327Y174D01*
X0Y173D02*
X7Y173D01*
X74Y173D02*
X83Y173D01*
X477Y173D02*
X486Y173D01*
X490Y173D02*
X499Y173D01*
X894Y173D02*
X913Y173D01*
X1308Y173D02*
X1317Y173D01*
X1320Y173D02*
X1327Y173D01*
X0Y172D02*
X7Y172D01*
X74Y172D02*
X83Y172D01*
X477Y172D02*
X486Y172D01*
X490Y172D02*
X499Y172D01*
X894Y172D02*
X913Y172D01*
X1308Y172D02*
X1317Y172D01*
X1320Y172D02*
X1327Y172D01*
X0Y171D02*
X7Y171D01*
X74Y171D02*
X83Y171D01*
X477Y171D02*
X486Y171D01*
X490Y171D02*
X499Y171D01*
X894Y171D02*
X913Y171D01*
X1308Y171D02*
X1317Y171D01*
X1320Y171D02*
X1327Y171D01*
X0Y170D02*
X7Y170D01*
X74Y170D02*
X83Y170D01*
X477Y170D02*
X486Y170D01*
X490Y170D02*
X499Y170D01*
X894Y170D02*
X913Y170D01*
X1308Y170D02*
X1317Y170D01*
X1320Y170D02*
X1327Y170D01*
X0Y169D02*
X7Y169D01*
X74Y169D02*
X83Y169D01*
X477Y169D02*
X486Y169D01*
X490Y169D02*
X499Y169D01*
X894Y169D02*
X913Y169D01*
X1308Y169D02*
X1317Y169D01*
X1320Y169D02*
X1327Y169D01*
X0Y168D02*
X7Y168D01*
X74Y168D02*
X83Y168D01*
X477Y168D02*
X486Y168D01*
X490Y168D02*
X499Y168D01*
X894Y168D02*
X913Y168D01*
X1308Y168D02*
X1317Y168D01*
X1320Y168D02*
X1327Y168D01*
X0Y167D02*
X7Y167D01*
X74Y167D02*
X83Y167D01*
X477Y167D02*
X486Y167D01*
X490Y167D02*
X499Y167D01*
X894Y167D02*
X913Y167D01*
X1308Y167D02*
X1317Y167D01*
X1320Y167D02*
X1327Y167D01*
X0Y166D02*
X7Y166D01*
X74Y166D02*
X83Y166D01*
X477Y166D02*
X486Y166D01*
X490Y166D02*
X499Y166D01*
X894Y166D02*
X913Y166D01*
X1308Y166D02*
X1317Y166D01*
X1320Y166D02*
X1327Y166D01*
X0Y165D02*
X7Y165D01*
X74Y165D02*
X83Y165D01*
X477Y165D02*
X486Y165D01*
X490Y165D02*
X499Y165D01*
X894Y165D02*
X913Y165D01*
X1308Y165D02*
X1317Y165D01*
X1320Y165D02*
X1327Y165D01*
X0Y164D02*
X7Y164D01*
X74Y164D02*
X83Y164D01*
X477Y164D02*
X486Y164D01*
X490Y164D02*
X499Y164D01*
X894Y164D02*
X913Y164D01*
X1308Y164D02*
X1317Y164D01*
X1320Y164D02*
X1327Y164D01*
X0Y163D02*
X7Y163D01*
X74Y163D02*
X83Y163D01*
X477Y163D02*
X486Y163D01*
X490Y163D02*
X499Y163D01*
X894Y163D02*
X913Y163D01*
X1308Y163D02*
X1317Y163D01*
X1320Y163D02*
X1327Y163D01*
X0Y162D02*
X7Y162D01*
X74Y162D02*
X83Y162D01*
X477Y162D02*
X486Y162D01*
X490Y162D02*
X499Y162D01*
X894Y162D02*
X913Y162D01*
X1308Y162D02*
X1317Y162D01*
X1320Y162D02*
X1327Y162D01*
X0Y161D02*
X7Y161D01*
X74Y161D02*
X83Y161D01*
X477Y161D02*
X486Y161D01*
X490Y161D02*
X499Y161D01*
X894Y161D02*
X913Y161D01*
X1308Y161D02*
X1317Y161D01*
X1320Y161D02*
X1327Y161D01*
X0Y160D02*
X7Y160D01*
X74Y160D02*
X83Y160D01*
X477Y160D02*
X486Y160D01*
X490Y160D02*
X499Y160D01*
X894Y160D02*
X913Y160D01*
X1308Y160D02*
X1317Y160D01*
X1320Y160D02*
X1327Y160D01*
X0Y159D02*
X7Y159D01*
X74Y159D02*
X83Y159D01*
X477Y159D02*
X486Y159D01*
X490Y159D02*
X499Y159D01*
X894Y159D02*
X913Y159D01*
X1308Y159D02*
X1317Y159D01*
X1320Y159D02*
X1327Y159D01*
X0Y158D02*
X7Y158D01*
X74Y158D02*
X83Y158D01*
X477Y158D02*
X486Y158D01*
X490Y158D02*
X499Y158D01*
X894Y158D02*
X913Y158D01*
X1308Y158D02*
X1317Y158D01*
X1320Y158D02*
X1327Y158D01*
X0Y157D02*
X7Y157D01*
X74Y157D02*
X83Y157D01*
X477Y157D02*
X486Y157D01*
X490Y157D02*
X499Y157D01*
X894Y157D02*
X913Y157D01*
X1308Y157D02*
X1317Y157D01*
X1320Y157D02*
X1327Y157D01*
X0Y156D02*
X7Y156D01*
X74Y156D02*
X83Y156D01*
X477Y156D02*
X486Y156D01*
X490Y156D02*
X499Y156D01*
X894Y156D02*
X913Y156D01*
X1308Y156D02*
X1317Y156D01*
X1320Y156D02*
X1327Y156D01*
X0Y155D02*
X7Y155D01*
X74Y155D02*
X83Y155D01*
X477Y155D02*
X486Y155D01*
X490Y155D02*
X499Y155D01*
X894Y155D02*
X913Y155D01*
X1308Y155D02*
X1317Y155D01*
X1320Y155D02*
X1327Y155D01*
X0Y154D02*
X7Y154D01*
X74Y154D02*
X83Y154D01*
X477Y154D02*
X486Y154D01*
X490Y154D02*
X499Y154D01*
X894Y154D02*
X913Y154D01*
X1308Y154D02*
X1317Y154D01*
X1320Y154D02*
X1327Y154D01*
X0Y153D02*
X7Y153D01*
X74Y153D02*
X83Y153D01*
X477Y153D02*
X486Y153D01*
X490Y153D02*
X499Y153D01*
X894Y153D02*
X913Y153D01*
X1308Y153D02*
X1317Y153D01*
X1320Y153D02*
X1327Y153D01*
X0Y152D02*
X7Y152D01*
X74Y152D02*
X83Y152D01*
X477Y152D02*
X486Y152D01*
X490Y152D02*
X499Y152D01*
X894Y152D02*
X913Y152D01*
X1308Y152D02*
X1317Y152D01*
X1320Y152D02*
X1327Y152D01*
X0Y151D02*
X7Y151D01*
X74Y151D02*
X83Y151D01*
X477Y151D02*
X486Y151D01*
X490Y151D02*
X499Y151D01*
X894Y151D02*
X913Y151D01*
X1308Y151D02*
X1317Y151D01*
X1320Y151D02*
X1327Y151D01*
X0Y150D02*
X7Y150D01*
X74Y150D02*
X83Y150D01*
X477Y150D02*
X486Y150D01*
X490Y150D02*
X499Y150D01*
X894Y150D02*
X913Y150D01*
X1308Y150D02*
X1317Y150D01*
X1320Y150D02*
X1327Y150D01*
X0Y149D02*
X7Y149D01*
X74Y149D02*
X83Y149D01*
X477Y149D02*
X486Y149D01*
X490Y149D02*
X499Y149D01*
X894Y149D02*
X913Y149D01*
X1308Y149D02*
X1317Y149D01*
X1320Y149D02*
X1327Y149D01*
X0Y148D02*
X7Y148D01*
X74Y148D02*
X83Y148D01*
X477Y148D02*
X486Y148D01*
X490Y148D02*
X499Y148D01*
X894Y148D02*
X913Y148D01*
X1308Y148D02*
X1317Y148D01*
X1320Y148D02*
X1327Y148D01*
X0Y147D02*
X7Y147D01*
X74Y147D02*
X83Y147D01*
X477Y147D02*
X486Y147D01*
X490Y147D02*
X499Y147D01*
X894Y147D02*
X913Y147D01*
X1308Y147D02*
X1317Y147D01*
X1320Y147D02*
X1327Y147D01*
X0Y146D02*
X7Y146D01*
X74Y146D02*
X83Y146D01*
X477Y146D02*
X486Y146D01*
X490Y146D02*
X499Y146D01*
X894Y146D02*
X913Y146D01*
X1308Y146D02*
X1317Y146D01*
X1320Y146D02*
X1327Y146D01*
X0Y145D02*
X7Y145D01*
X74Y145D02*
X83Y145D01*
X477Y145D02*
X486Y145D01*
X490Y145D02*
X499Y145D01*
X894Y145D02*
X913Y145D01*
X1308Y145D02*
X1317Y145D01*
X1320Y145D02*
X1327Y145D01*
X0Y144D02*
X7Y144D01*
X74Y144D02*
X83Y144D01*
X477Y144D02*
X486Y144D01*
X490Y144D02*
X499Y144D01*
X894Y144D02*
X913Y144D01*
X1308Y144D02*
X1317Y144D01*
X1320Y144D02*
X1327Y144D01*
X0Y143D02*
X7Y143D01*
X74Y143D02*
X83Y143D01*
X477Y143D02*
X486Y143D01*
X490Y143D02*
X499Y143D01*
X894Y143D02*
X913Y143D01*
X1308Y143D02*
X1317Y143D01*
X1320Y143D02*
X1327Y143D01*
X0Y142D02*
X7Y142D01*
X74Y142D02*
X83Y142D01*
X477Y142D02*
X486Y142D01*
X490Y142D02*
X499Y142D01*
X894Y142D02*
X913Y142D01*
X1308Y142D02*
X1317Y142D01*
X1320Y142D02*
X1327Y142D01*
X0Y141D02*
X7Y141D01*
X74Y141D02*
X83Y141D01*
X477Y141D02*
X486Y141D01*
X490Y141D02*
X499Y141D01*
X894Y141D02*
X913Y141D01*
X1308Y141D02*
X1317Y141D01*
X1320Y141D02*
X1327Y141D01*
X0Y140D02*
X7Y140D01*
X74Y140D02*
X83Y140D01*
X477Y140D02*
X486Y140D01*
X490Y140D02*
X499Y140D01*
X894Y140D02*
X913Y140D01*
X1308Y140D02*
X1317Y140D01*
X1320Y140D02*
X1327Y140D01*
X0Y139D02*
X7Y139D01*
X74Y139D02*
X83Y139D01*
X477Y139D02*
X486Y139D01*
X490Y139D02*
X499Y139D01*
X894Y139D02*
X913Y139D01*
X1308Y139D02*
X1317Y139D01*
X1320Y139D02*
X1327Y139D01*
X0Y138D02*
X7Y138D01*
X74Y138D02*
X83Y138D01*
X477Y138D02*
X486Y138D01*
X490Y138D02*
X499Y138D01*
X894Y138D02*
X913Y138D01*
X1308Y138D02*
X1317Y138D01*
X1320Y138D02*
X1327Y138D01*
X0Y137D02*
X7Y137D01*
X74Y137D02*
X83Y137D01*
X477Y137D02*
X486Y137D01*
X490Y137D02*
X499Y137D01*
X894Y137D02*
X913Y137D01*
X1308Y137D02*
X1317Y137D01*
X1320Y137D02*
X1327Y137D01*
X0Y136D02*
X7Y136D01*
X74Y136D02*
X83Y136D01*
X477Y136D02*
X486Y136D01*
X490Y136D02*
X499Y136D01*
X894Y136D02*
X913Y136D01*
X1308Y136D02*
X1317Y136D01*
X1320Y136D02*
X1327Y136D01*
X0Y135D02*
X7Y135D01*
X74Y135D02*
X83Y135D01*
X477Y135D02*
X486Y135D01*
X490Y135D02*
X499Y135D01*
X894Y135D02*
X913Y135D01*
X1308Y135D02*
X1317Y135D01*
X1320Y135D02*
X1327Y135D01*
X0Y134D02*
X7Y134D01*
X74Y134D02*
X83Y134D01*
X477Y134D02*
X486Y134D01*
X490Y134D02*
X499Y134D01*
X894Y134D02*
X913Y134D01*
X1308Y134D02*
X1317Y134D01*
X1320Y134D02*
X1327Y134D01*
X0Y133D02*
X7Y133D01*
X74Y133D02*
X83Y133D01*
X477Y133D02*
X486Y133D01*
X490Y133D02*
X499Y133D01*
X894Y133D02*
X913Y133D01*
X1308Y133D02*
X1317Y133D01*
X1320Y133D02*
X1327Y133D01*
X0Y132D02*
X7Y132D01*
X74Y132D02*
X83Y132D01*
X477Y132D02*
X486Y132D01*
X490Y132D02*
X499Y132D01*
X894Y132D02*
X913Y132D01*
X1308Y132D02*
X1317Y132D01*
X1320Y132D02*
X1327Y132D01*
X0Y131D02*
X7Y131D01*
X74Y131D02*
X83Y131D01*
X477Y131D02*
X486Y131D01*
X490Y131D02*
X499Y131D01*
X894Y131D02*
X913Y131D01*
X1308Y131D02*
X1317Y131D01*
X1320Y131D02*
X1327Y131D01*
X0Y130D02*
X7Y130D01*
X74Y130D02*
X83Y130D01*
X477Y130D02*
X486Y130D01*
X490Y130D02*
X499Y130D01*
X894Y130D02*
X913Y130D01*
X1308Y130D02*
X1317Y130D01*
X1320Y130D02*
X1327Y130D01*
X0Y129D02*
X7Y129D01*
X74Y129D02*
X83Y129D01*
X477Y129D02*
X486Y129D01*
X490Y129D02*
X499Y129D01*
X894Y129D02*
X913Y129D01*
X1308Y129D02*
X1317Y129D01*
X1320Y129D02*
X1327Y129D01*
X0Y128D02*
X7Y128D01*
X74Y128D02*
X83Y128D01*
X477Y128D02*
X486Y128D01*
X490Y128D02*
X499Y128D01*
X894Y128D02*
X913Y128D01*
X1308Y128D02*
X1317Y128D01*
X1320Y128D02*
X1327Y128D01*
X0Y127D02*
X7Y127D01*
X74Y127D02*
X83Y127D01*
X477Y127D02*
X486Y127D01*
X490Y127D02*
X499Y127D01*
X894Y127D02*
X913Y127D01*
X1308Y127D02*
X1317Y127D01*
X1320Y127D02*
X1327Y127D01*
X0Y126D02*
X7Y126D01*
X74Y126D02*
X83Y126D01*
X477Y126D02*
X486Y126D01*
X490Y126D02*
X499Y126D01*
X894Y126D02*
X913Y126D01*
X1308Y126D02*
X1317Y126D01*
X1320Y126D02*
X1327Y126D01*
X0Y125D02*
X7Y125D01*
X74Y125D02*
X83Y125D01*
X477Y125D02*
X486Y125D01*
X490Y125D02*
X499Y125D01*
X894Y125D02*
X913Y125D01*
X1308Y125D02*
X1317Y125D01*
X1320Y125D02*
X1327Y125D01*
X0Y124D02*
X7Y124D01*
X74Y124D02*
X83Y124D01*
X477Y124D02*
X486Y124D01*
X490Y124D02*
X499Y124D01*
X894Y124D02*
X913Y124D01*
X1308Y124D02*
X1317Y124D01*
X1320Y124D02*
X1327Y124D01*
X0Y123D02*
X7Y123D01*
X74Y123D02*
X83Y123D01*
X477Y123D02*
X486Y123D01*
X490Y123D02*
X499Y123D01*
X894Y123D02*
X913Y123D01*
X1308Y123D02*
X1317Y123D01*
X1320Y123D02*
X1327Y123D01*
X0Y122D02*
X7Y122D01*
X74Y122D02*
X83Y122D01*
X477Y122D02*
X486Y122D01*
X490Y122D02*
X499Y122D01*
X894Y122D02*
X913Y122D01*
X1308Y122D02*
X1317Y122D01*
X1320Y122D02*
X1327Y122D01*
X0Y121D02*
X7Y121D01*
X74Y121D02*
X83Y121D01*
X477Y121D02*
X486Y121D01*
X490Y121D02*
X499Y121D01*
X894Y121D02*
X913Y121D01*
X1308Y121D02*
X1317Y121D01*
X1320Y121D02*
X1327Y121D01*
X0Y120D02*
X7Y120D01*
X74Y120D02*
X83Y120D01*
X477Y120D02*
X486Y120D01*
X490Y120D02*
X499Y120D01*
X894Y120D02*
X913Y120D01*
X1308Y120D02*
X1317Y120D01*
X1320Y120D02*
X1327Y120D01*
X0Y119D02*
X7Y119D01*
X74Y119D02*
X83Y119D01*
X477Y119D02*
X486Y119D01*
X490Y119D02*
X499Y119D01*
X894Y119D02*
X913Y119D01*
X1308Y119D02*
X1317Y119D01*
X1320Y119D02*
X1327Y119D01*
X0Y118D02*
X7Y118D01*
X74Y118D02*
X83Y118D01*
X477Y118D02*
X486Y118D01*
X490Y118D02*
X499Y118D01*
X894Y118D02*
X913Y118D01*
X1308Y118D02*
X1317Y118D01*
X1320Y118D02*
X1327Y118D01*
X0Y117D02*
X7Y117D01*
X74Y117D02*
X83Y117D01*
X477Y117D02*
X486Y117D01*
X490Y117D02*
X499Y117D01*
X894Y117D02*
X913Y117D01*
X1308Y117D02*
X1317Y117D01*
X1320Y117D02*
X1327Y117D01*
X0Y116D02*
X7Y116D01*
X74Y116D02*
X83Y116D01*
X477Y116D02*
X486Y116D01*
X490Y116D02*
X499Y116D01*
X894Y116D02*
X913Y116D01*
X1308Y116D02*
X1317Y116D01*
X1320Y116D02*
X1327Y116D01*
X0Y115D02*
X7Y115D01*
X74Y115D02*
X83Y115D01*
X477Y115D02*
X486Y115D01*
X490Y115D02*
X499Y115D01*
X894Y115D02*
X913Y115D01*
X1308Y115D02*
X1317Y115D01*
X1320Y115D02*
X1327Y115D01*
X0Y114D02*
X7Y114D01*
X74Y114D02*
X83Y114D01*
X477Y114D02*
X486Y114D01*
X490Y114D02*
X499Y114D01*
X894Y114D02*
X913Y114D01*
X1308Y114D02*
X1317Y114D01*
X1320Y114D02*
X1327Y114D01*
X0Y113D02*
X7Y113D01*
X74Y113D02*
X83Y113D01*
X477Y113D02*
X486Y113D01*
X490Y113D02*
X499Y113D01*
X894Y113D02*
X913Y113D01*
X1308Y113D02*
X1317Y113D01*
X1320Y113D02*
X1327Y113D01*
X0Y112D02*
X7Y112D01*
X74Y112D02*
X83Y112D01*
X477Y112D02*
X486Y112D01*
X490Y112D02*
X499Y112D01*
X894Y112D02*
X913Y112D01*
X1308Y112D02*
X1317Y112D01*
X1320Y112D02*
X1327Y112D01*
X0Y111D02*
X7Y111D01*
X74Y111D02*
X83Y111D01*
X477Y111D02*
X486Y111D01*
X490Y111D02*
X499Y111D01*
X894Y111D02*
X913Y111D01*
X1308Y111D02*
X1317Y111D01*
X1320Y111D02*
X1327Y111D01*
X0Y110D02*
X7Y110D01*
X74Y110D02*
X83Y110D01*
X477Y110D02*
X486Y110D01*
X490Y110D02*
X499Y110D01*
X894Y110D02*
X913Y110D01*
X1308Y110D02*
X1317Y110D01*
X1320Y110D02*
X1327Y110D01*
X0Y109D02*
X7Y109D01*
X74Y109D02*
X83Y109D01*
X477Y109D02*
X486Y109D01*
X490Y109D02*
X499Y109D01*
X894Y109D02*
X913Y109D01*
X1308Y109D02*
X1317Y109D01*
X1320Y109D02*
X1327Y109D01*
X0Y108D02*
X7Y108D01*
X74Y108D02*
X83Y108D01*
X477Y108D02*
X486Y108D01*
X490Y108D02*
X499Y108D01*
X894Y108D02*
X913Y108D01*
X1308Y108D02*
X1317Y108D01*
X1320Y108D02*
X1327Y108D01*
X0Y107D02*
X7Y107D01*
X74Y107D02*
X83Y107D01*
X477Y107D02*
X486Y107D01*
X490Y107D02*
X499Y107D01*
X894Y107D02*
X913Y107D01*
X1308Y107D02*
X1317Y107D01*
X1320Y107D02*
X1327Y107D01*
X0Y106D02*
X7Y106D01*
X74Y106D02*
X83Y106D01*
X477Y106D02*
X486Y106D01*
X490Y106D02*
X499Y106D01*
X894Y106D02*
X913Y106D01*
X1308Y106D02*
X1317Y106D01*
X1320Y106D02*
X1327Y106D01*
X0Y105D02*
X7Y105D01*
X74Y105D02*
X83Y105D01*
X477Y105D02*
X486Y105D01*
X490Y105D02*
X499Y105D01*
X894Y105D02*
X913Y105D01*
X1308Y105D02*
X1317Y105D01*
X1320Y105D02*
X1327Y105D01*
X0Y104D02*
X7Y104D01*
X74Y104D02*
X83Y104D01*
X477Y104D02*
X486Y104D01*
X490Y104D02*
X499Y104D01*
X894Y104D02*
X913Y104D01*
X1308Y104D02*
X1317Y104D01*
X1320Y104D02*
X1327Y104D01*
X0Y103D02*
X7Y103D01*
X74Y103D02*
X83Y103D01*
X477Y103D02*
X486Y103D01*
X490Y103D02*
X499Y103D01*
X894Y103D02*
X913Y103D01*
X1308Y103D02*
X1317Y103D01*
X1320Y103D02*
X1327Y103D01*
X0Y102D02*
X7Y102D01*
X74Y102D02*
X83Y102D01*
X477Y102D02*
X486Y102D01*
X490Y102D02*
X499Y102D01*
X894Y102D02*
X913Y102D01*
X1308Y102D02*
X1317Y102D01*
X1320Y102D02*
X1327Y102D01*
X0Y101D02*
X7Y101D01*
X74Y101D02*
X83Y101D01*
X477Y101D02*
X486Y101D01*
X490Y101D02*
X499Y101D01*
X894Y101D02*
X913Y101D01*
X1308Y101D02*
X1317Y101D01*
X1320Y101D02*
X1327Y101D01*
X0Y100D02*
X7Y100D01*
X74Y100D02*
X83Y100D01*
X477Y100D02*
X486Y100D01*
X490Y100D02*
X499Y100D01*
X894Y100D02*
X913Y100D01*
X1308Y100D02*
X1317Y100D01*
X1320Y100D02*
X1327Y100D01*
X0Y99D02*
X7Y99D01*
X74Y99D02*
X83Y99D01*
X477Y99D02*
X486Y99D01*
X490Y99D02*
X499Y99D01*
X894Y99D02*
X913Y99D01*
X1308Y99D02*
X1317Y99D01*
X1320Y99D02*
X1327Y99D01*
X0Y98D02*
X7Y98D01*
X74Y98D02*
X83Y98D01*
X477Y98D02*
X486Y98D01*
X490Y98D02*
X499Y98D01*
X894Y98D02*
X913Y98D01*
X1308Y98D02*
X1317Y98D01*
X1320Y98D02*
X1327Y98D01*
X0Y97D02*
X7Y97D01*
X74Y97D02*
X83Y97D01*
X477Y97D02*
X486Y97D01*
X490Y97D02*
X499Y97D01*
X894Y97D02*
X913Y97D01*
X1308Y97D02*
X1317Y97D01*
X1320Y97D02*
X1327Y97D01*
X0Y96D02*
X7Y96D01*
X74Y96D02*
X83Y96D01*
X477Y96D02*
X486Y96D01*
X490Y96D02*
X499Y96D01*
X894Y96D02*
X913Y96D01*
X1308Y96D02*
X1317Y96D01*
X1320Y96D02*
X1327Y96D01*
X0Y95D02*
X7Y95D01*
X74Y95D02*
X83Y95D01*
X477Y95D02*
X486Y95D01*
X490Y95D02*
X499Y95D01*
X894Y95D02*
X913Y95D01*
X1308Y95D02*
X1317Y95D01*
X1320Y95D02*
X1327Y95D01*
X0Y94D02*
X7Y94D01*
X74Y94D02*
X83Y94D01*
X477Y94D02*
X486Y94D01*
X490Y94D02*
X491Y94D01*
X495Y94D02*
X499Y94D01*
X895Y94D02*
X913Y94D01*
X1308Y94D02*
X1317Y94D01*
X1320Y94D02*
X1327Y94D01*
X0Y93D02*
X7Y93D01*
X74Y93D02*
X83Y93D01*
X477Y93D02*
X484Y93D01*
X902Y93D02*
X913Y93D01*
X1308Y93D02*
X1317Y93D01*
X1320Y93D02*
X1327Y93D01*
X0Y92D02*
X7Y92D01*
X74Y92D02*
X81Y92D01*
X477Y92D02*
X481Y92D01*
X906Y92D02*
X913Y92D01*
X1308Y92D02*
X1317Y92D01*
X1320Y92D02*
X1327Y92D01*
X0Y91D02*
X7Y91D01*
X74Y91D02*
X78Y91D01*
X477Y91D02*
X478Y91D01*
X908Y91D02*
X913Y91D01*
X1308Y91D02*
X1317Y91D01*
X1320Y91D02*
X1327Y91D01*
X0Y90D02*
X7Y90D01*
X74Y90D02*
X76Y90D01*
X911Y90D02*
X913Y90D01*
X1308Y90D02*
X1317Y90D01*
X1320Y90D02*
X1327Y90D01*
X0Y89D02*
X7Y89D01*
X74Y89D02*
X74Y89D01*
X913Y89D02*
X913Y89D01*
X1308Y89D02*
X1317Y89D01*
X1320Y89D02*
X1327Y89D01*
X0Y88D02*
X7Y88D01*
X1308Y88D02*
X1317Y88D01*
X1320Y88D02*
X1327Y88D01*
X0Y87D02*
X7Y87D01*
X1308Y87D02*
X1317Y87D01*
X1320Y87D02*
X1327Y87D01*
X0Y86D02*
X7Y86D01*
X1308Y86D02*
X1317Y86D01*
X1320Y86D02*
X1327Y86D01*
X0Y85D02*
X7Y85D01*
X1308Y85D02*
X1317Y85D01*
X1320Y85D02*
X1327Y85D01*
X0Y84D02*
X7Y84D01*
X1308Y84D02*
X1317Y84D01*
X1320Y84D02*
X1327Y84D01*
X0Y83D02*
X7Y83D01*
X1308Y83D02*
X1317Y83D01*
X1320Y83D02*
X1327Y83D01*
X0Y82D02*
X7Y82D01*
X1308Y82D02*
X1317Y82D01*
X1320Y82D02*
X1327Y82D01*
X0Y81D02*
X7Y81D01*
X1308Y81D02*
X1317Y81D01*
X1320Y81D02*
X1327Y81D01*
X0Y80D02*
X7Y80D01*
X1308Y80D02*
X1317Y80D01*
X1320Y80D02*
X1327Y80D01*
X0Y79D02*
X7Y79D01*
X1308Y79D02*
X1317Y79D01*
X1320Y79D02*
X1327Y79D01*
X0Y78D02*
X7Y78D01*
X1308Y78D02*
X1317Y78D01*
X1320Y78D02*
X1327Y78D01*
X0Y77D02*
X7Y77D01*
X1308Y77D02*
X1317Y77D01*
X1320Y77D02*
X1327Y77D01*
X0Y76D02*
X7Y76D01*
X1308Y76D02*
X1317Y76D01*
X1320Y76D02*
X1327Y76D01*
X0Y75D02*
X7Y75D01*
X1308Y75D02*
X1317Y75D01*
X1320Y75D02*
X1327Y75D01*
X0Y74D02*
X7Y74D01*
X1308Y74D02*
X1317Y74D01*
X1320Y74D02*
X1327Y74D01*
X0Y73D02*
X7Y73D01*
X1308Y73D02*
X1317Y73D01*
X1320Y73D02*
X1327Y73D01*
X0Y72D02*
X7Y72D01*
X1308Y72D02*
X1317Y72D01*
X1320Y72D02*
X1327Y72D01*
X0Y71D02*
X7Y71D01*
X1308Y71D02*
X1317Y71D01*
X1320Y71D02*
X1327Y71D01*
X0Y70D02*
X7Y70D01*
X1308Y70D02*
X1317Y70D01*
X1320Y70D02*
X1327Y70D01*
X0Y69D02*
X7Y69D01*
X1308Y69D02*
X1317Y69D01*
X1320Y69D02*
X1327Y69D01*
X0Y68D02*
X7Y68D01*
X1308Y68D02*
X1317Y68D01*
X1320Y68D02*
X1327Y68D01*
X0Y67D02*
X7Y67D01*
X1308Y67D02*
X1317Y67D01*
X1320Y67D02*
X1327Y67D01*
X0Y66D02*
X7Y66D01*
X1308Y66D02*
X1317Y66D01*
X1320Y66D02*
X1327Y66D01*
X0Y65D02*
X7Y65D01*
X1308Y65D02*
X1317Y65D01*
X1320Y65D02*
X1327Y65D01*
X0Y64D02*
X7Y64D01*
X1308Y64D02*
X1317Y64D01*
X1320Y64D02*
X1327Y64D01*
X0Y63D02*
X7Y63D01*
X1308Y63D02*
X1317Y63D01*
X1320Y63D02*
X1327Y63D01*
X0Y62D02*
X7Y62D01*
X1308Y62D02*
X1317Y62D01*
X1320Y62D02*
X1327Y62D01*
X0Y61D02*
X7Y61D01*
X1308Y61D02*
X1317Y61D01*
X1320Y61D02*
X1327Y61D01*
X0Y60D02*
X7Y60D01*
X1308Y60D02*
X1317Y60D01*
X1320Y60D02*
X1327Y60D01*
X0Y59D02*
X7Y59D01*
X1308Y59D02*
X1317Y59D01*
X1320Y59D02*
X1327Y59D01*
X0Y58D02*
X7Y58D01*
X1308Y58D02*
X1317Y58D01*
X1320Y58D02*
X1327Y58D01*
X0Y57D02*
X7Y57D01*
X1308Y57D02*
X1317Y57D01*
X1320Y57D02*
X1327Y57D01*
X0Y56D02*
X7Y56D01*
X1308Y56D02*
X1317Y56D01*
X1320Y56D02*
X1327Y56D01*
X0Y55D02*
X7Y55D01*
X1308Y55D02*
X1317Y55D01*
X1320Y55D02*
X1327Y55D01*
X0Y54D02*
X7Y54D01*
X1308Y54D02*
X1317Y54D01*
X1320Y54D02*
X1327Y54D01*
X0Y53D02*
X7Y53D01*
X1308Y53D02*
X1317Y53D01*
X1320Y53D02*
X1327Y53D01*
X0Y52D02*
X7Y52D01*
X1308Y52D02*
X1317Y52D01*
X1320Y52D02*
X1327Y52D01*
X0Y51D02*
X7Y51D01*
X1308Y51D02*
X1317Y51D01*
X1320Y51D02*
X1327Y51D01*
X0Y50D02*
X7Y50D01*
X1308Y50D02*
X1317Y50D01*
X1320Y50D02*
X1327Y50D01*
X0Y49D02*
X7Y49D01*
X1308Y49D02*
X1317Y49D01*
X1320Y49D02*
X1327Y49D01*
X0Y48D02*
X7Y48D01*
X1308Y48D02*
X1317Y48D01*
X1320Y48D02*
X1327Y48D01*
X0Y47D02*
X7Y47D01*
X1308Y47D02*
X1317Y47D01*
X1320Y47D02*
X1327Y47D01*
X0Y46D02*
X7Y46D01*
X1308Y46D02*
X1317Y46D01*
X1320Y46D02*
X1327Y46D01*
X0Y45D02*
X7Y45D01*
X1308Y45D02*
X1317Y45D01*
X1320Y45D02*
X1327Y45D01*
X0Y44D02*
X7Y44D01*
X1308Y44D02*
X1317Y44D01*
X1320Y44D02*
X1327Y44D01*
X0Y43D02*
X7Y43D01*
X1308Y43D02*
X1317Y43D01*
X1320Y43D02*
X1327Y43D01*
X0Y42D02*
X7Y42D01*
X1308Y42D02*
X1317Y42D01*
X1320Y42D02*
X1327Y42D01*
X0Y41D02*
X7Y41D01*
X1308Y41D02*
X1317Y41D01*
X1320Y41D02*
X1327Y41D01*
X0Y40D02*
X7Y40D01*
X1308Y40D02*
X1317Y40D01*
X1320Y40D02*
X1327Y40D01*
X0Y39D02*
X7Y39D01*
X1308Y39D02*
X1317Y39D01*
X1320Y39D02*
X1327Y39D01*
X0Y38D02*
X7Y38D01*
X1308Y38D02*
X1317Y38D01*
X1320Y38D02*
X1327Y38D01*
X0Y37D02*
X7Y37D01*
X1308Y37D02*
X1317Y37D01*
X1320Y37D02*
X1327Y37D01*
X0Y36D02*
X7Y36D01*
X1308Y36D02*
X1317Y36D01*
X1320Y36D02*
X1327Y36D01*
X0Y35D02*
X7Y35D01*
X1308Y35D02*
X1317Y35D01*
X1320Y35D02*
X1327Y35D01*
X0Y34D02*
X7Y34D01*
X1308Y34D02*
X1317Y34D01*
X1320Y34D02*
X1327Y34D01*
X0Y33D02*
X7Y33D01*
X1308Y33D02*
X1317Y33D01*
X1320Y33D02*
X1327Y33D01*
X0Y32D02*
X7Y32D01*
X1308Y32D02*
X1317Y32D01*
X1320Y32D02*
X1327Y32D01*
X0Y31D02*
X7Y31D01*
X1308Y31D02*
X1317Y31D01*
X1320Y31D02*
X1327Y31D01*
X0Y30D02*
X7Y30D01*
X1308Y30D02*
X1317Y30D01*
X1320Y30D02*
X1327Y30D01*
X0Y29D02*
X7Y29D01*
X1308Y29D02*
X1317Y29D01*
X1320Y29D02*
X1327Y29D01*
X0Y28D02*
X7Y28D01*
X1308Y28D02*
X1317Y28D01*
X1320Y28D02*
X1327Y28D01*
X0Y27D02*
X7Y27D01*
X1308Y27D02*
X1317Y27D01*
X1320Y27D02*
X1327Y27D01*
X0Y26D02*
X7Y26D01*
X1308Y26D02*
X1317Y26D01*
X1320Y26D02*
X1327Y26D01*
X0Y25D02*
X7Y25D01*
X1308Y25D02*
X1317Y25D01*
X1320Y25D02*
X1327Y25D01*
X0Y24D02*
X7Y24D01*
X1308Y24D02*
X1317Y24D01*
X1320Y24D02*
X1327Y24D01*
X0Y23D02*
X7Y23D01*
X1308Y23D02*
X1317Y23D01*
X1320Y23D02*
X1327Y23D01*
X0Y22D02*
X7Y22D01*
X1308Y22D02*
X1317Y22D01*
X1320Y22D02*
X1327Y22D01*
X0Y21D02*
X7Y21D01*
X1308Y21D02*
X1317Y21D01*
X1320Y21D02*
X1327Y21D01*
X0Y20D02*
X7Y20D01*
X1308Y20D02*
X1317Y20D01*
X1320Y20D02*
X1327Y20D01*
X0Y19D02*
X7Y19D01*
X74Y19D02*
X74Y19D01*
X912Y19D02*
X913Y19D01*
X1308Y19D02*
X1317Y19D01*
X1320Y19D02*
X1327Y19D01*
X0Y18D02*
X7Y18D01*
X74Y18D02*
X76Y18D01*
X910Y18D02*
X913Y18D01*
X1308Y18D02*
X1317Y18D01*
X1320Y18D02*
X1327Y18D01*
X0Y17D02*
X7Y17D01*
X74Y17D02*
X79Y17D01*
X477Y17D02*
X479Y17D01*
X908Y17D02*
X913Y17D01*
X1308Y17D02*
X1317Y17D01*
X1320Y17D02*
X1327Y17D01*
X0Y16D02*
X7Y16D01*
X74Y16D02*
X82Y16D01*
X477Y16D02*
X482Y16D01*
X905Y16D02*
X913Y16D01*
X1308Y16D02*
X1317Y16D01*
X1320Y16D02*
X1327Y16D01*
X0Y15D02*
X7Y15D01*
X74Y15D02*
X83Y15D01*
X477Y15D02*
X485Y15D01*
X901Y15D02*
X913Y15D01*
X1308Y15D02*
X1317Y15D01*
X1320Y15D02*
X1327Y15D01*
X0Y14D02*
X7Y14D01*
X74Y14D02*
X83Y14D01*
X477Y14D02*
X486Y14D01*
X490Y14D02*
X499Y14D01*
X894Y14D02*
X913Y14D01*
X1308Y14D02*
X1317Y14D01*
X1320Y14D02*
X1327Y14D01*
X0Y13D02*
X7Y13D01*
X74Y13D02*
X83Y13D01*
X477Y13D02*
X486Y13D01*
X490Y13D02*
X499Y13D01*
X894Y13D02*
X913Y13D01*
X1308Y13D02*
X1317Y13D01*
X1320Y13D02*
X1327Y13D01*
X0Y12D02*
X7Y12D01*
X74Y12D02*
X83Y12D01*
X477Y12D02*
X486Y12D01*
X490Y12D02*
X499Y12D01*
X894Y12D02*
X913Y12D01*
X1308Y12D02*
X1317Y12D01*
X1320Y12D02*
X1327Y12D01*
X0Y11D02*
X7Y11D01*
X74Y11D02*
X83Y11D01*
X477Y11D02*
X486Y11D01*
X490Y11D02*
X499Y11D01*
X894Y11D02*
X913Y11D01*
X1308Y11D02*
X1317Y11D01*
X1320Y11D02*
X1327Y11D01*
X0Y10D02*
X7Y10D01*
X74Y10D02*
X83Y10D01*
X477Y10D02*
X486Y10D01*
X490Y10D02*
X499Y10D01*
X894Y10D02*
X913Y10D01*
X1308Y10D02*
X1317Y10D01*
X1320Y10D02*
X1327Y10D01*
X0Y9D02*
X1327Y9D01*
X0Y8D02*
X1327Y8D01*
X0Y7D02*
X1327Y7D01*
X0Y6D02*
X1327Y6D01*
X0Y5D02*
X1327Y5D01*
X0Y4D02*
X1327Y4D01*
X0Y3D02*
X1327Y3D01*
X0Y2D02*
X1327Y2D01*
X74Y1D02*
X83Y1D01*
X477Y1D02*
X486Y1D01*
X490Y1D02*
X499Y1D01*
X894Y1D02*
X913Y1D01*
X1308Y1D02*
X1317Y1D01*
X74Y0D02*
X83Y0D01*
X477Y0D02*
X486Y0D01*
X490Y0D02*
X499Y0D01*
X894Y0D02*
X913Y0D01*
X1308Y0D02*
X1317Y0D01*
D02*
G04 End of Silk1*
M02*