; NON-PLATED HOLES START AT T1
; THROUGH (PLATED) HOLES START AT T100
M48
INCH
T100C0.040000
T101C0.038000
T102C0.039370
%
T100
X009939Y006526
X000940Y006526
X002940Y006526
X004940Y006526
X001940Y006526
X005940Y006526
X007940Y006526
X003940Y006526
X006940Y006526
X008940Y006526
X010174Y005550
X012098Y001526
X010940Y006526
X011940Y006526
X010130Y001526
X001813Y005506
X003788Y001568
X009939Y000526
X000940Y000526
X002940Y000526
X004940Y000526
X007953Y001553
X003940Y000526
X007940Y000526
X001940Y000526
X005940Y000526
X006940Y000526
X008940Y000526
X003781Y005506
X012142Y005550
X001820Y001568
X010940Y000526
X011940Y000526
X005985Y001553
T101
X007844Y004617
X006844Y004617
X005844Y004617
T102
X005940Y005526
X004940Y005526
T00
M30
