solid OpenSCAD_Model
  facet normal 0.07845896 0.99691737 0
    outer loop
      vertex -0.31286892 -1.9753767 -8.75
      vertex -0.31286892 -1.9753767 1.25
      vertex 0 -2 -8.75
    endloop
  endfacet
  facet normal 0 0 -1
    outer loop
      vertex -0.31286892 -1.9753767 -8.75
      vertex 0 -2 -8.75
      vertex 0 -4 -8.75
    endloop
  endfacet
  facet normal 0.07845896 0.99691737 0
    outer loop
      vertex -0.31286892 -1.9753767 1.25
      vertex 0 -2 1.25
      vertex 0 -2 -8.75
    endloop
  endfacet
  facet normal 0 0 1
    outer loop
      vertex -0.31286892 -1.9753767 1.25
      vertex 0 -8 1.25
      vertex 0 -2 1.25
    endloop
  endfacet
  facet normal 0.07845896 -0.99691737 0
    outer loop
      vertex -0.31286892 1.9753767 -8.75
      vertex 0 2 -8.75
      vertex 0 2 1.25
    endloop
  endfacet
  facet normal 0.07845896 -0.99691737 0
    outer loop
      vertex -0.31286892 1.9753767 -8.75
      vertex 0 2 1.25
      vertex -0.31286892 1.9753767 1.25
    endloop
  endfacet
  facet normal 0 0 -1
    outer loop
      vertex -0.31286892 1.9753767 -8.75
      vertex 0 4 -8.75
      vertex 0 2 -8.75
    endloop
  endfacet
  facet normal 0 0 1
    outer loop
      vertex -0.31286892 1.9753767 1.25
      vertex 0 2 1.25
      vertex 0 8 1.25
    endloop
  endfacet
  facet normal 0.23344533 0.9723699 0
    outer loop
      vertex -0.618034 -1.9021131 -8.75
      vertex -0.618034 -1.9021131 1.25
      vertex -0.31286892 -1.9753767 -8.75
    endloop
  endfacet
  facet normal 0.23344533 0.9723699 0
    outer loop
      vertex -0.618034 -1.9021131 1.25
      vertex -0.31286892 -1.9753767 1.25
      vertex -0.31286892 -1.9753767 -8.75
    endloop
  endfacet
  facet normal 0 0 1
    outer loop
      vertex -0.618034 -1.9021131 1.25
      vertex 0 -8 1.25
      vertex -0.31286892 -1.9753767 1.25
    endloop
  endfacet
  facet normal 0.23344533 -0.9723699 0
    outer loop
      vertex -0.618034 1.9021131 -8.75
      vertex -0.31286892 1.9753767 -8.75
      vertex -0.31286892 1.9753767 1.25
    endloop
  endfacet
  facet normal 0.23344533 -0.9723699 0
    outer loop
      vertex -0.618034 1.9021131 -8.75
      vertex -0.31286892 1.9753767 1.25
      vertex -0.618034 1.9021131 1.25
    endloop
  endfacet
  facet normal 0 0 -1
    outer loop
      vertex -0.62573785 -3.9507535 -1.25
      vertex 0 -4 -1.25
      vertex 0 -8 -1.25
    endloop
  endfacet
  facet normal 0 0 -1
    outer loop
      vertex -0.62573785 -3.9507535 -8.75
      vertex -0.31286892 -1.9753767 -8.75
      vertex 0 -4 -8.75
    endloop
  endfacet
  facet normal 0 0 -1
    outer loop
      vertex -0.62573785 -3.9507535 -8.75
      vertex -0.618034 -1.9021131 -8.75
      vertex -0.31286892 -1.9753767 -8.75
    endloop
  endfacet
  facet normal -0.07845896 -0.99691737 0
    outer loop
      vertex -0.62573785 -3.9507535 -8.75
      vertex 0 -4 -1.25
      vertex -0.62573785 -3.9507535 -1.25
    endloop
  endfacet
  facet normal -0.07845896 -0.99691737 0
    outer loop
      vertex -0.62573785 -3.9507535 -8.75
      vertex 0 -4 -8.75
      vertex 0 -4 -1.25
    endloop
  endfacet
  facet normal -0.07845896 0.99691737 0
    outer loop
      vertex -0.62573785 3.9507535 -1.25
      vertex 0 4 -1.25
      vertex 0 4 -8.75
    endloop
  endfacet
  facet normal 0 0 -1
    outer loop
      vertex -0.62573785 3.9507535 -1.25
      vertex 0 8 -1.25
      vertex 0 4 -1.25
    endloop
  endfacet
  facet normal 0 0 -1
    outer loop
      vertex -0.62573785 3.9507535 -8.75
      vertex -0.31286892 1.9753767 -8.75
      vertex -0.618034 1.9021131 -8.75
    endloop
  endfacet
  facet normal -0.07845896 0.99691737 0
    outer loop
      vertex -0.62573785 3.9507535 -8.75
      vertex -0.62573785 3.9507535 -1.25
      vertex 0 4 -8.75
    endloop
  endfacet
  facet normal 0 0 -1
    outer loop
      vertex -0.62573785 3.9507535 -8.75
      vertex 0 4 -8.75
      vertex -0.31286892 1.9753767 -8.75
    endloop
  endfacet
  facet normal 0.38268358 0.92387944 0
    outer loop
      vertex -0.907981 -1.782013 -8.75
      vertex -0.907981 -1.782013 1.25
      vertex -0.618034 -1.9021131 -8.75
    endloop
  endfacet
  facet normal 0.38268358 0.92387944 0
    outer loop
      vertex -0.907981 -1.782013 1.25
      vertex -0.618034 -1.9021131 1.25
      vertex -0.618034 -1.9021131 -8.75
    endloop
  endfacet
  facet normal 0.38268358 -0.92387944 0
    outer loop
      vertex -0.907981 1.782013 -8.75
      vertex -0.618034 1.9021131 -8.75
      vertex -0.618034 1.9021131 1.25
    endloop
  endfacet
  facet normal 0.38268358 -0.92387944 0
    outer loop
      vertex -0.907981 1.782013 -8.75
      vertex -0.618034 1.9021131 1.25
      vertex -0.907981 1.782013 1.25
    endloop
  endfacet
  facet normal 0 0 -1
    outer loop
      vertex -0.907981 1.782013 -8.75
      vertex -0.62573785 3.9507535 -8.75
      vertex -0.618034 1.9021131 -8.75
    endloop
  endfacet
  facet normal 0.52249855 0.85264015 0
    outer loop
      vertex -1.1755705 -1.618034 -8.75
      vertex -1.1755705 -1.618034 1.25
      vertex -0.907981 -1.782013 -8.75
    endloop
  endfacet
  facet normal 0.52249855 0.85264015 0
    outer loop
      vertex -1.1755705 -1.618034 1.25
      vertex -0.907981 -1.782013 1.25
      vertex -0.907981 -1.782013 -8.75
    endloop
  endfacet
  facet normal 0.52249855 -0.85264015 0
    outer loop
      vertex -1.1755705 1.618034 -8.75
      vertex -0.907981 1.782013 -8.75
      vertex -0.907981 1.782013 1.25
    endloop
  endfacet
  facet normal 0.52249855 -0.85264015 0
    outer loop
      vertex -1.1755705 1.618034 -8.75
      vertex -0.907981 1.782013 1.25
      vertex -1.1755705 1.618034 1.25
    endloop
  endfacet
  facet normal 0 0 -1
    outer loop
      vertex -1.236068 -3.8042262 -8.75
      vertex -0.618034 -1.9021131 -8.75
      vertex -0.62573785 -3.9507535 -8.75
    endloop
  endfacet
  facet normal -0.23344533 -0.9723699 0
    outer loop
      vertex -1.236068 -3.8042262 -8.75
      vertex -0.62573785 -3.9507535 -1.25
      vertex -1.236068 -3.8042262 -1.25
    endloop
  endfacet
  facet normal -0.23344533 -0.9723699 0
    outer loop
      vertex -1.236068 -3.8042262 -8.75
      vertex -0.62573785 -3.9507535 -8.75
      vertex -0.62573785 -3.9507535 -1.25
    endloop
  endfacet
  facet normal 0 0 -1
    outer loop
      vertex -1.236068 -3.8042262 -8.75
      vertex -0.907981 -1.782013 -8.75
      vertex -0.618034 -1.9021131 -8.75
    endloop
  endfacet
  facet normal 0 0 -1
    outer loop
      vertex -1.236068 -3.8042262 -8.75
      vertex -1.1755705 -1.618034 -8.75
      vertex -0.907981 -1.782013 -8.75
    endloop
  endfacet
  facet normal -0.23344533 0.9723699 0
    outer loop
      vertex -1.236068 3.8042262 -1.25
      vertex -0.62573785 3.9507535 -1.25
      vertex -0.62573785 3.9507535 -8.75
    endloop
  endfacet
  facet normal 0 0 -1
    outer loop
      vertex -1.236068 3.8042262 -8.75
      vertex -0.62573785 3.9507535 -8.75
      vertex -0.907981 1.782013 -8.75
    endloop
  endfacet
  facet normal 0 0 -1
    outer loop
      vertex -1.236068 3.8042262 -8.75
      vertex -0.907981 1.782013 -8.75
      vertex -1.1755705 1.618034 -8.75
    endloop
  endfacet
  facet normal -0.23344533 0.9723699 0
    outer loop
      vertex -1.236068 3.8042262 -8.75
      vertex -1.236068 3.8042262 -1.25
      vertex -0.62573785 3.9507535 -8.75
    endloop
  endfacet
  facet normal 0 0 -1
    outer loop
      vertex -1.2514757 -7.901507 -1.25
      vertex -0.62573785 -3.9507535 -1.25
      vertex 0 -8 -1.25
    endloop
  endfacet
  facet normal 0 0 -1
    outer loop
      vertex -1.2514757 -7.901507 -1.25
      vertex -1.236068 -3.8042262 -1.25
      vertex -0.62573785 -3.9507535 -1.25
    endloop
  endfacet
  facet normal -0.07845896 -0.99691737 0
    outer loop
      vertex -1.2514757 -7.901507 -1.25
      vertex 0 -8 -1.25
      vertex 0 -8 1.25
    endloop
  endfacet
  facet normal -0.07845896 -0.99691737 0
    outer loop
      vertex -1.2514757 -7.901507 -1.25
      vertex 0 -8 1.25
      vertex -1.2514757 -7.901507 1.25
    endloop
  endfacet
  facet normal 0 0 1
    outer loop
      vertex -1.2514757 -7.901507 1.25
      vertex -0.618034 -1.9021131 1.25
      vertex -0.907981 -1.782013 1.25
    endloop
  endfacet
  facet normal 0 0 1
    outer loop
      vertex -1.2514757 -7.901507 1.25
      vertex -0.907981 -1.782013 1.25
      vertex -1.1755705 -1.618034 1.25
    endloop
  endfacet
  facet normal 0 0 1
    outer loop
      vertex -1.2514757 -7.901507 1.25
      vertex 0 -8 1.25
      vertex -0.618034 -1.9021131 1.25
    endloop
  endfacet
  facet normal 0 0 -1
    outer loop
      vertex -1.2514757 7.901507 -1.25
      vertex -0.62573785 3.9507535 -1.25
      vertex -1.236068 3.8042262 -1.25
    endloop
  endfacet
  facet normal -0.07845896 0.99691737 0
    outer loop
      vertex -1.2514757 7.901507 -1.25
      vertex -1.2514757 7.901507 1.25
      vertex 0 8 -1.25
    endloop
  endfacet
  facet normal 0 0 -1
    outer loop
      vertex -1.2514757 7.901507 -1.25
      vertex 0 8 -1.25
      vertex -0.62573785 3.9507535 -1.25
    endloop
  endfacet
  facet normal 0 0 1
    outer loop
      vertex -1.2514757 7.901507 1.25
      vertex -0.31286892 1.9753767 1.25
      vertex 0 8 1.25
    endloop
  endfacet
  facet normal 0 0 1
    outer loop
      vertex -1.2514757 7.901507 1.25
      vertex -0.618034 1.9021131 1.25
      vertex -0.31286892 1.9753767 1.25
    endloop
  endfacet
  facet normal 0 0 1
    outer loop
      vertex -1.2514757 7.901507 1.25
      vertex -0.907981 1.782013 1.25
      vertex -0.618034 1.9021131 1.25
    endloop
  endfacet
  facet normal 0 0 1
    outer loop
      vertex -1.2514757 7.901507 1.25
      vertex -1.1755705 1.618034 1.25
      vertex -0.907981 1.782013 1.25
    endloop
  endfacet
  facet normal -0.07845896 0.99691737 0
    outer loop
      vertex -1.2514757 7.901507 1.25
      vertex 0 8 1.25
      vertex 0 8 -1.25
    endloop
  endfacet
  facet normal 0.64944816 0.7604059 0
    outer loop
      vertex -1.4142135 -1.4142135 -8.75
      vertex -1.4142135 -1.4142135 1.25
      vertex -1.1755705 -1.618034 -8.75
    endloop
  endfacet
  facet normal 0.64944816 0.7604059 0
    outer loop
      vertex -1.4142135 -1.4142135 1.25
      vertex -1.1755705 -1.618034 1.25
      vertex -1.1755705 -1.618034 -8.75
    endloop
  endfacet
  facet normal 0 0 1
    outer loop
      vertex -1.4142135 -1.4142135 1.25
      vertex -1.2514757 -7.901507 1.25
      vertex -1.1755705 -1.618034 1.25
    endloop
  endfacet
  facet normal 0.64944816 -0.7604059 0
    outer loop
      vertex -1.4142135 1.4142135 -8.75
      vertex -1.1755705 1.618034 -8.75
      vertex -1.1755705 1.618034 1.25
    endloop
  endfacet
  facet normal 0.64944816 -0.7604059 0
    outer loop
      vertex -1.4142135 1.4142135 -8.75
      vertex -1.1755705 1.618034 1.25
      vertex -1.4142135 1.4142135 1.25
    endloop
  endfacet
  facet normal 0 0 -1
    outer loop
      vertex -1.4142135 1.4142135 -8.75
      vertex -1.236068 3.8042262 -8.75
      vertex -1.1755705 1.618034 -8.75
    endloop
  endfacet
  facet normal 0.7604059 0.64944816 0
    outer loop
      vertex -1.618034 -1.1755705 -8.75
      vertex -1.618034 -1.1755705 1.25
      vertex -1.4142135 -1.4142135 -8.75
    endloop
  endfacet
  facet normal 0 0 1
    outer loop
      vertex -1.618034 -1.1755705 1.25
      vertex -1.2514757 -7.901507 1.25
      vertex -1.4142135 -1.4142135 1.25
    endloop
  endfacet
  facet normal 0.7604059 0.64944816 0
    outer loop
      vertex -1.618034 -1.1755705 1.25
      vertex -1.4142135 -1.4142135 1.25
      vertex -1.4142135 -1.4142135 -8.75
    endloop
  endfacet
  facet normal 0 0 -1
    outer loop
      vertex -1.618034 1.1755705 -8.75
      vertex -1.236068 3.8042262 -8.75
      vertex -1.4142135 1.4142135 -8.75
    endloop
  endfacet
  facet normal 0.7604059 -0.64944816 0
    outer loop
      vertex -1.618034 1.1755705 -8.75
      vertex -1.4142135 1.4142135 -8.75
      vertex -1.4142135 1.4142135 1.25
    endloop
  endfacet
  facet normal 0.7604059 -0.64944816 0
    outer loop
      vertex -1.618034 1.1755705 -8.75
      vertex -1.4142135 1.4142135 1.25
      vertex -1.618034 1.1755705 1.25
    endloop
  endfacet
  facet normal 0.85264015 0.52249855 0
    outer loop
      vertex -1.782013 -0.907981 -8.75
      vertex -1.782013 -0.907981 1.25
      vertex -1.618034 -1.1755705 -8.75
    endloop
  endfacet
  facet normal 0 0 1
    outer loop
      vertex -1.782013 -0.907981 1.25
      vertex -1.2514757 -7.901507 1.25
      vertex -1.618034 -1.1755705 1.25
    endloop
  endfacet
  facet normal 0.85264015 0.52249855 0
    outer loop
      vertex -1.782013 -0.907981 1.25
      vertex -1.618034 -1.1755705 1.25
      vertex -1.618034 -1.1755705 -8.75
    endloop
  endfacet
  facet normal 0.85264015 -0.52249855 0
    outer loop
      vertex -1.782013 0.907981 -8.75
      vertex -1.618034 1.1755705 -8.75
      vertex -1.618034 1.1755705 1.25
    endloop
  endfacet
  facet normal 0.85264015 -0.52249855 0
    outer loop
      vertex -1.782013 0.907981 -8.75
      vertex -1.618034 1.1755705 1.25
      vertex -1.782013 0.907981 1.25
    endloop
  endfacet
  facet normal 0 0 -1
    outer loop
      vertex -1.815962 -3.564026 -8.75
      vertex -1.1755705 -1.618034 -8.75
      vertex -1.236068 -3.8042262 -8.75
    endloop
  endfacet
  facet normal -0.38268358 -0.92387944 0
    outer loop
      vertex -1.815962 -3.564026 -8.75
      vertex -1.236068 -3.8042262 -1.25
      vertex -1.815962 -3.564026 -1.25
    endloop
  endfacet
  facet normal -0.38268358 -0.92387944 0
    outer loop
      vertex -1.815962 -3.564026 -8.75
      vertex -1.236068 -3.8042262 -8.75
      vertex -1.236068 -3.8042262 -1.25
    endloop
  endfacet
  facet normal 0 0 -1
    outer loop
      vertex -1.815962 -3.564026 -8.75
      vertex -1.4142135 -1.4142135 -8.75
      vertex -1.1755705 -1.618034 -8.75
    endloop
  endfacet
  facet normal 0 0 -1
    outer loop
      vertex -1.815962 -3.564026 -8.75
      vertex -1.618034 -1.1755705 -8.75
      vertex -1.4142135 -1.4142135 -8.75
    endloop
  endfacet
  facet normal 0 0 -1
    outer loop
      vertex -1.815962 -3.564026 -8.75
      vertex -1.782013 -0.907981 -8.75
      vertex -1.618034 -1.1755705 -8.75
    endloop
  endfacet
  facet normal -0.38268358 0.92387944 0
    outer loop
      vertex -1.815962 3.564026 -1.25
      vertex -1.236068 3.8042262 -1.25
      vertex -1.236068 3.8042262 -8.75
    endloop
  endfacet
  facet normal 0 0 -1
    outer loop
      vertex -1.815962 3.564026 -1.25
      vertex -1.2514757 7.901507 -1.25
      vertex -1.236068 3.8042262 -1.25
    endloop
  endfacet
  facet normal 0 0 -1
    outer loop
      vertex -1.815962 3.564026 -8.75
      vertex -1.236068 3.8042262 -8.75
      vertex -1.618034 1.1755705 -8.75
    endloop
  endfacet
  facet normal 0 0 -1
    outer loop
      vertex -1.815962 3.564026 -8.75
      vertex -1.618034 1.1755705 -8.75
      vertex -1.782013 0.907981 -8.75
    endloop
  endfacet
  facet normal -0.38268358 0.92387944 0
    outer loop
      vertex -1.815962 3.564026 -8.75
      vertex -1.815962 3.564026 -1.25
      vertex -1.236068 3.8042262 -8.75
    endloop
  endfacet
  facet normal 0.92387944 0.38268358 0
    outer loop
      vertex -1.9021131 -0.618034 -8.75
      vertex -1.9021131 -0.618034 1.25
      vertex -1.782013 -0.907981 -8.75
    endloop
  endfacet
  facet normal 0 0 1
    outer loop
      vertex -1.9021131 -0.618034 1.25
      vertex -1.2514757 -7.901507 1.25
      vertex -1.782013 -0.907981 1.25
    endloop
  endfacet
  facet normal 0.92387944 0.38268358 0
    outer loop
      vertex -1.9021131 -0.618034 1.25
      vertex -1.782013 -0.907981 1.25
      vertex -1.782013 -0.907981 -8.75
    endloop
  endfacet
  facet normal 0.92387944 -0.38268358 0
    outer loop
      vertex -1.9021131 0.618034 -8.75
      vertex -1.782013 0.907981 -8.75
      vertex -1.782013 0.907981 1.25
    endloop
  endfacet
  facet normal 0.92387944 -0.38268358 0
    outer loop
      vertex -1.9021131 0.618034 -8.75
      vertex -1.782013 0.907981 1.25
      vertex -1.9021131 0.618034 1.25
    endloop
  endfacet
  facet normal 0 0 -1
    outer loop
      vertex -1.9021131 0.618034 -8.75
      vertex -1.815962 3.564026 -8.75
      vertex -1.782013 0.907981 -8.75
    endloop
  endfacet
  facet normal 0.9723699 0.23344533 0
    outer loop
      vertex -1.9753767 -0.31286892 -8.75
      vertex -1.9753767 -0.31286892 1.25
      vertex -1.9021131 -0.618034 -8.75
    endloop
  endfacet
  facet normal 0.9723699 0.23344533 0
    outer loop
      vertex -1.9753767 -0.31286892 1.25
      vertex -1.9021131 -0.618034 1.25
      vertex -1.9021131 -0.618034 -8.75
    endloop
  endfacet
  facet normal 0 0 -1
    outer loop
      vertex -1.9753767 0.31286892 -8.75
      vertex -1.815962 3.564026 -8.75
      vertex -1.9021131 0.618034 -8.75
    endloop
  endfacet
  facet normal 0.9723699 -0.23344533 0
    outer loop
      vertex -1.9753767 0.31286892 -8.75
      vertex -1.9021131 0.618034 -8.75
      vertex -1.9021131 0.618034 1.25
    endloop
  endfacet
  facet normal 0.9723699 -0.23344533 0
    outer loop
      vertex -1.9753767 0.31286892 -8.75
      vertex -1.9021131 0.618034 1.25
      vertex -1.9753767 0.31286892 1.25
    endloop
  endfacet
  facet normal 0 0 -1
    outer loop
      vertex -2 0 -8.75
      vertex -1.815962 3.564026 -8.75
      vertex -1.9753767 0.31286892 -8.75
    endloop
  endfacet
  facet normal 0.99691737 -0.07845896 0
    outer loop
      vertex -2 0 -8.75
      vertex -1.9753767 0.31286892 -8.75
      vertex -1.9753767 0.31286892 1.25
    endloop
  endfacet
  facet normal 0.99691737 -0.07845896 0
    outer loop
      vertex -2 0 -8.75
      vertex -1.9753767 0.31286892 1.25
      vertex -2 0 1.25
    endloop
  endfacet
  facet normal 0.99691737 0.07845896 0
    outer loop
      vertex -2 0 -8.75
      vertex -2 0 1.25
      vertex -1.9753767 -0.31286892 -8.75
    endloop
  endfacet
  facet normal 0.99691737 0.07845896 0
    outer loop
      vertex -2 0 1.25
      vertex -1.9753767 -0.31286892 1.25
      vertex -1.9753767 -0.31286892 -8.75
    endloop
  endfacet
  facet normal 0 0 -1
    outer loop
      vertex -2.351141 -3.236068 -8.75
      vertex -1.782013 -0.907981 -8.75
      vertex -1.815962 -3.564026 -8.75
    endloop
  endfacet
  facet normal -0.52249855 -0.85264015 0
    outer loop
      vertex -2.351141 -3.236068 -8.75
      vertex -1.815962 -3.564026 -1.25
      vertex -2.351141 -3.236068 -1.25
    endloop
  endfacet
  facet normal -0.52249855 -0.85264015 0
    outer loop
      vertex -2.351141 -3.236068 -8.75
      vertex -1.815962 -3.564026 -8.75
      vertex -1.815962 -3.564026 -1.25
    endloop
  endfacet
  facet normal 0 0 -1
    outer loop
      vertex -2.351141 -3.236068 -8.75
      vertex -1.815962 3.564026 -8.75
      vertex -2 0 -8.75
    endloop
  endfacet
  facet normal 0 0 -1
    outer loop
      vertex -2.351141 -3.236068 -8.75
      vertex -1.9021131 -0.618034 -8.75
      vertex -1.782013 -0.907981 -8.75
    endloop
  endfacet
  facet normal 0 0 -1
    outer loop
      vertex -2.351141 -3.236068 -8.75
      vertex -1.9753767 -0.31286892 -8.75
      vertex -1.9021131 -0.618034 -8.75
    endloop
  endfacet
  facet normal 0 0 -1
    outer loop
      vertex -2.351141 -3.236068 -8.75
      vertex -2 0 -8.75
      vertex -1.9753767 -0.31286892 -8.75
    endloop
  endfacet
  facet normal 0 0 -1
    outer loop
      vertex -2.351141 -3.236068 -8.75
      vertex -2.351141 3.236068 -8.75
      vertex -1.815962 3.564026 -8.75
    endloop
  endfacet
  facet normal -0.52249855 0.85264015 0
    outer loop
      vertex -2.351141 3.236068 -1.25
      vertex -1.815962 3.564026 -1.25
      vertex -1.815962 3.564026 -8.75
    endloop
  endfacet
  facet normal -0.52249855 0.85264015 0
    outer loop
      vertex -2.351141 3.236068 -8.75
      vertex -2.351141 3.236068 -1.25
      vertex -1.815962 3.564026 -8.75
    endloop
  endfacet
  facet normal 0 0 -1
    outer loop
      vertex -2.472136 -7.6084523 -1.25
      vertex -1.236068 -3.8042262 -1.25
      vertex -1.2514757 -7.901507 -1.25
    endloop
  endfacet
  facet normal -0.23344533 -0.9723699 0
    outer loop
      vertex -2.472136 -7.6084523 -1.25
      vertex -1.2514757 -7.901507 -1.25
      vertex -1.2514757 -7.901507 1.25
    endloop
  endfacet
  facet normal -0.23344533 -0.9723699 0
    outer loop
      vertex -2.472136 -7.6084523 -1.25
      vertex -1.2514757 -7.901507 1.25
      vertex -2.472136 -7.6084523 1.25
    endloop
  endfacet
  facet normal 0 0 -1
    outer loop
      vertex -2.472136 -7.6084523 -1.25
      vertex -1.815962 -3.564026 -1.25
      vertex -1.236068 -3.8042262 -1.25
    endloop
  endfacet
  facet normal 0 0 -1
    outer loop
      vertex -2.472136 -7.6084523 -1.25
      vertex -2.351141 -3.236068 -1.25
      vertex -1.815962 -3.564026 -1.25
    endloop
  endfacet
  facet normal 0 0 1
    outer loop
      vertex -2.472136 -7.6084523 1.25
      vertex -1.2514757 -7.901507 1.25
      vertex -1.9021131 -0.618034 1.25
    endloop
  endfacet
  facet normal 0 0 1
    outer loop
      vertex -2.472136 -7.6084523 1.25
      vertex -1.9021131 -0.618034 1.25
      vertex -1.9753767 -0.31286892 1.25
    endloop
  endfacet
  facet normal 0 0 1
    outer loop
      vertex -2.472136 -7.6084523 1.25
      vertex -1.9753767 -0.31286892 1.25
      vertex -2 0 1.25
    endloop
  endfacet
  facet normal 0 0 1
    outer loop
      vertex -2.472136 -7.6084523 1.25
      vertex -2 0 1.25
      vertex -2.472136 7.6084523 1.25
    endloop
  endfacet
  facet normal 0 0 -1
    outer loop
      vertex -2.472136 7.6084523 -1.25
      vertex -1.2514757 7.901507 -1.25
      vertex -1.815962 3.564026 -1.25
    endloop
  endfacet
  facet normal 0 0 -1
    outer loop
      vertex -2.472136 7.6084523 -1.25
      vertex -1.815962 3.564026 -1.25
      vertex -2.351141 3.236068 -1.25
    endloop
  endfacet
  facet normal -0.23344533 0.9723699 0
    outer loop
      vertex -2.472136 7.6084523 -1.25
      vertex -2.472136 7.6084523 1.25
      vertex -1.2514757 7.901507 -1.25
    endloop
  endfacet
  facet normal 0 0 1
    outer loop
      vertex -2.472136 7.6084523 1.25
      vertex -1.1755705 1.618034 1.25
      vertex -1.2514757 7.901507 1.25
    endloop
  endfacet
  facet normal -0.23344533 0.9723699 0
    outer loop
      vertex -2.472136 7.6084523 1.25
      vertex -1.2514757 7.901507 1.25
      vertex -1.2514757 7.901507 -1.25
    endloop
  endfacet
  facet normal 0 0 1
    outer loop
      vertex -2.472136 7.6084523 1.25
      vertex -1.4142135 1.4142135 1.25
      vertex -1.1755705 1.618034 1.25
    endloop
  endfacet
  facet normal 0 0 1
    outer loop
      vertex -2.472136 7.6084523 1.25
      vertex -1.618034 1.1755705 1.25
      vertex -1.4142135 1.4142135 1.25
    endloop
  endfacet
  facet normal 0 0 1
    outer loop
      vertex -2.472136 7.6084523 1.25
      vertex -1.782013 0.907981 1.25
      vertex -1.618034 1.1755705 1.25
    endloop
  endfacet
  facet normal 0 0 1
    outer loop
      vertex -2.472136 7.6084523 1.25
      vertex -1.9021131 0.618034 1.25
      vertex -1.782013 0.907981 1.25
    endloop
  endfacet
  facet normal 0 0 1
    outer loop
      vertex -2.472136 7.6084523 1.25
      vertex -1.9753767 0.31286892 1.25
      vertex -1.9021131 0.618034 1.25
    endloop
  endfacet
  facet normal 0 0 1
    outer loop
      vertex -2.472136 7.6084523 1.25
      vertex -2 0 1.25
      vertex -1.9753767 0.31286892 1.25
    endloop
  endfacet
  facet normal -0.64944816 -0.7604059 0
    outer loop
      vertex -2.828427 -2.828427 -8.75
      vertex -2.351141 -3.236068 -1.25
      vertex -2.828427 -2.828427 -1.25
    endloop
  endfacet
  facet normal -0.64944816 -0.7604059 0
    outer loop
      vertex -2.828427 -2.828427 -8.75
      vertex -2.351141 -3.236068 -8.75
      vertex -2.351141 -3.236068 -1.25
    endloop
  endfacet
  facet normal 0 0 -1
    outer loop
      vertex -2.828427 -2.828427 -8.75
      vertex -2.351141 3.236068 -8.75
      vertex -2.351141 -3.236068 -8.75
    endloop
  endfacet
  facet normal 0 0 -1
    outer loop
      vertex -2.828427 -2.828427 -8.75
      vertex -2.828427 2.828427 -8.75
      vertex -2.351141 3.236068 -8.75
    endloop
  endfacet
  facet normal -0.64944816 0.7604059 0
    outer loop
      vertex -2.828427 2.828427 -1.25
      vertex -2.351141 3.236068 -1.25
      vertex -2.351141 3.236068 -8.75
    endloop
  endfacet
  facet normal 0 0 -1
    outer loop
      vertex -2.828427 2.828427 -1.25
      vertex -2.472136 7.6084523 -1.25
      vertex -2.351141 3.236068 -1.25
    endloop
  endfacet
  facet normal -0.64944816 0.7604059 0
    outer loop
      vertex -2.828427 2.828427 -8.75
      vertex -2.828427 2.828427 -1.25
      vertex -2.351141 3.236068 -8.75
    endloop
  endfacet
  facet normal -0.7604059 -0.64944816 0
    outer loop
      vertex -3.236068 -2.351141 -1.25
      vertex -2.828427 -2.828427 -8.75
      vertex -2.828427 -2.828427 -1.25
    endloop
  endfacet
  facet normal -0.7604059 -0.64944816 0
    outer loop
      vertex -3.236068 -2.351141 -8.75
      vertex -2.828427 -2.828427 -8.75
      vertex -3.236068 -2.351141 -1.25
    endloop
  endfacet
  facet normal 0 0 -1
    outer loop
      vertex -3.236068 -2.351141 -8.75
      vertex -2.828427 2.828427 -8.75
      vertex -2.828427 -2.828427 -8.75
    endloop
  endfacet
  facet normal 0 0 -1
    outer loop
      vertex -3.236068 -2.351141 -8.75
      vertex -3.236068 2.351141 -8.75
      vertex -2.828427 2.828427 -8.75
    endloop
  endfacet
  facet normal 0 0 -1
    outer loop
      vertex -3.236068 2.351141 -1.25
      vertex -2.472136 7.6084523 -1.25
      vertex -2.828427 2.828427 -1.25
    endloop
  endfacet
  facet normal -0.7604059 0.64944816 0
    outer loop
      vertex -3.236068 2.351141 -8.75
      vertex -2.828427 2.828427 -1.25
      vertex -2.828427 2.828427 -8.75
    endloop
  endfacet
  facet normal -0.7604059 0.64944816 0
    outer loop
      vertex -3.236068 2.351141 -8.75
      vertex -3.236068 2.351141 -1.25
      vertex -2.828427 2.828427 -1.25
    endloop
  endfacet
  facet normal -0.85264015 -0.52249855 0
    outer loop
      vertex -3.564026 -1.815962 -1.25
      vertex -3.236068 -2.351141 -8.75
      vertex -3.236068 -2.351141 -1.25
    endloop
  endfacet
  facet normal -0.85264015 -0.52249855 0
    outer loop
      vertex -3.564026 -1.815962 -8.75
      vertex -3.236068 -2.351141 -8.75
      vertex -3.564026 -1.815962 -1.25
    endloop
  endfacet
  facet normal 0 0 -1
    outer loop
      vertex -3.564026 -1.815962 -8.75
      vertex -3.236068 2.351141 -8.75
      vertex -3.236068 -2.351141 -8.75
    endloop
  endfacet
  facet normal 0 0 -1
    outer loop
      vertex -3.564026 -1.815962 -8.75
      vertex -3.564026 1.815962 -8.75
      vertex -3.236068 2.351141 -8.75
    endloop
  endfacet
  facet normal -0.85264015 0.52249855 0
    outer loop
      vertex -3.564026 1.815962 -8.75
      vertex -3.236068 2.351141 -1.25
      vertex -3.236068 2.351141 -8.75
    endloop
  endfacet
  facet normal -0.85264015 0.52249855 0
    outer loop
      vertex -3.564026 1.815962 -8.75
      vertex -3.564026 1.815962 -1.25
      vertex -3.236068 2.351141 -1.25
    endloop
  endfacet
  facet normal 0 0 -1
    outer loop
      vertex -3.631924 -7.128052 -1.25
      vertex -2.351141 -3.236068 -1.25
      vertex -2.472136 -7.6084523 -1.25
    endloop
  endfacet
  facet normal -0.38268358 -0.92387944 0
    outer loop
      vertex -3.631924 -7.128052 -1.25
      vertex -2.472136 -7.6084523 -1.25
      vertex -2.472136 -7.6084523 1.25
    endloop
  endfacet
  facet normal -0.38268358 -0.92387944 0
    outer loop
      vertex -3.631924 -7.128052 -1.25
      vertex -2.472136 -7.6084523 1.25
      vertex -3.631924 -7.128052 1.25
    endloop
  endfacet
  facet normal 0 0 -1
    outer loop
      vertex -3.631924 -7.128052 -1.25
      vertex -2.828427 -2.828427 -1.25
      vertex -2.351141 -3.236068 -1.25
    endloop
  endfacet
  facet normal 0 0 -1
    outer loop
      vertex -3.631924 -7.128052 -1.25
      vertex -3.236068 -2.351141 -1.25
      vertex -2.828427 -2.828427 -1.25
    endloop
  endfacet
  facet normal 0 0 -1
    outer loop
      vertex -3.631924 -7.128052 -1.25
      vertex -3.564026 -1.815962 -1.25
      vertex -3.236068 -2.351141 -1.25
    endloop
  endfacet
  facet normal 0 0 1
    outer loop
      vertex -3.631924 -7.128052 1.25
      vertex -2.472136 -7.6084523 1.25
      vertex -3.631924 7.128052 1.25
    endloop
  endfacet
  facet normal 0 0 -1
    outer loop
      vertex -3.631924 7.128052 -1.25
      vertex -2.472136 7.6084523 -1.25
      vertex -3.236068 2.351141 -1.25
    endloop
  endfacet
  facet normal 0 0 -1
    outer loop
      vertex -3.631924 7.128052 -1.25
      vertex -3.236068 2.351141 -1.25
      vertex -3.564026 1.815962 -1.25
    endloop
  endfacet
  facet normal -0.38268358 0.92387944 0
    outer loop
      vertex -3.631924 7.128052 -1.25
      vertex -3.631924 7.128052 1.25
      vertex -2.472136 7.6084523 -1.25
    endloop
  endfacet
  facet normal 0 0 1
    outer loop
      vertex -3.631924 7.128052 1.25
      vertex -2.472136 -7.6084523 1.25
      vertex -2.472136 7.6084523 1.25
    endloop
  endfacet
  facet normal -0.38268358 0.92387944 0
    outer loop
      vertex -3.631924 7.128052 1.25
      vertex -2.472136 7.6084523 1.25
      vertex -2.472136 7.6084523 -1.25
    endloop
  endfacet
  facet normal -0.92387944 -0.38268358 0
    outer loop
      vertex -3.8042262 -1.236068 -1.25
      vertex -3.564026 -1.815962 -8.75
      vertex -3.564026 -1.815962 -1.25
    endloop
  endfacet
  facet normal -0.92387944 -0.38268358 0
    outer loop
      vertex -3.8042262 -1.236068 -8.75
      vertex -3.564026 -1.815962 -8.75
      vertex -3.8042262 -1.236068 -1.25
    endloop
  endfacet
  facet normal 0 0 -1
    outer loop
      vertex -3.8042262 -1.236068 -8.75
      vertex -3.564026 1.815962 -8.75
      vertex -3.564026 -1.815962 -8.75
    endloop
  endfacet
  facet normal 0 0 -1
    outer loop
      vertex -3.8042262 -1.236068 -8.75
      vertex -3.8042262 1.236068 -8.75
      vertex -3.564026 1.815962 -8.75
    endloop
  endfacet
  facet normal 0 0 -1
    outer loop
      vertex -3.8042262 1.236068 -1.25
      vertex -3.631924 7.128052 -1.25
      vertex -3.564026 1.815962 -1.25
    endloop
  endfacet
  facet normal -0.92387944 0.38268358 0
    outer loop
      vertex -3.8042262 1.236068 -8.75
      vertex -3.564026 1.815962 -1.25
      vertex -3.564026 1.815962 -8.75
    endloop
  endfacet
  facet normal -0.92387944 0.38268358 0
    outer loop
      vertex -3.8042262 1.236068 -8.75
      vertex -3.8042262 1.236068 -1.25
      vertex -3.564026 1.815962 -1.25
    endloop
  endfacet
  facet normal -0.9723699 -0.23344533 0
    outer loop
      vertex -3.9507535 -0.62573785 -1.25
      vertex -3.8042262 -1.236068 -8.75
      vertex -3.8042262 -1.236068 -1.25
    endloop
  endfacet
  facet normal -0.9723699 -0.23344533 0
    outer loop
      vertex -3.9507535 -0.62573785 -8.75
      vertex -3.8042262 -1.236068 -8.75
      vertex -3.9507535 -0.62573785 -1.25
    endloop
  endfacet
  facet normal 0 0 -1
    outer loop
      vertex -3.9507535 -0.62573785 -8.75
      vertex -3.8042262 1.236068 -8.75
      vertex -3.8042262 -1.236068 -8.75
    endloop
  endfacet
  facet normal 0 0 -1
    outer loop
      vertex -3.9507535 -0.62573785 -8.75
      vertex -3.9507535 0.62573785 -8.75
      vertex -3.8042262 1.236068 -8.75
    endloop
  endfacet
  facet normal 0 0 -1
    outer loop
      vertex -3.9507535 0.62573785 -1.25
      vertex -3.631924 7.128052 -1.25
      vertex -3.8042262 1.236068 -1.25
    endloop
  endfacet
  facet normal -0.9723699 0.23344533 0
    outer loop
      vertex -3.9507535 0.62573785 -8.75
      vertex -3.8042262 1.236068 -1.25
      vertex -3.8042262 1.236068 -8.75
    endloop
  endfacet
  facet normal -0.9723699 0.23344533 0
    outer loop
      vertex -3.9507535 0.62573785 -8.75
      vertex -3.9507535 0.62573785 -1.25
      vertex -3.8042262 1.236068 -1.25
    endloop
  endfacet
  facet normal -0.99691737 -0.07845896 0
    outer loop
      vertex -4 0 -1.25
      vertex -3.9507535 -0.62573785 -8.75
      vertex -3.9507535 -0.62573785 -1.25
    endloop
  endfacet
  facet normal -0.99691737 -0.07845896 0
    outer loop
      vertex -4 0 -8.75
      vertex -3.9507535 -0.62573785 -8.75
      vertex -4 0 -1.25
    endloop
  endfacet
  facet normal -0.99691737 0.07845896 0
    outer loop
      vertex -4 0 -8.75
      vertex -3.9507535 0.62573785 -1.25
      vertex -3.9507535 0.62573785 -8.75
    endloop
  endfacet
  facet normal 0 0 -1
    outer loop
      vertex -4 0 -8.75
      vertex -3.9507535 0.62573785 -8.75
      vertex -3.9507535 -0.62573785 -8.75
    endloop
  endfacet
  facet normal -0.99691737 0.07845896 0
    outer loop
      vertex -4 0 -8.75
      vertex -4 0 -1.25
      vertex -3.9507535 0.62573785 -1.25
    endloop
  endfacet
  facet normal 0 0 -1
    outer loop
      vertex -4.702282 -6.472136 -1.25
      vertex -3.564026 -1.815962 -1.25
      vertex -3.631924 -7.128052 -1.25
    endloop
  endfacet
  facet normal -0.52249855 -0.85264015 0
    outer loop
      vertex -4.702282 -6.472136 -1.25
      vertex -3.631924 -7.128052 -1.25
      vertex -3.631924 -7.128052 1.25
    endloop
  endfacet
  facet normal -0.52249855 -0.85264015 0
    outer loop
      vertex -4.702282 -6.472136 -1.25
      vertex -3.631924 -7.128052 1.25
      vertex -4.702282 -6.472136 1.25
    endloop
  endfacet
  facet normal 0 0 -1
    outer loop
      vertex -4.702282 -6.472136 -1.25
      vertex -3.631924 7.128052 -1.25
      vertex -3.9507535 0.62573785 -1.25
    endloop
  endfacet
  facet normal 0 0 -1
    outer loop
      vertex -4.702282 -6.472136 -1.25
      vertex -3.8042262 -1.236068 -1.25
      vertex -3.564026 -1.815962 -1.25
    endloop
  endfacet
  facet normal 0 0 -1
    outer loop
      vertex -4.702282 -6.472136 -1.25
      vertex -3.9507535 -0.62573785 -1.25
      vertex -3.8042262 -1.236068 -1.25
    endloop
  endfacet
  facet normal 0 0 -1
    outer loop
      vertex -4.702282 -6.472136 -1.25
      vertex -3.9507535 0.62573785 -1.25
      vertex -4 0 -1.25
    endloop
  endfacet
  facet normal 0 0 -1
    outer loop
      vertex -4.702282 -6.472136 -1.25
      vertex -4 0 -1.25
      vertex -3.9507535 -0.62573785 -1.25
    endloop
  endfacet
  facet normal 0 0 -1
    outer loop
      vertex -4.702282 -6.472136 -1.25
      vertex -4.702282 6.472136 -1.25
      vertex -3.631924 7.128052 -1.25
    endloop
  endfacet
  facet normal 0 0 1
    outer loop
      vertex -4.702282 -6.472136 1.25
      vertex -3.631924 -7.128052 1.25
      vertex -4.702282 6.472136 1.25
    endloop
  endfacet
  facet normal -0.52249855 0.85264015 0
    outer loop
      vertex -4.702282 6.472136 -1.25
      vertex -4.702282 6.472136 1.25
      vertex -3.631924 7.128052 -1.25
    endloop
  endfacet
  facet normal 0 0 1
    outer loop
      vertex -4.702282 6.472136 1.25
      vertex -3.631924 -7.128052 1.25
      vertex -3.631924 7.128052 1.25
    endloop
  endfacet
  facet normal -0.52249855 0.85264015 0
    outer loop
      vertex -4.702282 6.472136 1.25
      vertex -3.631924 7.128052 1.25
      vertex -3.631924 7.128052 -1.25
    endloop
  endfacet
  facet normal -0.64944816 -0.7604059 0
    outer loop
      vertex -5.656854 -5.656854 -1.25
      vertex -4.702282 -6.472136 -1.25
      vertex -4.702282 -6.472136 1.25
    endloop
  endfacet
  facet normal -0.64944816 -0.7604059 0
    outer loop
      vertex -5.656854 -5.656854 -1.25
      vertex -4.702282 -6.472136 1.25
      vertex -5.656854 -5.656854 1.25
    endloop
  endfacet
  facet normal 0 0 -1
    outer loop
      vertex -5.656854 -5.656854 -1.25
      vertex -4.702282 6.472136 -1.25
      vertex -4.702282 -6.472136 -1.25
    endloop
  endfacet
  facet normal 0 0 -1
    outer loop
      vertex -5.656854 -5.656854 -1.25
      vertex -5.656854 5.656854 -1.25
      vertex -4.702282 6.472136 -1.25
    endloop
  endfacet
  facet normal 0 0 1
    outer loop
      vertex -5.656854 -5.656854 1.25
      vertex -4.702282 -6.472136 1.25
      vertex -5.656854 5.656854 1.25
    endloop
  endfacet
  facet normal -0.64944816 0.7604059 0
    outer loop
      vertex -5.656854 5.656854 -1.25
      vertex -5.656854 5.656854 1.25
      vertex -4.702282 6.472136 -1.25
    endloop
  endfacet
  facet normal 0 0 1
    outer loop
      vertex -5.656854 5.656854 1.25
      vertex -4.702282 -6.472136 1.25
      vertex -4.702282 6.472136 1.25
    endloop
  endfacet
  facet normal -0.64944816 0.7604059 0
    outer loop
      vertex -5.656854 5.656854 1.25
      vertex -4.702282 6.472136 1.25
      vertex -4.702282 6.472136 -1.25
    endloop
  endfacet
  facet normal -0.7604059 -0.64944816 0
    outer loop
      vertex -6.472136 -4.702282 -1.25
      vertex -5.656854 -5.656854 -1.25
      vertex -6.472136 -4.702282 1.25
    endloop
  endfacet
  facet normal 0 0 -1
    outer loop
      vertex -6.472136 -4.702282 -1.25
      vertex -5.656854 5.656854 -1.25
      vertex -5.656854 -5.656854 -1.25
    endloop
  endfacet
  facet normal 0 0 -1
    outer loop
      vertex -6.472136 -4.702282 -1.25
      vertex -6.472136 4.702282 -1.25
      vertex -5.656854 5.656854 -1.25
    endloop
  endfacet
  facet normal -0.7604059 -0.64944816 0
    outer loop
      vertex -6.472136 -4.702282 1.25
      vertex -5.656854 -5.656854 -1.25
      vertex -5.656854 -5.656854 1.25
    endloop
  endfacet
  facet normal 0 0 1
    outer loop
      vertex -6.472136 -4.702282 1.25
      vertex -5.656854 -5.656854 1.25
      vertex -6.472136 4.702282 1.25
    endloop
  endfacet
  facet normal -0.7604059 0.64944816 0
    outer loop
      vertex -6.472136 4.702282 -1.25
      vertex -5.656854 5.656854 1.25
      vertex -5.656854 5.656854 -1.25
    endloop
  endfacet
  facet normal -0.7604059 0.64944816 0
    outer loop
      vertex -6.472136 4.702282 -1.25
      vertex -6.472136 4.702282 1.25
      vertex -5.656854 5.656854 1.25
    endloop
  endfacet
  facet normal 0 0 1
    outer loop
      vertex -6.472136 4.702282 1.25
      vertex -5.656854 -5.656854 1.25
      vertex -5.656854 5.656854 1.25
    endloop
  endfacet
  facet normal -0.85264015 -0.52249855 0
    outer loop
      vertex -7.128052 -3.631924 -1.25
      vertex -6.472136 -4.702282 -1.25
      vertex -7.128052 -3.631924 1.25
    endloop
  endfacet
  facet normal 0 0 -1
    outer loop
      vertex -7.128052 -3.631924 -1.25
      vertex -6.472136 4.702282 -1.25
      vertex -6.472136 -4.702282 -1.25
    endloop
  endfacet
  facet normal 0 0 -1
    outer loop
      vertex -7.128052 -3.631924 -1.25
      vertex -7.128052 3.631924 -1.25
      vertex -6.472136 4.702282 -1.25
    endloop
  endfacet
  facet normal -0.85264015 -0.52249855 0
    outer loop
      vertex -7.128052 -3.631924 1.25
      vertex -6.472136 -4.702282 -1.25
      vertex -6.472136 -4.702282 1.25
    endloop
  endfacet
  facet normal 0 0 1
    outer loop
      vertex -7.128052 -3.631924 1.25
      vertex -6.472136 -4.702282 1.25
      vertex -7.128052 3.631924 1.25
    endloop
  endfacet
  facet normal -0.85264015 0.52249855 0
    outer loop
      vertex -7.128052 3.631924 -1.25
      vertex -6.472136 4.702282 1.25
      vertex -6.472136 4.702282 -1.25
    endloop
  endfacet
  facet normal -0.85264015 0.52249855 0
    outer loop
      vertex -7.128052 3.631924 -1.25
      vertex -7.128052 3.631924 1.25
      vertex -6.472136 4.702282 1.25
    endloop
  endfacet
  facet normal 0 0 1
    outer loop
      vertex -7.128052 3.631924 1.25
      vertex -6.472136 -4.702282 1.25
      vertex -6.472136 4.702282 1.25
    endloop
  endfacet
  facet normal -0.92387944 -0.38268358 0
    outer loop
      vertex -7.6084523 -2.472136 -1.25
      vertex -7.128052 -3.631924 -1.25
      vertex -7.6084523 -2.472136 1.25
    endloop
  endfacet
  facet normal 0 0 -1
    outer loop
      vertex -7.6084523 -2.472136 -1.25
      vertex -7.128052 3.631924 -1.25
      vertex -7.128052 -3.631924 -1.25
    endloop
  endfacet
  facet normal 0 0 -1
    outer loop
      vertex -7.6084523 -2.472136 -1.25
      vertex -7.6084523 2.472136 -1.25
      vertex -7.128052 3.631924 -1.25
    endloop
  endfacet
  facet normal -0.92387944 -0.38268358 0
    outer loop
      vertex -7.6084523 -2.472136 1.25
      vertex -7.128052 -3.631924 -1.25
      vertex -7.128052 -3.631924 1.25
    endloop
  endfacet
  facet normal 0 0 1
    outer loop
      vertex -7.6084523 -2.472136 1.25
      vertex -7.128052 -3.631924 1.25
      vertex -7.6084523 2.472136 1.25
    endloop
  endfacet
  facet normal -0.92387944 0.38268358 0
    outer loop
      vertex -7.6084523 2.472136 -1.25
      vertex -7.128052 3.631924 1.25
      vertex -7.128052 3.631924 -1.25
    endloop
  endfacet
  facet normal -0.92387944 0.38268358 0
    outer loop
      vertex -7.6084523 2.472136 -1.25
      vertex -7.6084523 2.472136 1.25
      vertex -7.128052 3.631924 1.25
    endloop
  endfacet
  facet normal 0 0 1
    outer loop
      vertex -7.6084523 2.472136 1.25
      vertex -7.128052 -3.631924 1.25
      vertex -7.128052 3.631924 1.25
    endloop
  endfacet
  facet normal -0.9723699 -0.23344533 0
    outer loop
      vertex -7.901507 -1.2514757 -1.25
      vertex -7.6084523 -2.472136 -1.25
      vertex -7.901507 -1.2514757 1.25
    endloop
  endfacet
  facet normal 0 0 -1
    outer loop
      vertex -7.901507 -1.2514757 -1.25
      vertex -7.6084523 2.472136 -1.25
      vertex -7.6084523 -2.472136 -1.25
    endloop
  endfacet
  facet normal 0 0 -1
    outer loop
      vertex -7.901507 -1.2514757 -1.25
      vertex -7.901507 1.2514757 -1.25
      vertex -7.6084523 2.472136 -1.25
    endloop
  endfacet
  facet normal -0.9723699 -0.23344533 0
    outer loop
      vertex -7.901507 -1.2514757 1.25
      vertex -7.6084523 -2.472136 -1.25
      vertex -7.6084523 -2.472136 1.25
    endloop
  endfacet
  facet normal 0 0 1
    outer loop
      vertex -7.901507 -1.2514757 1.25
      vertex -7.6084523 -2.472136 1.25
      vertex -7.901507 1.2514757 1.25
    endloop
  endfacet
  facet normal -0.9723699 0.23344533 0
    outer loop
      vertex -7.901507 1.2514757 -1.25
      vertex -7.6084523 2.472136 1.25
      vertex -7.6084523 2.472136 -1.25
    endloop
  endfacet
  facet normal -0.9723699 0.23344533 0
    outer loop
      vertex -7.901507 1.2514757 -1.25
      vertex -7.901507 1.2514757 1.25
      vertex -7.6084523 2.472136 1.25
    endloop
  endfacet
  facet normal 0 0 1
    outer loop
      vertex -7.901507 1.2514757 1.25
      vertex -7.6084523 -2.472136 1.25
      vertex -7.6084523 2.472136 1.25
    endloop
  endfacet
  facet normal -0.99691737 -0.07845896 0
    outer loop
      vertex -8 0 -1.25
      vertex -7.901507 -1.2514757 -1.25
      vertex -8 0 1.25
    endloop
  endfacet
  facet normal 0 0 -1
    outer loop
      vertex -8 0 -1.25
      vertex -7.901507 1.2514757 -1.25
      vertex -7.901507 -1.2514757 -1.25
    endloop
  endfacet
  facet normal -0.99691737 0.07845896 0
    outer loop
      vertex -8 0 -1.25
      vertex -7.901507 1.2514757 1.25
      vertex -7.901507 1.2514757 -1.25
    endloop
  endfacet
  facet normal -0.99691737 0.07845896 0
    outer loop
      vertex -8 0 -1.25
      vertex -8 0 1.25
      vertex -7.901507 1.2514757 1.25
    endloop
  endfacet
  facet normal -0.99691737 -0.07845896 0
    outer loop
      vertex -8 0 1.25
      vertex -7.901507 -1.2514757 -1.25
      vertex -7.901507 -1.2514757 1.25
    endloop
  endfacet
  facet normal 0 0 1
    outer loop
      vertex -8 0 1.25
      vertex -7.901507 -1.2514757 1.25
      vertex -7.901507 1.2514757 1.25
    endloop
  endfacet
  facet normal -0.07845896 0.99691737 0
    outer loop
      vertex 0 -2 -8.75
      vertex 0 -2 1.25
      vertex 0.31286892 -1.9753767 -8.75
    endloop
  endfacet
  facet normal -0.07845896 0.99691737 0
    outer loop
      vertex 0 -2 1.25
      vertex 0.31286892 -1.9753767 1.25
      vertex 0.31286892 -1.9753767 -8.75
    endloop
  endfacet
  facet normal 0 0 -1
    outer loop
      vertex 0 -4 -8.75
      vertex 0 -2 -8.75
      vertex 0.31286892 -1.9753767 -8.75
    endloop
  endfacet
  facet normal 0 0 -1
    outer loop
      vertex 0 -4 -8.75
      vertex 0.31286892 -1.9753767 -8.75
      vertex 0.62573785 -3.9507535 -8.75
    endloop
  endfacet
  facet normal 0.07845896 -0.99691737 0
    outer loop
      vertex 0 -4 -8.75
      vertex 0.62573785 -3.9507535 -1.25
      vertex 0 -4 -1.25
    endloop
  endfacet
  facet normal 0.07845896 -0.99691737 0
    outer loop
      vertex 0 -4 -8.75
      vertex 0.62573785 -3.9507535 -8.75
      vertex 0.62573785 -3.9507535 -1.25
    endloop
  endfacet
  facet normal 0 0 -1
    outer loop
      vertex 0 -8 -1.25
      vertex 0 -4 -1.25
      vertex 0.62573785 -3.9507535 -1.25
    endloop
  endfacet
  facet normal 0 0 -1
    outer loop
      vertex 0 -8 -1.25
      vertex 0.62573785 -3.9507535 -1.25
      vertex 1.2514757 -7.901507 -1.25
    endloop
  endfacet
  facet normal 0.07845896 -0.99691737 0
    outer loop
      vertex 0 -8 -1.25
      vertex 1.2514757 -7.901507 -1.25
      vertex 1.2514757 -7.901507 1.25
    endloop
  endfacet
  facet normal 0.07845896 -0.99691737 0
    outer loop
      vertex 0 -8 -1.25
      vertex 1.2514757 -7.901507 1.25
      vertex 0 -8 1.25
    endloop
  endfacet
  facet normal 0 0 1
    outer loop
      vertex 0 -8 1.25
      vertex 0.31286892 -1.9753767 1.25
      vertex 0 -2 1.25
    endloop
  endfacet
  facet normal 0 0 1
    outer loop
      vertex 0 -8 1.25
      vertex 1.2514757 -7.901507 1.25
      vertex 0.31286892 -1.9753767 1.25
    endloop
  endfacet
  facet normal 0 0 -1
    outer loop
      vertex 0 2 -8.75
      vertex 0 4 -8.75
      vertex 0.31286892 1.9753767 -8.75
    endloop
  endfacet
  facet normal -0.07845896 -0.99691737 0
    outer loop
      vertex 0 2 -8.75
      vertex 0.31286892 1.9753767 -8.75
      vertex 0.31286892 1.9753767 1.25
    endloop
  endfacet
  facet normal -0.07845896 -0.99691737 0
    outer loop
      vertex 0 2 -8.75
      vertex 0.31286892 1.9753767 1.25
      vertex 0 2 1.25
    endloop
  endfacet
  facet normal 0 0 1
    outer loop
      vertex 0 2 1.25
      vertex 0.31286892 1.9753767 1.25
      vertex 0 8 1.25
    endloop
  endfacet
  facet normal 0 0 -1
    outer loop
      vertex 0 4 -1.25
      vertex 0 8 -1.25
      vertex 0.62573785 3.9507535 -1.25
    endloop
  endfacet
  facet normal 0.07845896 0.99691737 0
    outer loop
      vertex 0 4 -1.25
      vertex 0.62573785 3.9507535 -1.25
      vertex 0.62573785 3.9507535 -8.75
    endloop
  endfacet
  facet normal 0.07845896 0.99691737 0
    outer loop
      vertex 0 4 -8.75
      vertex 0 4 -1.25
      vertex 0.62573785 3.9507535 -8.75
    endloop
  endfacet
  facet normal 0 0 -1
    outer loop
      vertex 0 4 -8.75
      vertex 0.62573785 3.9507535 -8.75
      vertex 0.31286892 1.9753767 -8.75
    endloop
  endfacet
  facet normal 0.07845896 0.99691737 0
    outer loop
      vertex 0 8 -1.25
      vertex 0 8 1.25
      vertex 1.2514757 7.901507 -1.25
    endloop
  endfacet
  facet normal 0 0 -1
    outer loop
      vertex 0 8 -1.25
      vertex 1.2514757 7.901507 -1.25
      vertex 0.62573785 3.9507535 -1.25
    endloop
  endfacet
  facet normal 0 0 1
    outer loop
      vertex 0 8 1.25
      vertex 0.31286892 1.9753767 1.25
      vertex 0.618034 1.9021131 1.25
    endloop
  endfacet
  facet normal 0 0 1
    outer loop
      vertex 0 8 1.25
      vertex 0.618034 1.9021131 1.25
      vertex 1.2514757 7.901507 1.25
    endloop
  endfacet
  facet normal 0.07845896 0.99691737 0
    outer loop
      vertex 0 8 1.25
      vertex 1.2514757 7.901507 1.25
      vertex 1.2514757 7.901507 -1.25
    endloop
  endfacet
  facet normal -0.23344533 0.9723699 0
    outer loop
      vertex 0.31286892 -1.9753767 -8.75
      vertex 0.31286892 -1.9753767 1.25
      vertex 0.618034 -1.9021131 -8.75
    endloop
  endfacet
  facet normal 0 0 -1
    outer loop
      vertex 0.31286892 -1.9753767 -8.75
      vertex 0.618034 -1.9021131 -8.75
      vertex 0.62573785 -3.9507535 -8.75
    endloop
  endfacet
  facet normal -0.23344533 0.9723699 0
    outer loop
      vertex 0.31286892 -1.9753767 1.25
      vertex 0.618034 -1.9021131 1.25
      vertex 0.618034 -1.9021131 -8.75
    endloop
  endfacet
  facet normal 0 0 1
    outer loop
      vertex 0.31286892 -1.9753767 1.25
      vertex 1.2514757 -7.901507 1.25
      vertex 0.618034 -1.9021131 1.25
    endloop
  endfacet
  facet normal -0.23344533 -0.9723699 0
    outer loop
      vertex 0.31286892 1.9753767 -8.75
      vertex 0.618034 1.9021131 -8.75
      vertex 0.618034 1.9021131 1.25
    endloop
  endfacet
  facet normal -0.23344533 -0.9723699 0
    outer loop
      vertex 0.31286892 1.9753767 -8.75
      vertex 0.618034 1.9021131 1.25
      vertex 0.31286892 1.9753767 1.25
    endloop
  endfacet
  facet normal 0 0 -1
    outer loop
      vertex 0.31286892 1.9753767 -8.75
      vertex 0.62573785 3.9507535 -8.75
      vertex 0.618034 1.9021131 -8.75
    endloop
  endfacet
  facet normal -0.38268358 0.92387944 0
    outer loop
      vertex 0.618034 -1.9021131 -8.75
      vertex 0.618034 -1.9021131 1.25
      vertex 0.907981 -1.782013 -8.75
    endloop
  endfacet
  facet normal 0 0 -1
    outer loop
      vertex 0.618034 -1.9021131 -8.75
      vertex 0.907981 -1.782013 -8.75
      vertex 0.62573785 -3.9507535 -8.75
    endloop
  endfacet
  facet normal -0.38268358 0.92387944 0
    outer loop
      vertex 0.618034 -1.9021131 1.25
      vertex 0.907981 -1.782013 1.25
      vertex 0.907981 -1.782013 -8.75
    endloop
  endfacet
  facet normal 0 0 1
    outer loop
      vertex 0.618034 -1.9021131 1.25
      vertex 1.2514757 -7.901507 1.25
      vertex 0.907981 -1.782013 1.25
    endloop
  endfacet
  facet normal 0 0 -1
    outer loop
      vertex 0.618034 1.9021131 -8.75
      vertex 0.62573785 3.9507535 -8.75
      vertex 1.236068 3.8042262 -8.75
    endloop
  endfacet
  facet normal -0.38268358 -0.92387944 0
    outer loop
      vertex 0.618034 1.9021131 -8.75
      vertex 0.907981 1.782013 -8.75
      vertex 0.907981 1.782013 1.25
    endloop
  endfacet
  facet normal -0.38268358 -0.92387944 0
    outer loop
      vertex 0.618034 1.9021131 -8.75
      vertex 0.907981 1.782013 1.25
      vertex 0.618034 1.9021131 1.25
    endloop
  endfacet
  facet normal 0 0 -1
    outer loop
      vertex 0.618034 1.9021131 -8.75
      vertex 1.236068 3.8042262 -8.75
      vertex 0.907981 1.782013 -8.75
    endloop
  endfacet
  facet normal 0 0 1
    outer loop
      vertex 0.618034 1.9021131 1.25
      vertex 0.907981 1.782013 1.25
      vertex 1.2514757 7.901507 1.25
    endloop
  endfacet
  facet normal 0 0 -1
    outer loop
      vertex 0.62573785 -3.9507535 -1.25
      vertex 1.236068 -3.8042262 -1.25
      vertex 1.2514757 -7.901507 -1.25
    endloop
  endfacet
  facet normal 0 0 -1
    outer loop
      vertex 0.62573785 -3.9507535 -8.75
      vertex 0.907981 -1.782013 -8.75
      vertex 1.236068 -3.8042262 -8.75
    endloop
  endfacet
  facet normal 0.23344533 -0.9723699 0
    outer loop
      vertex 0.62573785 -3.9507535 -8.75
      vertex 1.236068 -3.8042262 -1.25
      vertex 0.62573785 -3.9507535 -1.25
    endloop
  endfacet
  facet normal 0.23344533 -0.9723699 0
    outer loop
      vertex 0.62573785 -3.9507535 -8.75
      vertex 1.236068 -3.8042262 -8.75
      vertex 1.236068 -3.8042262 -1.25
    endloop
  endfacet
  facet normal 0.23344533 0.9723699 0
    outer loop
      vertex 0.62573785 3.9507535 -1.25
      vertex 1.236068 3.8042262 -1.25
      vertex 1.236068 3.8042262 -8.75
    endloop
  endfacet
  facet normal 0 0 -1
    outer loop
      vertex 0.62573785 3.9507535 -1.25
      vertex 1.2514757 7.901507 -1.25
      vertex 1.236068 3.8042262 -1.25
    endloop
  endfacet
  facet normal 0.23344533 0.9723699 0
    outer loop
      vertex 0.62573785 3.9507535 -8.75
      vertex 0.62573785 3.9507535 -1.25
      vertex 1.236068 3.8042262 -8.75
    endloop
  endfacet
  facet normal -0.52249855 0.85264015 0
    outer loop
      vertex 0.907981 -1.782013 -8.75
      vertex 0.907981 -1.782013 1.25
      vertex 1.1755705 -1.618034 -8.75
    endloop
  endfacet
  facet normal 0 0 -1
    outer loop
      vertex 0.907981 -1.782013 -8.75
      vertex 1.1755705 -1.618034 -8.75
      vertex 1.236068 -3.8042262 -8.75
    endloop
  endfacet
  facet normal -0.52249855 0.85264015 0
    outer loop
      vertex 0.907981 -1.782013 1.25
      vertex 1.1755705 -1.618034 1.25
      vertex 1.1755705 -1.618034 -8.75
    endloop
  endfacet
  facet normal 0 0 1
    outer loop
      vertex 0.907981 -1.782013 1.25
      vertex 1.2514757 -7.901507 1.25
      vertex 1.1755705 -1.618034 1.25
    endloop
  endfacet
  facet normal -0.52249855 -0.85264015 0
    outer loop
      vertex 0.907981 1.782013 -8.75
      vertex 1.1755705 1.618034 -8.75
      vertex 1.1755705 1.618034 1.25
    endloop
  endfacet
  facet normal -0.52249855 -0.85264015 0
    outer loop
      vertex 0.907981 1.782013 -8.75
      vertex 1.1755705 1.618034 1.25
      vertex 0.907981 1.782013 1.25
    endloop
  endfacet
  facet normal 0 0 -1
    outer loop
      vertex 0.907981 1.782013 -8.75
      vertex 1.236068 3.8042262 -8.75
      vertex 1.1755705 1.618034 -8.75
    endloop
  endfacet
  facet normal 0 0 1
    outer loop
      vertex 0.907981 1.782013 1.25
      vertex 1.1755705 1.618034 1.25
      vertex 1.2514757 7.901507 1.25
    endloop
  endfacet
  facet normal -0.64944816 0.7604059 0
    outer loop
      vertex 1.1755705 -1.618034 -8.75
      vertex 1.1755705 -1.618034 1.25
      vertex 1.4142135 -1.4142135 -8.75
    endloop
  endfacet
  facet normal 0 0 -1
    outer loop
      vertex 1.1755705 -1.618034 -8.75
      vertex 1.4142135 -1.4142135 -8.75
      vertex 1.236068 -3.8042262 -8.75
    endloop
  endfacet
  facet normal 0 0 1
    outer loop
      vertex 1.1755705 -1.618034 1.25
      vertex 1.2514757 -7.901507 1.25
      vertex 2.472136 -7.6084523 1.25
    endloop
  endfacet
  facet normal -0.64944816 0.7604059 0
    outer loop
      vertex 1.1755705 -1.618034 1.25
      vertex 1.4142135 -1.4142135 1.25
      vertex 1.4142135 -1.4142135 -8.75
    endloop
  endfacet
  facet normal 0 0 1
    outer loop
      vertex 1.1755705 -1.618034 1.25
      vertex 2.472136 -7.6084523 1.25
      vertex 1.4142135 -1.4142135 1.25
    endloop
  endfacet
  facet normal 0 0 -1
    outer loop
      vertex 1.1755705 1.618034 -8.75
      vertex 1.236068 3.8042262 -8.75
      vertex 1.815962 3.564026 -8.75
    endloop
  endfacet
  facet normal -0.64944816 -0.7604059 0
    outer loop
      vertex 1.1755705 1.618034 -8.75
      vertex 1.4142135 1.4142135 -8.75
      vertex 1.4142135 1.4142135 1.25
    endloop
  endfacet
  facet normal -0.64944816 -0.7604059 0
    outer loop
      vertex 1.1755705 1.618034 -8.75
      vertex 1.4142135 1.4142135 1.25
      vertex 1.1755705 1.618034 1.25
    endloop
  endfacet
  facet normal 0 0 -1
    outer loop
      vertex 1.1755705 1.618034 -8.75
      vertex 1.815962 3.564026 -8.75
      vertex 1.4142135 1.4142135 -8.75
    endloop
  endfacet
  facet normal 0 0 1
    outer loop
      vertex 1.1755705 1.618034 1.25
      vertex 1.4142135 1.4142135 1.25
      vertex 1.2514757 7.901507 1.25
    endloop
  endfacet
  facet normal 0 0 -1
    outer loop
      vertex 1.236068 -3.8042262 -1.25
      vertex 1.815962 -3.564026 -1.25
      vertex 1.2514757 -7.901507 -1.25
    endloop
  endfacet
  facet normal 0 0 -1
    outer loop
      vertex 1.236068 -3.8042262 -8.75
      vertex 1.4142135 -1.4142135 -8.75
      vertex 1.618034 -1.1755705 -8.75
    endloop
  endfacet
  facet normal 0 0 -1
    outer loop
      vertex 1.236068 -3.8042262 -8.75
      vertex 1.618034 -1.1755705 -8.75
      vertex 1.815962 -3.564026 -8.75
    endloop
  endfacet
  facet normal 0.38268358 -0.92387944 0
    outer loop
      vertex 1.236068 -3.8042262 -8.75
      vertex 1.815962 -3.564026 -1.25
      vertex 1.236068 -3.8042262 -1.25
    endloop
  endfacet
  facet normal 0.38268358 -0.92387944 0
    outer loop
      vertex 1.236068 -3.8042262 -8.75
      vertex 1.815962 -3.564026 -8.75
      vertex 1.815962 -3.564026 -1.25
    endloop
  endfacet
  facet normal 0 0 -1
    outer loop
      vertex 1.236068 3.8042262 -1.25
      vertex 1.2514757 7.901507 -1.25
      vertex 2.472136 7.6084523 -1.25
    endloop
  endfacet
  facet normal 0.38268358 0.92387944 0
    outer loop
      vertex 1.236068 3.8042262 -1.25
      vertex 1.815962 3.564026 -1.25
      vertex 1.815962 3.564026 -8.75
    endloop
  endfacet
  facet normal 0 0 -1
    outer loop
      vertex 1.236068 3.8042262 -1.25
      vertex 2.472136 7.6084523 -1.25
      vertex 1.815962 3.564026 -1.25
    endloop
  endfacet
  facet normal 0.38268358 0.92387944 0
    outer loop
      vertex 1.236068 3.8042262 -8.75
      vertex 1.236068 3.8042262 -1.25
      vertex 1.815962 3.564026 -8.75
    endloop
  endfacet
  facet normal 0 0 -1
    outer loop
      vertex 1.2514757 -7.901507 -1.25
      vertex 1.815962 -3.564026 -1.25
      vertex 2.472136 -7.6084523 -1.25
    endloop
  endfacet
  facet normal 0.23344533 -0.9723699 0
    outer loop
      vertex 1.2514757 -7.901507 -1.25
      vertex 2.472136 -7.6084523 -1.25
      vertex 2.472136 -7.6084523 1.25
    endloop
  endfacet
  facet normal 0.23344533 -0.9723699 0
    outer loop
      vertex 1.2514757 -7.901507 -1.25
      vertex 2.472136 -7.6084523 1.25
      vertex 1.2514757 -7.901507 1.25
    endloop
  endfacet
  facet normal 0.23344533 0.9723699 0
    outer loop
      vertex 1.2514757 7.901507 -1.25
      vertex 1.2514757 7.901507 1.25
      vertex 2.472136 7.6084523 -1.25
    endloop
  endfacet
  facet normal 0 0 1
    outer loop
      vertex 1.2514757 7.901507 1.25
      vertex 1.4142135 1.4142135 1.25
      vertex 1.618034 1.1755705 1.25
    endloop
  endfacet
  facet normal 0 0 1
    outer loop
      vertex 1.2514757 7.901507 1.25
      vertex 1.618034 1.1755705 1.25
      vertex 1.782013 0.907981 1.25
    endloop
  endfacet
  facet normal 0 0 1
    outer loop
      vertex 1.2514757 7.901507 1.25
      vertex 1.782013 0.907981 1.25
      vertex 1.9021131 0.618034 1.25
    endloop
  endfacet
  facet normal 0 0 1
    outer loop
      vertex 1.2514757 7.901507 1.25
      vertex 1.9021131 0.618034 1.25
      vertex 2.472136 7.6084523 1.25
    endloop
  endfacet
  facet normal 0.23344533 0.9723699 0
    outer loop
      vertex 1.2514757 7.901507 1.25
      vertex 2.472136 7.6084523 1.25
      vertex 2.472136 7.6084523 -1.25
    endloop
  endfacet
  facet normal -0.7604059 0.64944816 0
    outer loop
      vertex 1.4142135 -1.4142135 -8.75
      vertex 1.4142135 -1.4142135 1.25
      vertex 1.618034 -1.1755705 -8.75
    endloop
  endfacet
  facet normal -0.7604059 0.64944816 0
    outer loop
      vertex 1.4142135 -1.4142135 1.25
      vertex 1.618034 -1.1755705 1.25
      vertex 1.618034 -1.1755705 -8.75
    endloop
  endfacet
  facet normal 0 0 1
    outer loop
      vertex 1.4142135 -1.4142135 1.25
      vertex 2.472136 -7.6084523 1.25
      vertex 1.618034 -1.1755705 1.25
    endloop
  endfacet
  facet normal -0.7604059 -0.64944816 0
    outer loop
      vertex 1.4142135 1.4142135 -8.75
      vertex 1.618034 1.1755705 -8.75
      vertex 1.618034 1.1755705 1.25
    endloop
  endfacet
  facet normal -0.7604059 -0.64944816 0
    outer loop
      vertex 1.4142135 1.4142135 -8.75
      vertex 1.618034 1.1755705 1.25
      vertex 1.4142135 1.4142135 1.25
    endloop
  endfacet
  facet normal 0 0 -1
    outer loop
      vertex 1.4142135 1.4142135 -8.75
      vertex 1.815962 3.564026 -8.75
      vertex 1.618034 1.1755705 -8.75
    endloop
  endfacet
  facet normal -0.85264015 0.52249855 0
    outer loop
      vertex 1.618034 -1.1755705 -8.75
      vertex 1.618034 -1.1755705 1.25
      vertex 1.782013 -0.907981 -8.75
    endloop
  endfacet
  facet normal 0 0 -1
    outer loop
      vertex 1.618034 -1.1755705 -8.75
      vertex 1.782013 -0.907981 -8.75
      vertex 1.815962 -3.564026 -8.75
    endloop
  endfacet
  facet normal -0.85264015 0.52249855 0
    outer loop
      vertex 1.618034 -1.1755705 1.25
      vertex 1.782013 -0.907981 1.25
      vertex 1.782013 -0.907981 -8.75
    endloop
  endfacet
  facet normal 0 0 1
    outer loop
      vertex 1.618034 -1.1755705 1.25
      vertex 2.472136 -7.6084523 1.25
      vertex 1.782013 -0.907981 1.25
    endloop
  endfacet
  facet normal -0.85264015 -0.52249855 0
    outer loop
      vertex 1.618034 1.1755705 -8.75
      vertex 1.782013 0.907981 -8.75
      vertex 1.782013 0.907981 1.25
    endloop
  endfacet
  facet normal -0.85264015 -0.52249855 0
    outer loop
      vertex 1.618034 1.1755705 -8.75
      vertex 1.782013 0.907981 1.25
      vertex 1.618034 1.1755705 1.25
    endloop
  endfacet
  facet normal 0 0 -1
    outer loop
      vertex 1.618034 1.1755705 -8.75
      vertex 1.815962 3.564026 -8.75
      vertex 1.782013 0.907981 -8.75
    endloop
  endfacet
  facet normal -0.92387944 0.38268358 0
    outer loop
      vertex 1.782013 -0.907981 -8.75
      vertex 1.782013 -0.907981 1.25
      vertex 1.9021131 -0.618034 -8.75
    endloop
  endfacet
  facet normal 0 0 -1
    outer loop
      vertex 1.782013 -0.907981 -8.75
      vertex 1.9021131 -0.618034 -8.75
      vertex 1.815962 -3.564026 -8.75
    endloop
  endfacet
  facet normal -0.92387944 0.38268358 0
    outer loop
      vertex 1.782013 -0.907981 1.25
      vertex 1.9021131 -0.618034 1.25
      vertex 1.9021131 -0.618034 -8.75
    endloop
  endfacet
  facet normal 0 0 1
    outer loop
      vertex 1.782013 -0.907981 1.25
      vertex 2.472136 -7.6084523 1.25
      vertex 1.9021131 -0.618034 1.25
    endloop
  endfacet
  facet normal 0 0 -1
    outer loop
      vertex 1.782013 0.907981 -8.75
      vertex 1.815962 3.564026 -8.75
      vertex 2.351141 3.236068 -8.75
    endloop
  endfacet
  facet normal -0.92387944 -0.38268358 0
    outer loop
      vertex 1.782013 0.907981 -8.75
      vertex 1.9021131 0.618034 -8.75
      vertex 1.9021131 0.618034 1.25
    endloop
  endfacet
  facet normal -0.92387944 -0.38268358 0
    outer loop
      vertex 1.782013 0.907981 -8.75
      vertex 1.9021131 0.618034 1.25
      vertex 1.782013 0.907981 1.25
    endloop
  endfacet
  facet normal 0 0 -1
    outer loop
      vertex 1.782013 0.907981 -8.75
      vertex 2.351141 3.236068 -8.75
      vertex 1.9021131 0.618034 -8.75
    endloop
  endfacet
  facet normal 0 0 -1
    outer loop
      vertex 1.815962 -3.564026 -1.25
      vertex 2.351141 -3.236068 -1.25
      vertex 2.472136 -7.6084523 -1.25
    endloop
  endfacet
  facet normal 0 0 -1
    outer loop
      vertex 1.815962 -3.564026 -8.75
      vertex 1.9021131 -0.618034 -8.75
      vertex 1.9753767 -0.31286892 -8.75
    endloop
  endfacet
  facet normal 0 0 -1
    outer loop
      vertex 1.815962 -3.564026 -8.75
      vertex 1.9753767 -0.31286892 -8.75
      vertex 2 0 -8.75
    endloop
  endfacet
  facet normal 0 0 -1
    outer loop
      vertex 1.815962 -3.564026 -8.75
      vertex 2 0 -8.75
      vertex 2.351141 3.236068 -8.75
    endloop
  endfacet
  facet normal 0.52249855 -0.85264015 0
    outer loop
      vertex 1.815962 -3.564026 -8.75
      vertex 2.351141 -3.236068 -1.25
      vertex 1.815962 -3.564026 -1.25
    endloop
  endfacet
  facet normal 0.52249855 -0.85264015 0
    outer loop
      vertex 1.815962 -3.564026 -8.75
      vertex 2.351141 -3.236068 -8.75
      vertex 2.351141 -3.236068 -1.25
    endloop
  endfacet
  facet normal 0 0 -1
    outer loop
      vertex 1.815962 -3.564026 -8.75
      vertex 2.351141 3.236068 -8.75
      vertex 2.351141 -3.236068 -8.75
    endloop
  endfacet
  facet normal 0.52249855 0.85264015 0
    outer loop
      vertex 1.815962 3.564026 -1.25
      vertex 2.351141 3.236068 -1.25
      vertex 2.351141 3.236068 -8.75
    endloop
  endfacet
  facet normal 0 0 -1
    outer loop
      vertex 1.815962 3.564026 -1.25
      vertex 2.472136 7.6084523 -1.25
      vertex 2.351141 3.236068 -1.25
    endloop
  endfacet
  facet normal 0.52249855 0.85264015 0
    outer loop
      vertex 1.815962 3.564026 -8.75
      vertex 1.815962 3.564026 -1.25
      vertex 2.351141 3.236068 -8.75
    endloop
  endfacet
  facet normal -0.9723699 0.23344533 0
    outer loop
      vertex 1.9021131 -0.618034 -8.75
      vertex 1.9021131 -0.618034 1.25
      vertex 1.9753767 -0.31286892 -8.75
    endloop
  endfacet
  facet normal -0.9723699 0.23344533 0
    outer loop
      vertex 1.9021131 -0.618034 1.25
      vertex 1.9753767 -0.31286892 1.25
      vertex 1.9753767 -0.31286892 -8.75
    endloop
  endfacet
  facet normal 0 0 1
    outer loop
      vertex 1.9021131 -0.618034 1.25
      vertex 2.472136 -7.6084523 1.25
      vertex 1.9753767 -0.31286892 1.25
    endloop
  endfacet
  facet normal -0.9723699 -0.23344533 0
    outer loop
      vertex 1.9021131 0.618034 -8.75
      vertex 1.9753767 0.31286892 -8.75
      vertex 1.9753767 0.31286892 1.25
    endloop
  endfacet
  facet normal -0.9723699 -0.23344533 0
    outer loop
      vertex 1.9021131 0.618034 -8.75
      vertex 1.9753767 0.31286892 1.25
      vertex 1.9021131 0.618034 1.25
    endloop
  endfacet
  facet normal 0 0 -1
    outer loop
      vertex 1.9021131 0.618034 -8.75
      vertex 2.351141 3.236068 -8.75
      vertex 1.9753767 0.31286892 -8.75
    endloop
  endfacet
  facet normal 0 0 1
    outer loop
      vertex 1.9021131 0.618034 1.25
      vertex 1.9753767 0.31286892 1.25
      vertex 2.472136 7.6084523 1.25
    endloop
  endfacet
  facet normal -0.99691737 0.07845896 0
    outer loop
      vertex 1.9753767 -0.31286892 -8.75
      vertex 1.9753767 -0.31286892 1.25
      vertex 2 0 -8.75
    endloop
  endfacet
  facet normal -0.99691737 0.07845896 0
    outer loop
      vertex 1.9753767 -0.31286892 1.25
      vertex 2 0 1.25
      vertex 2 0 -8.75
    endloop
  endfacet
  facet normal 0 0 1
    outer loop
      vertex 1.9753767 -0.31286892 1.25
      vertex 2.472136 -7.6084523 1.25
      vertex 2 0 1.25
    endloop
  endfacet
  facet normal -0.99691737 -0.07845896 0
    outer loop
      vertex 1.9753767 0.31286892 -8.75
      vertex 2 0 -8.75
      vertex 2 0 1.25
    endloop
  endfacet
  facet normal -0.99691737 -0.07845896 0
    outer loop
      vertex 1.9753767 0.31286892 -8.75
      vertex 2 0 1.25
      vertex 1.9753767 0.31286892 1.25
    endloop
  endfacet
  facet normal 0 0 -1
    outer loop
      vertex 1.9753767 0.31286892 -8.75
      vertex 2.351141 3.236068 -8.75
      vertex 2 0 -8.75
    endloop
  endfacet
  facet normal 0 0 1
    outer loop
      vertex 1.9753767 0.31286892 1.25
      vertex 2 0 1.25
      vertex 2.472136 7.6084523 1.25
    endloop
  endfacet
  facet normal 0 0 1
    outer loop
      vertex 2 0 1.25
      vertex 2.472136 -7.6084523 1.25
      vertex 2.472136 7.6084523 1.25
    endloop
  endfacet
  facet normal 0 0 -1
    outer loop
      vertex 2.351141 -3.236068 -1.25
      vertex 2.828427 -2.828427 -1.25
      vertex 2.472136 -7.6084523 -1.25
    endloop
  endfacet
  facet normal 0 0 -1
    outer loop
      vertex 2.351141 -3.236068 -8.75
      vertex 2.351141 3.236068 -8.75
      vertex 2.828427 2.828427 -8.75
    endloop
  endfacet
  facet normal 0.64944816 -0.7604059 0
    outer loop
      vertex 2.351141 -3.236068 -8.75
      vertex 2.828427 -2.828427 -1.25
      vertex 2.351141 -3.236068 -1.25
    endloop
  endfacet
  facet normal 0.64944816 -0.7604059 0
    outer loop
      vertex 2.351141 -3.236068 -8.75
      vertex 2.828427 -2.828427 -8.75
      vertex 2.828427 -2.828427 -1.25
    endloop
  endfacet
  facet normal 0 0 -1
    outer loop
      vertex 2.351141 -3.236068 -8.75
      vertex 2.828427 2.828427 -8.75
      vertex 2.828427 -2.828427 -8.75
    endloop
  endfacet
  facet normal 0 0 -1
    outer loop
      vertex 2.351141 3.236068 -1.25
      vertex 2.472136 7.6084523 -1.25
      vertex 3.631924 7.128052 -1.25
    endloop
  endfacet
  facet normal 0.64944816 0.7604059 0
    outer loop
      vertex 2.351141 3.236068 -1.25
      vertex 2.828427 2.828427 -1.25
      vertex 2.828427 2.828427 -8.75
    endloop
  endfacet
  facet normal 0 0 -1
    outer loop
      vertex 2.351141 3.236068 -1.25
      vertex 3.631924 7.128052 -1.25
      vertex 2.828427 2.828427 -1.25
    endloop
  endfacet
  facet normal 0.64944816 0.7604059 0
    outer loop
      vertex 2.351141 3.236068 -8.75
      vertex 2.351141 3.236068 -1.25
      vertex 2.828427 2.828427 -8.75
    endloop
  endfacet
  facet normal 0 0 -1
    outer loop
      vertex 2.472136 -7.6084523 -1.25
      vertex 2.828427 -2.828427 -1.25
      vertex 3.236068 -2.351141 -1.25
    endloop
  endfacet
  facet normal 0 0 -1
    outer loop
      vertex 2.472136 -7.6084523 -1.25
      vertex 3.236068 -2.351141 -1.25
      vertex 3.631924 -7.128052 -1.25
    endloop
  endfacet
  facet normal 0.38268358 -0.92387944 0
    outer loop
      vertex 2.472136 -7.6084523 -1.25
      vertex 3.631924 -7.128052 -1.25
      vertex 3.631924 -7.128052 1.25
    endloop
  endfacet
  facet normal 0.38268358 -0.92387944 0
    outer loop
      vertex 2.472136 -7.6084523 -1.25
      vertex 3.631924 -7.128052 1.25
      vertex 2.472136 -7.6084523 1.25
    endloop
  endfacet
  facet normal 0 0 1
    outer loop
      vertex 2.472136 -7.6084523 1.25
      vertex 3.631924 -7.128052 1.25
      vertex 2.472136 7.6084523 1.25
    endloop
  endfacet
  facet normal 0.38268358 0.92387944 0
    outer loop
      vertex 2.472136 7.6084523 -1.25
      vertex 2.472136 7.6084523 1.25
      vertex 3.631924 7.128052 -1.25
    endloop
  endfacet
  facet normal 0 0 1
    outer loop
      vertex 2.472136 7.6084523 1.25
      vertex 3.631924 -7.128052 1.25
      vertex 3.631924 7.128052 1.25
    endloop
  endfacet
  facet normal 0.38268358 0.92387944 0
    outer loop
      vertex 2.472136 7.6084523 1.25
      vertex 3.631924 7.128052 1.25
      vertex 3.631924 7.128052 -1.25
    endloop
  endfacet
  facet normal 0.7604059 -0.64944816 0
    outer loop
      vertex 2.828427 -2.828427 -1.25
      vertex 3.236068 -2.351141 -8.75
      vertex 3.236068 -2.351141 -1.25
    endloop
  endfacet
  facet normal 0 0 -1
    outer loop
      vertex 2.828427 -2.828427 -8.75
      vertex 2.828427 2.828427 -8.75
      vertex 3.236068 2.351141 -8.75
    endloop
  endfacet
  facet normal 0.7604059 -0.64944816 0
    outer loop
      vertex 2.828427 -2.828427 -8.75
      vertex 3.236068 -2.351141 -8.75
      vertex 2.828427 -2.828427 -1.25
    endloop
  endfacet
  facet normal 0 0 -1
    outer loop
      vertex 2.828427 -2.828427 -8.75
      vertex 3.236068 2.351141 -8.75
      vertex 3.236068 -2.351141 -8.75
    endloop
  endfacet
  facet normal 0 0 -1
    outer loop
      vertex 2.828427 2.828427 -1.25
      vertex 3.631924 7.128052 -1.25
      vertex 3.236068 2.351141 -1.25
    endloop
  endfacet
  facet normal 0.7604059 0.64944816 0
    outer loop
      vertex 2.828427 2.828427 -8.75
      vertex 2.828427 2.828427 -1.25
      vertex 3.236068 2.351141 -1.25
    endloop
  endfacet
  facet normal 0.7604059 0.64944816 0
    outer loop
      vertex 2.828427 2.828427 -8.75
      vertex 3.236068 2.351141 -1.25
      vertex 3.236068 2.351141 -8.75
    endloop
  endfacet
  facet normal 0 0 -1
    outer loop
      vertex 3.236068 -2.351141 -1.25
      vertex 3.564026 -1.815962 -1.25
      vertex 3.631924 -7.128052 -1.25
    endloop
  endfacet
  facet normal 0.85264015 -0.52249855 0
    outer loop
      vertex 3.236068 -2.351141 -1.25
      vertex 3.564026 -1.815962 -8.75
      vertex 3.564026 -1.815962 -1.25
    endloop
  endfacet
  facet normal 0 0 -1
    outer loop
      vertex 3.236068 -2.351141 -8.75
      vertex 3.236068 2.351141 -8.75
      vertex 3.564026 1.815962 -8.75
    endloop
  endfacet
  facet normal 0.85264015 -0.52249855 0
    outer loop
      vertex 3.236068 -2.351141 -8.75
      vertex 3.564026 -1.815962 -8.75
      vertex 3.236068 -2.351141 -1.25
    endloop
  endfacet
  facet normal 0 0 -1
    outer loop
      vertex 3.236068 -2.351141 -8.75
      vertex 3.564026 1.815962 -8.75
      vertex 3.564026 -1.815962 -8.75
    endloop
  endfacet
  facet normal 0 0 -1
    outer loop
      vertex 3.236068 2.351141 -1.25
      vertex 3.631924 7.128052 -1.25
      vertex 3.564026 1.815962 -1.25
    endloop
  endfacet
  facet normal 0.85264015 0.52249855 0
    outer loop
      vertex 3.236068 2.351141 -8.75
      vertex 3.236068 2.351141 -1.25
      vertex 3.564026 1.815962 -1.25
    endloop
  endfacet
  facet normal 0.85264015 0.52249855 0
    outer loop
      vertex 3.236068 2.351141 -8.75
      vertex 3.564026 1.815962 -1.25
      vertex 3.564026 1.815962 -8.75
    endloop
  endfacet
  facet normal 0 0 -1
    outer loop
      vertex 3.564026 -1.815962 -1.25
      vertex 3.8042262 -1.236068 -1.25
      vertex 3.631924 -7.128052 -1.25
    endloop
  endfacet
  facet normal 0.92387944 -0.38268358 0
    outer loop
      vertex 3.564026 -1.815962 -1.25
      vertex 3.8042262 -1.236068 -8.75
      vertex 3.8042262 -1.236068 -1.25
    endloop
  endfacet
  facet normal 0 0 -1
    outer loop
      vertex 3.564026 -1.815962 -8.75
      vertex 3.564026 1.815962 -8.75
      vertex 3.8042262 1.236068 -8.75
    endloop
  endfacet
  facet normal 0.92387944 -0.38268358 0
    outer loop
      vertex 3.564026 -1.815962 -8.75
      vertex 3.8042262 -1.236068 -8.75
      vertex 3.564026 -1.815962 -1.25
    endloop
  endfacet
  facet normal 0 0 -1
    outer loop
      vertex 3.564026 -1.815962 -8.75
      vertex 3.8042262 1.236068 -8.75
      vertex 3.8042262 -1.236068 -8.75
    endloop
  endfacet
  facet normal 0 0 -1
    outer loop
      vertex 3.564026 1.815962 -1.25
      vertex 3.631924 7.128052 -1.25
      vertex 4.702282 6.472136 -1.25
    endloop
  endfacet
  facet normal 0 0 -1
    outer loop
      vertex 3.564026 1.815962 -1.25
      vertex 4.702282 6.472136 -1.25
      vertex 3.8042262 1.236068 -1.25
    endloop
  endfacet
  facet normal 0.92387944 0.38268358 0
    outer loop
      vertex 3.564026 1.815962 -8.75
      vertex 3.564026 1.815962 -1.25
      vertex 3.8042262 1.236068 -1.25
    endloop
  endfacet
  facet normal 0.92387944 0.38268358 0
    outer loop
      vertex 3.564026 1.815962 -8.75
      vertex 3.8042262 1.236068 -1.25
      vertex 3.8042262 1.236068 -8.75
    endloop
  endfacet
  facet normal 0 0 -1
    outer loop
      vertex 3.631924 -7.128052 -1.25
      vertex 3.8042262 -1.236068 -1.25
      vertex 3.9507535 -0.62573785 -1.25
    endloop
  endfacet
  facet normal 0 0 -1
    outer loop
      vertex 3.631924 -7.128052 -1.25
      vertex 3.9507535 -0.62573785 -1.25
      vertex 4.702282 6.472136 -1.25
    endloop
  endfacet
  facet normal 0.52249855 -0.85264015 0
    outer loop
      vertex 3.631924 -7.128052 -1.25
      vertex 4.702282 -6.472136 -1.25
      vertex 4.702282 -6.472136 1.25
    endloop
  endfacet
  facet normal 0.52249855 -0.85264015 0
    outer loop
      vertex 3.631924 -7.128052 -1.25
      vertex 4.702282 -6.472136 1.25
      vertex 3.631924 -7.128052 1.25
    endloop
  endfacet
  facet normal 0 0 -1
    outer loop
      vertex 3.631924 -7.128052 -1.25
      vertex 4.702282 6.472136 -1.25
      vertex 4.702282 -6.472136 -1.25
    endloop
  endfacet
  facet normal 0 0 1
    outer loop
      vertex 3.631924 -7.128052 1.25
      vertex 4.702282 -6.472136 1.25
      vertex 3.631924 7.128052 1.25
    endloop
  endfacet
  facet normal 0.52249855 0.85264015 0
    outer loop
      vertex 3.631924 7.128052 -1.25
      vertex 3.631924 7.128052 1.25
      vertex 4.702282 6.472136 -1.25
    endloop
  endfacet
  facet normal 0 0 1
    outer loop
      vertex 3.631924 7.128052 1.25
      vertex 4.702282 -6.472136 1.25
      vertex 4.702282 6.472136 1.25
    endloop
  endfacet
  facet normal 0.52249855 0.85264015 0
    outer loop
      vertex 3.631924 7.128052 1.25
      vertex 4.702282 6.472136 1.25
      vertex 4.702282 6.472136 -1.25
    endloop
  endfacet
  facet normal 0.9723699 -0.23344533 0
    outer loop
      vertex 3.8042262 -1.236068 -1.25
      vertex 3.9507535 -0.62573785 -8.75
      vertex 3.9507535 -0.62573785 -1.25
    endloop
  endfacet
  facet normal 0 0 -1
    outer loop
      vertex 3.8042262 -1.236068 -8.75
      vertex 3.8042262 1.236068 -8.75
      vertex 3.9507535 0.62573785 -8.75
    endloop
  endfacet
  facet normal 0.9723699 -0.23344533 0
    outer loop
      vertex 3.8042262 -1.236068 -8.75
      vertex 3.9507535 -0.62573785 -8.75
      vertex 3.8042262 -1.236068 -1.25
    endloop
  endfacet
  facet normal 0 0 -1
    outer loop
      vertex 3.8042262 -1.236068 -8.75
      vertex 3.9507535 0.62573785 -8.75
      vertex 3.9507535 -0.62573785 -8.75
    endloop
  endfacet
  facet normal 0 0 -1
    outer loop
      vertex 3.8042262 1.236068 -1.25
      vertex 4.702282 6.472136 -1.25
      vertex 3.9507535 0.62573785 -1.25
    endloop
  endfacet
  facet normal 0.9723699 0.23344533 0
    outer loop
      vertex 3.8042262 1.236068 -8.75
      vertex 3.8042262 1.236068 -1.25
      vertex 3.9507535 0.62573785 -1.25
    endloop
  endfacet
  facet normal 0.9723699 0.23344533 0
    outer loop
      vertex 3.8042262 1.236068 -8.75
      vertex 3.9507535 0.62573785 -1.25
      vertex 3.9507535 0.62573785 -8.75
    endloop
  endfacet
  facet normal 0 0 -1
    outer loop
      vertex 3.9507535 -0.62573785 -1.25
      vertex 4 0 -1.25
      vertex 4.702282 6.472136 -1.25
    endloop
  endfacet
  facet normal 0.99691737 -0.07845896 0
    outer loop
      vertex 3.9507535 -0.62573785 -1.25
      vertex 4 0 -8.75
      vertex 4 0 -1.25
    endloop
  endfacet
  facet normal 0 0 -1
    outer loop
      vertex 3.9507535 -0.62573785 -8.75
      vertex 3.9507535 0.62573785 -8.75
      vertex 4 0 -8.75
    endloop
  endfacet
  facet normal 0.99691737 -0.07845896 0
    outer loop
      vertex 3.9507535 -0.62573785 -8.75
      vertex 4 0 -8.75
      vertex 3.9507535 -0.62573785 -1.25
    endloop
  endfacet
  facet normal 0 0 -1
    outer loop
      vertex 3.9507535 0.62573785 -1.25
      vertex 4.702282 6.472136 -1.25
      vertex 4 0 -1.25
    endloop
  endfacet
  facet normal 0.99691737 0.07845896 0
    outer loop
      vertex 3.9507535 0.62573785 -8.75
      vertex 3.9507535 0.62573785 -1.25
      vertex 4 0 -1.25
    endloop
  endfacet
  facet normal 0.99691737 0.07845896 0
    outer loop
      vertex 3.9507535 0.62573785 -8.75
      vertex 4 0 -1.25
      vertex 4 0 -8.75
    endloop
  endfacet
  facet normal 0 0 -1
    outer loop
      vertex 4.702282 -6.472136 -1.25
      vertex 4.702282 6.472136 -1.25
      vertex 5.656854 5.656854 -1.25
    endloop
  endfacet
  facet normal 0.64944816 -0.7604059 0
    outer loop
      vertex 4.702282 -6.472136 -1.25
      vertex 5.656854 -5.656854 -1.25
      vertex 5.656854 -5.656854 1.25
    endloop
  endfacet
  facet normal 0.64944816 -0.7604059 0
    outer loop
      vertex 4.702282 -6.472136 -1.25
      vertex 5.656854 -5.656854 1.25
      vertex 4.702282 -6.472136 1.25
    endloop
  endfacet
  facet normal 0 0 -1
    outer loop
      vertex 4.702282 -6.472136 -1.25
      vertex 5.656854 5.656854 -1.25
      vertex 5.656854 -5.656854 -1.25
    endloop
  endfacet
  facet normal 0 0 1
    outer loop
      vertex 4.702282 -6.472136 1.25
      vertex 5.656854 -5.656854 1.25
      vertex 4.702282 6.472136 1.25
    endloop
  endfacet
  facet normal 0.64944816 0.7604059 0
    outer loop
      vertex 4.702282 6.472136 -1.25
      vertex 4.702282 6.472136 1.25
      vertex 5.656854 5.656854 -1.25
    endloop
  endfacet
  facet normal 0 0 1
    outer loop
      vertex 4.702282 6.472136 1.25
      vertex 5.656854 -5.656854 1.25
      vertex 5.656854 5.656854 1.25
    endloop
  endfacet
  facet normal 0.64944816 0.7604059 0
    outer loop
      vertex 4.702282 6.472136 1.25
      vertex 5.656854 5.656854 1.25
      vertex 5.656854 5.656854 -1.25
    endloop
  endfacet
  facet normal 0 0 -1
    outer loop
      vertex 5.656854 -5.656854 -1.25
      vertex 5.656854 5.656854 -1.25
      vertex 6.472136 4.702282 -1.25
    endloop
  endfacet
  facet normal 0.7604059 -0.64944816 0
    outer loop
      vertex 5.656854 -5.656854 -1.25
      vertex 6.472136 -4.702282 -1.25
      vertex 5.656854 -5.656854 1.25
    endloop
  endfacet
  facet normal 0 0 -1
    outer loop
      vertex 5.656854 -5.656854 -1.25
      vertex 6.472136 4.702282 -1.25
      vertex 6.472136 -4.702282 -1.25
    endloop
  endfacet
  facet normal 0.7604059 -0.64944816 0
    outer loop
      vertex 5.656854 -5.656854 1.25
      vertex 6.472136 -4.702282 -1.25
      vertex 6.472136 -4.702282 1.25
    endloop
  endfacet
  facet normal 0 0 1
    outer loop
      vertex 5.656854 -5.656854 1.25
      vertex 6.472136 -4.702282 1.25
      vertex 5.656854 5.656854 1.25
    endloop
  endfacet
  facet normal 0.7604059 0.64944816 0
    outer loop
      vertex 5.656854 5.656854 -1.25
      vertex 5.656854 5.656854 1.25
      vertex 6.472136 4.702282 1.25
    endloop
  endfacet
  facet normal 0.7604059 0.64944816 0
    outer loop
      vertex 5.656854 5.656854 -1.25
      vertex 6.472136 4.702282 1.25
      vertex 6.472136 4.702282 -1.25
    endloop
  endfacet
  facet normal 0 0 1
    outer loop
      vertex 5.656854 5.656854 1.25
      vertex 6.472136 -4.702282 1.25
      vertex 6.472136 4.702282 1.25
    endloop
  endfacet
  facet normal 0 0 -1
    outer loop
      vertex 6.472136 -4.702282 -1.25
      vertex 6.472136 4.702282 -1.25
      vertex 7.128052 3.631924 -1.25
    endloop
  endfacet
  facet normal 0.85264015 -0.52249855 0
    outer loop
      vertex 6.472136 -4.702282 -1.25
      vertex 7.128052 -3.631924 -1.25
      vertex 6.472136 -4.702282 1.25
    endloop
  endfacet
  facet normal 0 0 -1
    outer loop
      vertex 6.472136 -4.702282 -1.25
      vertex 7.128052 3.631924 -1.25
      vertex 7.128052 -3.631924 -1.25
    endloop
  endfacet
  facet normal 0.85264015 -0.52249855 0
    outer loop
      vertex 6.472136 -4.702282 1.25
      vertex 7.128052 -3.631924 -1.25
      vertex 7.128052 -3.631924 1.25
    endloop
  endfacet
  facet normal 0 0 1
    outer loop
      vertex 6.472136 -4.702282 1.25
      vertex 7.128052 -3.631924 1.25
      vertex 6.472136 4.702282 1.25
    endloop
  endfacet
  facet normal 0.85264015 0.52249855 0
    outer loop
      vertex 6.472136 4.702282 -1.25
      vertex 6.472136 4.702282 1.25
      vertex 7.128052 3.631924 1.25
    endloop
  endfacet
  facet normal 0.85264015 0.52249855 0
    outer loop
      vertex 6.472136 4.702282 -1.25
      vertex 7.128052 3.631924 1.25
      vertex 7.128052 3.631924 -1.25
    endloop
  endfacet
  facet normal 0 0 1
    outer loop
      vertex 6.472136 4.702282 1.25
      vertex 7.128052 -3.631924 1.25
      vertex 7.128052 3.631924 1.25
    endloop
  endfacet
  facet normal 0 0 -1
    outer loop
      vertex 7.128052 -3.631924 -1.25
      vertex 7.128052 3.631924 -1.25
      vertex 7.6084523 2.472136 -1.25
    endloop
  endfacet
  facet normal 0.92387944 -0.38268358 0
    outer loop
      vertex 7.128052 -3.631924 -1.25
      vertex 7.6084523 -2.472136 -1.25
      vertex 7.128052 -3.631924 1.25
    endloop
  endfacet
  facet normal 0 0 -1
    outer loop
      vertex 7.128052 -3.631924 -1.25
      vertex 7.6084523 2.472136 -1.25
      vertex 7.6084523 -2.472136 -1.25
    endloop
  endfacet
  facet normal 0.92387944 -0.38268358 0
    outer loop
      vertex 7.128052 -3.631924 1.25
      vertex 7.6084523 -2.472136 -1.25
      vertex 7.6084523 -2.472136 1.25
    endloop
  endfacet
  facet normal 0 0 1
    outer loop
      vertex 7.128052 -3.631924 1.25
      vertex 7.6084523 -2.472136 1.25
      vertex 7.128052 3.631924 1.25
    endloop
  endfacet
  facet normal 0.92387944 0.38268358 0
    outer loop
      vertex 7.128052 3.631924 -1.25
      vertex 7.128052 3.631924 1.25
      vertex 7.6084523 2.472136 1.25
    endloop
  endfacet
  facet normal 0.92387944 0.38268358 0
    outer loop
      vertex 7.128052 3.631924 -1.25
      vertex 7.6084523 2.472136 1.25
      vertex 7.6084523 2.472136 -1.25
    endloop
  endfacet
  facet normal 0 0 1
    outer loop
      vertex 7.128052 3.631924 1.25
      vertex 7.6084523 -2.472136 1.25
      vertex 7.6084523 2.472136 1.25
    endloop
  endfacet
  facet normal 0 0 -1
    outer loop
      vertex 7.6084523 -2.472136 -1.25
      vertex 7.6084523 2.472136 -1.25
      vertex 7.901507 1.2514757 -1.25
    endloop
  endfacet
  facet normal 0.9723699 -0.23344533 0
    outer loop
      vertex 7.6084523 -2.472136 -1.25
      vertex 7.901507 -1.2514757 -1.25
      vertex 7.6084523 -2.472136 1.25
    endloop
  endfacet
  facet normal 0 0 -1
    outer loop
      vertex 7.6084523 -2.472136 -1.25
      vertex 7.901507 1.2514757 -1.25
      vertex 7.901507 -1.2514757 -1.25
    endloop
  endfacet
  facet normal 0.9723699 -0.23344533 0
    outer loop
      vertex 7.6084523 -2.472136 1.25
      vertex 7.901507 -1.2514757 -1.25
      vertex 7.901507 -1.2514757 1.25
    endloop
  endfacet
  facet normal 0 0 1
    outer loop
      vertex 7.6084523 -2.472136 1.25
      vertex 7.901507 -1.2514757 1.25
      vertex 7.6084523 2.472136 1.25
    endloop
  endfacet
  facet normal 0.9723699 0.23344533 0
    outer loop
      vertex 7.6084523 2.472136 -1.25
      vertex 7.6084523 2.472136 1.25
      vertex 7.901507 1.2514757 1.25
    endloop
  endfacet
  facet normal 0.9723699 0.23344533 0
    outer loop
      vertex 7.6084523 2.472136 -1.25
      vertex 7.901507 1.2514757 1.25
      vertex 7.901507 1.2514757 -1.25
    endloop
  endfacet
  facet normal 0 0 1
    outer loop
      vertex 7.6084523 2.472136 1.25
      vertex 7.901507 -1.2514757 1.25
      vertex 7.901507 1.2514757 1.25
    endloop
  endfacet
  facet normal 0 0 -1
    outer loop
      vertex 7.901507 -1.2514757 -1.25
      vertex 7.901507 1.2514757 -1.25
      vertex 8 0 -1.25
    endloop
  endfacet
  facet normal 0.99691737 -0.07845896 0
    outer loop
      vertex 7.901507 -1.2514757 -1.25
      vertex 8 0 -1.25
      vertex 7.901507 -1.2514757 1.25
    endloop
  endfacet
  facet normal 0.99691737 -0.07845896 0
    outer loop
      vertex 7.901507 -1.2514757 1.25
      vertex 8 0 -1.25
      vertex 8 0 1.25
    endloop
  endfacet
  facet normal 0 0 1
    outer loop
      vertex 7.901507 -1.2514757 1.25
      vertex 8 0 1.25
      vertex 7.901507 1.2514757 1.25
    endloop
  endfacet
  facet normal 0.99691737 0.07845896 0
    outer loop
      vertex 7.901507 1.2514757 -1.25
      vertex 7.901507 1.2514757 1.25
      vertex 8 0 1.25
    endloop
  endfacet
  facet normal 0.99691737 0.07845896 0
    outer loop
      vertex 7.901507 1.2514757 -1.25
      vertex 8 0 1.25
      vertex 8 0 -1.25
    endloop
  endfacet
endsolid OpenSCAD_Model
