<?xml version="1.0" standalone="no"?>
<!DOCTYPE svg PUBLIC "-//W3C//DTD SVG 1.1//EN" "http://www.w3.org/Graphics/SVG/1.1/DTD/svg11.dtd">
<svg width="291mm" height="226mm" viewBox="-108 -113 291 226" xmlns="http://www.w3.org/2000/svg" version="1.1">
<title>OpenSCAD Model</title>
<path d="
M -4.74559,-65.6808 L 11.7544,-65.6808 L 11.7544,-109.706 L -4.74559,-109.706 L -4.74559,-112.868 L -35.7456,-112.868
 L -35.7456,-109.706 L -54.1581,-109.706 L -54.1581,-96.2933 L -57.2456,-96.2933 L -57.2456,-79.0933 L -54.1581,-79.0933
 L -54.1581,-65.6808 L -35.7456,-65.6808 L -35.7456,-62.5183 L -4.74559,-62.5183 z
M 41.0453,54.9452 L 42.0791,54.7815 L 43.0901,54.5106 L 44.0674,54.1355 L 45,53.6602 L 45.8778,53.0902
 L 46.6913,52.4314 L 47.4314,51.6913 L 48.0901,50.8778 L 48.6602,50 L 49.1354,49.0674 L 49.5106,48.0902
 L 49.7814,47.0791 L 49.9452,46.0453 L 50,45 L 50,6.34322 L 49.4658,6.38057 L 46.3275,6.27098
 L 43.2179,5.83395 L 40.171,5.07428 L 37.2203,4.00029 L 34.3979,2.62373 L 31.7349,0.959702 L 29.2604,-0.973557
 L 27.0016,-3.15489 L 24.9831,-5.56039 L 23.2272,-8.16368 L 21.753,-10.9363 L 20.5766,-13.8478 L 19.7111,-16.8663
 L 19.6989,-16.9357 L 19.5417,-16.8722 L 18.7367,-16.6414 L 17.9121,-16.4959 L 17.0767,-16.4375 L 16.2399,-16.4668
 L 15.4106,-16.5833 L 14.5981,-16.7859 L 13.8113,-17.0723 L 13.0586,-17.4394 L 12.3485,-17.8831 L 11.6886,-18.3986
 L 11.0863,-18.9803 L 10.548,-19.6218 L 10.0798,-20.316 L 9.68663,-21.0554 L 9.37296,-21.8318 L 9.14215,-22.6367
 L 8.99673,-23.4614 L 8.93832,-24.2967 L 8.96754,-25.1335 L 9.08409,-25.9628 L 9.28667,-26.7753 L 9.57307,-27.5621
 L 9.94016,-28.3148 L 10.3839,-29.0249 L 10.8994,-29.6848 L 11.4811,-30.2871 L 12.1226,-30.8254 L 12.8168,-31.2936
 L 13.5562,-31.6868 L 14.3326,-32.0005 L 15.1375,-32.2313 L 15.9622,-32.3767 L 16.7975,-32.4351 L 17.6344,-32.4059
 L 18.4636,-32.2893 L 19.2761,-32.0867 L 20.063,-31.8003 L 20.1022,-31.7812 L 20.253,-32.386 L 21.327,-35.3368
 L 22.7036,-38.1591 L 24.3676,-40.8221 L 26.3009,-43.2966 L 28.4822,-45.5555 L 28.9127,-45.9167 L 28.599,-46.5067
 L 28.0109,-47.9624 L 27.5781,-49.4717 L 27.3055,-51.0179 L 27.1959,-52.5842 L 27.2507,-54.1533 L 27.3697,-55
 L -40,-55 L -41.0453,-54.9452 L -42.0791,-54.7815 L -43.0901,-54.5106 L -44.0674,-54.1355 L -45,-53.6602
 L -45.8778,-53.0902 L -46.6913,-52.4314 L -47.4314,-51.6913 L -48.0901,-50.8778 L -48.6602,-50 L -49.1354,-49.0674
 L -49.5106,-48.0902 L -49.7814,-47.0791 L -49.9452,-46.0453 L -50,-45 L -50,45 L -49.9452,46.0453
 L -49.7815,47.0791 L -49.5105,48.0902 L -49.1354,49.0674 L -48.6602,50 L -48.0902,50.8778 L -47.4314,51.6913
 L -46.6913,52.4314 L -45.8778,53.0901 L -45,53.6602 L -44.0674,54.1354 L -43.0901,54.5105 L -42.0791,54.7815
 L -41.0453,54.9452 L -40,55 L 40,55 z
M -24.5739,-46.6065 L -24.5739,-49.7815 L 6.42613,-49.7815 L 6.42613,-46.6065 z
M -46.2594,-27.8971 L -46.2594,-49.6471 L -43.0844,-49.6471 L -43.0844,-27.8971 z
M -33.0027,-10.2968 L -33.0027,-34.2968 L -14.3015,-34.2968 L -14.4713,-34.5486 L -14.6433,-34.872 L -14.7805,-35.2117
 L -14.8815,-35.5639 L -14.9451,-35.9247 L -14.9707,-36.2901 L -14.9579,-36.6562 L -14.9069,-37.019 L -14.8183,-37.3745
 L -14.693,-37.7188 L -14.5324,-38.048 L -14.3383,-38.3587 L -14.1127,-38.6474 L -13.8582,-38.9109 L -13.5776,-39.1464
 L -13.2739,-39.3513 L -12.9504,-39.5233 L -12.6107,-39.6605 L -12.2586,-39.7615 L -11.8978,-39.8251 L -11.5323,-39.8507
 L -11.1662,-39.8379 L -10.8034,-39.7869 L -10.4479,-39.6983 L -10.1037,-39.573 L -9.7744,-39.4124 L -9.46371,-39.2182
 L -9.17502,-38.9927 L -8.91151,-38.7382 L -8.67603,-38.4576 L -8.47116,-38.1538 L -8.29918,-37.8304 L -8.16193,-37.4907
 L -8.06094,-37.1385 L -7.99733,-36.7777 L -7.97179,-36.4123 L -7.98457,-36.0462 L -8.03555,-35.6834 L -8.12418,-35.3279
 L -8.24947,-34.9836 L -8.41006,-34.6544 L -8.6042,-34.3437 L -8.64085,-34.2968 L -5.00272,-34.2968 L -5.00272,-10.2968
 z
M -46.2594,12.1029 L -46.2594,-7.89709 L -43.0844,-7.89709 L -43.0844,12.1029 z
M 9.64082,9.01192 L 9.42834,8.98204 L 9.22014,8.93013 L 9.01849,8.85675 L 8.82565,8.76268 L 8.64368,8.64897
 L 8.47458,8.51686 L 8.32022,8.36781 L 8.1823,8.20343 L 8.0623,8.02554 L 7.96158,7.83607 L 7.8812,7.63713
 L 7.82205,7.43086 L 7.78479,7.21954 L 7.76982,7.00549 L 7.7773,6.79103 L 7.80717,6.57855 L 7.85909,6.37035
 L 7.93246,6.1687 L 8.02654,5.97586 L 8.14024,5.79388 L 8.27234,5.62479 L 8.4214,5.47043 L 8.58578,5.3325
 L 8.76367,5.21251 L 8.95314,5.11179 L 9.15208,5.0314 L 9.35837,4.97226 L 9.56967,4.935 L 9.78372,4.92003
 L 9.99818,4.92751 L 10.2107,4.95738 L 10.4189,5.00928 L 10.6205,5.08267 L 10.8134,5.17674 L 10.9953,5.29045
 L 11.1644,5.42255 L 11.3188,5.57161 L 11.4567,5.73599 L 11.5767,5.91388 L 11.6774,6.10335 L 11.7578,6.30229
 L 11.817,6.50856 L 11.8542,6.71988 L 11.8692,6.93393 L 11.8617,7.14838 L 11.8318,7.36087 L 11.7799,7.56908
 L 11.7065,7.77071 L 11.6125,7.96356 L 11.4988,8.14554 L 11.3667,8.31464 L 11.2176,8.46898 L 11.0532,8.6069
 L 10.8753,8.7269 L 10.6859,8.82764 L 10.4869,8.90802 L 10.2807,8.96716 L 10.0693,9.00443 L 9.85529,9.01939
 z
M -33.0643,28.7892 L -33.4261,28.7319 L -33.78,28.637 L -34.122,28.5058 L -34.4484,28.3394 L -34.7556,28.1399
 L -35.0404,27.9093 L -35.2994,27.6503 L -35.53,27.3656 L -35.7295,27.0583 L -35.8958,26.7319 L -36.0271,26.3899
 L -36.1219,26.036 L -36.1792,25.6742 L -36.1984,25.3083 L -36.1792,24.9425 L -36.1219,24.5807 L -36.0271,24.2268
 L -35.8958,23.8848 L -35.7295,23.5583 L -35.53,23.2511 L -35.2994,22.9664 L -35.0404,22.7073 L -34.7556,22.4768
 L -34.4484,22.2773 L -34.122,22.1109 L -33.78,21.9796 L -33.4261,21.8848 L -33.0642,21.8275 L -32.6984,21.8083
 L -32.3326,21.8275 L -31.9707,21.8848 L -31.6168,21.9796 L -31.2748,22.1109 L -30.9484,22.2773 L -30.6411,22.4768
 L -30.3564,22.7073 L -30.0974,22.9664 L -29.8668,23.2511 L -29.6673,23.5583 L -29.501,23.8848 L -29.3697,24.2268
 L -29.2749,24.5806 L -29.2176,24.9425 L -29.1984,25.3083 L -29.2176,25.6742 L -29.2749,26.036 L -29.3697,26.3899
 L -29.501,26.7319 L -29.6673,27.0583 L -29.8668,27.3656 L -30.0974,27.6503 L -30.3564,27.9093 L -30.6411,28.1399
 L -30.9484,28.3394 L -31.2748,28.5058 L -31.6168,28.637 L -31.9707,28.7319 L -32.3326,28.7892 L -32.6984,28.8083
 z
M -19.0642,28.7892 L -19.4261,28.7319 L -19.78,28.637 L -20.122,28.5058 L -20.4484,28.3394 L -20.7556,28.1399
 L -21.0404,27.9093 L -21.2994,27.6503 L -21.53,27.3656 L -21.7295,27.0583 L -21.8958,26.7319 L -22.0271,26.3899
 L -22.1219,26.036 L -22.1792,25.6742 L -22.1984,25.3083 L -22.1792,24.9425 L -22.1219,24.5806 L -22.0271,24.2268
 L -21.8958,23.8848 L -21.7295,23.5583 L -21.53,23.2511 L -21.2994,22.9664 L -21.0404,22.7073 L -20.7556,22.4768
 L -20.4484,22.2773 L -20.122,22.1109 L -19.78,21.9796 L -19.4261,21.8848 L -19.0642,21.8275 L -18.6984,21.8083
 L -18.3325,21.8275 L -17.9707,21.8848 L -17.6168,21.9796 L -17.2748,22.1109 L -16.9484,22.2773 L -16.6412,22.4768
 L -16.3564,22.7073 L -16.0974,22.9664 L -15.8668,23.2511 L -15.6673,23.5583 L -15.501,23.8848 L -15.3697,24.2268
 L -15.2749,24.5807 L -15.2176,24.9425 L -15.1984,25.3083 L -15.2176,25.6742 L -15.2749,26.036 L -15.3697,26.3899
 L -15.501,26.7319 L -15.6673,27.0583 L -15.8668,27.3656 L -16.0974,27.6503 L -16.3564,27.9093 L -16.6411,28.1399
 L -16.9484,28.3394 L -17.2748,28.5058 L -17.6168,28.637 L -17.9707,28.7319 L -18.3326,28.7892 L -18.6984,28.8083
 z
M -6.06424,28.7892 L -6.42609,28.7319 L -6.77995,28.6371 L -7.12198,28.5058 L -7.44839,28.3394 L -7.75565,28.1399
 L -8.04036,27.9094 L -8.29939,27.6503 L -8.52995,27.3656 L -8.72948,27.0583 L -8.8958,26.7319 L -9.0271,26.3899
 L -9.12192,26.036 L -9.17923,25.6742 L -9.19839,25.3083 L -9.17923,24.9425 L -9.12192,24.5806 L -9.02708,24.2268
 L -8.89581,23.8848 L -8.72949,23.5583 L -8.52995,23.2511 L -8.29939,22.9664 L -8.04034,22.7073 L -7.75565,22.4768
 L -7.44839,22.2773 L -7.12198,22.1109 L -6.77995,21.9796 L -6.42609,21.8848 L -6.06425,21.8275 L -5.69839,21.8083
 L -5.33255,21.8275 L -4.9707,21.8848 L -4.61684,21.9796 L -4.27483,22.1109 L -3.94839,22.2773 L -3.64114,22.4768
 L -3.35645,22.7073 L -3.0974,22.9664 L -2.86684,23.2511 L -2.6673,23.5583 L -2.50099,23.8848 L -2.36971,24.2268
 L -2.27489,24.5807 L -2.21756,24.9425 L -2.19841,25.3083 L -2.21756,25.6742 L -2.27487,26.036 L -2.36971,26.3899
 L -2.50099,26.7319 L -2.66731,27.0583 L -2.86684,27.3656 L -3.09738,27.6503 L -3.35645,27.9093 L -3.64114,28.1399
 L -3.94839,28.3394 L -4.27483,28.5058 L -4.61684,28.637 L -4.9707,28.7319 L -5.33255,28.7892 L -5.69839,28.8083
 z
M -46.2594,50.3529 L -46.2594,32.1029 L -43.0844,32.1029 L -43.0844,50.3529 z
M -18.2153,41.4896 L -18.578,41.4386 L -18.9335,41.35 L -19.2778,41.2247 L -19.6071,41.0641 L -19.9177,40.8699
 L -20.2064,40.6444 L -20.47,40.3899 L -20.7054,40.1093 L -20.9103,39.8056 L -21.0823,39.4821 L -21.2195,39.1424
 L -21.3205,38.7903 L -21.3841,38.4295 L -21.4097,38.064 L -21.3969,37.6979 L -21.3459,37.3351 L -21.2573,36.9796
 L -21.132,36.6354 L -20.9714,36.3061 L -20.7773,35.9954 L -20.5517,35.7067 L -20.2972,35.4432 L -20.0166,35.2077
 L -19.7129,35.0028 L -19.3894,34.8308 L -19.0497,34.6936 L -18.6976,34.5926 L -18.3368,34.529 L -17.9713,34.5035
 L -17.6052,34.5162 L -17.2424,34.5672 L -16.8869,34.6559 L -16.5427,34.7811 L -16.2134,34.9418 L -15.9027,35.1359
 L -15.614,35.3615 L -15.3505,35.6159 L -15.115,35.8966 L -14.9101,36.2003 L -14.7381,36.5238 L -14.6009,36.8634
 L -14.4999,37.2156 L -14.4363,37.5764 L -14.4108,37.9418 L -14.4235,38.308 L -14.4745,38.6707 L -14.5632,39.0262
 L -14.6884,39.3705 L -14.8491,39.6998 L -15.0432,40.0104 L -15.2687,40.2991 L -15.5232,40.5627 L -15.8039,40.7981
 L -16.1076,41.003 L -16.4311,41.175 L -16.7707,41.3122 L -17.1229,41.4132 L -17.4837,41.4768 L -17.8492,41.5024
 z
M -28.8133,47.2081 L 6.18666,47.2081 L 6.18665,50.3831 L -28.8133,50.3831 z
M 174.382,57.0493 L 175.907,56.683 L 177.357,56.0825 L 178.695,55.2626 L 179.888,54.2435 L 180.907,53.0503
 L 181.727,51.7123 L 182.328,50.2626 L 182.694,48.7368 L 182.817,47.1724 L 182.817,43.9126 L 162.254,-52.8275
 L 62.8172,-52.8276 L 61.2529,-52.7044 L 59.727,-52.3381 L 58.2773,-51.7376 L 56.9393,-50.9177 L 55.7461,-49.8986
 L 54.727,-48.7054 L 53.9071,-47.3675 L 53.3066,-45.9177 L 52.9403,-44.3919 L 52.8172,-42.8275 L 52.8172,47.1724
 L 52.9403,48.7368 L 53.3066,50.2626 L 53.9071,51.7123 L 54.727,53.0503 L 55.7461,54.2435 L 56.9393,55.2626
 L 58.2773,56.0825 L 59.727,56.683 L 61.2528,57.0493 L 62.8172,57.1724 L 172.817,57.1724 z
M 80.4261,-46.6065 L 80.4261,-49.7815 L 111.426,-49.7815 L 111.426,-46.6065 z
M 58.7406,-27.8971 L 58.7406,-49.6471 L 61.9156,-49.6471 L 61.9156,-27.8971 z
M 134.005,-44.2332 L 133.61,-44.2992 L 133.231,-44.4262 L 132.876,-44.611 L 132.554,-44.849 L 132.274,-45.1344
 L 132.042,-45.4602 L 131.863,-45.8183 L 131.743,-46.1999 L 131.684,-46.5956 L 131.687,-46.9958 L 131.753,-47.3904
 L 131.88,-47.7699 L 132.065,-48.1248 L 132.303,-48.4465 L 132.588,-48.7269 L 132.914,-48.9593 L 133.272,-49.1378
 L 133.654,-49.2581 L 134.049,-49.3173 L 134.45,-49.3138 L 134.844,-49.2478 L 135.224,-49.1208 L 135.579,-48.936
 L 135.9,-48.698 L 136.181,-48.4126 L 136.413,-48.0869 L 136.592,-47.7287 L 136.712,-47.3471 L 136.771,-46.9514
 L 136.768,-46.5513 L 136.702,-46.1566 L 136.575,-45.7771 L 136.39,-45.4222 L 136.152,-45.1006 L 135.866,-44.8201
 L 135.541,-44.5877 L 135.183,-44.4092 L 134.801,-44.2889 L 134.405,-44.2297 z
M 153.173,-38.5448 L 152.477,-38.6613 L 151.807,-38.8854 L 151.181,-39.2114 L 150.613,-39.6315 L 150.118,-40.1351
 L 149.708,-40.71 L 149.393,-41.3419 L 149.181,-42.0154 L 149.077,-42.7138 L 149.083,-43.4199 L 149.199,-44.1163
 L 149.423,-44.786 L 149.749,-45.4123 L 150.169,-45.9799 L 150.673,-46.4749 L 151.248,-46.8849 L 151.88,-47.2
 L 152.553,-47.4123 L 153.252,-47.5167 L 153.958,-47.5105 L 154.654,-47.394 L 155.324,-47.1699 L 155.95,-46.8439
 L 156.518,-46.4239 L 157.013,-45.9202 L 157.423,-45.3453 L 157.738,-44.7134 L 157.95,-44.0399 L 158.055,-43.3416
 L 158.048,-42.6355 L 157.932,-41.939 L 157.708,-41.2694 L 157.382,-40.643 L 156.962,-40.0754 L 156.458,-39.5805
 L 155.883,-39.1704 L 155.251,-38.8553 L 154.578,-38.643 L 153.88,-38.5386 z
M 93.1366,-31.8683 L 92.4401,-31.9849 L 91.7705,-32.2089 L 91.1441,-32.535 L 90.5765,-32.955 L 90.0816,-33.4586
 L 89.6715,-34.0335 L 89.3564,-34.6655 L 89.1441,-35.3389 L 89.0397,-36.0373 L 89.0459,-36.7434 L 89.1624,-37.4398
 L 89.3865,-38.1095 L 89.7125,-38.7358 L 90.1326,-39.3035 L 90.6362,-39.7984 L 91.2111,-40.2085 L 91.843,-40.5235
 L 92.5165,-40.7359 L 93.2148,-40.8402 L 93.9209,-40.8341 L 94.6174,-40.7175 L 95.287,-40.4935 L 95.9134,-40.1674
 L 96.481,-39.7474 L 96.9759,-39.2437 L 97.386,-38.6689 L 97.7011,-38.0369 L 97.9134,-37.3635 L 98.0178,-36.6651
 L 98.0116,-35.959 L 97.8951,-35.2625 L 97.671,-34.5929 L 97.345,-33.9666 L 96.9249,-33.3989 L 96.4213,-32.904
 L 95.8464,-32.4939 L 95.2145,-32.1789 L 94.541,-31.9665 L 93.8427,-31.8622 z
M 154.449,-13.0439 L 152.755,-13.3275 L 151.125,-13.8727 L 149.601,-14.6661 L 148.22,-15.6882 L 147.016,-16.9137
 L 146.018,-18.3126 L 145.251,-19.8503 L 144.734,-21.489 L 144.48,-23.1884 L 144.495,-24.9066 L 144.779,-26.6013
 L 145.324,-28.2308 L 146.118,-29.7549 L 147.14,-31.1361 L 148.365,-32.3404 L 149.764,-33.3382 L 151.302,-34.1049
 L 152.941,-34.6216 L 154.64,-34.8756 L 156.358,-34.8606 L 158.053,-34.577 L 159.682,-34.0318 L 161.206,-33.2384
 L 162.588,-32.2163 L 163.792,-30.9908 L 164.79,-29.5919 L 165.556,-28.0542 L 166.073,-26.4155 L 166.327,-24.7161
 L 166.312,-22.9979 L 166.028,-21.3032 L 165.483,-19.6738 L 164.69,-18.1496 L 163.668,-16.7684 L 162.442,-15.5641
 L 161.043,-14.5663 L 159.506,-13.7996 L 157.867,-13.2829 L 156.168,-13.0289 z
M 99.2971,-6.38835 L 99.2971,-31.3884 L 114.297,-31.3884 L 114.297,-6.38835 z
M 68.063,-25.6846 L 67.9286,-25.7059 L 67.7972,-25.7411 L 67.6701,-25.7899 L 67.5489,-25.8516 L 67.4348,-25.9258
 L 67.329,-26.0114 L 67.2328,-26.1076 L 67.1472,-26.2134 L 67.0731,-26.3275 L 67.0113,-26.4487 L 66.9625,-26.5758
 L 66.9273,-26.7072 L 66.906,-26.8416 L 66.8989,-26.9775 L 66.906,-27.1134 L 66.9273,-27.2478 L 66.9625,-27.3792
 L 67.0113,-27.5062 L 67.0731,-27.6275 L 67.1472,-27.7416 L 67.2328,-27.8474 L 67.329,-27.9436 L 67.4348,-28.0292
 L 67.5489,-28.1033 L 67.6701,-28.1651 L 67.7972,-28.2139 L 67.9286,-28.2491 L 68.063,-28.2704 L 68.1989,-28.2775
 L 68.3348,-28.2704 L 68.4692,-28.2491 L 68.6006,-28.2139 L 68.7276,-28.1651 L 68.8489,-28.1033 L 68.963,-28.0292
 L 69.0688,-27.9436 L 69.165,-27.8473 L 69.2506,-27.7416 L 69.3247,-27.6275 L 69.3865,-27.5062 L 69.4353,-27.3792
 L 69.4705,-27.2478 L 69.4918,-27.1134 L 69.4989,-26.9775 L 69.4918,-26.8416 L 69.4705,-26.7072 L 69.4353,-26.5758
 L 69.3865,-26.4487 L 69.3247,-26.3275 L 69.2506,-26.2133 L 69.165,-26.1076 L 69.0688,-26.0114 L 68.963,-25.9258
 L 68.8489,-25.8516 L 68.7276,-25.7899 L 68.6006,-25.7411 L 68.4692,-25.7059 L 68.3348,-25.6846 L 68.1989,-25.6775
 z
M 121.003,-22.7579 L 120.608,-22.8239 L 120.229,-22.9509 L 119.874,-23.1357 L 119.552,-23.3737 L 119.272,-23.6591
 L 119.039,-23.9849 L 118.861,-24.343 L 118.74,-24.7246 L 118.681,-25.1203 L 118.685,-25.5204 L 118.751,-25.9151
 L 118.878,-26.2946 L 119.062,-26.6495 L 119.3,-26.9712 L 119.586,-27.2516 L 119.912,-27.484 L 120.27,-27.6625
 L 120.651,-27.7828 L 121.047,-27.842 L 121.447,-27.8385 L 121.842,-27.7725 L 122.221,-27.6455 L 122.576,-27.4607
 L 122.898,-27.2227 L 123.178,-26.9373 L 123.411,-26.6115 L 123.589,-26.2534 L 123.71,-25.8718 L 123.769,-25.4761
 L 123.765,-25.076 L 123.699,-24.6813 L 123.572,-24.3018 L 123.387,-23.9469 L 123.149,-23.6252 L 122.864,-23.3448
 L 122.538,-23.1124 L 122.18,-22.9339 L 121.799,-22.8136 L 121.403,-22.7544 z
M 120.742,-8.32939 L 120.347,-8.39543 L 119.968,-8.5224 L 119.613,-8.70717 L 119.291,-8.94519 L 119.011,-9.23058
 L 118.778,-9.55635 L 118.6,-9.91444 L 118.479,-10.2961 L 118.42,-10.6918 L 118.424,-11.0919 L 118.49,-11.4866
 L 118.617,-11.8661 L 118.801,-12.221 L 119.039,-12.5426 L 119.325,-12.8231 L 119.651,-13.0555 L 120.009,-13.234
 L 120.39,-13.3543 L 120.786,-13.4135 L 121.186,-13.41 L 121.581,-13.3439 L 121.96,-13.217 L 122.315,-13.0322
 L 122.637,-12.7942 L 122.917,-12.5088 L 123.15,-12.183 L 123.328,-11.8249 L 123.449,-11.4433 L 123.508,-11.0476
 L 123.504,-10.6474 L 123.438,-10.2528 L 123.311,-9.87334 L 123.127,-9.5184 L 122.888,-9.19673 L 122.603,-8.91628
 L 122.277,-8.68391 L 121.919,-8.50537 L 121.538,-8.38506 L 121.142,-8.3259 z
M 58.7406,12.1029 L 58.7406,-7.89709 L 61.9156,-7.89709 L 61.9156,12.1029 z
M 168.751,6.24445 L 168.356,6.17842 L 167.977,6.05145 L 167.622,5.86668 L 167.3,5.62866 L 167.019,5.34326
 L 166.787,5.0175 L 166.609,4.65939 L 166.488,4.27779 L 166.429,3.88205 L 166.433,3.48192 L 166.499,3.08727
 L 166.626,2.70779 L 166.81,2.35286 L 167.048,2.0312 L 167.334,1.75073 L 167.66,1.51839 L 168.018,1.33983
 L 168.399,1.21951 L 168.795,1.16037 L 169.195,1.16386 L 169.59,1.2299 L 169.969,1.35687 L 170.324,1.54164
 L 170.646,1.77965 L 170.926,2.06505 L 171.159,2.39082 L 171.337,2.74892 L 171.458,3.13054 L 171.517,3.52628
 L 171.513,3.92639 L 171.447,4.32106 L 171.32,4.70052 L 171.135,5.05545 L 170.897,5.37711 L 170.612,5.65758
 L 170.286,5.88994 L 169.928,6.06848 L 169.546,6.1888 L 169.151,6.24796 z
M 68.063,10.8154 L 67.9286,10.7941 L 67.7972,10.7589 L 67.6701,10.7101 L 67.5489,10.6483 L 67.4348,10.5742
 L 67.329,10.4886 L 67.2328,10.3924 L 67.1472,10.2866 L 67.073,10.1725 L 67.0113,10.0513 L 66.9625,9.92421
 L 66.9273,9.79279 L 66.906,9.65839 L 66.8989,9.52249 L 66.906,9.38661 L 66.9273,9.25221 L 66.9625,9.12077
 L 67.0113,8.99374 L 67.073,8.87248 L 67.1472,8.75838 L 67.2328,8.65263 L 67.329,8.55643 L 67.4348,8.47078
 L 67.5489,8.39667 L 67.6701,8.3349 L 67.7972,8.28613 L 67.9286,8.25092 L 68.063,8.22963 L 68.1989,8.2225
 L 68.3348,8.22963 L 68.4692,8.25092 L 68.6006,8.28615 L 68.7276,8.3349 L 68.8489,8.39667 L 68.963,8.47076
 L 69.0687,8.55641 L 69.165,8.65262 L 69.2506,8.75836 L 69.3247,8.8725 L 69.3865,8.99373 L 69.4353,9.12077
 L 69.4705,9.2522 L 69.4918,9.3866 L 69.4989,9.52249 L 69.4918,9.65839 L 69.4705,9.79277 L 69.4353,9.92421
 L 69.3865,10.0513 L 69.3247,10.1725 L 69.2506,10.2866 L 69.165,10.3924 L 69.0688,10.4886 L 68.963,10.5742
 L 68.8489,10.6483 L 68.7276,10.7101 L 68.6006,10.7589 L 68.4692,10.7941 L 68.3348,10.8154 L 68.1989,10.8225
 z
M 104.563,10.8154 L 104.429,10.7941 L 104.297,10.7589 L 104.17,10.7101 L 104.049,10.6483 L 103.935,10.5742
 L 103.829,10.4886 L 103.733,10.3924 L 103.647,10.2866 L 103.573,10.1725 L 103.511,10.0513 L 103.463,9.92421
 L 103.427,9.79279 L 103.406,9.65839 L 103.399,9.52249 L 103.406,9.38661 L 103.427,9.25221 L 103.463,9.12077
 L 103.511,8.99373 L 103.573,8.8725 L 103.647,8.75838 L 103.733,8.65263 L 103.829,8.55641 L 103.935,8.47078
 L 104.049,8.39667 L 104.17,8.33488 L 104.297,8.28612 L 104.429,8.2509 L 104.563,8.22961 L 104.699,8.2225
 L 104.835,8.22961 L 104.969,8.2509 L 105.101,8.28612 L 105.228,8.33488 L 105.349,8.39667 L 105.463,8.47078
 L 105.569,8.55641 L 105.665,8.65263 L 105.751,8.75838 L 105.825,8.8725 L 105.887,8.99374 L 105.935,9.12076
 L 105.97,9.25221 L 105.992,9.38661 L 105.999,9.52249 L 105.992,9.65837 L 105.97,9.79279 L 105.935,9.92421
 L 105.886,10.0513 L 105.825,10.1725 L 105.751,10.2866 L 105.665,10.3924 L 105.569,10.4886 L 105.463,10.5742
 L 105.349,10.6483 L 105.228,10.7101 L 105.101,10.7589 L 104.969,10.7941 L 104.835,10.8154 L 104.699,10.8225
 z
M 155.298,19.1002 L 154.903,19.0341 L 154.524,18.9072 L 154.169,18.7224 L 153.847,18.4844 L 153.567,18.199
 L 153.334,17.8732 L 153.156,17.5151 L 153.035,17.1335 L 152.976,16.7378 L 152.98,16.3376 L 153.046,15.943
 L 153.173,15.5635 L 153.357,15.2086 L 153.595,14.8869 L 153.881,14.6065 L 154.207,14.3741 L 154.565,14.1956
 L 154.946,14.0753 L 155.342,14.0161 L 155.742,14.0196 L 156.137,14.0856 L 156.516,14.2126 L 156.871,14.3974
 L 157.193,14.6354 L 157.473,14.9208 L 157.706,15.2466 L 157.884,15.6046 L 158.005,15.9863 L 158.064,16.382
 L 158.06,16.7821 L 157.994,17.1768 L 157.867,17.5562 L 157.682,17.9112 L 157.444,18.2328 L 157.159,18.5133
 L 156.833,18.7457 L 156.475,18.9242 L 156.094,19.0445 L 155.698,19.1037 z
M 116.81,27.9857 L 116.415,27.9197 L 116.036,27.7927 L 115.681,27.608 L 115.359,27.37 L 115.079,27.0846
 L 114.847,26.7588 L 114.668,26.4007 L 114.548,26.0191 L 114.489,25.6233 L 114.492,25.2232 L 114.558,24.8286
 L 114.685,24.4491 L 114.87,24.0942 L 115.108,23.7725 L 115.393,23.492 L 115.719,23.2597 L 116.077,23.0811
 L 116.459,22.9608 L 116.854,22.9017 L 117.255,22.9052 L 117.649,22.9712 L 118.029,23.0982 L 118.384,23.2829
 L 118.705,23.521 L 118.986,23.8064 L 119.218,24.1321 L 119.397,24.4902 L 119.517,24.8718 L 119.576,25.2676
 L 119.573,25.6677 L 119.507,26.0624 L 119.38,26.4418 L 119.195,26.7968 L 118.957,27.1184 L 118.671,27.3989
 L 118.346,27.6312 L 117.988,27.8098 L 117.606,27.9301 L 117.21,27.9892 z
M 122.926,49.3154 L 121.611,49.0952 L 120.346,48.672 L 119.163,48.0561 L 118.091,47.2627 L 117.156,46.3114
 L 116.381,45.2255 L 115.786,44.0319 L 115.385,42.7598 L 115.188,41.4406 L 115.2,40.1069 L 115.42,38.7914
 L 115.843,37.5265 L 116.459,36.3434 L 117.252,35.2712 L 118.203,34.3363 L 119.289,33.5618 L 120.483,32.9666
 L 121.755,32.5656 L 139.294,28.5164 L 140.613,28.3193 L 141.947,28.3309 L 143.262,28.5511 L 144.527,28.9743
 L 145.71,29.5902 L 146.782,30.3836 L 147.717,31.3349 L 148.492,32.4208 L 149.087,33.6144 L 149.488,34.8865
 L 149.685,36.2057 L 149.673,37.5394 L 149.453,38.8549 L 149.03,40.1198 L 148.414,41.3029 L 147.621,42.3751
 L 146.67,43.31 L 145.584,44.0845 L 144.39,44.6797 L 143.118,45.0807 L 125.579,49.1299 L 124.26,49.327
 z
M 58.7406,50.3529 L 58.7406,32.1029 L 61.9156,32.1029 L 61.9156,50.3529 z
M 86.6976,42.4858 L 86.0011,42.3692 L 85.3315,42.1452 L 84.7051,41.8191 L 84.1375,41.3991 L 83.6426,40.8955
 L 83.2325,40.3206 L 82.9174,39.6887 L 82.7051,39.0152 L 82.6007,38.3168 L 82.6069,37.6107 L 82.7234,36.9143
 L 82.9475,36.2446 L 83.2735,35.6183 L 83.6936,35.0507 L 84.1972,34.5557 L 84.7721,34.1457 L 85.404,33.8306
 L 86.0775,33.6183 L 86.7759,33.5139 L 87.482,33.5201 L 88.1784,33.6366 L 88.8481,33.8607 L 89.4744,34.1867
 L 90.042,34.6067 L 90.537,35.1104 L 90.947,35.6853 L 91.2621,36.3172 L 91.4744,36.9906 L 91.5788,37.689
 L 91.5726,38.3951 L 91.4561,39.0916 L 91.232,39.7612 L 90.906,40.3876 L 90.4859,40.9552 L 89.9823,41.4501
 L 89.4074,41.8602 L 88.7755,42.1753 L 88.102,42.3876 L 87.4037,42.492 z
M 170.795,46.6753 L 170.099,46.5587 L 169.429,46.3347 L 168.803,46.0086 L 168.235,45.5886 L 167.74,45.0849
 L 167.33,44.5101 L 167.015,43.8781 L 166.803,43.2047 L 166.699,42.5063 L 166.705,41.8002 L 166.821,41.1037
 L 167.045,40.4341 L 167.371,39.8078 L 167.791,39.2401 L 168.295,38.7452 L 168.87,38.3352 L 169.502,38.0201
 L 170.175,37.8077 L 170.874,37.7034 L 171.58,37.7095 L 172.276,37.8261 L 172.946,38.0501 L 173.572,38.3762
 L 174.14,38.7962 L 174.635,39.2999 L 175.045,39.8747 L 175.36,40.5067 L 175.572,41.1801 L 175.677,41.8785
 L 175.67,42.5846 L 175.554,43.2811 L 175.33,43.9507 L 175.004,44.577 L 174.584,45.1447 L 174.08,45.6396
 L 173.505,46.0497 L 172.873,46.3647 L 172.2,46.5771 L 171.501,46.6814 z
M 81.1867,47.2081 L 106.187,47.2081 L 106.187,50.3831 L 81.1867,50.3831 z
M -91.5714,64.2333 L -74.0714,64.2333 L -74.0714,67.3708 L -57.6465,67.3708 L -57.6465,49.1208 L -60.8089,49.1208
 L -60.8089,48.6208 L -70.3214,48.6208 L -70.3214,33.6208 L -60.8089,33.6208 L -60.8089,29.1208 L -57.6465,29.1208
 L -57.6465,9.12083 L -60.8089,9.12083 L -60.8089,-10.8792 L -57.6465,-10.8791 L -57.6465,-32.6291 L -74.0714,-32.6292
 L -74.0714,-29.7916 L -91.5714,-29.7916 L -91.5714,-32.6292 L -107.996,-32.6291 L -107.996,-10.8792 L -104.834,-10.8792
 L -104.834,9.12083 L -107.996,9.12085 L -107.996,29.1208 L -104.834,29.1208 L -104.834,49.1208 L -107.996,49.1208
 L -107.996,67.3708 L -91.5714,67.3708 z
M 32.7456,112.868 L 32.7456,109.706 L 55.7456,109.706 L 55.7456,65.6808 L 37.7456,65.6808 L 37.7456,62.5183
 L 2.74561,62.5183 L 2.74559,65.6808 L -11.6669,65.6808 L -11.6669,79.1433 L -14.7544,79.1433 L -14.7544,96.2433
 L -11.6669,96.2433 L -11.6669,109.706 L 7.74561,109.706 L 7.74559,112.868 z
M 44.6288,89.561 L 44.0189,89.4643 L 43.4224,89.3045 L 42.8458,89.0832 L 42.2956,88.8028 L 41.7776,88.4665
 L 41.2977,88.0778 L 40.861,87.6412 L 40.4724,87.1612 L 40.136,86.6433 L 39.8557,86.093 L 39.6344,85.5165
 L 39.4745,84.92 L 39.3779,84.31 L 39.3456,83.6933 L 39.3779,83.0766 L 39.4745,82.4666 L 39.6343,81.8701
 L 39.8557,81.2935 L 40.136,80.7433 L 40.4724,80.2254 L 40.861,79.7454 L 41.2977,79.3087 L 41.7776,78.9201
 L 42.2956,78.5837 L 42.8458,78.3034 L 43.4224,78.0821 L 44.0189,77.9222 L 44.6288,77.8256 L 45.2456,77.7933
 L 45.8623,77.8256 L 46.4723,77.9222 L 47.0688,78.0821 L 47.6453,78.3034 L 48.1956,78.5837 L 48.7135,78.9201
 L 49.1935,79.3087 L 49.6301,79.7454 L 50.0188,80.2254 L 50.3551,80.7433 L 50.6355,81.2936 L 50.8568,81.8701
 L 51.0166,82.4666 L 51.1133,83.0766 L 51.1456,83.6933 L 51.1133,84.31 L 51.0166,84.92 L 50.8568,85.5165
 L 50.6355,86.093 L 50.3551,86.6433 L 50.0188,87.1612 L 49.6301,87.6412 L 49.1934,88.0778 L 48.7135,88.4665
 L 48.1956,88.8028 L 47.6453,89.0832 L 47.0688,89.3045 L 46.4722,89.4644 L 45.8623,89.561 L 45.2456,89.5933
 z
M 31.932,84.6769 L 31.6218,84.6277 L 31.3185,84.5465 L 31.0254,84.4339 L 30.7456,84.2914 L 30.4822,84.1203
 L 30.2382,83.9227 L 30.0161,83.7007 L 29.8185,83.4567 L 29.6475,83.1933 L 29.5049,82.9135 L 29.3924,82.6203
 L 29.3111,82.317 L 29.262,82.0069 L 29.2456,81.6933 L 29.262,81.3797 L 29.3111,81.0695 L 29.3924,80.7663
 L 29.5049,80.4731 L 29.6475,80.1933 L 29.8185,79.9299 L 30.0161,79.6859 L 30.2382,79.4639 L 30.4822,79.2663
 L 30.7456,79.0952 L 31.0254,78.9527 L 31.3185,78.8401 L 31.6218,78.7589 L 31.932,78.7097 L 32.2456,78.6933
 L 32.5592,78.7097 L 32.8693,78.7589 L 33.1726,78.8401 L 33.4658,78.9527 L 33.7456,79.0952 L 34.0089,79.2663
 L 34.253,79.4639 L 34.475,79.6859 L 34.6726,79.9299 L 34.8436,80.1933 L 34.9862,80.4731 L 35.0987,80.7663
 L 35.18,81.0696 L 35.2291,81.3797 L 35.2456,81.6933 L 35.2291,82.0069 L 35.18,82.317 L 35.0987,82.6204
 L 34.9862,82.9135 L 34.8436,83.1933 L 34.6726,83.4567 L 34.475,83.7007 L 34.253,83.9227 L 34.0089,84.1204
 L 33.7456,84.2914 L 33.4658,84.4339 L 33.1726,84.5465 L 32.8693,84.6277 L 32.5592,84.6769 L 32.2456,84.6933
 z
" stroke="black" fill="lightgray" stroke-width="0.5"/>
</svg>
